<?xml version="1.0" encoding="UTF-8"?>
<svg id="alert" width="30px" height="30px" viewBox="0 0 30 30" version="1.1" xmlns="http://www.w3.org/2000/svg" xmlns:xlink="http://www.w3.org/1999/xlink">
    <!-- Generator: Sketch 48.2 (47327) - http://www.bohemiancoding.com/sketch -->
    <title>Combined Shape</title>
    <desc>Created with Sketch.</desc>
    <defs></defs>
    <g id="Artboard-Copy-2" stroke="none" stroke-width="1" fill="none" fill-rule="evenodd">
        <path d="M25.40895,10.74125 L27.10895,10.74125 L27.10895,25.70925 C27.10895,27.7554914 25.4505927,29.41425 23.40495,29.41425 L4.12895,29.41425 C2.0833073,29.41425 0.42495,27.7554914 0.42495,25.70925 L0.42495,6.44425 C0.42495,4.39880796 2.08350796,2.74025 4.12895,2.74025 L19.43295,2.74025 L19.43295,4.44025 L4.12895,4.44025 C3.02239204,4.44025 2.12495,5.33769204 2.12495,6.44425 L2.12495,25.70925 C2.12495,26.8166994 3.02228348,27.71425 4.12895,27.71425 L23.40495,27.71425 C24.5116165,27.71425 25.40895,26.8166994 25.40895,25.70925 L25.40895,10.74125 Z M29.57505,3.82775 C29.57505,5.61775 28.12405,7.06975 26.33305,7.06975 C24.54305,7.06975 23.09105,5.61775 23.09105,3.82775 C23.09105,2.03775 24.54305,0.58575 26.33305,0.58575 C28.12405,0.58575 29.57505,2.03775 29.57505,3.82775 Z" id="Combined-Shape" fill="#000000" fill-rule="nonzero"></path>
    </g>
</svg>
