<?xml version="1.0" encoding="UTF-8"?>
<svg id="alert" width="18px" height="18px" viewBox="0 0 18 18" version="1.1" xmlns="http://www.w3.org/2000/svg" xmlns:xlink="http://www.w3.org/1999/xlink">
    <!-- Generator: Sketch 48.2 (47327) - http://www.bohemiancoding.com/sketch -->
    <title>Combined Shape</title>
    <desc>Created with Sketch.</desc>
    <defs></defs>
    <g id="Artboard-Copy" stroke="none" stroke-width="1" fill="none" fill-rule="evenodd">
        <path d="M15.5577,5.8396 L17.2577,5.8396 L17.2577,15.1606 C17.2577,16.6117707 16.0814135,17.7876 14.6307,17.7876 L2.6277,17.7876 C1.1762149,17.7876 -0.0003,16.6119993 -0.0003,15.1606 L-0.0003,3.1646 C-0.0003,1.71315796 1.17625796,0.5366 2.6277,0.5366 L12.1567,0.5366 L12.1567,2.2366 L2.6277,2.2366 C2.11514204,2.2366 1.6997,2.65204204 1.6997,3.1646 L1.6997,15.1606 C1.6997,15.6728192 2.11480329,16.0876 2.6277,16.0876 L14.6307,16.0876 C15.1426774,16.0876 15.5577,15.6727387 15.5577,15.1606 L15.5577,5.8396 Z M17.9885,2.0701 C17.9885,3.2131 17.0615,4.1401 15.9185,4.1401 C14.7755,4.1401 13.8485,3.2131 13.8485,2.0701 C13.8485,0.9271 14.7755,0.0001 15.9185,0.0001 C17.0615,0.0001 17.9885,0.9271 17.9885,2.0701 Z" id="Combined-Shape" fill="#000000" fill-rule="nonzero"></path>
    </g>
</svg>
