<?xml version="1.0" encoding="UTF-8"?>
<svg id="art" width="31px" height="30px" viewBox="0 0 31 30" version="1.1" xmlns="http://www.w3.org/2000/svg" xmlns:xlink="http://www.w3.org/1999/xlink">
    <!-- Generator: Sketch 48.2 (47327) - http://www.bohemiancoding.com/sketch -->
    <title>Combined Shape</title>
    <desc>Created with Sketch.</desc>
    <defs></defs>
    <g id="Artboard-Copy-149" stroke="none" stroke-width="1" fill="none" fill-rule="evenodd" transform="translate(-4.000000, -4.000000)">
        <path d="M9.9955,5.7 C7.62331293,5.7 5.7005,7.6230711 5.7005,9.995 C5.7005,12.3677998 7.62318387,14.291 9.9955,14.291 C12.3678161,14.291 14.2905,12.3677998 14.2905,9.995 C14.2905,7.6230711 12.3676871,5.7 9.9955,5.7 Z M10.8455,27.1545 L15.991,27.1545 L15.991,28.8545 L10.8455,28.8545 L10.8455,34.0001 L9.1455,34.0001 L9.1455,28.8545 L4,28.8545 L4,27.1545 L9.1455,27.1545 L9.1455,22.0091 L10.8455,22.0091 L10.8455,27.1545 Z M9.9955,4 C13.3066222,4 15.9905,6.68423811 15.9905,9.995 C15.9905,13.3065817 13.3068024,15.991 9.9955,15.991 C6.6841976,15.991 4.0005,13.3065817 4.0005,9.995 C4.0005,6.68423811 6.68437776,4 9.9955,4 Z M22.009,15.991 L22.009,4 L34,4 L34,15.991 L22.009,15.991 Z M32.3,14.291 L32.3,5.7 L23.709,5.7 L23.709,14.291 L32.3,14.291 Z M21.2706463,32.7136 L28.0050687,22.6132751 L34.7381825,32.7136 L21.2706463,32.7136 Z M28.0049313,25.6779249 L24.4473537,31.0136 L31.5618175,31.0136 L28.0049313,25.6779249 Z" id="Combined-Shape" fill="#000000" fill-rule="nonzero"></path>
    </g>
</svg>
