<?xml version="1.0" encoding="UTF-8"?>
<svg id="atm" width="30px" height="24px" viewBox="0 0 30 24" version="1.1" xmlns="http://www.w3.org/2000/svg" xmlns:xlink="http://www.w3.org/1999/xlink">
    <!-- Generator: Sketch 48.2 (47327) - http://www.bohemiancoding.com/sketch -->
    <title>Combined Shape</title>
    <desc>Created with Sketch.</desc>
    <defs></defs>
    <g id="Artboard-Copy-143" stroke="none" stroke-width="1" fill="none" fill-rule="evenodd" transform="translate(-4.000000, -7.000000)">
        <path d="M17.3980998,29.2639 L23.9883,29.2639 C24.140858,29.2639 24.2643,29.140458 24.2643,28.9879 L24.2643,14.7239 C24.2643,14.571342 24.140858,14.4479 23.9883,14.4479 L17.4555122,14.4479 L17.3980998,29.2639 Z M15.698087,29.2639 L15.7554995,14.4479 L14.2283,14.4479 C14.075742,14.4479 13.9523,14.571342 13.9523,14.7239 L13.9523,28.9879 C13.9523,29.140458 14.075742,29.2639 14.2283,29.2639 L15.698087,29.2639 Z M12.2523,24.9035193 L5.88678601,24.9090987 C4.84471279,24.9109205 4.0003,24.0670714 4.0003,23.0251 L4.0003,8.8841 C4.0003,7.84365796 4.84385796,7.0001 5.8843,7.0001 L32.1153,7.0001 C33.1564604,7.0001 34.0003,7.84337631 34.0003,8.8841 L34.0003,23.0251 C34.0003,24.0671348 33.1548234,24.9109204 32.1134883,24.9090996 L25.9643,24.9032274 L25.9643,28.9879 C25.9643,30.079342 25.079742,30.9639 23.9883,30.9639 L14.2283,30.9639 C13.136858,30.9639 12.2523,30.079342 12.2523,28.9879 L12.2523,24.9035193 Z M25.9643,23.2032266 L32.115786,23.2091013 C32.2178486,23.2092797 32.3003,23.1269932 32.3003,23.0251 L32.3003,8.8841 C32.3003,8.78251461 32.2178303,8.7001 32.1153,8.7001 L5.8843,8.7001 C5.78274204,8.7001 5.7003,8.78254204 5.7003,8.8841 L5.7003,23.0251 C5.7003,23.1274377 5.78219595,23.209279 5.88455493,23.2091003 L12.2523,23.2035187 L12.2523,19.3876 L8.421,19.3876 C7.95155796,19.3876 7.571,19.007042 7.571,18.5376 L7.571,13.1106 C7.571,12.641158 7.95155796,12.2606 8.421,12.2606 L30.055,12.2606 C30.524442,12.2606 30.905,12.641158 30.905,13.1106 L30.905,18.5376 C30.905,19.007042 30.524442,19.3876 30.055,19.3876 L25.9643,19.3876 L25.9643,23.2032266 Z M25.9643,17.6876 L29.205,17.6876 L29.205,13.9606 L25.8115188,13.9606 C25.9099307,14.1954327 25.9643,14.4533083 25.9643,14.7239 L25.9643,17.6876 Z M12.4050812,13.9606 L9.271,13.9606 L9.271,17.6876 L12.2523,17.6876 L12.2523,14.7239 C12.2523,14.4533083 12.3066693,14.1954327 12.4050812,13.9606 Z" id="Combined-Shape" fill="#000000" fill-rule="nonzero"></path>
    </g>
</svg>
