<?xml version="1.0" encoding="UTF-8"?>
<svg id="atom" width="37px" height="30px" viewBox="0 0 37 30" version="1.1" xmlns="http://www.w3.org/2000/svg" xmlns:xlink="http://www.w3.org/1999/xlink">
    <!-- Generator: Sketch 48.2 (47327) - http://www.bohemiancoding.com/sketch -->
    <title>Artboard Copy 209</title>
    <desc>Created with Sketch.</desc>
    <defs></defs>
    <g id="Page-1" stroke="none" stroke-width="1" fill="none" fill-rule="evenodd">
        <g id="Artboard-Copy-209" fill="#000000" fill-rule="nonzero">
            <path d="M23.7154007,14.15 L27.8318993,14.15 C28.2307667,12.0024869 30.1138205,10.3767 32.377,10.3767 C34.930442,10.3767 37,12.446258 37,14.9997 C37,17.5532632 34.930321,19.6237 32.377,19.6237 C30.1141145,19.6237 28.2311019,17.9974912 27.8320022,15.85 L23.7152978,15.85 C23.3161981,17.9974912 21.4331855,19.6237 19.1703,19.6237 C18.4453434,19.6237 17.7593754,19.4567928 17.1486981,19.1593097 L15.0116506,22.2307404 C15.7780025,23.0558019 16.2466,24.1612695 16.2466,25.3763 C16.2466,27.9298632 14.176921,30.0003 11.6236,30.0003 C9.07027899,30.0003 7.0006,27.9298632 7.0006,25.3763 C7.0006,22.822858 9.07015796,20.7533 11.6236,20.7533 C12.3487,20.7533 13.0347802,20.9201866 13.6455303,21.2176494 L15.7826338,18.1461384 C15.016064,17.3208132 14.5473,16.2149685 14.5473,14.9997 C14.5473,13.7844947 15.0160323,12.6788839 15.7825801,11.8537844 L13.6455818,8.78242457 C13.0348091,9.08002353 12.3487069,9.247 11.6236,9.247 C9.07027899,9.247 7.0006,7.17656316 7.0006,4.623 C7.0006,2.06955796 9.07015796,-3.55271368e-15 11.6236,-3.55271368e-15 C14.177042,-3.55271368e-15 16.2466,2.06955796 16.2466,4.623 C16.2466,5.83811481 15.7779545,6.94383346 15.0115571,7.76912524 L17.1488016,10.8408391 C17.7594433,10.5435079 18.4453709,10.3767 19.1703,10.3767 C21.4334795,10.3767 23.3165333,12.0024869 23.7154007,14.15 Z M11.6236,1.7 C10.009042,1.7 8.7006,3.00844204 8.7006,4.623 C8.7006,6.23781838 10.0093024,7.547 11.6236,7.547 C13.2378976,7.547 14.5466,6.23781838 14.5466,4.623 C14.5466,3.00844204 13.238158,1.7 11.6236,1.7 Z M11.6236,22.4533 C10.009042,22.4533 8.7006,23.761742 8.7006,25.3763 C8.7006,26.9911184 10.0093024,28.3003 11.6236,28.3003 C13.2378976,28.3003 14.5466,26.9911184 14.5466,25.3763 C14.5466,23.761742 13.238158,22.4533 11.6236,22.4533 Z M32.377,12.0767 C30.762442,12.0767 29.454,13.385142 29.454,14.9997 C29.454,16.6145184 30.7627024,17.9237 32.377,17.9237 C33.9912976,17.9237 35.3,16.6145184 35.3,14.9997 C35.3,13.385142 33.991558,12.0767 32.377,12.0767 Z M19.1703,12.0767 C17.555742,12.0767 16.2473,13.385142 16.2473,14.9997 C16.2473,16.6145184 17.5560024,17.9237 19.1703,17.9237 C20.7845976,17.9237 22.0933,16.6145184 22.0933,14.9997 C22.0933,13.385142 20.784858,12.0767 19.1703,12.0767 Z" id="Combined-Shape"></path>
        </g>
    </g>
</svg>
