<?xml version="1.0" encoding="UTF-8"?>
<svg id="badguylarge" width="24px" height="30px" viewBox="0 0 24 30" version="1.1" xmlns="http://www.w3.org/2000/svg" xmlns:xlink="http://www.w3.org/1999/xlink">
    <!-- Generator: Sketch 49 (51002) - http://www.bohemiancoding.com/sketch -->
    <title>Combined Shape</title>
    <desc>Created with Sketch.</desc>
    <defs></defs>
    <g id="Page-1" stroke="none" stroke-width="1" fill="none" fill-rule="evenodd">
        <g id="Artboard-Copy-354" transform="translate(-8.000000, -5.000000)" fill="#000000" fill-rule="nonzero">
            <path d="M9.821,22.8319488 L9.821,23.121 C9.821,28.717558 14.403442,33.3 20,33.3 C25.596558,33.3 30.179,28.717558 30.179,23.121 L30.179,22.8263619 C21.2583013,22.0258489 12.5227375,22.6109368 9.821,22.8319488 Z M9.8784374,15.7984528 C18.716595,16.9614177 27.3594853,16.1205703 30.120628,15.7896566 C29.5722587,10.6998765 25.2287251,6.7 20,6.7 C14.7682636,6.7 10.4227386,10.704485 9.87842831,15.7984516 Z M20,35 C13.464558,35 8.121,29.656442 8.121,23.121 L8.121,16.879 C8.121,10.343558 13.464558,5 20,5 C26.535442,5 31.879,10.343558 31.879,16.879 L31.879,23.121 C31.879,29.656442 26.535442,35 20,35 Z M19.2158894,27.9303134 C18.6924211,28.1695056 18.1762152,28.3578794 17.6787618,28.4760384 C17.3105293,28.5635038 16.9590599,28.6107 16.625,28.6107 C16.155558,28.6107 15.775,28.230142 15.775,27.7607 C15.775,27.291258 16.155558,26.9107 16.625,26.9107 C16.8159147,26.9107 17.0385882,26.8807989 17.2858951,26.8220566 C17.6632988,26.7324127 18.0792108,26.5806382 18.5093606,26.3840866 C18.7756023,26.2624309 19.0302901,26.1315131 19.2632208,26.0008987 C19.4007645,25.923772 19.4980867,25.8654111 19.545582,25.8353656 C19.8385372,25.6500423 20.2146807,25.6611869 20.4961499,25.8635296 C20.668137,25.9871677 20.9946073,26.1880426 21.4178505,26.3902011 C22.1029788,26.7174468 22.7791248,26.9107 23.375,26.9107 C23.844442,26.9107 24.225,27.291258 24.225,27.7607 C24.225,28.230142 23.844442,28.6107 23.375,28.6107 C22.4868752,28.6107 21.5793962,28.3513282 20.6851495,27.9241989 C20.4175292,27.7963723 20.179921,27.6682114 19.9784616,27.5496754 C19.7595967,27.6689349 19.5019426,27.799605 19.2158894,27.9303134 Z M24.3975,20.7269 C25.1915,20.7269 25.8345,20.0829 25.8345,19.2899 C25.8345,18.4959 25.1915,17.8519 24.3975,17.8519 C23.6035,17.8519 22.9605,18.4959 22.9605,19.2899 C22.9605,20.0829 23.6035,20.7269 24.3975,20.7269 Z M15.1055,20.7269 C15.8995,20.7269 16.5435,20.0829 16.5435,19.2899 C16.5435,18.4959 15.8995,17.8519 15.1055,17.8519 C14.3115,17.8519 13.6685,18.4959 13.6685,19.2899 C13.6685,20.0829 14.3115,20.7269 15.1055,20.7269 Z" id="Combined-Shape"></path>
        </g>
    </g>
</svg>
