<?xml version="1.0" encoding="UTF-8"?>
<svg id="badgirl" width="28px" height="30px" viewBox="0 0 28 30" version="1.1" xmlns="http://www.w3.org/2000/svg" xmlns:xlink="http://www.w3.org/1999/xlink">
    <!-- Generator: Sketch 49 (51002) - http://www.bohemiancoding.com/sketch -->
    <title>Combined Shape</title>
    <desc>Created with Sketch.</desc>
    <defs></defs>
    <g id="Page-1" stroke="none" stroke-width="1" fill="none" fill-rule="evenodd">
        <g id="Artboard-Copy-354" transform="translate(-6.000000, -5.000000)" fill="#000000" fill-rule="nonzero">
            <path d="M9.19752417,23.7771531 C8.95523339,26.9331102 8.62609638,30.1306718 8.19654069,33.2521204 C8.47214141,33.2319994 8.76437433,33.2057049 9.07030592,33.1724036 C10.4826401,33.0186681 11.893424,32.7496882 13.2009747,32.339939 C14.0317183,32.0796076 14.7898186,31.7712494 15.4620606,31.4133523 C12.7350168,29.8510988 10.8494245,26.9713126 10.6882012,23.6566323 C9.98011778,23.7082233 9.46995264,23.7523676 9.19752417,23.7771531 Z M9.58825002,16.6511694 C9.95151755,16.7007637 10.3145605,16.7469291 10.6769844,16.7898399 L10.6769844,16.2030016 L11.1831876,15.9791299 L16.0588902,13.8228196 C16.5826011,13.5917707 17.1671126,13.5543587 17.7190964,13.7167103 C20.5475833,14.5571863 24.3430961,15.1756471 28.7473173,15.1255547 L29.6069844,15.1157771 L29.6069844,16.7406826 C30.0847464,16.6872654 30.4524105,16.6411734 30.6941564,16.6094 C30.3480435,11.1018099 25.7321907,6.69999972 20.1419844,6.69999972 C14.5448866,6.69999972 9.9245462,11.1126694 9.58825002,16.6511694 Z M30.863562,23.7821263 C30.4404979,23.7407728 30.0175135,23.7026323 29.5952318,23.6675185 C29.4294703,26.9965738 27.5243255,29.885727 24.7750244,31.440034 C25.0675535,31.5913295 25.368426,31.7319413 25.6771399,31.8621402 C27.0240985,32.4302146 28.4719695,32.7825195 29.9459023,32.9571898 C30.6189349,33.0369484 31.2388169,33.0739101 31.7831577,33.0804819 C31.6267092,32.1239431 31.4881704,31.115281 31.3665574,30.060247 C31.134979,28.0512261 30.9707399,25.9354918 30.863562,23.7821263 Z M27.9069844,16.9116268 L27.9069844,16.8271198 C23.6821556,16.7953878 20.028777,16.1764888 17.237143,15.3469604 C17.0723142,15.2984813 16.9008531,15.3094558 16.7457811,15.3778695 L13.0217562,17.0248434 C19.0136633,17.5207051 24.592357,17.210239 27.9069844,16.9116268 Z M27.8992369,23.5419756 C21.73599,23.1403691 15.905248,23.3387352 12.3848846,23.5453791 C12.5701668,27.6527511 15.9907833,30.9584997 20.1419844,30.9584997 C24.2943319,30.9584997 27.7156914,27.6509248 27.8992369,23.5419756 Z M17.3661201,32.2410952 C16.3378328,32.9581521 15.1047163,33.5248777 13.7093301,33.962152 C12.2850573,34.4084785 10.7688874,34.6975513 9.25426783,34.8624208 C8.72504596,34.9200277 8.23310475,34.9580978 7.79039346,34.9804184 C7.5214604,34.9939775 7.32617747,34.9992588 7.21658776,34.9999812 C6.69617304,35.003412 6.29489406,34.5425832 6.3698458,34.0275827 C6.92648487,30.2028635 7.32715996,26.2346319 7.59703331,22.3548915 C7.69149709,20.9968659 7.76284205,19.7472217 7.81426616,18.6348258 C7.83224098,18.2459981 7.84643819,17.9022723 7.85725863,17.6072533 C7.8637203,17.431076 7.86760783,17.3107995 7.86898436,17.2739997 C7.86898436,10.521391 13.389709,4.99999972 20.1419844,4.99999972 C26.8942597,4.99999972 32.4149844,10.521391 32.4149075,17.285432 C32.4145583,17.3111994 32.4145583,17.3111994 32.4134354,17.4449999 C32.4054875,18.5708473 32.4226219,20.1069224 32.4856499,21.9054286 C32.5814873,24.6401529 32.7646364,27.3433245 33.0553748,29.8655783 C33.215162,31.251787 33.4044357,32.552507 33.6249788,33.7523335 C33.7158512,34.2467087 33.3601925,34.7115343 32.8592556,34.75309 C32.8115984,34.7570435 32.7292868,34.762352 32.6148959,34.767457 C30.3858137,34.8669363 27.6616546,34.5441064 25.0165206,33.4285316 C24.2442863,33.1028449 23.511609,32.7177665 22.824914,32.2692598 C21.9735694,32.5224565 21.072961,32.6584997 20.1419844,32.6584997 C19.17706,32.6584997 18.2447589,32.5123541 17.3661201,32.2410952 Z M24.3973844,21.6184997 C25.1913844,21.6184997 25.8343844,20.9744997 25.8343844,20.1814997 C25.8343844,19.3874997 25.1913844,18.7434997 24.3973844,18.7434997 C23.6033844,18.7434997 22.9603844,19.3874997 22.9603844,20.1814997 C22.9603844,20.9744997 23.6033844,21.6184997 24.3973844,21.6184997 Z M15.1053844,21.6184997 C15.8993844,21.6184997 16.5433844,20.9744997 16.5433844,20.1814997 C16.5433844,19.3874997 15.8993844,18.7434997 15.1053844,18.7434997 C14.3113844,18.7434997 13.6683844,19.3874997 13.6683844,20.1814997 C13.6683844,20.9744997 14.3113844,21.6184997 15.1053844,21.6184997 Z" id="Combined-Shape"></path>
        </g>
    </g>
</svg>
