<?xml version="1.0" encoding="UTF-8"?>
<svg id="badgirl" width="26px" height="30px" viewBox="0 0 26 30" version="1.1" xmlns="http://www.w3.org/2000/svg" xmlns:xlink="http://www.w3.org/1999/xlink">
    <!-- Generator: Sketch 49 (51002) - http://www.bohemiancoding.com/sketch -->
    <title>Combined Shape</title>
    <desc>Created with Sketch.</desc>
    <defs></defs>
    <g id="Page-1" stroke="none" stroke-width="1" fill="none" fill-rule="evenodd">
        <g id="Artboard-Copy-360" transform="translate(-8.000000, -5.000000)" fill="#000000" fill-rule="nonzero">
            <path d="M11.0010693,20.7758514 C10.9592959,21.5571336 10.9080373,22.3964519 10.8462784,23.284824 C10.6164676,26.5905422 10.2856859,29.9650798 9.83568534,33.2505287 C10.069972,33.2325997 10.3167334,33.2099084 10.5739379,33.1818808 C11.8846781,33.0390492 13.1938688,32.7893209 14.4066027,32.409226 C15.1383295,32.1798882 15.808927,31.9104745 16.4078071,31.599921 C13.7856672,30.0553372 12.0174,27.2013986 12.0174,23.9525 L12.0174,21.0938189 C11.9528163,21.0903224 11.8868472,21.0792935 11.8202687,21.0599075 C11.5466017,20.980222 11.273253,20.8849222 11.0010693,20.7758514 Z M9.34115709,19.943502 C8.9486783,19.7084606 8.63262094,19.4899473 8.41320993,19.3204234 C8.00353904,19.0038987 7.96957128,18.3977683 8.34131182,18.037453 C8.50665845,17.8771883 8.79073117,17.5151429 9.0842436,16.9618977 C9.4238353,16.321797 9.67528581,15.589017 9.80056608,14.7639763 C10.1839463,12.2435726 10.7118925,10.5303722 11.9897219,8.82970466 C13.8335404,6.37576029 16.7947828,4.9998 21.0659,4.9998 C25.3108483,4.9998 28.3011138,6.54174569 30.1454167,9.18418987 C31.3961629,10.9762097 31.9842185,13.0935316 32.0473156,14.7942871 C32.0527567,14.9409491 32.0734568,15.0987406 32.1091622,15.2662812 C32.2179693,15.7768367 32.4588084,16.3495499 32.7930509,16.9398859 C32.9657443,17.2448953 33.1516596,17.5341588 33.3371884,17.7968098 C33.4468203,17.9520144 33.5298329,18.0612211 33.572643,18.1143244 C33.9101903,18.5330307 33.7789194,19.1560278 33.3011217,19.4029338 C33.2292845,19.4400563 33.1049355,19.5020969 32.9397859,19.5808693 C32.7554419,19.6687969 32.5635015,19.7567006 32.3673697,19.8421102 C32.3747248,20.6846768 32.3947583,21.6672743 32.4327517,22.7523978 C32.5217678,25.2947741 32.6919477,27.8076275 32.9621035,30.1520123 C33.1107777,31.4421918 33.2869226,32.6525864 33.4921822,33.7687674 C33.5830895,34.2631121 33.2275047,34.7279513 32.7265976,34.7695798 C32.6814101,34.7733352 32.6038819,34.7783444 32.4964147,34.7831495 C30.412885,34.8763085 27.8685428,34.5747444 25.3966185,33.5317685 C24.6840756,33.2311262 24.0074339,32.8763158 23.3724763,32.4636868 C22.582699,32.6958582 21.7479695,32.8205 20.8854,32.8205 C19.9911324,32.8205 19.1267885,32.6865291 18.3114374,32.4376562 C17.353733,33.101195 16.2087199,33.6259482 14.9150295,34.0314166 C13.5856188,34.4480803 12.1710833,34.7179031 10.7580971,34.8718765 C10.2644464,34.9256697 9.80553574,34.9612428 9.39246762,34.9821259 C9.14132155,34.9948228 8.9587447,34.9997872 8.85593343,35.0004807 C8.33548782,35.0039913 7.93412928,34.5431708 8.00905392,34.0281347 C8.52675788,30.469409 8.89940329,26.7769843 9.15037157,23.166926 C9.2315476,21.9992479 9.29436021,20.9177047 9.34115709,19.943502 Z M30.6743009,20.4429716 C30.390053,20.5121762 30.1303358,20.5521293 29.8937544,20.5584927 C29.8458416,20.5597814 29.798973,20.5571548 29.7534,20.5509363 L29.7534,23.9525 C29.7534,27.2189005 27.9660301,30.0860741 25.3205423,31.6247689 C25.5603465,31.7458999 25.8060977,31.8594138 26.0574808,31.9654796 C27.3058963,32.492222 28.6484525,32.8190204 30.0154159,32.9810375 C30.6115014,33.0516876 31.1626148,33.0861293 31.6505911,33.094392 C31.5092302,32.2228124 31.383746,31.30524 31.2732796,30.3466244 C30.9974084,27.9526418 30.8242782,25.3962242 30.7337927,22.8118834 C30.7037419,21.9536072 30.6847529,21.1581158 30.6743009,20.4429716 Z M28.0534,16.6969427 C25.7442234,15.9228973 16.6701528,15.8672063 13.7174,16.8269838 L13.7174,23.9525 C13.7174,27.893058 16.944842,31.1205 20.8854,31.1205 C24.825958,31.1205 28.0534,27.893058 28.0534,23.9525 L28.0534,16.6969427 Z" id="Combined-Shape"></path>
        </g>
    </g>
</svg>
