<?xml version="1.0" encoding="UTF-8"?>
<svg  id="bank-account" width="31px" height="31px" viewBox="0 0 31 31" version="1.1" xmlns="http://www.w3.org/2000/svg" xmlns:xlink="http://www.w3.org/1999/xlink">
    <!-- Generator: Sketch 48.2 (47327) - http://www.bohemiancoding.com/sketch -->
    <title>Combined Shape</title>
    <desc>Created with Sketch.</desc>
    <defs></defs>
    <g id="Artboard-Copy-134" stroke="none" stroke-width="1" fill="none" fill-rule="evenodd" transform="translate(-4.000000, -4.000000)">
        <path d="M20.4364,6 C19.5676847,6 18.8634,6.70428475 18.8634,7.573 C18.8634,8.44140425 19.5673737,9.145 20.4364,9.145 C21.3054263,9.145 22.0094,8.44140425 22.0094,7.573 C22.0094,6.70428475 21.3051153,6 20.4364,6 Z M17.5773,31.7275 L17.5773,34.3003 L15.5773,34.3003 L15.5773,31.7207839 C12.1411699,31.5910936 9.0953533,29.5929479 7.57570042,26.5815 L3.9996,26.5815 L3.9996,18.1495 L7.58324582,18.1495 C8.20084491,16.9275481 9.07702906,15.8555309 10.1470028,15.010822 L8.91985508,10.7995223 L9.81666519,10.4871474 C9.92487059,10.4494575 10.0932813,10.4018473 10.3127791,10.3567757 C11.3368224,10.1464987 12.4473875,10.1884924 13.5182455,10.6706704 C14.5005791,11.1129883 15.3197091,11.8857032 15.9203508,13.0045 L24.9386,13.0045 C30.1088847,13.0045 34.2996,17.1952153 34.2996,22.3655 C34.2996,27.4164284 30.3002285,31.5332084 25.2955,31.7208215 L25.2955,34.3003 L23.2955,34.3003 L23.2955,31.7275 L17.5773,31.7275 Z M20.4364,4 C22.4096847,4 24.0094,5.59971525 24.0094,7.573 C24.0094,9.54621427 22.4097554,11.145 20.4364,11.145 C18.4630446,11.145 16.8634,9.54621427 16.8634,7.573 C16.8634,5.59971525 18.4631153,4 20.4364,4 Z M5.9996,24.5815 L8.88189348,24.5815 L9.13847803,25.1964076 C10.274255,27.9183092 12.9365277,29.7275 15.9336,29.7275 L24.9386,29.7275 C29.0040875,29.7275 32.2996,26.431443 32.2996,22.3655 C32.2996,18.2997847 29.0043153,15.0045 24.9386,15.0045 L14.6275719,15.0045 L14.3694758,14.3937688 C13.9485947,13.3978405 13.3808163,12.8021848 12.6971027,12.4943273 C12.289952,12.3109985 11.8540822,12.2346676 11.4224891,12.2389933 L12.4688982,15.8300378 L11.858722,16.2372689 C10.6543834,17.0410436 9.70780422,18.1902823 9.14514085,19.5353994 L8.88826219,20.1495 L5.9996,20.1495 L5.9996,24.5815 Z M16.8636,19.2293 L16.8636,17.2293 L24.0086,17.2293 L24.0086,19.2293 L16.8636,19.2293 Z" id="Combined-Shape" fill="#000000" fill-rule="nonzero"></path>
    </g>
</svg>
