<?xml version="1.0" encoding="UTF-8"?>
<svg id="bank-account" width="25px" height="30px" viewBox="0 0 25 30" version="1.1" xmlns="http://www.w3.org/2000/svg" xmlns:xlink="http://www.w3.org/1999/xlink">
    <!-- Generator: Sketch 49 (51002) - http://www.bohemiancoding.com/sketch -->
    <title>Combined Shape</title>
    <desc>Created with Sketch.</desc>
    <defs></defs>
    <g id="Page-1" stroke="none" stroke-width="1" fill="none" fill-rule="evenodd">
        <g id="Artboard-Copy-396" transform="translate(-8.000000, -5.000000)" fill="#000000" fill-rule="nonzero">
            <path d="M22.7619,21.9119749 L22.7619,22.6883 C22.7619,23.3534864 24.4197715,24.1823 26.5999,24.1823 C28.7800285,24.1823 30.4379,23.3534864 30.4379,22.6883 L30.4379,22.5507202 L30.4379,21.9117602 C29.4331537,22.4511867 28.0715964,22.7574 26.5997,22.7574 C25.1279989,22.7574 23.7666076,22.4512679 22.7619,21.9119749 Z M21.0619,19.5929352 C21.0617668,19.5831074 21.0617,19.5732623 21.0617,19.5634 C21.0617,17.6389318 23.6011377,16.3694 26.5997,16.3694 C29.5982103,16.3694 32.137612,17.6388878 32.1377,19.5633 L32.1379,19.5633 L32.1379,22.6883 L32.1379,25.8135 C32.1379,27.7379682 29.5984623,29.0075 26.5999,29.0075 C23.6013377,29.0075 21.0619,27.7379682 21.0619,25.8135 L21.0619,22.6883 L21.0619,19.5929352 Z M30.4379,25.037179 C29.4332822,25.5763568 28.0719131,25.8823 26.5999,25.8823 C25.1278869,25.8823 23.7665178,25.5763568 22.7619,25.037179 L22.7619,25.8135 C22.7619,26.4786864 24.4197715,27.3075 26.5999,27.3075 C28.7800285,27.3075 30.4379,26.4786864 30.4379,25.8135 L30.4379,25.037179 Z M18.2825,12.5467 L18.2825,9.2447 L19.9825,9.2447 L19.9825,12.5467 L22.3347869,12.5467 L24.5125577,6.6998 L13.7557314,6.6998 L15.948222,12.5467 L18.2825,12.5467 Z M22.365857,14.2467 L15.9180451,14.2467 L10.0215758,27.9007178 C8.91973365,30.4528269 10.7916772,33.2998 13.5722,33.2998 L24.6992,33.2998 C26.507551,33.2998 28.0205926,32.0754777 28.4534151,30.373328 L28.6628871,29.5495432 L30.3104568,29.9684871 L30.1009849,30.792272 C29.4798106,33.2351474 27.299018,34.9998 24.6992,34.9998 L13.5722,34.9998 C9.56929194,34.9998 6.87444076,30.9012956 8.46085566,27.2268093 L14.4430027,13.374394 L11.7333159,6.14824337 C11.5249427,5.59255705 11.93573,4.9998 12.5292,4.9998 L25.7362,4.9998 C26.3288727,4.9998 26.7396083,5.5910864 26.5327415,6.14648452 L23.8408239,13.3737708 L24.709172,15.3890674 L23.1479326,16.061772 L22.365857,14.2467 Z M26.5997,18.0694 C24.4195715,18.0694 22.7617,18.8982136 22.7617,19.5634 C22.7617,20.2280032 24.4202492,21.0574 26.5997,21.0574 C28.7791508,21.0574 30.4377,20.2280032 30.4377,19.5634 C30.4377,18.8982136 28.7798285,18.0694 26.5997,18.0694 Z" id="Combined-Shape"></path>
        </g>
    </g>
</svg>
