<?xml version="1.0" encoding="UTF-8"?>
<svg id="bishop" width="20px" height="30px" viewBox="0 0 20 30" version="1.1" xmlns="http://www.w3.org/2000/svg" xmlns:xlink="http://www.w3.org/1999/xlink">
    <!-- Generator: Sketch 49 (51002) - http://www.bohemiancoding.com/sketch -->
    <title>Combined Shape</title>
    <desc>Created with Sketch.</desc>
    <defs></defs>
    <g id="Page-1" stroke="none" stroke-width="1" fill="none" fill-rule="evenodd">
        <g id="Artboard-Copy-381" transform="translate(-10.000000, -5.000000)" fill="#000000" fill-rule="nonzero">
            <path d="M20.846,13.342 L22.2678,13.342 L22.2678,15.042 L20.846,15.042 L20.846,17.8953 L19.146,17.8953 L19.146,15.042 L17.7238,15.042 L17.7238,13.342 L19.146,13.342 L19.146,11.6673 L20.846,11.6673 L20.846,13.342 Z M11.711772,19.6529 L10.1893018,15.7381942 C10.0705291,15.4327955 10.1378825,15.0863199 10.3624181,14.8476589 L19.3754181,5.26765895 C19.7109089,4.91106276 20.2775195,4.9108903 20.6132273,5.26728219 L29.6372273,14.8472822 C29.8591421,15.08287 29.9280115,15.4240396 29.8148627,15.7272641 L28.3500048,19.6529 L28.5762,19.6529 C29.0456421,19.6529 29.4262,20.033458 29.4262,20.5029 C29.4262,20.972342 29.0456421,21.3529 28.5762,21.3529 L28.2715,21.3529 L28.2715,26.7249 C28.2715,31.278342 24.5499421,34.9999 19.9965,34.9999 C15.4429037,34.9999 11.7205,31.2781878 11.7205,26.7249 L11.7205,21.3529 L11.4162,21.3529 C10.946758,21.3529 10.5662,20.972342 10.5662,20.5029 C10.5662,20.033458 10.946758,19.6529 11.4162,19.6529 L11.711772,19.6529 Z M13.5358106,19.6529 L26.5355048,19.6529 L28.0373441,15.6281587 L19.9948775,7.09016769 L11.9681095,15.6218927 L13.5358106,19.6529 Z M13.4205,21.3529 L13.4205,26.7249 C13.4205,30.339233 16.381717,33.2999 19.9965,33.2999 C23.611058,33.2999 26.5715,30.339458 26.5715,26.7249 L26.5715,21.3529 L13.4205,21.3529 Z M19.583408,30.2157848 C19.2152581,30.3839162 18.8508471,30.5167612 18.4958389,30.6008802 C18.2287527,30.6641661 17.9716102,30.6986 17.7238,30.6986 C17.254358,30.6986 16.8738,30.318042 16.8738,29.8486 C16.8738,29.379158 17.254358,28.9986 17.7238,28.9986 C17.8288393,28.9986 17.9574672,28.9813755 18.103878,28.9466835 C18.3385993,28.8910664 18.6025312,28.7948508 18.877192,28.6694152 C19.1711495,28.5351669 19.4108893,28.4007891 19.541485,28.3182005 C19.8342684,28.1330447 20.210123,28.1440921 20.4915258,28.3461248 C20.5950557,28.420454 20.8014855,28.5473275 21.070016,28.6754772 C21.4972428,28.8793609 21.914653,28.9986 22.2678,28.9986 C22.7372421,28.9986 23.1178,29.379158 23.1178,29.8486 C23.1178,30.318042 22.7372421,30.6986 22.2678,30.6986 C21.6225721,30.6986 20.9740447,30.5133391 20.3378341,30.2097228 C20.2069356,30.1472547 20.0861411,30.0846264 19.9767513,30.0240707 C19.8572984,30.086131 19.7253772,30.1509485 19.583408,30.2157848 Z" id="Combined-Shape"></path>
        </g>
    </g>
</svg>
