<?xml version="1.0" encoding="UTF-8"?>
<svg id="bomb" width="30px" height="28px" viewBox="0 0 30 28" version="1.1" xmlns="http://www.w3.org/2000/svg" xmlns:xlink="http://www.w3.org/1999/xlink">
    <!-- Generator: Sketch 49 (51002) - http://www.bohemiancoding.com/sketch -->
    <title>Combined Shape</title>
    <desc>Created with Sketch.</desc>
    <defs></defs>
    <g id="Page-1" stroke="none" stroke-width="1" fill="none" fill-rule="evenodd">
        <g id="Artboard-Copy-369" transform="translate(-5.000000, -6.000000)" fill="#000000" fill-rule="nonzero">
            <path d="M22.6080963,10.2645026 C23.2945324,10.5842138 23.9613084,10.97171 24.5994745,11.4284753 C25.2376866,11.8852736 25.819561,12.3914946 26.3436146,12.9381874 L27.3095722,11.5888248 L25.4667837,10.269924 L24.7504183,9.75763456 L24.7506169,9.7573568 L23.5739877,8.91523237 L22.6080963,10.2645026 Z M20.9658348,9.63807828 L22.6863958,7.23459717 C22.9596322,6.85290855 23.4905411,6.76496521 23.8722573,7.03816305 L25.7394886,8.37455775 L25.8551527,8.2128176 C27.4722818,5.95437178 30.6371412,5.43012668 32.8948633,7.04639572 C35.1535259,8.66247667 35.6777785,11.8273817 34.061653,14.0861066 L32.9572173,15.6305061 L31.5744183,14.6416346 L32.068854,13.950235 L32.6789785,13.0970611 C33.7489807,11.6016075 33.4006289,9.49861286 31.9054695,8.42882111 C30.4110136,7.35896273 28.307973,7.70732218 27.237653,9.20210656 L27.1219041,9.36396534 L28.9902573,10.701163 C29.3720281,10.9743999 29.4599868,11.5054013 29.1867113,11.8871444 L27.4661793,14.2905851 C30.4672976,18.4831435 30.6314525,24.2857459 27.463949,28.7123918 C23.4816092,34.2762862 15.7426116,35.5589802 10.1790326,31.5768663 C4.61529709,27.5946403 3.33333036,19.8566878 7.31555807,14.2929498 C10.483889,9.86634142 16.0294102,8.14963623 20.9658348,9.63807828 Z M23.6100326,12.8108663 C18.81001,9.37526538 12.1338945,10.4818878 8.69794901,15.2823918 C5.26217474,20.0826566 6.36821277,26.7587033 11.1684745,30.1944753 C15.9685372,33.630105 22.6456414,32.5234137 26.0814949,27.7230381 C29.516473,22.9225914 28.4101465,16.2465325 23.6100326,12.8108663 Z" id="Combined-Shape"></path>
        </g>
    </g>
</svg>
