<?xml version="1.0" encoding="UTF-8"?>
<svg id="building" width="26px" height="30px" viewBox="0 0 26 30" version="1.1" xmlns="http://www.w3.org/2000/svg" xmlns:xlink="http://www.w3.org/1999/xlink">
    <!-- Generator: Sketch 48.2 (47327) - http://www.bohemiancoding.com/sketch -->
    <title>Combined Shape</title>
    <desc>Created with Sketch.</desc>
    <defs></defs>
    <g id="Artboard-Copy-212" stroke="none" stroke-width="1" fill="none" fill-rule="evenodd" transform="translate(-6.000000, -4.000000)">
        <path d="M28.525,34 L9.475,34 C7.95555796,34 6.716,32.760442 6.716,31.241 L6.716,6.759 C6.716,5.23955796 7.95555796,4 9.475,4 L28.525,4 C30.044442,4 31.284,5.23955796 31.284,6.759 L31.284,31.241 C31.284,32.760442 30.044442,34 28.525,34 Z M28.525,32.3 C29.105558,32.3 29.584,31.821558 29.584,31.241 L29.584,6.759 C29.584,6.17844204 29.105558,5.7 28.525,5.7 L9.475,5.7 C8.89444204,5.7 8.416,6.17844204 8.416,6.759 L8.416,31.241 C8.416,31.821558 8.89444204,32.3 9.475,32.3 L28.525,32.3 Z M12.9175,11.5571 L12.9175,9.8571 L15.6985,9.8571 L15.6985,11.5571 L12.9175,11.5571 Z M17.7211,11.6203 L17.7211,9.9203 L20.5021,9.9203 L20.5021,11.6203 L17.7211,11.6203 Z M22.3984,11.6203 L22.3984,9.9203 L25.1794,9.9203 L25.1794,11.6203 L22.3984,11.6203 Z M12.9175,15.1809 L12.9175,13.4809 L15.6985,13.4809 L15.6985,15.1809 L12.9175,15.1809 Z M17.7211,15.2441 L17.7211,13.5441 L20.5021,13.5441 L20.5021,15.2441 L17.7211,15.2441 Z M22.3984,15.2441 L22.3984,13.5441 L25.1794,13.5441 L25.1794,15.2441 L22.3984,15.2441 Z M12.9175,18.8048 L12.9175,17.1048 L15.6985,17.1048 L15.6985,18.8048 L12.9175,18.8048 Z M17.7211,18.868 L17.7211,17.168 L20.5021,17.168 L20.5021,18.868 L17.7211,18.868 Z M22.3984,18.868 L22.3984,17.168 L25.1794,17.168 L25.1794,18.868 L22.3984,18.868 Z M12.9175,22.4286 L12.9175,20.7286 L15.6985,20.7286 L15.6985,22.4286 L12.9175,22.4286 Z M12.9175,26.0524 L12.9175,24.3524 L15.6985,24.3524 L15.6985,26.0524 L12.9175,26.0524 Z M17.7984,22.519 L17.7984,20.819 L20.5794,20.819 L20.5794,22.519 L17.7984,22.519 Z M17.7984,26.1428 L17.7984,24.4428 L20.5794,24.4428 L20.5794,26.1428 L17.7984,26.1428 Z" id="Combined-Shape" fill="#000000" fill-rule="nonzero"></path>
    </g>
</svg>
