<?xml version="1.0" encoding="UTF-8"?>
<svg id="car" width="30px" height="24px" viewBox="0 0 30 24" version="1.1" xmlns="http://www.w3.org/2000/svg" xmlns:xlink="http://www.w3.org/1999/xlink">
    <!-- Generator: Sketch 48.2 (47327) - http://www.bohemiancoding.com/sketch -->
    <title>Combined Shape</title>
    <desc>Created with Sketch.</desc>
    <defs></defs>
    <g id="Artboard-Copy-158" stroke="none" stroke-width="1" fill="none" fill-rule="evenodd" transform="translate(-5.000000, -8.000000)">
        <path d="M16.6675778,19.7197 L5.00201277,19.7335994 L4.99998723,18.0336006 L15.2873105,18.0213434 L12.0668873,12.3850264 L5.00156224,12.3896998 L5.00043776,10.6897002 L13.0531127,10.6843736 L17.2442992,18.0197 L22.963,18.0197 C24.052442,18.0197 24.936,18.903258 24.936,19.9927 L24.936,28.1017 L21.7015469,28.1017 C21.3119949,29.8989671 19.712842,31.2456 17.7992,31.2456 C15.8856645,31.2456 14.2865831,29.8991169 13.8969182,28.102 L5.0008,28.102 L5.0008,26.402 L13.8967572,26.402 C14.2861313,24.6047704 15.885316,23.2586 17.7992,23.2586 C19.7129775,23.2586 21.3120907,24.6046206 21.7015778,26.4017 L23.236,26.4017 L23.236,19.9927 C23.236,19.842142 23.113558,19.7197 22.963,19.7197 L16.6675778,19.7197 Z M17.7992,24.9586 C16.532642,24.9586 15.5062,25.985042 15.5062,27.2516 C15.5062,28.5184323 16.5329164,29.5456 17.7992,29.5456 C19.0654836,29.5456 20.0922,28.5184323 20.0922,27.2516 C20.0922,25.985042 19.065758,24.9586 17.7992,24.9586 Z M23.736231,12.9753864 L22.096769,13.4250136 L20.903769,9.07501357 C20.7018966,8.33893229 21.4972449,7.73043362 22.1548982,8.11780968 L26.9093819,10.9183324 L31.3581653,9.04859381 C32.014736,8.7726497 32.6992006,9.37811618 32.5054378,10.0634527 L30.8129736,16.0496754 L33.9134944,19.2773555 C34.3270069,19.707827 34.1796613,20.4192585 33.629188,20.6500777 L29.279188,22.4740777 L28.621812,20.9063223 L31.829127,19.561462 L29.2495056,16.8760445 C29.0404682,16.658434 28.9624685,16.3463119 29.0445622,16.0559473 L30.3892359,11.2998548 L27.1748347,12.6508062 C26.9273935,12.754801 26.6453705,12.735814 26.4141018,12.5995903 L23.0973754,10.6459465 L23.736231,12.9753864 Z" id="Combined-Shape" fill="#000000" fill-rule="nonzero"></path>
    </g>
</svg>
