<?xml version="1.0" encoding="UTF-8"?>
<svg id="case" width="39px" height="31px" viewBox="0 0 39 31" version="1.1" xmlns="http://www.w3.org/2000/svg" xmlns:xlink="http://www.w3.org/1999/xlink">
    <!-- Generator: Sketch 48.2 (47327) - http://www.bohemiancoding.com/sketch -->
    <title>Artboard Copy 176</title>
    <desc>Created with Sketch.</desc>
    <defs></defs>
    <g id="Page-1" stroke="none" stroke-width="1" fill="none" fill-rule="evenodd">
        <g id="Artboard-Copy-176" fill="#000000" fill-rule="nonzero">
            <path d="M33.7342892,21.5878707 C32.6829938,22.3871709 31.3712713,22.8616 29.9486,22.8616 C26.4903001,22.8616 23.6876,20.0581843 23.6876,16.5996 C23.6876,13.1418369 26.490479,10.3386 29.9486,10.3386 C33.406721,10.3386 36.2096,13.1418369 36.2096,16.5996 C36.2096,18.0223353 35.7353273,19.3342031 34.9362434,20.3856619 L38.2159408,23.6653592 L37.0138592,24.8674408 L33.7342892,21.5878707 Z M29.8685,25.438 L31.5685,25.438 L31.5685,27.741 C31.5685,29.2602181 30.329166,30.5 28.8105,30.5 L9.7585,30.5 C8.23911004,30.5 7.0005,29.2604944 7.0005,27.741 L7.0005,3.258 C7.0005,1.73928183 8.23933395,0.5 9.7585,0.5 L28.8105,0.5 C30.328942,0.5 31.5685,1.73955796 31.5685,3.258 L31.5685,8.136 L29.8685,8.136 L29.8685,3.258 C29.8685,2.67844204 29.390058,2.2 28.8105,2.2 L9.7585,2.2 C9.17835561,2.2 8.7005,2.67802837 8.7005,3.258 L8.7005,27.741 C8.7005,28.3218852 9.17826929,28.8 9.7585,28.8 L28.8105,28.8 C29.3901444,28.8 29.8685,28.3214715 29.8685,27.741 L29.8685,25.438 Z M11.7267,25.6703 L11.7267,23.9703 L26.4537,23.9703 L26.4537,25.6703 L11.7267,25.6703 Z M11.4921,12.3815 L11.4921,10.6815 L22.3931,10.6815 L22.3931,12.3815 L11.4921,12.3815 Z M11.7267,21.288 L11.7267,19.588 L21.4767,19.588 L21.4767,21.288 L11.7267,21.288 Z M11.7267,16.9232 L11.7267,15.2232 L18.7267,15.2232 L18.7267,16.9232 L11.7267,16.9232 Z M29.9486,12.0386 C27.4294117,12.0386 25.3876,14.0806724 25.3876,16.5996 C25.3876,19.1193973 27.4292814,21.1616 29.9486,21.1616 C32.4679186,21.1616 34.5096,19.1193973 34.5096,16.5996 C34.5096,14.0806724 32.4677883,12.0386 29.9486,12.0386 Z" id="Combined-Shape"></path>
        </g>
    </g>
</svg>
