<?xml version="1.0" encoding="UTF-8"?>
<svg id="cash" width="30px" height="30px" viewBox="0 0 30 30" version="1.1" xmlns="http://www.w3.org/2000/svg" xmlns:xlink="http://www.w3.org/1999/xlink">
    <!-- Generator: Sketch 48.2 (47327) - http://www.bohemiancoding.com/sketch -->
    <title>Combined Shape</title>
    <desc>Created with Sketch.</desc>
    <defs></defs>
    <g id="Artboard-Copy-137" stroke="none" stroke-width="1" fill="none" fill-rule="evenodd" transform="translate(-4.000000, -4.000000)">
        <path d="M17.8289,20.4644 L17.8289,22.1644 L12.0619,22.1644 L12.0619,21.3144 C12.0619,19.818842 10.928458,18.6854 9.4329,18.6854 L8.5829,18.6854 L8.5829,11.7674 L9.4329,11.7674 C10.928458,11.7674 12.0619,10.633958 12.0619,9.1384 L12.0619,8.2884 L25.9379,8.2884 L25.9379,9.1384 C25.9379,10.633958 27.071342,11.7674 28.5669,11.7674 L29.4169,11.7674 L29.4169,16.8054 L27.7169,16.8054 L27.7169,13.3880359 C25.9794198,13.0574832 24.6478168,11.7258802 24.3172641,9.9884 L13.6825359,9.9884 C13.3519832,11.7258802 12.0203802,13.0574832 10.2829,13.3880359 L10.2829,17.0647641 C12.0203802,17.3953168 13.3519832,18.7269198 13.6825359,20.4644 L17.8289,20.4644 Z M20.98,26.5467 L22.68,26.5467 L22.68,30.3197 C22.68,31.2530948 24.7732104,32.2997 27.49,32.2997 C30.2067896,32.2997 32.3,31.2530948 32.3,30.3197 L32.3,26.5467 L34,26.5467 L34,30.3197 C34,32.5123052 31.0252104,33.9997 27.49,33.9997 C23.9547896,33.9997 20.98,32.5123052 20.98,30.3197 L20.98,26.5467 Z M20.98,22.7733 L22.68,22.7733 L22.68,26.5463 C22.68,27.4796948 24.7732104,28.5263 27.49,28.5263 C30.2067896,28.5263 32.3,27.4796948 32.3,26.5463 L32.3,22.7733 L34,22.7733 L34,26.5463 C34,28.7389052 31.0252104,30.2263 27.49,30.2263 C23.9547896,30.2263 20.98,28.7389052 20.98,26.5463 L20.98,22.7733 Z M27.49,19.0933 C31.0252104,19.0933 34,20.5806948 34,22.7733 C34,24.9659052 31.0252104,26.4533 27.49,26.4533 C23.9547896,26.4533 20.98,24.9659052 20.98,22.7733 C20.98,20.5806948 23.9547896,19.0933 27.49,19.0933 Z M27.49,20.7933 C24.7732104,20.7933 22.68,21.8399052 22.68,22.7733 C22.68,23.7066948 24.7732104,24.7533 27.49,24.7533 C30.2067896,24.7533 32.3,23.7066948 32.3,22.7733 C32.3,21.8399052 30.2067896,20.7933 27.49,20.7933 Z M18.8393,24.7533 L18.8393,26.4533 L5.8573,26.4533 C4.83185796,26.4533 4.0003,25.621742 4.0003,24.5963 L4.0003,5.8573 C4.0003,4.83185796 4.83185796,4.0003 5.8573,4.0003 L31.1263,4.0003 C32.7135224,4.0003 34.0003,5.28663839 34.0003,6.8733 L34.0003,17.8963 L32.3003,17.8963 L32.3003,6.8733 C32.3003,6.22565239 31.7747682,5.7003 31.1263,5.7003 L5.8573,5.7003 C5.77074204,5.7003 5.7003,5.77074204 5.7003,5.8573 L5.7003,24.5963 C5.7003,24.682858 5.77074204,24.7533 5.8573,24.7533 L18.8393,24.7533 Z M19,12.4419 C20.538442,12.4419 21.785,13.688458 21.785,15.2269 C21.785,16.7646195 20.5381647,18.0119 19,18.0119 C17.4618353,18.0119 16.215,16.7646195 16.215,15.2269 C16.215,13.688458 17.461558,12.4419 19,12.4419 Z M19,14.1419 C18.400442,14.1419 17.915,14.627342 17.915,15.2269 C17.915,15.8258713 18.4008553,16.3119 19,16.3119 C19.5991447,16.3119 20.085,15.8258713 20.085,15.2269 C20.085,14.627342 19.599558,14.1419 19,14.1419 Z" id="Combined-Shape" fill="#000000" fill-rule="nonzero"></path>
    </g>
</svg>
