<?xml version="1.0" encoding="UTF-8"?>
<svg id="computer" width="30px" height="32px" viewBox="0 0 30 32" version="1.1" xmlns="http://www.w3.org/2000/svg" xmlns:xlink="http://www.w3.org/1999/xlink">
    <!-- Generator: Sketch 48.2 (47327) - http://www.bohemiancoding.com/sketch -->
    <title>Combined Shape</title>
    <desc>Created with Sketch.</desc>
    <defs></defs>
    <g id="Artboard-Copy-110" stroke="none" stroke-width="1" fill="none" fill-rule="evenodd" transform="translate(-4.000000, -3.000000)">
        <path d="M18.1497,28.77975 L7.422,28.77975 C5.53135231,28.77975 4,27.2479864 4,25.35675 L4,7.34775 C4,5.45721928 5.53164648,3.92475 7.422,3.92475 L30.577,3.92475 C32.467442,3.92475 34,5.45730796 34,7.34775 L34,25.35675 C34,27.2478978 32.4677364,28.77975 30.577,28.77975 L19.8497,28.77975 L19.8497,32.07525 L27.7175,32.07525 L27.7175,34.07525 L10.2815,34.07525 L10.2815,32.07525 L18.1497,32.07525 L18.1497,28.77975 Z M30.577,27.07975 C31.5289545,27.07975 32.3,26.3089115 32.3,25.35675 L32.3,7.34775 C32.3,6.39619204 31.528558,5.62475 30.577,5.62475 L7.422,5.62475 C6.470735,5.62475 5.7,6.39589904 5.7,7.34775 L5.7,25.35675 C5.7,26.3092045 6.47033861,27.07975 7.422,27.07975 L30.577,27.07975 Z M18.9997,8.63435 C19.7097,8.63435 20.2857,9.21035 20.2857,9.92035 C20.2857,10.63135 19.7097,11.20735 18.9997,11.20735 C18.2897,11.20735 17.7137,10.63135 17.7137,9.92035 C17.7137,9.21035 18.2897,8.63435 18.9997,8.63435 Z" id="Combined-Shape" fill="#000000" fill-rule="nonzero"></path>
    </g>
</svg>
