<?xml version="1.0" encoding="UTF-8"?>
<svg width="40px" height="30px" viewBox="0 0 40 30" version="1.1" xmlns="http://www.w3.org/2000/svg" xmlns:xlink="http://www.w3.org/1999/xlink">
    <!-- Generator: Sketch 48.2 (47327) - http://www.bohemiancoding.com/sketch -->
    <title>Artboard Copy 179</title>
    <desc>Created with Sketch.</desc>
    <defs></defs>
    <g id="Page-1" stroke="none" stroke-width="1" fill="none" fill-rule="evenodd">
        <g id="Artboard-Copy-179" fill="#000000" fill-rule="nonzero">
            <path d="M30.8685,25.3808 L32.5685,25.3808 L32.5685,27.2198 C32.5685,28.751242 31.319942,29.9998 29.7885,29.9998 L10.7795,29.9998 C9.24883482,29.9998 8.0005,28.7510189 8.0005,27.2198 L8.0005,2.7798 C8.0005,1.24930425 9.24911143,-0.0002 10.7795,-0.0002 L29.7885,-0.0002 C31.3196653,-0.0002 32.5685,1.24908105 32.5685,2.7798 L32.5685,11.7688 L30.8685,11.7688 L30.8685,2.7798 C30.8685,2.18782917 30.3806452,1.6998 29.7885,1.6998 L10.7795,1.6998 C10.1882676,1.6998 9.7005,2.18791641 9.7005,2.7798 L9.7005,27.2198 C9.7005,27.8122708 10.187855,28.2998 10.7795,28.2998 L29.7885,28.2998 C30.381058,28.2998 30.8685,27.812358 30.8685,27.2198 L30.8685,25.3808 Z M12.7267,24.3206 L24.1357,24.1936 L12.7267,24.3206 Z M12.7361612,25.1705473 L12.7172388,23.4706527 L24.1262388,23.3436527 L24.1451612,25.0435473 L12.7361612,25.1705473 Z M19.6273,6.293 L19.6273,4.593 L27.2223,4.593 L27.2223,6.293 L19.6273,6.293 Z M12.7267,20.7883 L12.7267,19.0883 L21.7767,19.0883 L21.7767,20.7883 L12.7267,20.7883 Z M26.3511419,24.0080098 L27.6681419,20.5460098 C27.7032689,20.4536715 27.7575438,20.3698145 27.8273978,20.2999527 L36.8523978,11.2739527 C37.1257604,11.0005598 37.568997,11.0005475 37.8423747,11.2739253 L39.9883747,13.4199253 C40.2617525,13.693303 40.2617402,14.1365396 39.9883473,14.4099022 L30.9623473,23.4349022 C30.8924855,23.5047562 30.8086285,23.5590311 30.7162902,23.5941581 L27.2542902,24.9111581 C26.6896473,25.1259573 26.1363427,24.5726527 26.3511419,24.0080098 Z M30.0784328,22.3389294 L38.5034231,13.9148726 L37.3474274,12.7588769 L28.9233706,21.1838672 L28.2141785,23.0481215 L30.0784328,22.3389294 Z" id="Combined-Shape"></path>
        </g>
    </g>
</svg>