<?xml version="1.0" encoding="UTF-8"?>
<svg width="17px" height="14px" viewBox="0 0 17 14" version="1.1" xmlns="http://www.w3.org/2000/svg" xmlns:xlink="http://www.w3.org/1999/xlink">
    <!-- Generator: Sketch 49 (51002) - http://www.bohemiancoding.com/sketch -->
    <title>Artboard Copy 177</title>
    <desc>Created with Sketch.</desc>
    <defs></defs>
    <g id="Artboard-Copy-177" stroke="none" stroke-width="1" fill="none" fill-rule="evenodd">
        <path d="M12.6835059,11.3776894 L13.5834941,11.3823106 L13.57949,12.1620066 C13.5748321,12.8591383 13.0036295,13.4241008 12.3060951,13.4209936 L4.26049557,13.3779955 C3.56298375,13.3748886 2.99639738,12.8025354 2.99950636,12.1046073 L3.05451,1.76000007 C3.05916422,1.06186761 3.63036497,0.496901622 4.32890519,0.500006428 L12.3735,0.543004444 C13.071754,0.546107796 13.6376038,1.11820212 13.6344938,1.81636528 L13.6144938,5.62136528 L12.7145062,5.61663472 L12.7345045,1.81199557 C12.7354005,1.61083025 12.5702804,1.44388791 12.3690948,1.44299357 L4.32450002,1.39999556 C4.12266292,1.3990985 3.95583597,1.5641045 3.95449364,1.76539266 L3.89949554,12.1090044 C3.8986014,12.3097382 4.06428949,12.4771126 4.26490489,12.4780064 L12.3105044,12.5210045 C12.5113392,12.5218991 12.6781677,12.356893 12.6795059,12.1566894 L12.6835059,11.3776894 Z M5.10000919,11.3385924 L5.09479081,10.4386076 L9.92379081,10.4106076 L9.92900919,11.3105924 L5.10000919,11.3385924 Z M8.05822056,3.36389371 L8.06297944,2.46390629 L11.2779794,2.48090629 L11.2732206,3.38089371 L8.05822056,3.36389371 Z M5.10485016,9.48379386 L5.10954984,8.58380614 L8.93954984,8.60380614 L8.93485016,9.50379386 L5.10485016,9.48379386 Z M10.721454,10.7315863 L11.286454,9.26958626 L11.3897139,9.11189917 L15.2307139,5.31189917 C15.4073394,5.13715903 15.6921599,5.13862934 15.866972,5.31518368 L16.769972,6.22718368 C16.9448684,6.40382327 16.943416,6.68881144 16.7667282,6.86365919 L12.9257282,10.6646592 L12.7668279,10.7662896 L11.2988279,11.3152896 C10.9351443,11.4512993 10.5814874,11.0937654 10.721454,10.7315863 Z M12.3612303,9.95709633 L15.8137245,6.54055623 L15.5439155,6.26805813 L12.0912029,9.68391545 L11.9221751,10.1212934 L12.3612303,9.95709633 Z" id="Combined-Shape" fill="#000000" fill-rule="nonzero"></path>
    </g>
</svg>