<?xml version="1.0" encoding="UTF-8"?>
<svg width="30px" height="31px" viewBox="0 0 30 31" version="1.1" xmlns="http://www.w3.org/2000/svg" xmlns:xlink="http://www.w3.org/1999/xlink">
    <!-- Generator: Sketch 49 (51002) - http://www.bohemiancoding.com/sketch -->
    <title>Combined Shape</title>
    <desc>Created with Sketch.</desc>
    <defs></defs>
    <g id="Page-1" stroke="none" stroke-width="1" fill="none" fill-rule="evenodd">
        <g id="Artboard-Copy-309" transform="translate(-5.000000, -5.000000)" fill="#000000" fill-rule="nonzero">
            <path d="M20.5495,22.7772 L20.5495,21.178 L21.8495,21.178 L21.8495,22.7772 L22.9488,22.7772 L22.9488,20.3762 C22.9488,20.1988493 23.0212672,20.0291999 23.149401,19.9065826 C24.0434701,19.0510057 24.5486744,17.8677091 24.5478002,16.6306594 C24.550425,14.1177037 22.5163339,12.0798247 20.0041206,12.0771996 C17.4929393,12.0745747 15.4544244,14.1090305 15.4517998,16.6206587 C15.4509248,17.8605225 15.9567497,19.0479801 16.8519266,19.9072799 C16.9796177,20.0298533 17.0518,20.1991993 17.0518,20.3762 L17.0518,22.7772 L18.1505,22.7772 L18.1505,21.178 L19.4505,21.178 L19.4505,22.7772 L20.5495,22.7772 Z M19.15,29.8545 L8.4223,29.8545 C6.53165231,29.8545 5.0003,28.3227364 5.0003,26.4315 L5.0003,8.4225 C5.0003,6.53196928 6.53194648,4.9995 8.4223,4.9995 L31.5773,4.9995 C33.467742,4.9995 35.0003,6.53205796 35.0003,8.4225 L35.0003,26.4315 C35.0003,28.3226478 33.4680364,29.8545 31.5773,29.8545 L20.85,29.8545 L20.85,33.15 L28.7178,33.15 L28.7178,35.15 L11.2818,35.15 L11.2818,33.15 L19.15,33.15 L19.15,29.8545 Z M31.5773,28.1545 C32.5292545,28.1545 33.3003,27.3836615 33.3003,26.4315 L33.3003,8.4225 C33.3003,7.47094204 32.528858,6.6995 31.5773,6.6995 L8.4223,6.6995 C7.471035,6.6995 6.7003,7.47064904 6.7003,8.4225 L6.7003,26.4315 C6.7003,27.3839545 7.47063861,28.1545 8.4223,28.1545 L31.5773,28.1545 Z M24.2488,20.6442736 L24.2488,23.4272 C24.2488,23.7861851 23.9577851,24.0772 23.5988,24.0772 L16.4018,24.0772 C16.0428149,24.0772 15.7518,23.7861851 15.7518,23.4272 L15.7518,20.6437363 C14.7259231,19.5587737 14.150742,18.1192046 14.1518004,16.6195208 C14.1551753,13.3897303 16.7763,10.7738249 20.0054792,10.7772004 C23.2354056,10.7805754 25.8508673,13.4007176 25.8478002,16.6303099 C25.8487121,18.1272409 25.2738643,19.562961 24.2488,20.6442736 Z M18.0177,16.2304 C18.6797,16.2304 19.2167,16.7674 19.2167,17.4294 C19.2167,18.0924 18.6797,18.6294 18.0177,18.6294 C17.3557,18.6294 16.8187,18.0924 16.8187,17.4294 C16.8187,16.7674 17.3557,16.2304 18.0177,16.2304 Z M21.8365,16.2304 C22.4985,16.2304 23.0355,16.7674 23.0355,17.4294 C23.0355,18.0924 22.4985,18.6294 21.8365,18.6294 C21.1745,18.6294 20.6375,18.0924 20.6375,17.4294 C20.6375,16.7674 21.1745,16.2304 21.8365,16.2304 Z" id="Combined-Shape"></path>
        </g>
    </g>
</svg>