<?xml version="1.0" encoding="UTF-8"?>
<svg width="30px" height="31px" viewBox="0 0 30 31" version="1.1" xmlns="http://www.w3.org/2000/svg" xmlns:xlink="http://www.w3.org/1999/xlink">
    <!-- Generator: Sketch 48.2 (47327) - http://www.bohemiancoding.com/sketch -->
    <title>Combined Shape</title>
    <desc>Created with Sketch.</desc>
    <defs></defs>
    <g id="Artboard-Copy-185" stroke="none" stroke-width="1" fill="none" fill-rule="evenodd" transform="translate(-4.000000, -4.000000)">
        <path d="M20,31.8762344 L32,27.5442344 L32,10.3725494 L20,13.837978 L20,31.8762344 Z M18,31.8762344 L18,13.837978 L6,10.3725494 L6,27.5442344 L18,31.8762344 Z M8.60382257,9.0427688 L19,12.0450363 L29.3961774,9.0427688 L19,6.04124386 L8.60382257,9.0427688 Z M33.339552,29.1869873 L19.339552,34.2409873 C19.1201145,34.3202042 18.8798855,34.3202042 18.660448,34.2409873 L4.66044799,29.1869873 C4.2641215,29.0439134 4,28.6677607 4,28.2464 L4,9.0424 C4,8.59694678 4.29464204,8.20520306 4.72261518,8.0816411 L18.7226152,4.0396411 C18.9038375,3.98731963 19.0961625,3.98731963 19.2773848,4.0396411 L33.2773848,8.0816411 C33.705358,8.20520306 34,8.59694678 34,9.0424 L34,28.2464 C34,28.6677607 33.7358785,29.0439134 33.339552,29.1869873 Z" id="Combined-Shape" fill="#000000" fill-rule="nonzero"></path>
    </g>
</svg>