<?xml version="1.0" encoding="UTF-8"?>
<svg width="21px" height="30px" viewBox="0 0 21 30" version="1.1" xmlns="http://www.w3.org/2000/svg" xmlns:xlink="http://www.w3.org/1999/xlink">
    <!-- Generator: Sketch 48.2 (47327) - http://www.bohemiancoding.com/sketch -->
    <title>Combined Shape</title>
    <desc>Created with Sketch.</desc>
    <defs></defs>
    <g id="Artboard-Copy-155" stroke="none" stroke-width="1" fill="none" fill-rule="evenodd" transform="translate(-9.000000, -4.000000)">
        <path d="M13.2151351,19.85 L9,19.85 L9,18.15 L13.2151689,18.15 L24.2799615,4.31900921 C24.4412679,4.11737626 24.6854838,4 24.9437,4 L29.5667,4 L29.5667,5.7 L25.3522311,5.7 L14.712203,19.0000352 L17.8364207,22.9058249 L16.5088751,23.9677207 L13.2151351,19.85 Z M25.3524204,18.15 L29.5667,18.15 L29.5667,19.85 L25.3519911,19.85 L14.2874385,33.6806908 C14.1261321,33.8823237 13.8819162,33.9997 13.6237,33.9997 L8.9997,33.9997 L8.9997,32.2997 L13.2151689,32.2997 L23.8551267,18.9997528 L20.7299579,15.0940681 L22.0573319,14.0319579 L25.3524204,18.15 Z M9,5.7 L9,4 L13.623,4 C13.8811873,4 14.1253791,4.11735011 14.286687,4.31894486 L17.8367421,8.75563186 L16.5093681,9.81774214 L13.2145196,5.7 L9,5.7 Z M29.5667,32.2997 L29.5667,33.9997 L24.9437,33.9997 C24.6855127,33.9997 24.4413209,33.8823499 24.280013,33.6807551 L20.7299579,29.2440681 L22.0573319,28.1819579 L25.3521804,32.2997 L29.5667,32.2997 Z" id="Combined-Shape" fill="#000000" fill-rule="nonzero"></path>
    </g>
</svg>