<?xml version="1.0" encoding="UTF-8"?>
<svg width="28px" height="30px" viewBox="0 0 28 30" version="1.1" xmlns="http://www.w3.org/2000/svg" xmlns:xlink="http://www.w3.org/1999/xlink">
    <!-- Generator: Sketch 48.2 (47327) - http://www.bohemiancoding.com/sketch -->
    <title>Combined Shape</title>
    <desc>Created with Sketch.</desc>
    <defs></defs>
    <g id="Artboard-Copy-173" stroke="none" stroke-width="1" fill="none" fill-rule="evenodd" transform="translate(-6.000000, -4.000000)">
        <path d="M6.85,9.1455 L25.41,9.1455 C26.9962224,9.1455 28.282,10.4308383 28.282,12.0165 L28.282,33.1505 C28.282,33.619942 27.901442,34.0005 27.432,34.0005 L6.85,34.0005 C6.38055796,34.0005 6,33.619942 6,33.1505 L6,9.9955 C6,9.52605796 6.38055796,9.1455 6.85,9.1455 Z M7.7,32.3005 L26.582,32.3005 L26.582,12.0165 C26.582,11.3698525 26.0574683,10.8455 25.41,10.8455 L7.7,10.8455 L7.7,32.3005 Z M9.8591,5.7 L9.8591,4 L30.5561,4 C32.141542,4 33.4271,5.28555796 33.4271,6.871 L33.4271,31.427 L31.7271,31.427 L31.7271,6.871 C31.7271,6.22444204 31.202658,5.7 30.5561,5.7 L9.8591,5.7 Z M11.1455,17.2773 L11.1455,15.5773 L23.1365,15.5773 L23.1365,17.2773 L11.1455,17.2773 Z M11.1455,22.4227 L11.1455,20.7227 L23.1365,20.7227 L23.1365,22.4227 L11.1455,22.4227 Z M11.1455,27.5682 L11.1455,25.8682 L17.9905,25.8682 L17.9905,27.5682 L11.1455,27.5682 Z" id="Combined-Shape" fill="#000000" fill-rule="nonzero"></path>
    </g>
</svg>