<?xml version="1.0" encoding="UTF-8"?>
<svg width="29px" height="29px" viewBox="0 0 29 29" version="1.1" xmlns="http://www.w3.org/2000/svg" xmlns:xlink="http://www.w3.org/1999/xlink">
    <!-- Generator: Sketch 48.2 (47327) - http://www.bohemiancoding.com/sketch -->
    <title>Combined Shape</title>
    <desc>Created with Sketch.</desc>
    <defs></defs>
    <g id="Artboard-Copy-194" stroke="none" stroke-width="1" fill="none" fill-rule="evenodd" transform="translate(-5.000000, -5.000000)">
        <path d="M11.965,26.21 L11.965,11.932 L26.243,11.932 L26.243,26.21 L11.965,26.21 Z M24.543,24.51 L24.543,13.632 L13.665,13.632 L13.665,24.51 L24.543,24.51 Z M23.7828,10.1883 L22.0828,10.1883 L22.0828,5.0003 L23.7828,5.0003 L23.7828,10.1883 Z M19.9541,10.1883 L18.2541,10.1883 L18.2541,5.0003 L19.9541,5.0003 L19.9541,10.1883 Z M16.1255,10.1883 L14.4255,10.1883 L14.4255,5.0003 L16.1255,5.0003 L16.1255,10.1883 Z M23.7828,33.3 L22.0828,33.3 L22.0828,28.112 L23.7828,28.112 L23.7828,33.3 Z M19.9541,33.3 L18.2541,33.3 L18.2541,28.112 L19.9541,28.112 L19.9541,33.3 Z M16.1255,33.3 L14.4255,33.3 L14.4255,28.112 L16.1255,28.112 L16.1255,33.3 Z M33.3,14.3927 L33.3,16.0927 L28.112,16.0927 L28.112,14.3927 L33.3,14.3927 Z M33.3,18.2214 L33.3,19.9214 L28.112,19.9214 L28.112,18.2214 L33.3,18.2214 Z M33.3,22.05 L33.3,23.75 L28.112,23.75 L28.112,22.05 L33.3,22.05 Z M10.1883,14.3927 L10.1883,16.0927 L5.0003,16.0927 L5.0003,14.3927 L10.1883,14.3927 Z M10.1883,18.2214 L10.1883,19.9214 L5.0003,19.9214 L5.0003,18.2214 L10.1883,18.2214 Z M10.1883,22.05 L10.1883,23.75 L5.0003,23.75 L5.0003,22.05 L10.1883,22.05 Z" id="Combined-Shape" fill="#000000" fill-rule="nonzero"></path>
    </g>
</svg>