<?xml version="1.0" encoding="UTF-8"?>
<svg width="14px" height="12px" viewBox="0 0 14 12" version="1.1" xmlns="http://www.w3.org/2000/svg" xmlns:xlink="http://www.w3.org/1999/xlink">
    <!-- Generator: Sketch 49 (51002) - http://www.bohemiancoding.com/sketch -->
    <title>Combined Shape</title>
    <desc>Created with Sketch.</desc>
    <defs></defs>
    <g id="Page-1" stroke="none" stroke-width="1" fill="none" fill-rule="evenodd">
        <g id="Artboard-Copy-222" transform="translate(0.000000, -1.000000)" fill="#000000" fill-rule="nonzero">
            <path d="M12.514426,2.8057 L1.46740724,2.8057 C1.31954962,2.8057 1.19940724,2.92584237 1.19940724,3.0737 L1.19940724,9.3687 L0.199407241,9.3687 L0.199407241,3.0737 C0.199407241,2.37355763 0.767264866,1.8057 1.46740724,1.8057 L12.9784072,1.8057 C13.7290195,1.8057 14.0856039,2.72980619 13.5294329,3.2349523 L7.89368947,8.34971928 C7.36338467,8.83167275 6.55463034,8.83120145 6.02289558,8.34951063 L3.34308495,5.91099897 L4.01610828,5.17137771 L4.3859189,5.50788937 L6.69509214,7.60913874 C6.84495531,7.74489714 7.07219749,7.74502956 7.2213816,7.6094477 L12.514426,2.8057 Z M12.7175072,6.0213 L13.7175072,6.0213 L13.7175072,10.3533 C13.7175072,11.3697302 12.893362,12.1943 11.8765072,12.1943 L0.199507241,12.1943 L0.199507241,11.1943 L11.8765072,11.1943 C12.3409619,11.1943 12.7175072,10.8175607 12.7175072,10.3533 L12.7175072,6.0213 Z" id="Combined-Shape"></path>
        </g>
    </g>
</svg>