<?xml version="1.0" encoding="UTF-8"?>
<svg id="employee" width="32px" height="36px" viewBox="0 0 32 36" version="1.1" xmlns="http://www.w3.org/2000/svg" xmlns:xlink="http://www.w3.org/1999/xlink">
    <!-- Generator: Sketch 49 (51002) - http://www.bohemiancoding.com/sketch -->
    <title>Artboard Copy 285</title>
    <desc>Created with Sketch.</desc>
    <defs></defs>
    <g id="Artboard-Copy-285" stroke="none" stroke-width="1" fill="none" fill-rule="evenodd">
        <path d="M27.025,25.4282038 L27.025,27.3139 C27.025,27.7281136 26.6892136,28.0639 26.275,28.0639 L23.875,28.0639 C23.4607864,28.0639 23.125,27.7281136 23.125,27.3139 L23.125,24.5139 C23.125,23.4366864 23.9977864,22.5639 25.075,22.5639 C25.4749527,22.5639 25.8467247,22.6842155 26.1561078,22.8906384 C26.1757458,22.6416335 26.1846223,22.3608129 26.1847725,22.0419145 C26.1848323,21.9148451 26.1841055,21.8105551 26.1819258,21.5809491 C26.1797208,21.3486749 26.179,21.2482036 26.179,21.1203 L26.179,15.8215245 L21.95111,12.85683 C21.625461,12.9907884 21.2035888,13.1411727 20.6925916,13.2897374 C17.6045243,14.1875465 14.0112353,14.223972 10.1467649,12.8570951 L5.821,16.757048 L5.821,21.1203 C5.821,26.7177147 10.4032988,31.3003 16,31.3003 C16.9473599,31.3003 17.6082977,31.2328479 18.325,31.0437658 L18.325,26.5139 C18.325,25.6576864 19.0187864,24.9639 19.875,24.9639 L21.475,24.9639 C21.8892136,24.9639 22.225,25.2996864 22.225,25.7139 C22.225,26.1281136 21.8892136,26.4639 21.475,26.4639 L19.875,26.4639 C19.8472136,26.4639 19.825,26.4861136 19.825,26.5139 L19.825,33.7139 C19.825,33.7416864 19.8472136,33.7639 19.875,33.7639 L30.275,33.7639 C30.3027864,33.7639 30.325,33.7416864 30.325,33.7139 L30.325,26.5139 C30.325,26.4861136 30.3027864,26.4639 30.275,26.4639 L28.675,26.4639 C28.2607864,26.4639 27.925,26.1281136 27.925,25.7139 C27.925,25.2996864 28.2607864,24.9639 28.675,24.9639 L30.275,24.9639 C31.1312136,24.9639 31.825,25.6576864 31.825,26.5139 L31.825,33.7139 C31.825,34.5701136 31.1312136,35.2639 30.275,35.2639 L19.875,35.2639 C19.0187864,35.2639 18.325,34.5701136 18.325,33.7139 L18.325,32.7910301 C17.613889,32.942143 16.9051139,33.0003 16,33.0003 C9.4643909,33.0003 4.121,27.656575 4.121,21.1203 L4.121,14.8793 C4.121,8.34385796 9.46455796,3.0003 16,3.0003 C22.535442,3.0003 27.879,8.34385796 27.879,14.8793 L27.879,21.1203 C27.879,21.2409832 27.8796959,21.3379806 27.8818492,21.5648113 C27.8840822,21.8000266 27.8848357,21.9081465 27.8847723,22.042715 C27.8840326,23.6137685 27.6995355,24.5814987 27.025,25.4282029 Z M26.1101719,13.696953 C25.5192444,8.65153572 21.1968357,4.7003 16,4.7003 C10.5437259,4.7003 6.05136511,9.0558933 5.82958138,14.460416 L9.38953477,11.2508911 C9.6267943,11.0369865 9.96395248,10.9741693 10.2623254,11.0882783 C13.9420797,12.4955543 17.3348689,12.4955543 20.2179935,11.6573292 C20.6329564,11.536685 20.9970923,11.4082023 21.3064395,11.280925 C21.4847536,11.2075597 21.6006013,11.1534808 21.6500137,11.1278249 C21.9312177,10.9818183 22.2702901,11.0043389 22.5297141,11.186253 L26.1101719,13.696953 Z M15.2157894,25.9302134 C14.6923211,26.1694056 14.1761152,26.3577794 13.6786618,26.4759384 C13.3104293,26.5634038 12.9589599,26.6106 12.6249,26.6106 C12.155458,26.6106 11.7749,26.230042 11.7749,25.7606 C11.7749,25.291158 12.155458,24.9106 12.6249,24.9106 C12.8158147,24.9106 13.0384882,24.8806989 13.2857951,24.8219566 C13.6631988,24.7323127 14.0791108,24.5805382 14.5092606,24.3839866 C14.7755023,24.2623309 15.0301901,24.1314131 15.2631208,24.0007987 C15.4006645,23.923672 15.4979867,23.8653111 15.545482,23.8352656 C15.8694189,23.6303433 16.2904335,23.6675873 16.5733655,23.9261947 C16.6812726,24.0248248 16.9674162,24.2137243 17.4455659,24.4166516 C17.5265707,24.4510302 17.6105193,24.4844001 17.6974416,24.5166338 C18.1375939,24.6798569 18.3620893,25.1689894 18.1988662,25.6091416 C18.0356431,26.0492939 17.5465106,26.2737893 17.1063584,26.1105662 C16.9948,26.0691967 16.8864926,26.026144 16.7814205,25.9815513 C16.4529021,25.8421276 16.1773296,25.6992554 15.9530738,25.5633117 C15.7397421,25.6788325 15.4908996,25.8045052 15.2157894,25.9302134 Z M26.275,30.4639 C25.8607864,30.4639 25.525,30.1281136 25.525,29.7139 C25.525,29.2996864 25.8607864,28.9639 26.275,28.9639 L28.675,28.9639 C29.0892136,28.9639 29.425,29.2996864 29.425,29.7139 C29.425,30.1281136 29.0892136,30.4639 28.675,30.4639 L26.275,30.4639 Z M26.275,32.8639 C25.8607864,32.8639 25.525,32.5281136 25.525,32.1139 C25.525,31.6996864 25.8607864,31.3639 26.275,31.3639 L28.104,31.3639 C28.5182136,31.3639 28.854,31.6996864 28.854,32.1139 C28.854,32.5281136 28.5182136,32.8639 28.104,32.8639 L26.275,32.8639 Z M21.4747,32.8639 C21.0604864,32.8639 20.7247,32.5281136 20.7247,32.1139 L20.7247,29.7139 C20.7247,29.2996864 21.0604864,28.9639 21.4747,28.9639 L23.8747,28.9639 C24.2889136,28.9639 24.6247,29.2996864 24.6247,29.7139 L24.6247,32.1139 C24.6247,32.5281136 24.2889136,32.8639 23.8747,32.8639 L21.4747,32.8639 Z M23.1247,31.3639 L23.1247,30.4639 L22.2247,30.4639 L22.2247,31.3639 L23.1247,31.3639 Z M25.525,24.5139 C25.525,24.2651136 25.3237864,24.0639 25.075,24.0639 C24.8262136,24.0639 24.625,24.2651136 24.625,24.5139 L24.625,26.5639 L25.525,26.5639 L25.525,24.5139 Z" id="Combined-Shape" fill="#000000" fill-rule="nonzero"></path>
    </g>
</svg>
