<?xml version="1.0" encoding="UTF-8"?>
<svg id="employee" width="28px" height="36px" viewBox="0 0 28 36" version="1.1" xmlns="http://www.w3.org/2000/svg" xmlns:xlink="http://www.w3.org/1999/xlink">
    <!-- Generator: Sketch 49 (51002) - http://www.bohemiancoding.com/sketch -->
    <title>Artboard Copy 281</title>
    <desc>Created with Sketch.</desc>
    <defs></defs>
    <g id="Artboard-Copy-281" stroke="none" stroke-width="1" fill="none" fill-rule="evenodd">
        <path d="M22.9825571,23.9704597 C23.0091244,24.0988022 23.023084,24.2317663 23.023084,24.368 L23.023084,27.168 C23.023084,27.5822136 22.6872976,27.918 22.273084,27.918 L19.873084,27.918 C19.4588704,27.918 19.123084,27.5822136 19.123084,27.168 L19.123084,24.368 C19.123084,23.2907864 19.9958704,22.418 21.073084,22.418 C21.2467798,22.418 21.4151606,22.4406925 21.5754241,22.4832756 C21.6663143,21.9910638 21.723084,21.5273235 21.723084,21.1933 L21.723084,14.8269199 C17.4982438,14.7951851 13.8447432,14.1762497 11.0511427,13.3461401 C10.8884852,13.297844 10.7177893,13.308887 10.5618808,13.3776698 L6.193084,15.3097982 L6.193084,21.1933 C6.193084,25.461858 9.68952604,28.9583 13.958084,28.9583 C14.0796309,28.9583 14.2013114,28.9554165 14.323084,28.949686 L14.323084,26.368 C14.323084,25.5117864 15.0168704,24.818 15.873084,24.818 L17.473084,24.818 C17.8872976,24.818 18.223084,25.1537864 18.223084,25.568 C18.223084,25.9822136 17.8872976,26.318 17.473084,26.318 L15.873084,26.318 C15.8452976,26.318 15.823084,26.3402136 15.823084,26.368 L15.823084,33.568 C15.823084,33.5957864 15.8452976,33.618 15.873084,33.618 L26.273084,33.618 C26.3008704,33.618 26.323084,33.5957864 26.323084,33.568 L26.323084,26.368 C26.323084,26.3402136 26.3008704,26.318 26.273084,26.318 L24.673084,26.318 C24.2588704,26.318 23.923084,25.9822136 23.923084,25.568 C23.923084,25.1537864 24.2588704,24.818 24.673084,24.818 L24.8728776,24.818 C24.7209166,22.8675311 24.6236284,20.8868151 24.5712638,18.9423989 C24.5329787,17.5207879 24.5233243,16.3210425 24.5295872,15.4318133 C24.5307485,15.2929886 24.5307485,15.2929886 24.531084,15.2735 C24.531084,9.45972939 19.7714293,4.6995 13.958084,4.6995 C8.14473866,4.6995 3.385084,9.45972939 3.38474588,15.2974726 C3.38289803,15.3629659 3.37885588,15.4880263 3.37221599,15.6690628 C3.36120048,15.9694002 3.34678051,16.3185192 3.32855221,16.7128302 C3.27653881,17.8379734 3.20444627,19.1007119 3.10903505,20.4723582 C2.86029024,24.0483514 2.50149362,27.6992746 2.01264032,31.2516207 C2.28824104,31.2314997 2.58047397,31.2052052 2.88640556,31.1719039 C4.29873973,31.0181684 5.70952361,30.7491885 7.01707436,30.3394393 C7.84780165,30.079113 8.6058885,29.7707618 9.27812069,29.4128737 C6.42514527,27.7781663 4.493084,24.7012598 4.493084,21.1933 L4.493084,14.2028018 L4.99928723,13.9789302 L9.87498982,11.8226199 C10.3998284,11.5910734 10.9851921,11.5532041 11.5351961,11.7165106 C14.363683,12.5569865 18.1591957,13.1754474 22.563417,13.125355 L23.423084,13.1155773 L23.423084,21.1933 C23.423084,21.940015 23.2353415,23.0184357 22.9825571,23.9704597 Z M26.5805386,24.8484745 C27.2894088,24.9910539 27.823084,25.6170557 27.823084,26.368 L27.823084,33.568 C27.823084,34.4242136 27.1292976,35.118 26.273084,35.118 L15.873084,35.118 C15.0168704,35.118 14.323084,34.4242136 14.323084,33.568 L14.323084,30.6512319 C14.2014287,30.6559344 14.0797515,30.6583 13.958084,30.6583 C12.993093,30.6583 12.0607209,30.5120964 11.182016,30.2407375 C10.1537696,30.9577272 8.92072382,31.5244068 7.52542972,31.9616523 C6.10115695,32.4079788 4.58498706,32.6970516 3.07036746,32.8619211 C2.54114559,32.919528 2.04920438,32.9575981 1.6064931,32.9799187 C1.33756004,32.9934778 1.14227711,32.9987591 1.03268739,32.9994815 C0.512272675,33.0029123 0.11099369,32.5420835 0.185945436,32.027083 C0.742584509,28.2023638 1.1432596,24.2341322 1.41313295,20.3543918 C1.50759673,18.9963662 1.57894168,17.7467219 1.63036579,16.634326 C1.64834061,16.2454983 1.66253783,15.9017726 1.67335826,15.6067536 C1.67981993,15.4305763 1.68370747,15.3102998 1.685084,15.2735 C1.685084,8.52089127 7.20580863,2.9995 13.958084,2.9995 C20.7103594,2.9995 26.231084,8.52089127 26.2310075,15.2849072 C26.2306606,15.3105572 26.2306606,15.3105572 26.2295451,15.4437863 C26.2234111,16.3147059 26.2329125,17.4954443 26.2706476,18.8966332 C26.3237357,20.8679122 26.423632,22.8765094 26.5805386,24.8484745 Z M22.273084,30.318 C21.8588704,30.318 21.523084,29.9822136 21.523084,29.568 C21.523084,29.1537864 21.8588704,28.818 22.273084,28.818 L24.673084,28.818 C25.0872976,28.818 25.423084,29.1537864 25.423084,29.568 C25.423084,29.9822136 25.0872976,30.318 24.673084,30.318 L22.273084,30.318 Z M22.273084,32.718 C21.8588704,32.718 21.523084,32.3822136 21.523084,31.968 C21.523084,31.5537864 21.8588704,31.218 22.273084,31.218 L24.102084,31.218 C24.5162976,31.218 24.852084,31.5537864 24.852084,31.968 C24.852084,32.3822136 24.5162976,32.718 24.102084,32.718 L22.273084,32.718 Z M17.473484,32.718 C17.0592704,32.718 16.723484,32.3822136 16.723484,31.968 L16.723484,29.568 C16.723484,29.1537864 17.0592704,28.818 17.473484,28.818 L19.873484,28.818 C20.2876976,28.818 20.623484,29.1537864 20.623484,29.568 L20.623484,31.968 C20.623484,32.3822136 20.2876976,32.718 19.873484,32.718 L17.473484,32.718 Z M19.123484,31.218 L19.123484,30.318 L18.223484,30.318 L18.223484,31.218 L19.123484,31.218 Z M21.523084,24.368 C21.523084,24.1192136 21.3218704,23.918 21.073084,23.918 C20.8242976,23.918 20.623084,24.1192136 20.623084,24.368 L20.623084,26.418 L21.523084,26.418 L21.523084,24.368 Z" id="Combined-Shape" fill="#000000" fill-rule="nonzero"></path>
    </g>
</svg>
