<?xml version="1.0" encoding="UTF-8"?>
<svg width="28px" height="32px" viewBox="0 0 28 32" version="1.1" xmlns="http://www.w3.org/2000/svg" xmlns:xlink="http://www.w3.org/1999/xlink">
    <!-- Generator: Sketch 49 (51002) - http://www.bohemiancoding.com/sketch -->
    <title>Combined Shape</title>
    <desc>Created with Sketch.</desc>
    <defs></defs>
    <g id="Page-1" stroke="none" stroke-width="1" fill="none" fill-rule="evenodd">
        <g id="Artboard-Copy-306" transform="translate(-6.000000, -4.000000)" fill="#000000" fill-rule="nonzero">
            <path d="M15.67055,8.1491 L25.05385,8.1491 L25.05385,4.5 L26.75385,4.5 L26.75385,8.1491 L33.67545,8.1491 L33.67545,9.8491 L26.75385,9.8491 L26.75385,13.638 L25.05385,13.638 L25.05385,9.8491 L15.67055,9.8491 L15.67055,13.638 L13.97055,13.638 L13.97055,9.8491 L9.73945,9.8491 C8.7924954,9.8491 8.02445,10.6169386 8.02445,11.5641 L8.02445,29.0871 L6.32445,29.0871 L6.32445,11.5641 C6.32445,9.67795203 7.85371379,8.1491 9.73945,8.1491 L13.97055,8.1491 L13.97055,4.5 L15.67055,4.5 L15.67055,8.1491 Z M6.32455,35.5 L6.32455,33.8 L30.26055,33.8 C31.2075046,33.8 31.97555,33.0321614 31.97555,32.085 L31.97555,14.562 L33.67555,14.562 L33.67555,32.085 C33.67555,33.971148 32.1462862,35.5 30.26055,35.5 L6.32455,35.5 Z" id="Combined-Shape"></path>
        </g>
    </g>
</svg>