<?xml version="1.0" encoding="UTF-8"?>
<svg width="30px" height="30px" viewBox="0 0 30 30" version="1.1" xmlns="http://www.w3.org/2000/svg" xmlns:xlink="http://www.w3.org/1999/xlink">
    <!-- Generator: Sketch 49 (51002) - http://www.bohemiancoding.com/sketch -->
    <title>Combined Shape</title>
    <desc>Created with Sketch.</desc>
    <defs></defs>
    <g id="Page-1" stroke="none" stroke-width="1" fill="none" fill-rule="evenodd">
        <g id="Artboard-Copy-312" transform="translate(-5.000000, -5.000000)" fill="#000000" fill-rule="nonzero">
            <path d="M10.66,29.01375 L5.85,29.01375 C5.38055796,29.01375 5,28.633192 5,28.16375 L5,14.95675 C5,14.487308 5.38055796,14.10675 5.85,14.10675 L34.15,14.10675 C34.619442,14.10675 35,14.487308 35,14.95675 L35,28.16375 C35,28.633192 34.619442,29.01375 34.15,29.01375 L29.34,29.01375 L29.34,33.82375 C29.34,34.293192 28.959442,34.67375 28.49,34.67375 L11.51,34.67375 C11.040558,34.67375 10.66,34.293192 10.66,33.82375 L10.66,29.01375 Z M29.34,27.31375 L33.3,27.31375 L33.3,15.80675 L6.7,15.80675 L6.7,27.31375 L10.66,27.31375 L10.66,23.50375 C10.66,22.482308 11.488558,21.65375 12.51,21.65375 L27.49,21.65375 C28.511442,21.65375 29.34,22.482308 29.34,23.50375 L29.34,27.31375 Z M12.36,7.02625 L12.36,12.68625 L10.66,12.68625 L10.66,6.17625 C10.66,5.70680796 11.040558,5.32625 11.51,5.32625 L28.49,5.32625 C28.959442,5.32625 29.34,5.70680796 29.34,6.17625 L29.34,12.68625 L27.64,12.68625 L27.64,7.02625 L12.36,7.02625 Z M27.64,23.50375 C27.64,23.421192 27.572558,23.35375 27.49,23.35375 L12.51,23.35375 C12.427442,23.35375 12.36,23.421192 12.36,23.50375 L12.36,32.97375 L27.64,32.97375 L27.64,23.50375 Z" id="Combined-Shape"></path>
        </g>
    </g>
</svg>