<?xml version="1.0" encoding="UTF-8"?>
<svg id="file" width="12px" height="14px" viewBox="0 0 12 14" version="1.1" xmlns="http://www.w3.org/2000/svg" xmlns:xlink="http://www.w3.org/1999/xlink">
    <!-- Generator: Sketch 48.2 (47327) - http://www.bohemiancoding.com/sketch -->
    <title>Combined Shape</title>
    <desc>Created with Sketch.</desc>
    <defs></defs>
    <g id="Artboard-Copy-48" stroke="none" stroke-width="1" fill="none" fill-rule="evenodd" transform="translate(-1.000000, 0.000000)">
        <path d="M9.03505,1.9293856 L9.03505,3.629 L10.6973642,3.629 L9.03505,1.9293856 Z M11.42995,4.929 L8.38505,4.929 C8.02606491,4.929 7.73505,4.63798509 7.73505,4.279 L7.73505,1.3 L2.56995,1.3 L2.56995,12.7 L11.42995,12.7 L11.42995,4.929 Z M8.69301477,3.33066907e-16 C8.86790731,3.33066907e-16 9.03542097,0.0704770019 9.15770906,0.195507992 L12.5447386,3.65850799 C12.6635321,3.779966 12.73005,3.94310681 12.73005,4.113 L12.73005,13.35 C12.73005,13.7089851 12.4390325,14 12.0800443,14 L1.91995567,14 C1.56096745,14 1.26995,13.7089851 1.26995,13.35 L1.26995,0.65 C1.26995,0.291014913 1.56096745,3.33066907e-16 1.91995567,3.33066907e-16 L8.69301477,3.33066907e-16 Z" id="Combined-Shape" fill="#000000" fill-rule="nonzero"></path>
    </g>
</svg>
