<?xml version="1.0" encoding="UTF-8"?>
<svg width="16px" height="18px" viewBox="0 0 16 18" version="1.1" xmlns="http://www.w3.org/2000/svg" xmlns:xlink="http://www.w3.org/1999/xlink">
    <!-- Generator: Sketch 48.2 (47327) - http://www.bohemiancoding.com/sketch -->
    <title>Combined Shape</title>
    <desc>Created with Sketch.</desc>
    <defs></defs>
    <g id="Artboard-Copy-49" stroke="none" stroke-width="1" fill="none" fill-rule="evenodd" transform="translate(-1.000000, 0.000000)">
        <path d="M11.5106,2.00551513 L11.5106,4.743 L14.1876147,4.743 L11.5106,2.00551513 Z M14.94,6.143 L10.8106,6.143 C10.4240007,6.143 10.1106,5.82959932 10.1106,5.443 L10.1106,1.4 L3.06,1.4 L3.06,16.6 L14.94,16.6 L14.94,6.143 Z M11.213,-7.77156117e-16 C11.401362,-7.77156117e-16 11.5817752,0.0759126127 11.7134715,0.210583748 L16.1404715,4.73758375 C16.2683798,4.86838136 16.34,5.04405587 16.34,5.227 L16.34,17.3 C16.34,17.6865993 16.0265993,18 15.64,18 L2.36,18 C1.97340068,18 1.66,17.6865993 1.66,17.3 L1.66,0.7 C1.66,0.313400675 1.97340068,-7.77156117e-16 2.36,-7.77156117e-16 L11.213,-7.77156117e-16 Z" id="Combined-Shape" fill="#000000" fill-rule="nonzero"></path>
    </g>
</svg>