<?xml version="1.0" encoding="UTF-8"?>
<svg id="file" width="25px" height="30px" viewBox="0 0 25 30" version="1.1" xmlns="http://www.w3.org/2000/svg" xmlns:xlink="http://www.w3.org/1999/xlink">
    <!-- Generator: Sketch 48.2 (47327) - http://www.bohemiancoding.com/sketch -->
    <title>Combined Shape</title>
    <desc>Created with Sketch.</desc>
    <defs></defs>
    <g id="Artboard-Copy-50" stroke="none" stroke-width="1" fill="none" fill-rule="evenodd" transform="translate(-3.000000, 0.000000)">
        <path d="M27.1135,9.09267137 C27.113766,9.10141501 27.1139,9.11019186 27.1139,9.119 C27.1139,9.12780814 27.113766,9.13658499 27.1135,9.14532863 L27.1135,29.15 C27.1135,29.619442 26.732942,30 26.2635,30 L3.8495,30 C3.38005796,30 2.9995,29.619442 2.9995,29.15 L2.9995,0.85 C2.9995,0.380557963 3.38005796,-2.22044605e-15 3.8495,-2.22044605e-15 L18.7925,-2.22044605e-15 C19.0227273,-2.22044605e-15 19.2431072,0.0933906327 19.403234,0.258811385 L26.874234,7.97681138 C27.0276986,8.13534965 27.1135,8.34735152 27.1135,8.568 L27.1135,9.09267137 Z M19.1089,2.39897475 L19.1089,8.269 L24.7910662,8.269 L19.1089,2.39897475 Z M25.4135,9.969 L18.2589,9.969 C17.789458,9.969 17.4089,9.58844204 17.4089,9.119 L17.4089,1.7 L4.6995,1.7 L4.6995,28.3 L25.4135,28.3 L25.4135,9.969 Z" id="Combined-Shape" fill="#000000" fill-rule="nonzero"></path>
    </g>
</svg>
