<?xml version="1.0" encoding="UTF-8"?>
<svg width="30px" height="30px" viewBox="0 0 30 30" version="1.1" xmlns="http://www.w3.org/2000/svg" xmlns:xlink="http://www.w3.org/1999/xlink">
    <!-- Generator: Sketch 48.2 (47327) - http://www.bohemiancoding.com/sketch -->
    <title>Combined Shape</title>
    <desc>Created with Sketch.</desc>
    <defs></defs>
    <g id="Artboard-Copy-11" stroke="none" stroke-width="1" fill="none" fill-rule="evenodd">
        <path d="M11.00807,1.7 L4.115,1.7 C2.78144204,1.7 1.7,2.78144204 1.7,4.115 L1.7,25.885 C1.7,27.218558 2.78144204,28.3 4.115,28.3 L25.886,28.3 C27.2192867,28.3 28.3,27.2188293 28.3,25.885 L28.3,9.421 C28.3,8.08717074 27.2192867,7.006 25.886,7.006 L15,7.006 C14.7157867,7.006 14.4503796,6.86395103 14.2927367,6.62746441 L11.00807,1.7 Z M15.45493,5.306 L25.886,5.306 C28.1583319,5.306 30,7.14844767 30,9.421 L30,25.885 C30,28.1575523 28.1583319,30 25.886,30 L4.115,30 C1.84255796,30 2.26485497e-14,28.157442 2.26485497e-14,25.885 L2.26485497e-14,4.115 C2.26485497e-14,1.84255796 1.84255796,-2.35367281e-14 4.115,-2.35367281e-14 L11.463,-2.35367281e-14 C11.7472133,-2.35367281e-14 12.0126204,0.142048971 12.1702633,0.378535594 L15.45493,5.306 Z" id="Combined-Shape" fill="#000000" fill-rule="nonzero"></path>
    </g>
</svg>