<?xml version="1.0" encoding="UTF-8"?>
<svg width="14px" height="30px" viewBox="0 0 14 30" version="1.1" xmlns="http://www.w3.org/2000/svg" xmlns:xlink="http://www.w3.org/1999/xlink">
    <!-- Generator: Sketch 49 (51002) - http://www.bohemiancoding.com/sketch -->
    <title>Combined Shape</title>
    <desc>Created with Sketch.</desc>
    <defs></defs>
    <g id="Page-1" stroke="none" stroke-width="1" fill="none" fill-rule="evenodd">
        <g id="Artboard-Copy-378" transform="translate(-13.000000, -5.000000)" fill="#000000" fill-rule="nonzero">
            <path d="M22.5590608,10.8800231 L17.2876608,10.8800231 L17.2876608,14.8570231 L24.8229436,14.8570231 L26.2546724,34.7710693 L24.5590491,34.8929769 L23.7610918,23.794116 L15.7762772,29.2059221 L15.442394,34.8819368 L13.7453276,34.7821094 L14.9173915,14.8570231 L15.5876608,14.8570231 L15.5876608,10.8800231 L14.9937608,10.8800231 L14.9937608,10.0300231 C14.9937608,7.31158107 17.1983187,5.10702311 19.9167608,5.10702311 C22.6352028,5.10702311 24.8397608,7.31158107 24.8397608,10.0300231 L24.8397608,10.8800231 L24.2590608,10.8800231 L24.2590608,14.8420231 L22.5590608,14.8420231 L22.5590608,10.8800231 Z M15.9020975,27.0669771 L23.6203028,21.8358688 L23.3529677,18.1174818 L16.1430882,23.1533706 L16.1331469,23.1391376 L15.9020975,27.0669771 Z M16.2590521,20.9987487 L22.6182684,16.5570231 L16.5203301,16.5570231 L16.2590521,20.9987487 Z M19.9167608,6.80702311 C18.4313894,6.80702311 17.18019,7.81266923 16.8071009,9.18002311 L23.0264207,9.18002311 C22.6533316,7.81266923 21.4021322,6.80702311 19.9167608,6.80702311 Z M19.0772608,29.9154231 C19.0772608,29.4459811 19.4578187,29.0654231 19.9272608,29.0654231 C20.3967028,29.0654231 20.7772608,29.4459811 20.7772608,29.9154231 L20.7772608,32.8324231 C20.7772608,33.3018651 20.3967028,33.6824231 19.9272608,33.6824231 C19.4578187,33.6824231 19.0772608,33.3018651 19.0772608,32.8324231 L19.0772608,29.9154231 Z" id="Combined-Shape"></path>
        </g>
    </g>
</svg>