<?xml version="1.0" encoding="UTF-8"?>
<svg width="20px" height="18px" viewBox="0 0 20 18" version="1.1" xmlns="http://www.w3.org/2000/svg" xmlns:xlink="http://www.w3.org/1999/xlink">
    <!-- Generator: Sketch 48.2 (47327) - http://www.bohemiancoding.com/sketch -->
    <title>Combined Shape</title>
    <desc>Created with Sketch.</desc>
    <defs></defs>
    <g id="Artboard-Copy-203" stroke="none" stroke-width="1" fill="none" fill-rule="evenodd" transform="translate(-9.000000, -11.000000)">
        <path d="M9,28.9254 L9,11.0004 L11.126,11.0004 L11.126,28.9254 L9,28.9254 Z M16.12,28.9251 L16.12,11.0001 L23.008,11.0001 C24.818,11.0001 26.269,11.4821 27.361,12.4471 C28.453,13.4111 29,14.7731 29,16.5311 C29,18.2721 28.463,19.6211 27.387,20.5771 C26.311,21.5341 24.869,22.0101 23.059,22.0101 L18.245,22.0101 L18.245,28.9251 L16.12,28.9251 Z M18.245,20.0651 L22.931,20.0651 C24.058,20.0651 24.992,19.7671 25.736,19.1691 C26.477,18.5721 26.848,17.6921 26.848,16.5311 C26.848,15.3201 26.473,14.4181 25.722,13.8291 C24.97,13.2411 24.024,12.9451 22.879,12.9451 L18.245,12.9451 L18.245,20.0651 Z" id="Combined-Shape" fill="#000000"></path>
    </g>
</svg>