<?xml version="1.0" encoding="UTF-8"?>
<svg width="14px" height="12px" viewBox="0 0 14 12" version="1.1" xmlns="http://www.w3.org/2000/svg" xmlns:xlink="http://www.w3.org/1999/xlink">
    <!-- Generator: Sketch 49 (51002) - http://www.bohemiancoding.com/sketch -->
    <title>Artboard Copy 201</title>
    <desc>Created with Sketch.</desc>
    <defs></defs>
    <g id="Artboard-Copy-201" stroke="none" stroke-width="1" fill="none" fill-rule="evenodd">
        <path d="M2,11.3776 L2,0.6226 L3.275,0.6226 L3.275,11.3776 L2,11.3776 Z M6.272,11.3774 L6.272,0.6224 L10.405,0.6224 C11.491,0.6224 12.361,0.9114 13.017,1.4904 C13.672,2.0694 14,2.8864 14,3.9414 C14,4.9854 13.678,5.7954 13.032,6.3684 C12.387,6.9424 11.521,7.2284 10.436,7.2284 L7.547,7.2284 L7.547,11.3774 L6.272,11.3774 Z M7.547,6.0614 L10.359,6.0614 C11.035,6.0614 11.595,5.8824 12.041,5.5244 C12.486,5.1654 12.709,4.6374 12.709,3.9414 C12.709,3.2144 12.484,2.6734 12.033,2.3194 C11.582,1.9664 11.014,1.7894 10.328,1.7894 L7.547,1.7894 L7.547,6.0614 Z" id="Combined-Shape" fill="#000000"></path>
    </g>
</svg>