<?xml version="1.0" encoding="UTF-8"?>
<svg id="location" width="14px" height="14px" viewBox="0 0 14 14" version="1.1" xmlns="http://www.w3.org/2000/svg" xmlns:xlink="http://www.w3.org/1999/xlink">
    <!-- Generator: Sketch 49 (51002) - http://www.bohemiancoding.com/sketch -->
    <title>Combined Shape</title>
    <desc>Created with Sketch.</desc>
    <defs></defs>
    <g id="Page-1" stroke="none" stroke-width="1" fill="none" fill-rule="evenodd">
        <g id="Artboard-Copy-265" transform="translate(-2.000000, -2.000000)" fill="#000000" fill-rule="nonzero">
            <path d="M9,2.2 C12.7551424,2.2 15.8,5.24485763 15.8,9 C15.8,12.7551424 12.7551424,15.8 9,15.8 C5.24485763,15.8 2.2,12.7551424 2.2,9 C2.2,5.24485763 5.24485763,2.2 9,2.2 Z M9,3.2 C5.79714237,3.2 3.2,5.79714237 3.2,9 C3.2,12.2028576 5.79714237,14.8 9,14.8 C12.2028576,14.8 14.8,12.2028576 14.8,9 C14.8,5.79714237 12.2028576,3.2 9,3.2 Z M5.01107828,10.8563222 C4.92152258,10.798681 4.8279172,10.7480817 4.7712467,10.7203686 L4.64060501,10.6564819 L4.56460715,10.5324937 C4.4953385,10.419484 4.39630004,10.2413993 4.29674184,10.029194 C4.23025288,9.88747478 4.17270684,9.74849608 4.12665532,9.61387489 C4.05089954,9.39242005 4.0079,9.18967393 4.0079,9.0002 C4.0079,8.29195932 4.49881937,7.81836652 5.10339174,7.75539339 C5.20768687,7.73750848 5.3020544,7.68663541 5.38741918,7.60871228 C5.45739927,7.54483269 5.50273758,7.48210853 5.51630065,7.45682696 L5.61902689,7.26534526 L5.82910644,7.20980698 C5.90117194,7.19075519 6.02295663,7.15054617 6.13818777,7.09733716 C6.22886116,7.05546792 6.28543096,7.01550714 6.27445925,7.03468993 C6.24663937,7.08352063 6.24395304,6.97415149 6.21762663,6.83674873 C6.20358422,6.76345856 6.18527528,6.68416301 6.16373525,6.6016419 C6.12984043,6.47178885 6.09588109,6.36191841 6.07457505,6.2993319 L6.02739483,6.16074002 L6.06241769,6.01858842 C6.06456631,6.00986758 6.06984372,5.98426191 6.07562765,5.94702406 C6.09051037,5.85120672 6.09595331,5.75325572 6.08765318,5.67241003 C6.08398631,5.63669357 6.07792699,5.60778671 6.0702618,5.58620424 C6.05662407,5.54745779 6.01932822,5.4913766 5.96400888,5.43120687 C5.90234305,5.36413421 5.83878186,5.31177249 5.80641933,5.28938214 L5.68418442,5.20481264 L5.6279983,5.0672027 C5.57933138,4.94800862 5.48597886,4.75562169 5.36640438,4.56852338 C5.2671458,4.41321337 5.16935795,4.29679494 5.09133464,4.23901445 L5.68646536,3.43538555 C5.87988956,3.57862664 6.04988628,3.7810112 6.20902003,4.03000795 C6.33065547,4.22033105 6.42821315,4.40751674 6.49839108,4.56129288 C6.56137419,4.61402247 6.63044512,4.67856222 6.70016419,4.75439423 C6.83963137,4.90608984 6.94878383,5.07022072 7.01305081,5.25281747 C7.04883686,5.35354855 7.07105565,5.45954649 7.08242431,5.57028063 C7.10067196,5.74801825 7.09072496,5.92702426 7.06377886,6.10050754 C7.08405347,6.1761577 7.10767387,6.25850564 7.13131591,6.34907969 C7.15808977,6.4516519 7.18125356,6.55197369 7.1997617,6.6485714 C7.27166218,7.02383434 7.27827039,7.29287553 7.1429147,7.53045641 C7.02182709,7.74214803 6.8230686,7.88255059 6.55741092,8.00522039 C6.45818008,8.05104111 6.36098724,8.088907 6.27302096,8.11909761 C6.21641679,8.19225577 6.14634512,8.26992113 6.06160065,8.34727803 C5.84350901,8.54635758 5.58041982,8.68818767 5.24054688,8.74542058 C5.08519981,8.76186909 5.0079,8.83644068 5.0079,9.0002 C5.0079,9.06148178 5.02962592,9.16392114 5.07282596,9.29020667 C5.10607408,9.3874 5.15003761,9.49357577 5.20205816,9.604456 C5.25402299,9.71521749 5.30619878,9.81532298 5.35053735,9.89511255 C5.41314237,9.92970095 5.48211692,9.97026999 5.55229879,10.0154415 C5.64866704,10.0774675 5.73327035,10.1397876 5.80541686,10.2054086 C5.90427885,10.2953288 5.97964265,10.3889365 6.02867361,10.5108485 C6.06942217,10.6135807 6.09640553,10.7332663 6.11840755,10.8780496 C6.13308243,10.974617 6.14361439,11.0690527 6.15075214,11.1504268 C6.18759784,11.2245606 6.22905676,11.3162904 6.27032766,11.4215653 C6.35423442,11.6355969 6.41396688,11.850114 6.43820545,12.0618579 C6.47138716,12.3517276 6.43645115,12.6210767 6.30444273,12.8589836 C6.2047068,13.0375805 6.05313515,13.144494 5.84702254,13.2415415 C5.79869881,13.2642946 5.75132095,13.2844016 5.70639431,13.3019304 L5.24300171,13.9974352 L4.41079829,13.4429648 L5.06927772,12.4546545 L5.24510542,12.4038501 C5.28438835,12.3924995 5.35574041,12.3675563 5.4210337,12.3368131 C5.44113605,12.327348 5.45421629,12.3194985 5.44839073,12.3367652 C5.44955794,12.3220663 5.45444952,12.2608126 5.44469357,12.1755863 C5.43156017,12.0608552 5.39407562,11.926237 5.33931425,11.7865503 C5.29455046,11.6723656 5.25023779,11.582493 5.2247632,11.5374843 L5.16772589,11.4367104 L5.16079615,11.3211223 C5.15656068,11.2504747 5.14627588,11.1369849 5.12975803,11.0282899 C5.12368487,10.9883257 5.11720148,10.9534214 5.11165907,10.9274203 C5.0864055,10.907107 5.05192185,10.8826106 5.01107828,10.8563222 Z M10.648615,5.74122355 C10.8111271,5.86405205 10.9637148,5.94302166 11.0744626,5.96185802 C11.088182,5.96391922 11.1379906,5.95160873 11.2162423,5.91242357 C11.3177076,5.86161402 11.4363369,5.78036511 11.561661,5.67749614 C11.7212033,5.54654006 11.8549292,5.41356324 11.9291246,5.3310603 L12.0350495,5.21327503 L12.1894751,5.17797359 C12.2497844,5.16418701 12.3587791,5.1377015 12.4998766,5.10070605 C12.7349854,5.03906101 12.969808,4.97117911 13.186994,4.8996387 C13.4151856,4.82447311 13.6092232,4.74990636 13.7554381,4.67968475 L14.1883619,5.58111525 C13.9974092,5.67282283 13.7656501,5.76188557 13.4998549,5.84943768 C13.2609365,5.92813666 13.0070757,6.00152209 12.7535012,6.06800875 C12.6817673,6.08681724 12.6173845,6.10318989 12.5620306,6.11691964 C12.4640602,6.2163337 12.3393357,6.33289788 12.1961211,6.45045174 C12.0178625,6.59677057 11.8407769,6.71805601 11.6639981,6.80657944 C11.4210502,6.92823762 11.1838014,6.98687494 10.944139,6.95350948 C10.92536,6.95077051 10.92536,6.95077051 10.9067873,6.94770029 C10.6090988,6.89706844 10.3246222,6.74984162 10.0456519,6.53899257 C9.85563826,6.39537806 9.70669078,6.25297024 9.61360792,6.1503818 L9.47727784,6.00012977 L9.48419029,5.79736444 C9.48451923,5.78788058 9.48451923,5.78788058 9.48571944,5.73633222 C9.48866365,5.58961032 9.48802519,5.42960339 9.48142182,5.28212265 C9.45802024,5.28626205 9.4346252,5.28984059 9.41042176,5.29297025 C9.14564233,5.32720797 8.90020651,5.28279959 8.68702036,5.11240811 C8.46263784,4.93239975 8.36624738,4.67762141 8.34579132,4.38456965 C8.3420906,4.33155348 8.34103052,4.27845623 8.34225457,4.22546455 C8.04408558,4.08505241 7.85242326,3.94714476 7.7595172,3.69292883 C7.67115552,3.44775628 7.72001855,3.23171133 7.84564648,2.93944579 C7.86511063,2.89416366 7.87868022,2.86460237 7.9110877,2.79621049 C8.0003565,2.61326508 8.01701983,2.57842262 8.02088572,2.56639541 L8.97291428,2.87240459 C8.94489615,2.9595721 8.89419856,3.06557905 8.81311715,3.22788501 C8.79070046,3.27523495 8.78080573,3.29657957 8.76992077,3.32152368 C8.8686865,3.36784066 8.97239588,3.40563798 9.03466512,3.4250438 L9.48743581,3.566147 L9.37044859,4.02573964 C9.36834166,4.03401685 9.36309247,4.05849006 9.35735984,4.09362944 C9.34618489,4.1621287 9.34042991,4.23104444 9.34215348,4.2901311 C9.36571696,4.28479175 9.39375266,4.27762182 9.42874269,4.26807953 C9.51894198,4.24274342 9.57688647,4.22738854 9.63554248,4.21587323 C9.76967966,4.18953951 9.88578794,4.18604377 10.0178969,4.23035361 C10.4122241,4.36261242 10.4501052,4.56422623 10.4803509,5.23583337 C10.4858843,5.3587026 10.4878552,5.48549623 10.4873296,5.60852686 C10.5341685,5.6504045 10.5886961,5.69593614 10.648615,5.74122355 Z M13.2750887,8.51427575 C13.5724499,8.66892435 13.7985365,8.82315949 13.9477058,9.00481564 C14.0017774,9.07066318 14.0460734,9.14086888 14.0784942,9.21795332 C14.3260453,9.80653627 13.8062453,10.9499943 13.2318081,11.2372127 C12.9004918,11.4025019 12.6396898,11.6185574 12.5487834,11.7606828 C12.5445826,11.7673033 12.4021558,12.1503757 12.3518212,12.267815 C12.1657913,12.7018542 11.9558826,12.9922225 11.6075866,13.1295047 C11.5711711,13.1437351 11.4938743,13.188308 11.3794412,13.2637818 C11.3047056,13.3130734 11.0063952,13.517982 10.9713699,13.5416576 C10.8558068,13.6197735 10.7570988,13.6840441 10.6610657,13.7428452 C10.1575589,14.0511428 9.77414691,14.1887734 9.38678432,14.0818373 C8.4775668,13.8313208 8.39548133,12.235942 8.93771285,11.3953322 C8.94340563,11.386527 8.95227963,11.2822541 8.93154468,11.1153387 C8.9215084,11.0345471 8.90638064,10.9476105 8.88363291,10.8348469 C8.8782144,10.8079866 8.84695503,10.6575377 8.83898094,10.6169932 C8.82105186,10.5258321 8.81052855,10.459894 8.80607747,10.3982427 C8.81264846,10.4895654 8.71176844,10.3748202 8.5772095,10.2482521 C8.13514106,9.83231583 8.0346,9.7144366 8.0346,9.3938 C8.0346,9.12802137 8.16266578,8.84922117 8.39360894,8.48478672 C8.44293477,8.40694924 8.49647722,8.32671236 8.55362708,8.24454697 C8.72402394,7.99956428 8.89290046,7.78258713 9.00839655,7.64302374 L9.10025907,7.53201874 L9.23710594,7.48692148 C9.31648331,7.46076303 9.4400389,7.42305681 9.5826241,7.38514955 C9.64813966,7.36773178 9.71207028,7.35188086 9.77381107,7.33794413 C10.051935,7.27516333 10.2498235,7.25235691 10.4349336,7.29799644 C10.5384784,7.32412457 10.6495825,7.36913916 10.7767617,7.4309111 C10.8334208,7.45886088 10.8334208,7.45886088 10.8874068,7.48687766 C10.9628313,7.52642503 11.0331255,7.56562401 11.0929957,7.60034348 C11.2487221,7.61735774 11.4424842,7.64413996 11.6394625,7.68194183 C11.9046675,7.732837 12.1149446,7.79260242 12.2760108,7.87762425 L12.3796497,7.95047964 L12.7215574,8.26251192 C12.8773688,8.32377464 13.0745835,8.40999903 13.2750887,8.51427575 Z M12.8136871,9.40146717 C12.6147842,9.29802374 12.4110306,9.21262892 12.2816621,9.16494014 L12.1175503,9.06512036 L11.7646844,8.74308736 C11.6985378,8.71905021 11.5872329,8.69016652 11.4509929,8.66402085 C11.2410509,8.62373114 11.0259479,8.59714507 10.8880573,8.584812 L10.7707348,8.57431856 L10.6704343,8.51255713 C10.6156074,8.47879674 10.5234814,8.42518515 10.4230376,8.37251936 C10.3811059,8.35076386 10.3811059,8.35076386 10.3398626,8.33042159 C10.2693846,8.29618988 10.2135408,8.27354254 10.1931614,8.26832678 C10.2165652,8.27431842 10.1152137,8.28603987 9.99400065,8.31340123 C9.94531852,8.32439023 9.89347689,8.33724382 9.83955605,8.35157904 C9.78476579,8.36614541 9.73303689,8.380753 9.6870387,8.39428663 C9.59637135,8.5090956 9.48506898,8.65669083 9.37457292,8.81555303 C9.32522283,8.88650456 9.27953719,8.9549675 9.23828689,9.02006157 C9.15777499,9.14711148 9.09801445,9.25929161 9.06471977,9.32686577 C9.10490629,9.37002465 9.16012921,9.42366404 9.25377247,9.51177202 C9.69469407,9.92651034 9.78053603,10.0241961 9.80331924,10.3240353 C9.80420215,10.3363469 9.80959867,10.3701935 9.82018406,10.4240153 C9.82690702,10.4581985 9.85747554,10.6053224 9.86388623,10.637101 C9.89118174,10.7724086 9.91022717,10.8818594 9.92391701,10.9920619 C9.97133427,11.3737686 9.94539549,11.6785591 9.77777057,11.9378289 C9.54579565,12.2974549 9.58707585,13.0997596 9.65265394,13.1178284 C9.67791055,13.1248008 9.86526734,13.0575467 10.1388773,12.8900151 C10.2203442,12.8401329 10.3072053,12.7835759 10.4113515,12.7131774 C10.4394926,12.6941552 10.744756,12.4844707 10.8288633,12.428998 C10.9987636,12.3169411 11.1233891,12.2450762 11.2422487,12.1986309 C11.2645432,12.1898433 11.3449075,12.0786747 11.4326861,11.8738724 C11.4424455,11.8511022 11.6340013,11.3358918 11.7053867,11.2233945 C11.903157,10.9141821 12.3026822,10.5832046 12.7849932,10.3425864 C12.9062967,10.2819347 13.1566083,9.74285302 13.1589832,9.62247187 C13.1053872,9.57070952 12.9797063,9.48780876 12.8136871,9.40146717 Z" id="Combined-Shape"></path>
        </g>
    </g>
</svg>
