<?xml version="1.0" encoding="UTF-8"?>
<svg id="minor" width="26px" height="30px" viewBox="0 0 26 30" version="1.1" xmlns="http://www.w3.org/2000/svg" xmlns:xlink="http://www.w3.org/1999/xlink">
    <!-- Generator: Sketch 49 (51002) - http://www.bohemiancoding.com/sketch -->
    <title>Combined Shape</title>
    <desc>Created with Sketch.</desc>
    <defs></defs>
    <g id="Page-1" stroke="none" stroke-width="1" fill="none" fill-rule="evenodd">
        <g id="Artboard-Copy-291" transform="translate(-7.000000, -5.000000)" fill="#000000" fill-rule="nonzero">
            <path d="M15.0409345,7.94218381 L15.0409345,5.8508298 C15.0409345,5.19760154 15.7471214,4.78850926 16.3137844,5.11347102 L20.7012845,7.62955137 L25.0887846,5.11347102 C25.6554477,4.78850926 26.3616345,5.19760154 26.3616345,5.8508298 L26.3616345,8.5849412 C29.6487603,10.6978548 31.6996317,14.3423074 31.6995567,18.3303324 C31.6992252,18.3546321 31.6992252,18.3546321 31.6981545,18.4813962 C31.6906475,19.5380019 31.7066374,20.9783741 31.7656025,22.6641308 C31.8552152,25.2260712 32.0265551,27.7582394 32.2985678,30.1206877 C32.4483434,31.4214989 32.6258116,32.6418484 32.8326329,33.7671849 C32.923474,34.261461 32.5679644,34.7262136 32.067142,34.7679005 C32.0215861,34.7716924 31.9433637,34.7767547 31.8349043,34.7816122 C29.7360869,34.8756111 27.1733466,34.5720307 24.6837965,33.5218014 C23.9649403,33.2185483 23.282375,32.8605541 22.641953,32.4441257 C21.845609,32.6786235 21.0038646,32.8045298 20.1340345,32.8045298 C19.232115,32.8045298 18.3604035,32.6692137 17.53819,32.4178715 C16.5730159,33.0868149 15.4187197,33.6157997 14.1143334,34.0244674 C12.7748118,34.444143 11.3494434,34.7159017 9.92562447,34.8709495 C9.42818257,34.9251189 8.96575163,34.9609335 8.54952459,34.9819504 C8.29648389,34.9947273 8.11255441,34.9997179 8.00902287,35.0004108 C7.48856127,35.0038939 7.08722261,34.5430255 7.16220058,34.0279811 C7.68427543,30.4417051 8.06010576,26.7205093 8.31325966,23.0821797 C8.40187166,21.8086473 8.46879847,20.636758 8.51703884,19.5936014 C8.53389934,19.2290074 8.54721612,18.90672 8.55736512,18.6301218 C8.56342391,18.4649969 8.56706775,18.3523111 8.56833453,18.3194298 C8.56833453,13.8846343 11.1185078,9.8803783 15.0409345,7.94218625 Z M15.0409345,9.87975146 C12.1223671,11.6503411 10.2683079,14.8322101 10.2679961,18.3434144 C10.2662576,18.4050017 10.262459,18.522472 10.2562219,18.6924566 C10.2458777,18.974374 10.2323381,19.3020553 10.215224,19.6721333 C10.166394,20.7280391 10.0987193,21.9130248 10.0091594,23.2001799 C9.77717831,26.5342139 9.44324077,29.9375897 8.98891446,33.2507372 C9.2276158,33.2325776 9.4792143,33.2095119 9.74158962,33.1809403 C11.0631794,33.0370248 12.3832198,32.7853478 13.6060798,32.4022226 C14.3480953,32.1697471 15.0278131,31.8963987 15.6343837,31.5810708 C12.987728,30.0266848 11.2020345,27.1489274 11.2020345,23.8725298 L11.2020345,17.2809831 L11.7083001,17.0571324 L16.2793652,15.0359909 C16.7828619,14.8118638 17.3460596,14.775915 17.8746742,14.9326002 C20.5308995,15.7202133 24.0807964,16.2984727 28.2053724,16.2515847 L29.0650345,16.2418121 L29.0650345,23.8725298 C29.0650345,27.1665506 27.2600305,30.0577572 24.5900008,31.6061628 C24.8354403,31.7304714 25.0870713,31.8468479 25.3445608,31.9554711 C26.6029475,32.4863279 27.9561519,32.8156323 29.3339567,32.9788461 C29.9383666,33.050444 30.4969576,33.0851156 30.9911161,33.0931458 C30.8481747,32.2121641 30.7213356,31.2844816 30.6097256,30.3151412 C30.3320065,27.903132 30.157721,25.3274317 30.0666415,22.7235578 C30.0067803,21.0121833 29.9905306,19.548409 29.9981975,18.4693181 C29.9993146,18.3369126 29.9993146,18.3369126 29.9996345,18.3188298 C29.9996345,15.3158491 28.6265038,12.5331612 26.3616345,10.6825989 L26.3616345,11.4008298 C26.3616345,12.0540581 25.6554477,12.4631503 25.0887846,12.1381886 L20.7012845,9.62210823 L16.3137844,12.1381886 C15.7471214,12.4631503 15.0409345,12.0540581 15.0409345,11.4008298 L15.0409345,9.87975146 Z M17.3914764,16.5624836 C17.2501785,16.5206019 17.1034775,16.5299658 16.9687689,16.5899272 L12.9020345,18.3880765 L12.9020345,23.8725298 C12.9020345,27.8480878 16.1584766,31.1045298 20.1340345,31.1045298 C24.1087314,31.1045298 27.3650345,27.8479488 27.3650345,23.8725298 L27.3650345,17.9526282 C23.4204857,17.9182089 20.0117978,17.3394506 17.3914764,16.5624836 Z M22.3812787,8.6258298 L24.6616345,9.93353541 L24.6616345,7.3181242 L22.3812787,8.6258298 Z M16.7409345,9.93353541 L19.0212904,8.6258298 L16.7409345,7.3181242 L16.7409345,9.93353541 Z M15.917254,27.3403142 C15.596109,26.9979084 15.6133443,26.4599943 15.9557501,26.1388493 C16.2981559,25.8177043 16.8360701,25.8349396 17.1572151,26.1773454 C17.2934498,26.3225992 17.5806058,26.5691891 17.9856891,26.8195943 C19.5884174,27.8103327 21.30744,27.8103327 23.1588901,26.1294924 C23.5064636,25.8139476 24.0440271,25.8399119 24.3595719,26.1874854 C24.6751167,26.5350588 24.6491524,27.0726224 24.3015789,27.3881672 C21.8363624,29.6262158 19.2928664,29.6262158 17.091817,28.2656209 C16.5459559,27.9281928 16.1485748,27.5869492 15.917254,27.3403142 Z" id="Combined-Shape"></path>
        </g>
    </g>
</svg>
