<?xml version="1.0" encoding="UTF-8"?>
<svg width="34px" height="36px" viewBox="0 0 34 36" version="1.1" xmlns="http://www.w3.org/2000/svg" xmlns:xlink="http://www.w3.org/1999/xlink">
    <!-- Generator: Sketch 49 (51002) - http://www.bohemiancoding.com/sketch -->
    <title>Artboard Copy 402</title>
    <desc>Created with Sketch.</desc>
    <defs></defs>
    <g id="Artboard-Copy-402" stroke="none" stroke-width="1" fill="none" fill-rule="evenodd">
        <path d="M30.227,30.0682389 C30.227,30.5376809 29.846442,30.9182389 29.377,30.9182389 L21.83,30.9182389 C21.360558,30.9182389 20.98,30.5376809 20.98,30.0682389 C20.98,27.9335541 19.2484312,26.2022389 17.113,26.2022389 C14.978442,26.2022389 13.247,27.9336809 13.2469963,30.0657166 L13.2499963,31.0767166 L11.5500037,31.0817611 L11.547,30.0682389 C11.547,26.9947968 14.039558,24.5022389 17.113,24.5022389 C19.8981981,24.5022389 22.2060922,26.5479514 22.6154742,29.2182389 L28.527,29.2182389 L28.527,21.5782389 C28.527,21.1087968 28.907558,20.7282389 29.377,20.7282389 C30.9909382,20.7282389 32.3,19.4194167 32.3,17.8052389 C32.3,16.1910611 30.9909382,14.8822389 29.377,14.8822389 C28.907558,14.8822389 28.527,14.5016809 28.527,14.0322389 L28.527,6.39223888 L20.887,6.39223888 C20.417558,6.39223888 20.037,6.01168092 20.037,5.54223888 C20.037,3.92768092 18.727558,2.61823888 17.113,2.61823888 C15.4987024,2.61823888 14.19,3.9274205 14.19,5.54223888 C14.19,6.01168092 13.809442,6.39223888 13.34,6.39223888 L5.7,6.39223888 L5.7,12.3027594 C8.37054884,12.7121373 10.417,15.0201435 10.417,17.8052389 C10.417,20.5896903 8.37032579,22.8981818 5.7,23.3076907 L5.7,31.0792389 L4,31.0792389 L4,22.5222389 C4,22.0527968 4.38055796,21.6722389 4.85,21.6722389 C6.98455796,21.6722389 8.717,19.9397968 8.717,17.8052389 C8.717,15.6700541 6.98493119,13.9382389 4.85,13.9382389 C4.38055796,13.9382389 4,13.5576809 4,13.0882389 L4,5.54223888 C4,5.07279684 4.38055796,4.69223888 4.85,4.69223888 L12.5679465,4.69223888 C12.9669265,2.54459916 14.8500091,0.918238878 17.113,0.918238878 C19.3760868,0.918238878 21.2598644,2.54467792 21.6590158,4.69223888 L29.377,4.69223888 C29.846442,4.69223888 30.227,5.07279684 30.227,5.54223888 L30.227,13.2602389 C32.3739163,13.6593516 34,15.5425048 34,17.8052389 C34,20.067973 32.3739163,21.9511262 30.227,22.3502388 L30.227,30.0682389 Z" id="Page-1" fill="#000000" fill-rule="nonzero"></path>
    </g>
</svg>