<?xml version="1.0" encoding="UTF-8"?>
<svg width="30px" height="33px" viewBox="0 0 30 33" version="1.1" xmlns="http://www.w3.org/2000/svg" xmlns:xlink="http://www.w3.org/1999/xlink">
    <!-- Generator: Sketch 49 (51002) - http://www.bohemiancoding.com/sketch -->
    <title>Combined Shape</title>
    <desc>Created with Sketch.</desc>
    <defs></defs>
    <g id="Page-1" stroke="none" stroke-width="1" fill="none" fill-rule="evenodd">
        <g id="Artboard-Copy-372" transform="translate(-5.000000, -4.000000)" fill="#000000" fill-rule="nonzero">
            <path d="M6.7,11.5591 L6.7,35.3 L33.3,35.3 L33.3,11.5591 L6.7,11.5591 Z M6.7,9.8591 L33.3,9.8591 L33.3,5.85 C33.3,5.76744204 33.232558,5.7 33.15,5.7 L6.85,5.7 C6.76744204,5.7 6.7,5.76744204 6.7,5.85 L6.7,9.8591 Z M6.85,4 L33.15,4 C34.171442,4 35,4.82855796 35,5.85 L35,37 L5,37 L5,5.85 C5,4.82855796 5.82855796,4 6.85,4 Z M20,14.075 C25.4427728,14.075 29.855,18.4868887 29.855,23.93 C29.855,29.3722805 25.4426036,33.784 20,33.784 C14.5573964,33.784 10.145,29.3722805 10.145,23.93 C10.145,18.4868887 14.5572272,14.075 20,14.075 Z M20,15.775 C15.4960821,15.775 11.845,19.425802 11.845,23.93 C11.845,28.433338 15.4962221,32.084 20,32.084 C24.5037779,32.084 28.155,28.433338 28.155,23.93 C28.155,19.425802 24.5039179,15.775 20,15.775 Z M31.6949,7.7309 C31.6949,8.2829 31.2469,8.7309 30.6949,8.7309 C30.1429,8.7309 29.6949,8.2829 29.6949,7.7309 C29.6949,7.1789 30.1429,6.7309 30.6949,6.7309 C31.2469,6.7309 31.6949,7.1789 31.6949,7.7309 Z M23.8591,23.7227 C24.1467985,23.7227 24.4666133,23.6396145 24.7649684,23.4904369 L26.099222,22.8233101 L25.9929399,24.31126 C25.7664492,27.4821293 23.1884927,29.9247 20.0001,29.9247 C16.7876182,29.9247 14.1560448,27.4535754 14.0050671,24.2912349 L13.9358409,22.8412416 L15.2342316,23.4904369 C15.5322386,23.6394404 15.8530926,23.7227 16.1411,23.7227 C16.6167676,23.7227 17.1052301,23.4843985 17.430564,23.1127949 L18.1077844,22.3392587 L18.740237,23.1498076 C19.0226799,23.5117855 19.4778203,23.7227 20.0001,23.7227 C20.4757676,23.7227 20.9642301,23.4843985 21.289564,23.1127949 L21.9667844,22.3392587 L22.599237,23.1498076 C22.8816799,23.5117855 23.3368203,23.7227 23.8591,23.7227 Z M23.8591,25.4227 C23.1415391,25.4227 22.4626458,25.2098298 21.9095633,24.817053 C21.352351,25.1987881 20.6852302,25.4227 20.0001,25.4227 C19.2825391,25.4227 18.6036458,25.2098298 18.0505633,24.817053 C17.493351,25.1987881 16.8262302,25.4227 16.1411,25.4227 C16.0747486,25.4227 16.0082372,25.4206396 15.9416713,25.4165798 C16.5305038,27.0601721 18.1227451,28.2247 20.0001,28.2247 C21.8584612,28.2247 23.4229604,27.0742412 24.0340349,25.4179833 C23.9756564,25.4211141 23.9173219,25.4227 23.8591,25.4227 Z" id="Combined-Shape"></path>
        </g>
    </g>
</svg>