<?xml version="1.0" encoding="UTF-8"?>
<svg width="40px" height="47px" viewBox="0 0 40 47" version="1.1" xmlns="http://www.w3.org/2000/svg" xmlns:xlink="http://www.w3.org/1999/xlink">
    <!-- Generator: Sketch 49 (51002) - http://www.bohemiancoding.com/sketch -->
    <title>Artboard Copy 375</title>
    <desc>Created with Sketch.</desc>
    <defs></defs>
    <g id="Artboard-Copy-375" stroke="none" stroke-width="1" fill="none" fill-rule="evenodd">
        <path d="M5,14.5591 L5,12.8591 L5.0005,8.85 C5.0005,7.82834382 5.82827176,7 6.8505,7 L33.1505,7 C34.171942,7 35.0005,7.82855796 35.0005,8.85 L35.0005,31.2729185 L39.9433815,36.2158 L29.4073,46.7518815 L22.6554185,40 L5.0005,40 L5.0005,14.5591 Z M33.3005,14.5591 L6.7005,14.5591 L6.7005,38.3 L20.9554185,38.3 L19.4299862,36.7745677 L19.4256824,36.8044138 L18.5843843,36.6830981 C17.2090159,36.4847691 15.9031697,35.9996611 14.7414205,35.265222 C11.9033798,33.4706447 10.1457,30.350135 10.1457,26.9298 C10.1457,21.4871964 14.5574195,17.0748 19.9997,17.0748 C22.6485297,17.0748 25.1325831,18.1256015 26.9687408,19.9617592 C28.5220076,21.5150261 29.5206695,23.5433624 29.7846744,25.7487695 L29.8266023,26.0990208 L33.3005,29.5729185 L33.3005,14.5591 Z M33.3005,12.8591 L33.3005,8.85 C33.3005,8.76744204 33.233058,8.7 33.1505,8.7 L6.8505,8.7 C6.76741884,8.7 6.7005,8.76696509 6.7005,8.85 L6.7005,12.8591 L33.3005,12.8591 Z M27.5363369,23.8087554 C27.1281595,22.8238146 26.5280845,21.925266 25.7666592,21.1638408 C24.2461336,19.6433152 22.1929981,18.7748 19.9997,18.7748 C15.496362,18.7748 11.8457,22.4260221 11.8457,26.9298 C11.8457,29.7609661 13.2996046,32.3421663 15.6499047,33.8283307 C16.1602506,34.1509632 16.7040785,34.4153481 17.2723228,34.6169043 L15.4772185,32.8218 L26.0133,22.2857185 L27.5363369,23.8087554 Z M31.6949,10.7309 C31.6949,11.2829 31.2469,11.7309 30.6949,11.7309 C30.1429,11.7309 29.6949,11.2829 29.6949,10.7309 C29.6949,10.1789 30.1429,9.7309 30.6949,9.7309 C31.2469,9.7309 31.6949,10.1789 31.6949,10.7309 Z M26.0133,24.6898815 L17.8813815,32.8218 L29.4073,44.3477185 L37.5392185,36.2158 L26.0133,24.6898815 Z M34.8521815,34.5187 L34.2511408,35.1197408 C33.6250864,35.7457951 33.6250864,36.6856049 34.2511408,37.3116592 L34.8521815,37.9127 L31.1037864,41.6610951 L30.5027458,41.0594272 C29.8767108,40.4327387 28.9381428,40.4327387 28.3111408,41.0597408 L27.7100494,41.6608321 L20.5690691,34.5186494 L21.1700592,33.9176592 C21.7961136,33.2916049 21.7961136,32.3517951 21.1700592,31.7257408 L20.5691365,31.124818 L24.3159819,27.3765004 L24.9171408,27.9776592 C25.5441428,28.6046613 26.4827108,28.6046613 27.1087458,27.9779728 L27.7097864,27.3763049 L34.8521815,34.5187 Z M27.6342577,29.7049392 C26.628568,30.295663 25.3983238,30.2956041 24.3922282,29.7048596 L22.8969785,31.2006968 C23.487126,32.2064271 23.4871405,33.4368876 22.8970221,34.4426289 L27.7861539,39.332584 C28.7922633,38.7417959 30.0225433,38.7417225 31.0282577,39.3324608 L32.5241452,37.8365732 C31.9340849,36.8308854 31.9340849,35.6005146 32.5241452,34.5948268 L27.6342577,29.7049392 Z M29.5842408,32.6448592 C30.6191864,33.6798049 30.6191864,35.3579951 29.5842408,36.3929408 C28.5492951,37.4278864 26.8711049,37.4278864 25.8361592,36.3929408 C24.8012136,35.3579951 24.8012136,33.6798049 25.8361592,32.6448592 C26.8711049,31.6099136 28.5492951,31.6099136 29.5842408,32.6448592 Z M28.3821592,33.8469408 C28.0111049,33.4758864 27.4092951,33.4758864 27.0382408,33.8469408 C26.6671864,34.2179951 26.6671864,34.8198049 27.0382408,35.1908592 C27.4092951,35.5619136 28.0111049,35.5619136 28.3821592,35.1908592 C28.7532136,34.8198049 28.7532136,34.2179951 28.3821592,33.8469408 Z" id="Combined-Shape" fill="#000000" fill-rule="nonzero"></path>
    </g>
</svg>