<?xml version="1.0" encoding="UTF-8"?>
<svg width="30px" height="23px" viewBox="0 0 30 23" version="1.1" xmlns="http://www.w3.org/2000/svg" xmlns:xlink="http://www.w3.org/1999/xlink">
    <!-- Generator: Sketch 48.2 (47327) - http://www.bohemiancoding.com/sketch -->
    <title>Combined Shape</title>
    <desc>Created with Sketch.</desc>
    <defs></defs>
    <g id="Artboard-Copy-140" stroke="none" stroke-width="1" fill="none" fill-rule="evenodd" transform="translate(-4.000000, -8.000000)">
        <path d="M5.7005,15.6021821 L5.7005,27.5018 C5.7005,28.0986851 6.18326911,28.5818 6.7795,28.5818 L31.2205,28.5818 C31.817058,28.5818 32.3005,28.098358 32.3005,27.5018 L32.3005,15.7046344 L5.7005,15.6021821 Z M5.7005,13.9021695 L32.3005,14.0046218 L32.3005,10.7798 C32.3005,10.183242 31.817058,9.6998 31.2205,9.6998 L6.7795,9.6998 C6.18326911,9.6998 5.7005,10.1829149 5.7005,10.7798 L5.7005,13.9021695 Z M31.2205,30.2818 L6.7795,30.2818 C5.24411242,30.2818 4.0005,29.0372967 4.0005,27.5018 L4.0005,10.7798 C4.0005,9.24430326 5.24411242,7.9998 6.7795,7.9998 L31.2205,7.9998 C32.755942,7.9998 34.0005,9.24435796 34.0005,10.7798 L34.0005,27.5018 C34.0005,29.037242 32.755942,30.2818 31.2205,30.2818 Z" id="Combined-Shape" fill="#000000" fill-rule="nonzero"></path>
    </g>
</svg>