<?xml version="1.0" encoding="UTF-8"?>
<svg id="person" width="28px" height="30px" viewBox="0 0 28 30" version="1.1" xmlns="http://www.w3.org/2000/svg" xmlns:xlink="http://www.w3.org/1999/xlink">
    <!-- Generator: Sketch 49 (51002) - http://www.bohemiancoding.com/sketch -->
    <title>Combined Shape</title>
    <desc>Created with Sketch.</desc>
    <defs></defs>
    <g id="Page-1" stroke="none" stroke-width="1" fill="none" fill-rule="evenodd">
        <g id="Artboard-Copy-271" transform="translate(-5.000000, -4.000000)" fill="#000000" fill-rule="nonzero">
            <path d="M14.6006763,30.4128526 C11.7476376,28.7784199 9.8156,25.7018967 9.8156,22.194 L9.8156,15.2025018 L10.3218032,14.9786302 L15.1975058,12.8223199 C15.7212167,12.5912709 16.3057282,12.553859 16.8577121,12.7162106 C19.686199,13.5566865 23.4817117,14.1751474 27.885933,14.125055 L28.7456,14.1152773 L28.7456,22.194 C28.7456,25.7210778 26.7923759,28.8120518 23.91364,30.4395343 C24.2061692,30.5908298 24.5070417,30.7314416 24.8157556,30.8616405 C26.1627142,31.4297149 27.6105852,31.7820198 29.084518,31.9566901 C29.7575506,32.0364487 30.3774325,32.0734104 30.9217734,32.0799821 C30.7653249,31.1234433 30.626786,30.1147813 30.505173,29.0597473 C30.2087172,26.4878927 30.0226165,23.7411572 29.9253085,20.9644683 C29.8613822,19.140331 29.8439867,17.5808426 29.8520934,16.4324994 C29.8532622,16.2930912 29.8532622,16.2930912 29.8536,16.2735 C29.8536,10.4597294 25.0939453,5.6995 19.2806,5.6995 C13.4672547,5.6995 8.7076,10.4597294 8.70726188,16.2974726 C8.70541403,16.3629659 8.70137188,16.4880263 8.69473199,16.6690628 C8.68371649,16.9694002 8.66929651,17.3185192 8.65106821,17.7128302 C8.59905482,18.8379734 8.52696227,20.1007119 8.43155105,21.4723582 C8.18280624,25.0483514 7.82400962,28.6992746 7.33515632,32.2516207 C7.61075704,32.2314997 7.90298997,32.2052052 8.20892156,32.1719039 C9.62125573,32.0181684 11.0320396,31.7491885 12.3395904,31.3394393 C13.1703339,31.0791079 13.9284342,30.7707497 14.6006763,30.4128526 Z M16.5047357,31.2405955 C15.4764484,31.9576524 14.243332,32.5243779 12.8479457,32.9616523 C11.423673,33.4079788 9.90750307,33.6970516 8.39288347,33.8619211 C7.86366159,33.919528 7.37172039,33.9575981 6.9290091,33.9799187 C6.66007604,33.9934778 6.46479311,33.9987591 6.35520339,33.9994815 C5.83478868,34.0029123 5.43350969,33.5420835 5.50846144,33.027083 C6.06510051,29.2023638 6.4657756,25.2341322 6.73564895,21.3543918 C6.83011273,19.9963662 6.90145768,18.7467219 6.95288179,17.634326 C6.97085661,17.2454983 6.98505383,16.9017726 6.99587426,16.6067536 C7.00233593,16.4305763 7.00622347,16.3102998 7.0076,16.2735 C7.0076,9.52089127 12.5283246,3.9995 19.2806,3.9995 C26.0328754,3.9995 31.5536,9.52089127 31.5535231,16.2849323 C31.5531739,16.3106997 31.5531739,16.3106997 31.552051,16.4445001 C31.5441032,17.5703476 31.5612375,19.1064227 31.6242655,20.9049289 C31.7201029,23.6396532 31.903252,26.3428248 32.1939904,28.8650785 C32.3537777,30.2512873 32.5430513,31.5520073 32.7635944,32.7518338 C32.8544668,33.246209 32.4988081,33.7110346 31.9978712,33.7525903 C31.950214,33.7565437 31.8679025,33.7618523 31.7535115,33.7669573 C29.5244293,33.8664366 26.8002702,33.5436066 24.1551362,32.4280319 C23.3829019,32.1023452 22.6502246,31.7172668 21.9635297,31.2687601 C21.1121851,31.5219568 20.2115766,31.658 19.2806,31.658 C18.3156756,31.658 17.3833745,31.5118543 16.5047357,31.2405955 Z M16.3757586,14.3464607 C16.2109298,14.2979816 16.0394687,14.3089561 15.8843968,14.3773698 L11.5156,16.3094982 L11.5156,22.194 C11.5156,26.4623379 15.0118219,29.958 19.2806,29.958 C23.5493781,29.958 27.0456,26.4623379 27.0456,22.194 L27.0456,15.8266201 C22.8207713,15.7948881 19.1673927,15.1759891 16.3757586,14.3464607 Z" id="Combined-Shape"></path>
        </g>
    </g>
</svg>
