<?xml version="1.0" encoding="UTF-8"?>
<svg id="person" width="24px" height="30px" viewBox="0 0 24 30" version="1.1" xmlns="http://www.w3.org/2000/svg" xmlns:xlink="http://www.w3.org/1999/xlink">
    <!-- Generator: Sketch 49 (51002) - http://www.bohemiancoding.com/sketch -->
    <title>Combined Shape</title>
    <desc>Created with Sketch.</desc>
    <defs></defs>
    <g id="Page-1" stroke="none" stroke-width="1" fill="none" fill-rule="evenodd">
        <g id="Artboard-Copy-270" transform="translate(-7.000000, -4.000000)" fill="#000000" fill-rule="nonzero">
            <path d="M8.821,17.7571381 L8.821,22.121 C8.821,27.717558 13.403442,32.3 19,32.3 C24.596558,32.3 29.179,27.717558 29.179,22.121 L29.179,16.8214543 L24.95121,13.85683 C24.625561,13.9907884 24.2036888,14.1411727 23.6926916,14.2897374 C20.6046243,15.1875465 17.0113353,15.223972 13.1468649,13.8570951 L8.821,17.7571381 Z M8.82956476,15.4605212 L12.3896348,12.2508911 C12.6268943,12.0369865 12.9640525,11.9741693 13.2624254,12.0882783 C16.9421797,13.4955543 20.3349689,13.4955543 23.2180935,12.6573292 C23.6330564,12.536685 23.9971923,12.4082023 24.3065395,12.280925 C24.4848536,12.2075597 24.6007013,12.1534808 24.6501137,12.1278249 C24.9313177,11.9818183 25.2703901,12.0043389 25.5298141,12.186253 L29.1102012,14.6969034 C28.5193874,9.65136647 24.1969217,5.7 19,5.7 C13.5435896,5.7 9.05114061,10.055811 8.82956476,15.4605212 Z M19,34 C12.464558,34 7.121,28.656442 7.121,22.121 L7.121,15.879 C7.121,9.34355796 12.464558,4 19,4 C25.535442,4 30.879,9.34355796 30.879,15.879 L30.879,22.121 C30.879,28.656442 25.535442,34 19,34 Z M18.2158894,26.9303134 C17.6924211,27.1695056 17.1762152,27.3578794 16.6787618,27.4760384 C16.3105293,27.5635038 15.9590599,27.6107 15.625,27.6107 C15.155558,27.6107 14.775,27.230142 14.775,26.7607 C14.775,26.291258 15.155558,25.9107 15.625,25.9107 C15.8159147,25.9107 16.0385882,25.8807989 16.2858951,25.8220566 C16.6632988,25.7324127 17.0792108,25.5806382 17.5093606,25.3840866 C17.7756023,25.2624309 18.0302901,25.1315131 18.2632208,25.0008987 C18.4007645,24.923772 18.4980867,24.8654111 18.545582,24.8353656 C18.8385372,24.6500423 19.2146807,24.6611869 19.4961499,24.8635296 C19.668137,24.9871677 19.9946073,25.1880426 20.4178505,25.3902011 C21.1029788,25.7174468 21.7791248,25.9107 22.375,25.9107 C22.844442,25.9107 23.225,26.291258 23.225,26.7607 C23.225,27.230142 22.844442,27.6107 22.375,27.6107 C21.4868752,27.6107 20.5793962,27.3513282 19.6851495,26.9241989 C19.4175292,26.7963723 19.179921,26.6682114 18.9784616,26.5496754 C18.7595967,26.6689349 18.5019426,26.799605 18.2158894,26.9303134 Z" id="Combined-Shape"></path>
        </g>
    </g>
</svg>
