<?xml version="1.0" encoding="UTF-8"?>
<svg width="11px" height="14px" viewBox="0 0 11 14" version="1.1" xmlns="http://www.w3.org/2000/svg" xmlns:xlink="http://www.w3.org/1999/xlink">
    <!-- Generator: Sketch 48.2 (47327) - http://www.bohemiancoding.com/sketch -->
    <title>Combined Shape</title>
    <desc>Created with Sketch.</desc>
    <defs></defs>
    <g id="Artboard-Copy-39" stroke="none" stroke-width="1" fill="none" fill-rule="evenodd" transform="translate(-2.000000, 0.000000)">
        <path d="M7.2973,6.915 C5.38770068,6.915 3.8393,5.36659932 3.8393,3.457 C3.8393,1.54820678 5.3878946,-7.77156117e-16 7.2973,-7.77156117e-16 C9.2067054,-7.77156117e-16 10.7553,1.54820678 10.7553,3.457 C10.7553,5.36659932 9.20689932,6.915 7.2973,6.915 Z M7.2973,5.515 C8.43370068,5.515 9.3553,4.59340068 9.3553,3.457 C9.3553,2.32148393 8.43358523,1.4 7.2973,1.4 C6.16101477,1.4 5.2393,2.32148393 5.2393,3.457 C5.2393,4.59340068 6.16089932,5.515 7.2973,5.515 Z M7.2973,12.5995 L7.2973,13.9995 L3.5023,13.9995 C2.67270068,13.9995 2.0003,13.3270993 2.0003,12.4975 L2.0003,10.0525 C2.0003,8.77884455 3.03175651,7.7465 4.3053,7.7465 L10.2303,7.7465 C11.5038435,7.7465 12.5353,8.77884455 12.5353,10.0525 L12.5353,13.2995 L11.1353,13.2995 L11.1353,10.0525 C11.1353,9.55177362 10.730375,9.1465 10.2303,9.1465 L4.3053,9.1465 C3.805225,9.1465 3.4003,9.55177362 3.4003,10.0525 L3.4003,12.4975 C3.4003,12.5539007 3.44589932,12.5995 3.5023,12.5995 L7.2973,12.5995 Z" id="Combined-Shape" fill="#000000" fill-rule="nonzero"></path>
    </g>
</svg>