<?xml version="1.0" encoding="UTF-8"?>
<svg width="23px" height="30px" viewBox="0 0 23 30" version="1.1" xmlns="http://www.w3.org/2000/svg" xmlns:xlink="http://www.w3.org/1999/xlink">
    <!-- Generator: Sketch 48.2 (47327) - http://www.bohemiancoding.com/sketch -->
    <title>Combined Shape</title>
    <desc>Created with Sketch.</desc>
    <defs></defs>
    <g id="Artboard-Copy-41" stroke="none" stroke-width="1" fill="none" fill-rule="evenodd" transform="translate(-4.000000, 0.000000)">
        <path d="M15.1758,14.0869 C11.2856821,14.0869 8.1328,10.9336662 8.1328,7.0439 C8.1328,3.1533096 11.2855063,-0.0001 15.1758,-0.0001 C19.0660937,-0.0001 22.2188,3.1533096 22.2188,7.0439 C22.2188,10.9336662 19.0659179,14.0869 15.1758,14.0869 Z M15.1758,12.3869 C18.1269914,12.3869 20.5188,9.99482458 20.5188,7.0439 C20.5188,4.0921088 18.1271248,1.6999 15.1758,1.6999 C12.2244752,1.6999 9.8328,4.0921088 9.8328,7.0439 C9.8328,9.99482458 12.2246086,12.3869 15.1758,12.3869 Z M15.1757003,28.2989 L15.1758997,29.9989 L6.6528,29.9999 C5.18735796,29.9999 3.9998,28.812342 3.9998,27.3469 L3.9998,21.8549 C3.9998,19.3945757 5.99524011,17.3999 8.45573612,17.3999 L21.7628,17.3989 C24.2239332,17.3989 26.2188,19.394149 26.2188,21.8549 L26.2188,29.1499 L24.5188,29.1499 L24.5188,21.8549 C24.5188,20.3329602 23.2849762,19.0989 21.7628639,19.0989 L8.4558,19.0999 C6.9339784,19.0999 5.6998,20.3336056 5.6998,21.8549 L5.6998,27.3469 C5.6998,27.873458 6.12624204,28.2999 6.65270027,28.2999 L15.1757003,28.2989 Z" id="Combined-Shape" fill="#000000" fill-rule="nonzero"></path>
    </g>
</svg>