<?xml version="1.0" encoding="UTF-8"?>
<svg width="10px" height="14px" viewBox="0 0 10 14" version="1.1" xmlns="http://www.w3.org/2000/svg" xmlns:xlink="http://www.w3.org/1999/xlink">
    <!-- Generator: Sketch 48.2 (47327) - http://www.bohemiancoding.com/sketch -->
    <title>Combined Shape</title>
    <desc>Created with Sketch.</desc>
    <defs></defs>
    <g id="Artboard-Copy-57" stroke="none" stroke-width="1" fill="none" fill-rule="evenodd" transform="translate(-2.000000, 0.000000)">
        <path d="M10.0815,13.9 L3.9185,13.9 C2.96607603,13.9 2.1985,13.1153878 2.1985,12.155 L2.1985,1.845 C2.1985,0.884612239 2.96607603,0.1 3.9185,0.1 L10.0815,0.1 C11.0346635,0.1 11.8015,0.884339856 11.8015,1.845 L11.8015,12.155 C11.8015,13.1156601 11.0346635,13.9 10.0815,13.9 Z M10.0815,12.7 C10.3657846,12.7 10.6015,12.4589043 10.6015,12.155 L10.6015,1.845 C10.6015,1.54109568 10.3657846,1.3 10.0815,1.3 L3.9185,1.3 C3.63478525,1.3 3.3985,1.54152956 3.3985,1.845 L3.3985,12.155 C3.3985,12.4584704 3.63478525,12.7 3.9185,12.7 L10.0815,12.7 Z M7.0002,10.6 C7.3662,10.6 7.6632,10.902 7.6632,11.275 C7.6632,11.648 7.3662,11.95 7.0002,11.95 C6.6342,11.95 6.3372,11.648 6.3372,11.275 C6.3372,10.902 6.6342,10.6 7.0002,10.6 Z" id="Combined-Shape" fill="#000000" fill-rule="nonzero"></path>
    </g>
</svg>