<?xml version="1.0" encoding="UTF-8"?>
<svg width="30px" height="30px" viewBox="0 0 30 30" version="1.1" xmlns="http://www.w3.org/2000/svg" xmlns:xlink="http://www.w3.org/1999/xlink">
    <!-- Generator: Sketch 49 (51002) - http://www.bohemiancoding.com/sketch -->
    <title>Combined Shape</title>
    <desc>Created with Sketch.</desc>
    <defs></defs>
    <g id="Page-1" stroke="none" stroke-width="1" fill="none" fill-rule="evenodd">
        <g id="Artboard-Copy-315" transform="translate(-5.000000, -5.000000)" fill="#000000" fill-rule="nonzero">
            <path d="M31.3815,35 L8.6185,35 C6.61096075,35 4.9995,33.389345 4.9995,31.382 L4.9995,8.618 C4.9995,6.61065502 6.61096075,5 8.6185,5 L31.3815,5 C33.388942,5 34.9995,6.61055796 34.9995,8.618 L34.9995,31.382 C34.9995,33.389442 33.388942,35 31.3815,35 Z M31.3815,33.3 C32.450058,33.3 33.2995,32.450558 33.2995,31.382 L33.2995,8.618 C33.2995,7.54944204 32.450058,6.7 31.3815,6.7 L8.6185,6.7 C7.54965455,6.7 6.6995,7.54972948 6.6995,8.618 L6.6995,31.382 C6.6995,32.4502705 7.54965455,33.3 8.6185,33.3 L31.3815,33.3 Z M29.3513,31.9239 L24.1833,31.9239 C23.1600711,31.9239 22.3493,31.1125555 22.3493,30.0899 L22.3493,9.9109 C22.3493,8.8875308 23.1597844,8.0759 24.1833,8.0759 L29.3513,8.0759 C30.3748156,8.0759 31.1853,8.8875308 31.1853,9.9109 L31.1853,30.0899 C31.1853,31.1125555 30.3745289,31.9239 29.3513,31.9239 Z M29.3513,30.2239 C29.4353757,30.2239 29.4853,30.1739404 29.4853,30.0899 L29.4853,9.9109 C29.4853,9.8258774 29.4353932,9.7759 29.3513,9.7759 L24.1833,9.7759 C24.0992068,9.7759 24.0493,9.8258774 24.0493,9.9109 L24.0493,30.0899 C24.0493,30.1739404 24.0992243,30.2239 24.1833,30.2239 L29.3513,30.2239 Z M9.5413,20.3578 L9.5413,18.6578 L11.5103,18.6578 L11.5103,20.3578 L9.5413,20.3578 Z M13.6633,20.3578 L13.6633,18.6578 L15.6323,18.6578 L15.6323,20.3578 L13.6633,20.3578 Z M17.8467,20.3578 L17.8467,18.6578 L19.8157,18.6578 L19.8157,20.3578 L17.8467,20.3578 Z M9.5413,23.6185 L9.5413,21.9185 L11.5103,21.9185 L11.5103,23.6185 L9.5413,23.6185 Z M13.6633,23.6185 L13.6633,21.9185 L15.6323,21.9185 L15.6323,23.6185 L13.6633,23.6185 Z M17.8467,23.6185 L17.8467,21.9185 L19.8157,21.9185 L19.8157,23.6185 L17.8467,23.6185 Z M9.5413,26.9407 L9.5413,25.2407 L11.5103,25.2407 L11.5103,26.9407 L9.5413,26.9407 Z M13.6633,26.9407 L13.6633,25.2407 L15.6323,25.2407 L15.6323,26.9407 L13.6633,26.9407 Z M17.8467,26.9407 L17.8467,25.2407 L19.8157,25.2407 L19.8157,26.9407 L17.8467,26.9407 Z M9.5413,30.2628 L9.5413,28.5628 L11.5103,28.5628 L11.5103,30.2628 L9.5413,30.2628 Z M13.6633,30.2628 L13.6633,28.5628 L15.6323,28.5628 L15.6323,30.2628 L13.6633,30.2628 Z M17.8467,30.2628 L17.8467,28.5628 L19.8157,28.5628 L19.8157,30.2628 L17.8467,30.2628 Z" id="Combined-Shape"></path>
        </g>
    </g>
</svg>