<?xml version="1.0" encoding="UTF-8"?>
<svg width="30px" height="30px" viewBox="0 0 30 30" version="1.1" xmlns="http://www.w3.org/2000/svg" xmlns:xlink="http://www.w3.org/1999/xlink">
    <!-- Generator: Sketch 48.2 (47327) - http://www.bohemiancoding.com/sketch -->
    <title>Combined Shape</title>
    <desc>Created with Sketch.</desc>
    <defs></defs>
    <g id="Artboard-Copy-239" stroke="none" stroke-width="1" fill="none" fill-rule="evenodd" transform="translate(-4.000000, -4.000000)">
        <path d="M12.6995,13.9015815 L8.05004076,18.5510408 C4.91698641,21.6840951 4.91698641,26.8169049 8.05004076,29.9499592 C11.1830951,33.0830136 16.3159049,33.0830136 19.4489592,29.9499592 L24.0984185,25.3005 L12.6995,13.9015815 Z M13.9015815,12.6995 L25.3005,24.0984185 L29.9499592,19.4489592 C33.0830136,16.3159049 33.0830136,11.1830951 29.9499592,8.05004076 C26.8169049,4.91698641 21.6840951,4.91698641 18.5510408,8.05004076 L13.9015815,12.6995 Z M6.84795924,31.1520408 C3.05101359,27.3550951 3.05101359,21.1459049 6.84795924,17.3489592 L17.3489592,6.84795924 C21.1459049,3.05101359 27.3550951,3.05101359 31.1520408,6.84795924 C34.9489864,10.6449049 34.9489864,16.8540951 31.1520408,20.6510408 L20.6510408,31.1520408 C16.8540951,34.9489864 10.6449049,34.9489864 6.84795924,31.1520408 Z" id="Combined-Shape" fill="#000000" fill-rule="nonzero"></path>
    </g>
</svg>