<?xml version="1.0" encoding="UTF-8"?>
<svg width="31px" height="30px" viewBox="0 0 31 30" version="1.1" xmlns="http://www.w3.org/2000/svg" xmlns:xlink="http://www.w3.org/1999/xlink">
    <!-- Generator: Sketch 49 (51002) - http://www.bohemiancoding.com/sketch -->
    <title>Combined Shape</title>
    <desc>Created with Sketch.</desc>
    <defs></defs>
    <g id="Page-1" stroke="none" stroke-width="1" fill="none" fill-rule="evenodd">
        <g id="Artboard-Copy-303" transform="translate(-5.000000, -5.000000)" fill="#000000" fill-rule="nonzero">
            <path d="M14.1071,10.0643 L14.1071,6.8503 C14.1071,5.82807176 14.9354438,5.0003 15.9571,5.0003 L24.0641,5.0003 C25.0857562,5.0003 25.9141,5.82807176 25.9141,6.8503 L25.9141,10.0643 L32.1504,10.0643 C33.735842,10.0643 35.0214,11.349858 35.0214,12.9353 L35.0214,23.0433 C35.0214,23.512742 34.640842,23.8933 34.1714,23.8933 L5.8504,23.8933 C5.38095796,23.8933 5.0004,23.512742 5.0004,23.0433 L5.0004,12.9353 C5.0004,11.349858 6.28595796,10.0643 7.8714,10.0643 L14.1071,10.0643 Z M24.2141,10.0643 L24.2141,6.8503 C24.2141,6.76721884 24.1471349,6.7003 24.0641,6.7003 L15.9571,6.7003 C15.8740651,6.7003 15.8071,6.76721884 15.8071,6.8503 L15.8071,10.0643 L24.2141,10.0643 Z M33.3214,22.1933 L33.3214,12.9353 C33.3214,12.288742 32.796958,11.7643 32.1504,11.7643 L7.8714,11.7643 C7.22484204,11.7643 6.7004,12.288742 6.7004,12.9353 L6.7004,22.1933 L33.3214,22.1933 Z M32.3,26.2357 L34,26.2357 L34,32.1287 C34,33.714142 32.714442,34.9997 31.129,34.9997 L8.893,34.9997 C7.30677762,34.9997 6.021,33.7143617 6.021,32.1287 L6.021,26.2357 L7.721,26.2357 L7.721,32.1287 C7.721,32.7753475 8.24553168,33.2997 8.893,33.2997 L31.129,33.2997 C31.775558,33.2997 32.3,32.775258 32.3,32.1287 L32.3,26.2357 Z" id="Combined-Shape"></path>
        </g>
    </g>
</svg>