<?xml version="1.0" encoding="UTF-8"?>
<svg width="30px" height="30px" viewBox="0 0 30 30" version="1.1" xmlns="http://www.w3.org/2000/svg" xmlns:xlink="http://www.w3.org/1999/xlink">
    <!-- Generator: Sketch 49 (51002) - http://www.bohemiancoding.com/sketch -->
    <title>Combined Shape</title>
    <desc>Created with Sketch.</desc>
    <defs></defs>
    <g id="Page-1" stroke="none" stroke-width="1" fill="none" fill-rule="evenodd">
        <g id="Artboard-Copy-297" transform="translate(-5.000000, -5.000000)" fill="#000000" fill-rule="nonzero">
            <path d="M28.1545,32.42685 L11.8455,32.42685 L11.8455,35.00015 L10.1455,35.00015 L10.1455,32.42685 L5.85,32.42685 C5.38055796,32.42685 5,32.046292 5,31.57685 L5,5.84985 C5,5.38040796 5.38055796,4.99985 5.85,4.99985 L34.15,4.99985 C34.619442,4.99985 35,5.38040796 35,5.84985 L35,31.57685 C35,32.046292 34.619442,32.42685 34.15,32.42685 L29.8545,32.42685 L29.8545,35.00015 L28.1545,35.00015 L28.1545,32.42685 Z M15.7822666,24.1343895 C16.9462118,25.0412159 18.4099368,25.58135 20,25.58135 C21.5903254,25.58135 23.0542711,25.0410377 24.2183093,24.1339408 L21.7436205,21.6592521 C21.2329583,21.9619759 20.6367912,22.13575 20,22.13575 C19.3632987,22.13575 18.7672101,21.9620249 18.2565957,21.6593803 L15.7822666,24.1343895 Z M14.5800332,22.9324599 L17.0541179,20.4576952 C16.7510191,19.9470351 16.577,19.350759 16.577,18.71375 C16.577,18.0767551 16.7510052,17.4803939 17.0540753,16.9696068 L14.5796338,14.4951653 C13.6724211,15.6592671 13.132,17.1232255 13.132,18.71335 C13.132,20.30404 13.6725601,21.7682924 14.5800332,22.9324599 Z M25.4209355,14.495896 L22.9464087,16.9704228 C23.2491801,17.481029 23.423,18.0770942 23.423,18.71375 C23.423,19.3506691 23.2490301,19.9468668 22.9460105,20.457479 L25.4204156,22.9318841 C26.3276181,21.7678096 26.868,20.3037778 26.868,18.71335 C26.868,17.1235581 26.327805,15.6598797 25.4209355,14.495896 Z M24.2190314,13.2936371 C23.0548289,12.3860455 21.5905723,11.84535 20,11.84535 C18.4097604,11.84535 16.9457836,12.3858193 15.7816992,13.2930676 L18.2562334,15.7676019 C18.766937,15.4646697 19.3631616,15.29075 20,15.29075 C20.6371776,15.29075 21.233698,15.464855 21.7445825,15.768086 L24.2190314,13.2936371 Z M33.3,30.72685 L33.3,6.69985 L6.7,6.69985 L6.7,30.72685 L33.3,30.72685 Z M20,10.14535 C24.7321137,10.14535 28.568,13.9815796 28.568,18.71335 C28.568,23.445792 24.732442,27.28135 20,27.28135 C15.267558,27.28135 11.432,23.445792 11.432,18.71335 C11.432,13.9815796 15.2678863,10.14535 20,10.14535 Z M20,16.99075 C19.048442,16.99075 18.277,17.762192 18.277,18.71375 C18.277,19.665015 19.048149,20.43575 20,20.43575 C20.951851,20.43575 21.723,19.665015 21.723,18.71375 C21.723,17.762192 20.951558,16.99075 20,16.99075 Z" id="Combined-Shape"></path>
        </g>
    </g>
</svg>