<?xml version="1.0" encoding="UTF-8"?>
<svg width="22px" height="30px" viewBox="0 0 22 30" version="1.1" xmlns="http://www.w3.org/2000/svg" xmlns:xlink="http://www.w3.org/1999/xlink">
    <!-- Generator: Sketch 48.2 (47327) - http://www.bohemiancoding.com/sketch -->
    <title>Combined Shape</title>
    <desc>Created with Sketch.</desc>
    <defs></defs>
    <g id="Artboard-Copy-101" stroke="none" stroke-width="1" fill="none" fill-rule="evenodd" transform="translate(-4.000000, 0.000000)">
        <path d="M15.0341,24.694 L5.2719,24.694 C4.80245796,24.694 4.4219,24.313442 4.4219,23.844 L4.4219,0 L6.1219,0 L6.1219,7.075 L15.0341,7.075 L15.0341,2.6182 C15.0341,2.14875796 15.414658,1.7682 15.8841,1.7682 L21.1911,1.7682 C21.4165756,1.7682 21.6328129,1.8577863 21.7922257,2.01724419 L25.3292257,5.55524419 C25.4885797,5.7146432 25.5781,5.93080761 25.5781,6.1562 L25.5781,13.2312 C25.5781,13.700642 25.197542,14.0812 24.7281,14.0812 L15.8841,14.0812 C15.414658,14.0812 15.0341,13.700642 15.0341,13.2312 L15.0341,8.775 L6.1219,8.775 L6.1219,22.994 L15.0341,22.994 L15.0341,18.538 C15.0341,18.068558 15.414658,17.688 15.8841,17.688 L21.1911,17.688 C21.416534,17.688 21.6327348,17.7775533 21.7921408,17.9369592 L25.3291408,21.4739592 C25.4885467,21.6333652 25.5781,21.849566 25.5781,22.075 L25.5781,29.15 C25.5781,29.619442 25.197542,30 24.7281,30 L15.8841,30 C15.414658,30 15.0341,29.619442 15.0341,29.15 L15.0341,24.694 Z M23.8781,6.50821115 L20.8389481,3.4682 L16.7341,3.4682 L16.7341,12.3812 L23.8781,12.3812 L23.8781,6.50821115 Z M23.8781,22.4270815 L20.8390185,19.388 L16.7341,19.388 L16.7341,28.3 L23.8781,28.3 L23.8781,22.4270815 Z" id="Combined-Shape" fill="#000000" fill-rule="nonzero"></path>
    </g>
</svg>