<?xml version="1.0" encoding="UTF-8"?>
<svg width="17px" height="17px" viewBox="0 0 17 17" version="1.1" xmlns="http://www.w3.org/2000/svg" xmlns:xlink="http://www.w3.org/1999/xlink">
    <!-- Generator: Sketch 49 (51002) - http://www.bohemiancoding.com/sketch -->
    <title>Combined Shape</title>
    <desc>Created with Sketch.</desc>
    <defs></defs>
    <g id="Page-1" stroke="none" stroke-width="1" fill="none" fill-rule="evenodd">
        <g id="Artboard-Copy-331" fill="#000000" fill-rule="nonzero">
            <path d="M12.276001,11.341997 L8.77264834,11.341997 L8.77264834,13.4641201 L11.3611165,13.4641201 C11.7826393,12.8163849 12.0955867,12.1092314 12.276001,11.341997 Z M12.8455647,11.341997 C12.6810333,12.1046353 12.3972706,12.8118445 12.0144788,13.4641201 L14.234347,13.4641201 C14.7767819,12.8380651 15.2184019,12.1222747 15.5339588,11.341997 L12.8455647,11.341997 Z M9.73667368,15.9840539 C11.2583898,15.7345132 12.627664,15.0320953 13.7015451,14.0197515 L11.6555439,14.0197515 C11.4379682,14.3273907 11.1974835,14.6215551 10.9365539,14.9023052 C10.5531634,15.3148183 10.146766,15.6750763 9.73667368,15.9840539 Z M10.9620087,14.0197515 L8.77264834,14.0197515 L8.77264834,15.9697404 C8.90153384,15.8916741 9.04536017,15.797718 9.20042887,15.6878302 C9.65338226,15.3668497 10.1067826,14.9789349 10.5295593,14.5240437 C10.6814229,14.3606445 10.8257516,14.1925521 10.9620087,14.0197515 Z M4.7638341,11.341997 C4.94153268,12.108234 5.25283187,12.8154523 5.6735894,13.4641201 L8.21701692,13.4641201 L8.21701692,11.341997 L4.7638341,11.341997 Z M4.19465181,11.341997 L1.46604123,11.341997 C1.78159812,12.1222747 2.22321805,12.8380651 2.76565302,13.4641201 L5.02080051,13.4641201 C4.63880408,12.8110875 4.3566296,12.1038337 4.19465181,11.341997 Z M7.29735464,15.9895545 C6.88688814,15.6792177 6.479999,15.317402 6.09630067,14.9032622 C5.83570996,14.621997 5.59566742,14.3275081 5.37864644,14.0197515 L3.2984549,14.0197515 C4.38033464,15.0396356 5.76202441,15.7449598 7.29735464,15.9895545 Z M6.07142745,14.0197515 C6.20761727,14.1930228 6.35195051,14.3616478 6.50388558,14.525637 C6.9239504,14.9790285 7.37445041,15.3663522 7.8245102,15.6874169 C7.96566031,15.7881109 8.0974375,15.8755015 8.21701692,15.9495999 L8.21701692,14.0197515 L6.07142745,14.0197515 Z M4.70686088,5.62560535 L8.21701692,5.62560535 L8.21701692,3.50348226 L5.62612786,3.50348226 C5.20137024,4.15230399 4.88687372,4.85952596 4.70686088,5.62560535 Z M4.13733329,5.62560535 C4.30136603,4.86379979 4.58630267,4.1565623 4.97170053,3.50348226 L2.7938836,3.50348226 C2.24609348,4.12856692 1.79937287,4.84444434 1.47923095,5.62560535 L4.13733329,5.62560535 Z M7.20163208,1.02632539 C5.72084662,1.28175299 4.38704543,1.96653077 3.33303641,2.94785084 L5.33263059,2.94785084 C5.55641397,2.63315807 5.80442012,2.33231363 6.07399698,2.04526423 C6.43498379,1.66088017 6.81611379,1.3214658 7.20163208,1.02632539 Z M6.0275526,2.94785084 L8.21701692,2.94785084 L8.21701692,0.999391052 C8.09714508,1.07284188 7.96541467,1.15910773 7.82452954,1.25820231 C7.36596356,1.58074454 6.90697423,1.96994398 6.47902111,2.42563475 C6.32017955,2.59477157 6.16949056,2.76883983 6.0275526,2.94785084 Z M12.2076858,5.62560535 C12.031885,4.86050983 11.7242921,4.15323636 11.3086559,3.50348226 L8.77264834,3.50348226 L8.77264834,5.62560535 L12.2076858,5.62560535 Z M12.7766341,5.62560535 L15.520769,5.62560535 C15.2006271,4.84444434 14.7539065,4.12856692 14.2061164,3.50348226 L11.9591181,3.50348226 C12.3369977,4.15744686 12.6161948,4.86473878 12.7766341,5.62560535 Z M9.77753816,1.02276235 C10.1567755,1.32073605 10.5317564,1.66335676 10.886751,2.05120297 C11.1480935,2.33673048 11.3886402,2.63560273 11.6058639,2.94785084 L13.6669636,2.94785084 C12.6080147,1.9619316 11.2666449,1.27534078 9.77753816,1.02276235 Z M10.9166216,2.94785084 C10.7783505,2.76919109 10.6315788,2.5953605 10.4768855,2.4263517 C10.059226,1.97004147 9.61132676,1.57968429 9.16387517,1.2556455 C9.0231494,1.15373367 8.89179655,1.06526867 8.77264834,0.99025609 L8.77264834,2.94785084 L10.9166216,2.94785084 Z M15.7336928,10.7863656 C15.9615066,10.0648879 16.0843689,9.29679581 16.0843689,8.5 C16.0843689,7.69126601 15.9577974,6.91210228 15.7233824,6.18123678 L1.2766176,6.18123678 C1.04220257,6.91210228 0.915631079,7.69126601 0.915631079,8.5 C0.915631079,9.29679581 1.03849337,10.0648879 1.26630716,10.7863656 L15.7336928,10.7863656 Z M8.5,0.359999657 C12.9956929,0.359999657 16.6400003,4.00430705 16.6400003,8.5 C16.6400003,12.9956929 12.9956929,16.6400003 8.5,16.6400003 C4.00430705,16.6400003 0.359999657,12.9956929 0.359999657,8.5 C0.359999657,4.00430705 4.00430705,0.359999657 8.5,0.359999657 Z M14.4806017,9.86394829 C14.5981738,9.86472179 14.6656461,9.99813772 14.6402944,10.1489477 C14.6155427,10.2961882 14.5120073,10.4197432 14.4019725,10.4190231 C14.2840969,10.4190231 14.2165671,10.285279 14.2425453,10.1346084 C14.2672442,9.98704818 14.3706327,9.86322481 14.4806017,9.86394829 Z M14.4800314,9.95062491 C14.5327189,9.95097154 14.5724677,10.0295687 14.5548152,10.1345784 C14.5363372,10.2444992 14.4623951,10.3327386 14.4022558,10.3323456 C14.349508,10.3323446 14.3099258,10.2539514 14.327999,10.1491267 C14.3464859,10.0386825 14.420339,9.9502322 14.4800314,9.95062491 Z M3.92027087,9.86394829 C4.03784302,9.86472179 4.10531523,9.99813772 4.07996355,10.1489477 C4.05523486,10.2960517 3.95178592,10.4197451 3.84191223,10.4190222 C3.72478349,10.4182516 3.66589967,10.2878507 3.69166024,10.1346084 C3.71680897,9.98436087 3.81121914,9.86323084 3.92027087,9.86394829 Z M11.6110359,9.85394598 C11.7284169,9.85471729 11.7868194,9.98542758 11.7610123,10.1389464 C11.736315,10.2858641 11.6330184,10.4095774 11.5229629,10.4095765 C11.4054379,10.4088083 11.3468834,10.2782361 11.3727141,10.124577 C11.3973879,9.97779961 11.5012063,9.85394598 11.6110359,9.85394598 Z M9.46352045,9.85394598 C9.58137772,9.85472042 9.64884994,9.98813635 9.62349825,10.1389464 C9.59880088,10.2858641 9.49550428,10.4095774 9.38544693,10.4095765 C9.26787478,10.408803 9.20040256,10.275387 9.22575425,10.124577 C9.25045162,9.97765934 9.35374822,9.85394598 9.46352045,9.85394598 Z M6.96540157,9.85394598 C7.08322853,9.85472022 7.15019767,9.98800407 7.12482375,10.1389464 C7.10012638,10.2858641 6.99682977,10.4095774 6.88677242,10.4095765 C6.76920027,10.408803 6.70172806,10.275387 6.72707974,10.124577 C6.75180021,9.97752191 6.85518399,9.85394598 6.96540157,9.85394598 Z M13.2207997,7.27524774 C13.1735118,7.31780686 13.1433724,7.34899164 13.120987,7.3787568 C13.0943187,7.41421691 13.0766048,7.45026282 13.0575928,7.50674453 C13.0451142,7.54381634 13.0328412,7.58633416 12.9578865,7.73532337 L12.801754,7.73532337 L12.7600001,7.68036947 L13.0233694,6.73357352 L13.0651233,6.70184892 L15.4954552,6.70184892 L15.5373151,6.7564147 L15.2415316,7.73532337 L15.0954006,7.73532337 L15.0521646,7.68899295 C15.0835163,7.2358197 14.9675883,7.09079092 14.5611307,7.05845219 L13.8979621,9.58555158 C13.8891539,9.62196139 13.8891539,9.62196139 13.8801584,9.65657186 C13.8690806,9.6986094 13.8342115,9.82124682 13.8294454,9.83962839 C13.7961324,9.97056708 13.90371,10.0754374 14.0761914,10.0591656 L14.1227688,10.1107663 L14.0413677,10.3412347 L12.4305922,10.3412347 L12.3883318,10.2882859 L12.4787914,10.0395325 L12.49194,10.0393229 C12.8959025,10.0329034 13.0033708,9.97670822 13.0427649,9.64193559 L13.7398739,7.09166953 C13.5100366,7.09900568 13.3611531,7.15287002 13.2207997,7.27524774 Z M11.4168144,8.16595909 C11.6410969,8.17300461 11.8186375,8.09623343 11.9682996,7.80520939 L12.104985,7.82465649 L12.1409919,7.8778058 L11.8449567,8.95493434 L11.6793786,8.95493434 L11.6363677,8.91692024 C11.6327619,8.88779654 11.6315289,8.85963589 11.6301804,8.79571641 C11.6288134,8.73092207 11.6281247,8.70724563 11.6261056,8.67009368 C11.6190286,8.54359301 11.5605461,8.51493452 11.2793239,8.51598552 L11.2525898,8.48477133 L10.9406362,9.55473605 C10.933534,9.58846385 10.933534,9.58846385 10.9254476,9.62293426 C10.9194006,9.64788658 10.9194006,9.64788658 10.913213,9.67234994 C10.9050069,9.7045297 10.8954506,9.7403585 10.8817447,9.79158304 C10.8288127,9.99368681 10.8984925,10.0389569 11.2399465,10.0395269 L11.2817012,10.0942146 L11.1815328,10.3412347 L9.65910271,10.3412347 L9.61727564,10.2865471 L9.71631052,10.0395417 C9.91614435,10.0343135 10.0339795,9.95552221 10.0756365,9.76938412 L10.7293538,7.33007406 C10.7377845,7.29524207 10.7394003,7.28298093 10.7395509,7.26712677 C10.7399114,7.24752289 10.7423008,7.23404574 10.7495755,7.21004651 C10.7731779,7.13488712 10.7580262,7.09269216 10.7076573,7.06321888 C10.6607961,7.03579814 10.5888193,7.02106698 10.476734,7.01189991 C10.4351008,7.00873614 10.4351008,7.00873614 10.3937691,7.00601917 C10.3710029,7.00449858 10.3710029,7.00449858 10.3487198,7.00287872 L10.30972,6.95002862 L10.3586156,6.73555489 L10.4008707,6.70184892 L12.8700967,6.70184892 L12.9119567,6.7564147 L12.6161731,7.73532337 L12.4794878,7.73532337 L12.4362244,7.68942219 C12.4652612,7.19907409 12.3260332,7.0850956 11.8554655,7.09078795 C11.8355603,7.09099281 11.8355603,7.09099281 11.8170546,7.09113255 C11.652626,7.09239529 11.6336144,7.10021985 11.591958,7.19581427 C11.5755578,7.23344985 11.5582677,7.28469472 11.5358461,7.3607693 L11.3348123,8.16594634 L11.4168144,8.16595909 Z M8.72800435,6.73745486 L8.77064807,6.70184892 L10.2052884,6.70184892 L10.2475435,6.75482145 L10.1573267,7.00299109 C9.85500285,7.00950669 9.75516373,7.05235431 9.70092888,7.23438296 L9.01730861,9.75319528 C9.00971797,9.77817887 9.00971797,9.77817887 9.00188941,9.80097817 C8.97498948,9.87830232 8.97864032,9.86731486 8.97420711,9.88798039 C8.97183613,9.89903279 8.97047008,9.90920387 8.97009042,9.91888219 C8.9698525,9.92499858 8.9698525,9.92499858 8.9695976,9.93086781 C8.96745859,9.97995154 8.96964925,9.99347705 8.9812484,10.0044185 C9.00224571,10.0242252 9.05787515,10.037478 9.16211217,10.0395353 L9.20351741,10.0924757 L9.11236139,10.3412347 L7.67772106,10.3412347 L7.63507384,10.2901815 L7.67396804,10.0751522 L7.71697565,10.0395284 C7.97432535,10.0416685 8.14917881,9.956916 8.18260562,9.81770411 L8.85591737,7.3100156 C8.86110541,7.2902864 8.86110541,7.2902864 8.86635966,7.27153941 C8.91122936,7.11319762 8.90561847,7.13553225 8.9030733,7.11034826 C8.89614253,7.03556897 8.83157263,6.99809133 8.7339062,7.00294767 L8.68911015,6.95192858 L8.72800435,6.73745486 Z M5.99644854,8.40241551 C5.7810386,8.75871606 5.67331816,8.93686693 5.52246722,9.1862782 C5.1217718,9.84877232 4.8694704,10.2653997 4.83526179,10.320751 C4.80370632,10.3715904 4.76794627,10.3985265 4.72744168,10.3985265 C4.69378436,10.3985265 4.66705335,10.3807058 4.64545422,10.3534722 C4.63426085,10.3393588 4.62659269,10.3256035 4.61841444,10.2978955 L4.61841448,7.35965691 C4.61887315,7.02620368 4.59910367,7.00411374 4.37816109,7.00304709 L4.32629222,6.95192858 L4.36518642,6.73745486 L4.40783013,6.70184892 L5.60854964,6.70184892 L5.65036927,6.75656398 L5.55031642,7.00300102 C5.43242606,7.00329501 5.39588387,7.03364965 5.38915477,7.0972073 C5.38768441,7.11109508 5.38756305,7.12348292 5.38818726,7.14878965 C5.38837729,7.15641414 5.38837729,7.15641414 5.38851743,7.16425653 C5.38878324,7.20479693 5.38878324,7.20479693 5.38874559,7.24999969 C5.38870239,7.27135247 5.38870239,7.27135247 5.38864289,7.29215789 C5.38855033,7.32350017 5.38855033,7.32350017 5.3885196,7.35027079 L5.3885196,8.66051176 L6.12139744,7.48695612 L6.12140354,7.18340993 C6.12363972,7.05013344 6.07100576,7.0076018 5.9001965,7.00298533 L5.85872368,6.95192858 L5.9402616,6.70184892 L7.16987394,6.70184892 L7.21251765,6.75292149 L7.1311156,7.00300094 C6.94777014,7.00357569 6.93558828,7.01340787 6.94038527,7.19308162 C6.94132761,7.23171754 6.94123678,7.26850585 6.94039816,7.35971653 L6.93353617,8.62511355 L7.78578341,7.2317658 C7.82191855,7.16535528 7.83246631,7.12414088 7.82947113,7.06922904 C7.82597079,7.00422284 7.79015062,6.9949478 7.58224062,7.00095654 C7.52968466,7.00247544 7.49858758,7.00308379 7.46259207,7.00300104 L7.4200675,6.9518217 L7.50214153,6.70184892 L8.6050699,6.70184892 L8.64732497,6.75482145 L8.55721696,7.00298861 C8.39728501,7.00683724 8.34334257,7.05324946 8.24152646,7.23604302 C8.18304533,7.33256775 8.18304533,7.33256775 7.94904359,7.7186588 C7.72964108,8.08061962 7.51015651,8.4425806 7.30518882,8.78041199 C6.74820277,9.69844268 6.40337593,10.2653348 6.36726525,10.3214266 C6.30476572,10.4180925 6.22388481,10.4180925 6.15972226,10.3582304 C6.1451965,10.3446782 6.13465643,10.3312589 6.12139789,10.297699 L6.13100072,8.17983427 C6.10345343,8.2254046 6.0626797,8.2928538 5.99644854,8.40241551 Z M3.03112485,6.5551729 C3.09792545,6.55373411 3.17239817,6.5673061 3.25841668,6.59385163 C3.30668721,6.60874805 3.35607175,6.62680354 3.41842166,6.65161071 C3.46979817,6.67228843 3.46979817,6.67228843 3.51741479,6.69155304 C3.55333121,6.70594129 3.57931687,6.71582114 3.60212901,6.7235704 C3.68776758,6.75246472 3.72271848,6.75819974 3.7804368,6.75906595 C3.79854204,6.75936794 3.79854204,6.75936794 3.81583667,6.76030036 C3.97416991,6.77160988 4.06441791,6.74600761 4.12501374,6.63350626 L4.26169907,6.63350626 L4.30326883,6.68910299 L3.93943285,7.81311177 L3.81274888,7.81311177 L3.76973919,7.77510705 C3.7076182,7.27425655 3.51706963,6.96959491 3.19823964,6.97410451 C2.96295392,6.97722501 2.80674085,7.08066339 2.75206647,7.32104973 C2.68212228,7.62652026 2.78620811,7.80031134 3.29621594,8.29488314 C3.68867072,8.6763755 3.83412,8.89991258 3.8366397,9.23352168 C3.84197608,9.9144438 3.31184149,10.3675766 2.64164713,10.3701272 C2.45728485,10.3708474 2.32424437,10.3441513 2.17479701,10.2892584 C2.15370878,10.2815126 2.12810455,10.2716729 2.08604269,10.2555176 C2.05407218,10.2434518 2.03069582,10.2354288 2.0082173,10.2291063 C1.96675906,10.2174455 1.93021644,10.2124194 1.89223209,10.2139504 C1.87321929,10.2146734 1.87321929,10.2146734 1.85172495,10.2151799 C1.77699939,10.2168909 1.74736603,10.2181374 1.70552277,10.2225335 C1.59237373,10.2344211 1.52558851,10.2637299 1.4702068,10.3412347 L1.33352147,10.3412347 L1.29174558,10.2863601 L1.6946819,8.94659987 L1.83136723,8.94659987 L1.87352288,8.99999851 C1.75091729,9.51379908 2.05184222,9.95120545 2.50486775,9.95173718 C2.77704458,9.95220971 3.07893538,9.71036952 3.08602106,9.53486395 C3.09567988,9.30461856 3.0733708,9.21042236 2.99357426,9.11620603 C2.97053942,9.08900863 2.68608227,8.82644291 2.55101918,8.67732503 C2.542183,8.66757743 2.542183,8.66757743 2.53333862,8.65783723 C2.4679104,8.58597902 2.43575936,8.55055821 2.40323871,8.51412374 C2.09752362,8.17161611 1.96527151,7.94388084 1.96360808,7.66275905 C1.96030886,7.02271025 2.42486342,6.56863178 3.03112485,6.5551729 Z" id="Combined-Shape"></path>
        </g>
    </g>
</svg>