<?xml version="1.0" encoding="UTF-8"?>
<svg width="30px" height="30px" viewBox="0 0 30 30" version="1.1" xmlns="http://www.w3.org/2000/svg" xmlns:xlink="http://www.w3.org/1999/xlink">
    <!-- Generator: Sketch 49 (51002) - http://www.bohemiancoding.com/sketch -->
    <title>Combined Shape</title>
    <desc>Created with Sketch.</desc>
    <defs></defs>
    <g id="Page-1" stroke="none" stroke-width="1" fill="none" fill-rule="evenodd">
        <g id="Artboard-Copy-336" transform="translate(-5.000000, -5.000000)" fill="#000000" fill-rule="nonzero">
            <path d="M27.3075,17.3164815 L20.5922408,24.0317408 C20.2603217,24.3636598 19.7221839,24.3636903 19.3902273,24.0318088 L15.5742,20.2166455 L11.1570639,24.6327815 L9.95511848,23.4305639 L14.9732273,18.4135912 C15.3051574,18.0817363 15.8432426,18.0817363 16.1751727,18.4135912 L19.991132,22.2286865 L26.1928185,16.027 L23.3505,16.027 L23.3505,14.327 L28.1575,14.327 C28.626942,14.327 29.0075,14.707558 29.0075,15.177 L29.0075,19.984 L27.3075,19.984 L27.3075,17.3164815 Z M7.737,5 L32.264,5 C33.7753907,5 35,6.22550641 35,7.737 L35,32.263 C35,33.7744936 33.7753907,35 32.264,35 L7.737,35 C6.22555796,35 5,33.774442 5,32.263 L5,7.737 C5,6.22555796 6.22555796,5 7.737,5 Z M7.737,6.7 C7.16444204,6.7 6.7,7.16444204 6.7,7.737 L6.7,32.263 C6.7,32.835558 7.16444204,33.3 7.737,33.3 L32.264,33.3 C32.8362279,33.3 33.3,32.8358881 33.3,32.263 L33.3,7.737 C33.3,7.1641119 32.8362279,6.7 32.264,6.7 L7.737,6.7 Z" id="Combined-Shape"></path>
        </g>
    </g>
</svg>