<?xml version="1.0" encoding="UTF-8"?>
<svg width="30px" height="24px" viewBox="0 0 30 24" version="1.1" xmlns="http://www.w3.org/2000/svg" xmlns:xlink="http://www.w3.org/1999/xlink">
    <!-- Generator: Sketch 48.2 (47327) - http://www.bohemiancoding.com/sketch -->
    <title>Combined Shape</title>
    <desc>Created with Sketch.</desc>
    <defs></defs>
    <g id="Artboard-Copy-164" stroke="none" stroke-width="1" fill="none" fill-rule="evenodd" transform="translate(-4.000000, -7.000000)">
        <path d="M30.5012576,25.0093 L32.3001,25.0093 L32.3001,20.208253 L29.9644798,13.2023 L23.7089,13.2023 L23.7089,20.7141 L22.0089,20.7141 L22.0089,8.7001 L5.6999,8.7001 L5.6999,25.0091 L7.37368409,25.0091 C7.88641363,23.1547394 9.58589171,21.7932 11.6034,21.7932 C13.6209083,21.7932 15.3203864,23.1547394 15.8331159,25.0091 L22.9352214,25.0091 C23.5305259,23.5024167 24.9999688,22.4364 26.7182,22.4364 C28.4365072,22.4364 29.9060041,23.502511 30.5012576,25.0093 Z M30.779026,26.7093 C30.6712807,28.8586173 28.8942559,30.5684 26.7182,30.5684 C24.5420766,30.5684 22.7650091,28.8585112 22.657364,26.7091 L15.9599481,26.7091 C15.6991203,28.8828801 13.8479445,30.5682 11.6034,30.5682 C9.35885554,30.5682 7.50767967,28.8828801 7.24685187,26.7091 L3.9999,26.7091 L3.9999,7.0001 L23.7089,7.0001 L23.7089,11.5023 L30.5771,11.5023 C30.9429537,11.5023 31.2677638,11.7364003 31.3834704,12.0834751 L33.9564704,19.8014751 C33.9853677,19.8881559 34.0001,19.9789291 34.0001,20.0703 L34.0001,25.8593 C34.0001,26.328742 33.619542,26.7093 33.1501,26.7093 L30.779026,26.7093 Z M11.6034,23.4932 C10.118842,23.4932 8.9154,24.696642 8.9154,26.1812 C8.9154,27.6648754 10.1189595,28.8682 11.6034,28.8682 C13.0878405,28.8682 14.2914,27.6648754 14.2914,26.1812 C14.2914,24.696642 13.087958,23.4932 11.6034,23.4932 Z M26.7182,24.1364 C25.411642,24.1364 24.3522,25.195842 24.3522,26.5024 C24.3522,27.808958 25.411642,28.8684 26.7182,28.8684 C28.024758,28.8684 29.0842,27.808958 29.0842,26.5024 C29.0842,25.195842 28.024758,24.1364 26.7182,24.1364 Z" id="Combined-Shape" fill="#000000" fill-rule="nonzero"></path>
    </g>
</svg>