<?xml version="1.0" encoding="UTF-8"?>
<svg width="44px" height="30px" viewBox="0 0 44 30" version="1.1" xmlns="http://www.w3.org/2000/svg" xmlns:xlink="http://www.w3.org/1999/xlink">
    <!-- Generator: Sketch 49 (51002) - http://www.bohemiancoding.com/sketch -->
    <title>Artboard Copy 339</title>
    <desc>Created with Sketch.</desc>
    <defs></defs>
    <g id="Artboard-Copy-339" stroke="none" stroke-width="1" fill="none" fill-rule="evenodd">
        <path d="M29.2906204,2.6113954 C29.9067873,2.47874273 30.5462914,2.4089 31.2021,2.4089 C36.194542,2.4089 40.2421,6.45645796 40.2421,11.4489 C40.2421,13.6393578 39.4631945,15.6477107 38.1672551,17.2121735 L43.4060408,22.4509592 L42.2039592,23.6530408 L36.9651511,18.4142327 C35.9884241,19.223254 34.8387077,19.8307485 33.579722,20.173017 C32.6009369,25.7388686 27.7152925,30 21.8792,30 C15.343758,30 10.0002,24.656442 10.0002,18.121 L10.0002,11.879 C10.0002,5.34355796 15.343758,-2.22044605e-15 21.8792,-2.22044605e-15 C24.6765606,-2.22044605e-15 27.2555572,0.978988296 29.2906204,2.6113954 Z M27.3153628,3.28485295 C25.7398526,2.28214107 23.8739416,1.7 21.8792,1.7 C16.282642,1.7 11.7002,6.28244204 11.7002,11.879 L11.7002,18.121 C11.7002,23.717558 16.282642,28.3 21.8792,28.3 C26.6678555,28.3 30.7140514,24.9450801 31.7824545,20.4705737 C31.5905678,20.4827297 31.3970547,20.4889 31.2021,20.4889 C26.2093286,20.4889 22.1621,16.4420127 22.1621,11.4489 C22.1621,7.84781215 24.267984,4.73833339 27.3153628,3.28485295 Z M31.2021,4.1089 C27.148542,4.1089 23.8621,7.39534204 23.8621,11.4489 C23.8621,15.5030965 27.1481806,18.7889 31.2021,18.7889 C35.2560194,18.7889 38.5421,15.5030965 38.5421,11.4489 C38.5421,7.39534204 35.255658,4.1089 31.2021,4.1089 Z" id="Combined-Shape" fill="#000000" fill-rule="nonzero"></path>
    </g>
</svg>