<?xml version="1.0" encoding="UTF-8"?>
<svg width="45px" height="30px" viewBox="0 0 45 30" version="1.1" xmlns="http://www.w3.org/2000/svg" xmlns:xlink="http://www.w3.org/1999/xlink">
    <!-- Generator: Sketch 49 (51002) - http://www.bohemiancoding.com/sketch -->
    <title>Artboard Copy 342</title>
    <desc>Created with Sketch.</desc>
    <defs></defs>
    <g id="Artboard-Copy-342" stroke="none" stroke-width="1" fill="none" fill-rule="evenodd">
        <path d="M28.3775818,3.31442246 C26.7516026,2.29207472 24.8316854,1.6995 22.7806,1.6995 C16.9672547,1.6995 12.2076,6.45972939 12.2072619,12.2974726 C12.205414,12.3629659 12.2013719,12.4880263 12.194732,12.6690628 C12.1837165,12.9694002 12.1692965,13.3185192 12.1510682,13.7128302 C12.0990548,14.8379734 12.0269623,16.1007119 11.9315511,17.4723582 C11.6828062,21.0483514 11.3240096,24.6992746 10.8351563,28.2516207 C11.110757,28.2314997 11.40299,28.2052052 11.7089216,28.1719039 C13.1212557,28.0181684 14.5320396,27.7491885 15.8395904,27.3394393 C16.6703339,27.0791079 17.4284342,26.7707497 18.1006763,26.4128526 C15.2476376,24.7784199 13.3156,21.7018967 13.3156,18.194 L13.3156,11.2025018 L13.8218032,10.9786302 L18.6975058,8.82231987 C19.2212167,8.59127095 19.8057282,8.55385899 20.3577121,8.71621062 C21.259939,8.98430449 22.2605583,9.22980891 23.3479406,9.43823138 C23.9960249,6.70973114 25.8809274,4.46010605 28.3775818,3.31442246 Z M33.5979315,20.4586318 C33.124436,20.5352027 32.6386173,20.575 32.1435,20.575 C32.0758806,20.575 32.0084346,20.5742577 31.9411697,20.5727808 C31.2863132,23.0805482 29.6224008,25.1908197 27.41364,26.4395343 C27.7061692,26.5908298 28.0070417,26.7314416 28.3157556,26.8616405 C29.6627142,27.4297149 31.1105852,27.7820198 32.584518,27.9566901 C33.2575506,28.0364487 33.8774325,28.0734104 34.4217734,28.0799821 C34.2653249,27.1234433 34.126786,26.1147813 34.005173,25.0597473 C33.8340308,23.5750301 33.6996664,22.0320305 33.5979315,20.4586318 Z M30.3945548,2.66407062 C30.9604039,2.55313723 31.545166,2.495 32.1435,2.495 C37.135942,2.495 41.1835,6.54255796 41.1835,11.535 C41.1835,13.7254833 40.4045763,15.7338575 39.1086097,17.2983282 L44.3473408,22.5370592 L43.1452592,23.7391408 L37.9064964,18.500378 C37.1279914,19.1452021 36.2395891,19.6619979 35.2735544,20.0185109 C35.3758247,21.6796038 35.5143763,23.3068657 35.6939904,24.8650785 C35.8537777,26.2512873 36.0430513,27.5520073 36.2635944,28.7518338 C36.3544668,29.246209 35.9988081,29.7110346 35.4978712,29.7525903 C35.450214,29.7565437 35.3679025,29.7618523 35.2535115,29.7669573 C33.0244293,29.8664366 30.3002702,29.5436066 27.6551362,28.4280319 C26.8829019,28.1023452 26.1502246,27.7172668 25.4635297,27.2687601 C24.6121851,27.5219568 23.7115766,27.658 22.7806,27.658 C21.8156756,27.658 20.8833745,27.5118543 20.0047357,27.2405955 C18.9764484,27.9576524 17.743332,28.5243779 16.3479457,28.9616523 C14.923673,29.4079788 13.4075031,29.6970516 11.8928835,29.8619211 C11.3636616,29.919528 10.8717204,29.9575981 10.4290091,29.9799187 C10.160076,29.9934778 9.96479311,29.9987591 9.85520339,29.9994815 C9.33478868,30.0029123 8.93350969,29.5420835 9.00846144,29.027083 C9.56510051,25.2023638 9.9657756,21.2341322 10.2356489,17.3543918 C10.3301127,15.9963662 10.4014577,14.7467219 10.4528818,13.634326 C10.4708566,13.2454983 10.4850538,12.9017726 10.4958743,12.6067536 C10.5023359,12.4305763 10.5062235,12.3102998 10.5076,12.2735 C10.5076,5.52089127 16.0283246,-0.0005 22.7806,-0.0005 C25.650964,-0.0005 28.2987789,0.997251031 30.3945548,2.66407062 Z M23.1126694,11.1241897 C21.9363564,10.901546 20.8532323,10.636915 19.8757586,10.3464607 C19.7109298,10.2979816 19.5394687,10.3089561 19.3843968,10.3773698 L15.0156,12.3094982 L15.0156,18.194 C15.0156,22.4623379 18.5118219,25.958 22.7806,25.958 C26.2938703,25.958 29.2838462,23.5901978 30.2321573,20.3725853 C26.1573928,19.4956111 23.1035,15.8722993 23.1035,11.535 C23.1035,11.397323 23.1065782,11.2603645 23.1126694,11.1241897 Z M32.1435,4.195 C28.089942,4.195 24.8035,7.48144204 24.8035,11.535 C24.8035,15.5891965 28.0895806,18.875 32.1435,18.875 C36.1974194,18.875 39.4835,15.5891965 39.4835,11.535 C39.4835,7.48144204 36.197058,4.195 32.1435,4.195 Z" id="Combined-Shape" fill="#000000" fill-rule="nonzero"></path>
    </g>
</svg>