<?xml version="1.0" encoding="UTF-8"?>
<svg id="alias" width="38px" height="41px" viewBox="0 0 38 41" version="1.1" xmlns="http://www.w3.org/2000/svg" xmlns:xlink="http://www.w3.org/1999/xlink">
    <!-- Generator: Sketch 49 (51002) - http://www.bohemiancoding.com/sketch -->
    <title>Artboard Copy 321</title>
    <desc>Created with Sketch.</desc>
    <defs></defs>
    <g id="Artboard-Copy-321" stroke="none" stroke-width="1" fill="none" fill-rule="evenodd">
        <path d="M21.8717,25.7901 L30.6451,25.7901 C32.497542,25.7901 34.0001,27.292658 34.0001,29.1451 L34.0001,35.4481 L32.3001,35.4481 L32.3001,29.1451 C32.3001,28.231542 31.558658,27.4901 30.6451,27.4901 L21.8717,27.4901 L21.8717,31.4691 L20.1717,31.4691 L20.1717,25.1661 C20.1717,24.2524399 19.4301557,23.5111 18.5157,23.5111 L7.3557,23.5111 C6.44124426,23.5111 5.6997,24.2524399 5.6997,25.1661 L5.6997,29.3661 C5.6997,29.588658 5.88014204,29.7691 6.1027,29.7691 L13.7857,29.7691 L13.7857,31.4691 L6.1027,31.4691 C4.94125796,31.4691 3.9997,30.527542 3.9997,29.3661 L3.9997,25.1661 C3.9997,23.3134509 5.50246508,21.8111 7.3557,21.8111 L18.5157,21.8111 C20.3689349,21.8111 21.8717,23.3134509 21.8717,25.1661 L21.8717,25.7901 Z M12.9046,19.0015 C9.6842882,19.0015 7.0686,16.4271236 7.0686,13.2445 C7.0686,10.0610583 9.6841048,7.4865 12.9046,7.4865 C16.1250952,7.4865 18.7406,10.0610583 18.7406,13.2445 C18.7406,16.4271236 16.1249118,19.0015 12.9046,19.0015 Z M12.9046,17.3015 C15.1920323,17.3015 17.0406,15.4821283 17.0406,13.2445 C17.0406,11.0059991 15.1921631,9.1865 12.9046,9.1865 C10.6170369,9.1865 8.7686,11.0059991 8.7686,13.2445 C8.7686,15.4821283 10.6171677,17.3015 12.9046,17.3015 Z M26.3808,22.9805 C23.1604882,22.9805 20.5448,20.4061236 20.5448,17.2235 C20.5448,14.0400583 23.1603048,11.4655 26.3808,11.4655 C29.6012952,11.4655 32.2168,14.0400583 32.2168,17.2235 C32.2168,20.4061236 29.6011118,22.9805 26.3808,22.9805 Z M26.3808,21.2805 C28.6682323,21.2805 30.5168,19.4611283 30.5168,17.2235 C30.5168,14.9849991 28.6683631,13.1655 26.3808,13.1655 C24.0932369,13.1655 22.2448,14.9849991 22.2448,17.2235 C22.2448,19.4611283 24.0933677,21.2805 26.3808,21.2805 Z M26.3808,1.7 L26.3808,-1.77635684e-15 L37.9988,-1.77635684e-15 L37.9988,1.7 L26.3808,1.7 Z M26.3808,6.7061 L26.3808,5.0061 L37.9988,5.0061 L37.9988,6.7061 L26.3808,6.7061 Z" id="Combined-Shape" fill="#000000" fill-rule="nonzero"></path>
    </g>
</svg>
