<?xml version="1.0" encoding="UTF-8"?>
<svg width="35px" height="14px" viewBox="0 0 35 14" version="1.1" xmlns="http://www.w3.org/2000/svg" xmlns:xlink="http://www.w3.org/1999/xlink">
    <!-- Generator: Sketch 49 (51002) - http://www.bohemiancoding.com/sketch -->
    <title>Combined Shape</title>
    <desc>Created with Sketch.</desc>
    <defs></defs>
    <g id="Page-1" stroke="none" stroke-width="1" fill="none" fill-rule="evenodd">
        <g id="Artboard-Copy-327" transform="translate(-3.000000, -14.000000)" fill="#000000">
            <path d="M9.7401,14.2681 L3.0001,26.8181 L5.1691,26.8181 L6.2981,24.6491 L11.3721,24.6491 L11.7481,26.8181 L13.8281,26.8181 L11.5151,14.2681 L9.7401,14.2681 Z M10.0811,17.4231 L10.1161,17.4231 L11.0491,22.8551 L7.2311,22.8551 L10.0811,17.4231 Z M22.9707,22.0488 L25.1757,22.6218 C24.8887,24.0328 24.3027,25.1298 23.4187,25.9118 C22.5337,26.6948 21.3927,27.0858 19.9947,27.0858 C18.5487,27.0858 17.3837,26.5838 16.4987,25.5798 C15.6147,24.5758 15.1727,23.2748 15.1727,21.6728 C15.1727,20.4778 15.3427,19.3838 15.6827,18.3918 C16.0237,17.4008 16.4807,16.5898 17.0547,15.9628 C17.6287,15.3348 18.2707,14.8518 18.9817,14.5108 C19.6927,14.1698 20.4307,13.9998 21.1957,13.9998 C22.5947,13.9998 23.7087,14.4148 24.5387,15.2458 C25.3697,16.0758 25.7847,17.1728 25.7847,18.5348 L23.5977,18.7148 C23.5737,17.8898 23.3677,17.2298 22.9797,16.7338 C22.5907,16.2378 21.9957,15.9888 21.1957,15.9888 C20.1677,15.9888 19.2807,16.5068 18.5337,17.5398 C17.7867,18.5738 17.4127,19.8258 17.4127,21.2958 C17.4127,22.4798 17.6527,23.3968 18.1307,24.0478 C18.6077,24.6988 19.2537,25.0248 20.0667,25.0248 C21.5127,25.0248 22.4807,24.0328 22.9707,22.0488 Z M26.4121,26.8173 L28.6171,14.2683 L30.7321,14.2683 L29.8361,19.4313 L34.5691,19.4313 L35.4651,14.2683 L37.5801,14.2683 L35.3751,26.8173 L33.2601,26.8173 L34.2461,21.2593 L29.5131,21.2593 L28.5271,26.8173 L26.4121,26.8173 Z" id="Combined-Shape"></path>
        </g>
    </g>
</svg>