<?xml version="1.0" encoding="UTF-8"?>
<svg width="17px" height="8px" viewBox="0 0 17 8" version="1.1" xmlns="http://www.w3.org/2000/svg" xmlns:xlink="http://www.w3.org/1999/xlink">
    <!-- Generator: Sketch 49 (51002) - http://www.bohemiancoding.com/sketch -->
    <title>Combined Shape</title>
    <desc>Created with Sketch.</desc>
    <defs></defs>
    <g id="Page-1" stroke="none" stroke-width="1" fill="none" fill-rule="evenodd">
        <g id="Artboard-Copy-325" transform="translate(0.000000, -3.000000)" fill="#000000">
            <path d="M3.3573,3.9409 L0.0713,10.0589 L1.1293,10.0589 L1.6793,9.0019 L4.1533,9.0019 L4.3363,10.0589 L5.3503,10.0589 L4.2223,3.9409 L3.3573,3.9409 Z M3.5233,5.4789 L3.5413,5.4789 L3.9953,8.1279 L2.1333,8.1279 L3.5233,5.4789 Z M9.8071,7.734 L10.8821,8.013 C10.7421,8.701 10.4561,9.236 10.0251,9.617 C9.5941,9.999 9.0381,10.19 8.3561,10.19 C7.6511,10.19 7.0831,9.945 6.6521,9.455 C6.2211,8.966 6.0051,8.331 6.0051,7.551 C6.0051,6.968 6.0881,6.435 6.2541,5.951 C6.4201,5.468 6.6431,5.073 6.9231,4.767 C7.2031,4.461 7.5161,4.225 7.8621,4.059 C8.2091,3.893 8.5691,3.81 8.9421,3.81 C9.6231,3.81 10.1671,4.013 10.5721,4.418 C10.9761,4.822 11.1791,5.357 11.1791,6.021 L10.1131,6.109 C10.1011,5.706 10.0011,5.385 9.8111,5.143 C9.6221,4.901 9.3321,4.78 8.9421,4.78 C8.4411,4.78 8.0081,5.032 7.6441,5.536 C7.2801,6.04 7.0981,6.65 7.0981,7.367 C7.0981,7.944 7.2141,8.391 7.4471,8.709 C7.6801,9.026 7.9951,9.185 8.3911,9.185 C9.0961,9.185 9.5681,8.701 9.8071,7.734 Z M11.4847,10.0587 L12.5597,3.9407 L13.5907,3.9407 L13.1537,6.4577 L15.4607,6.4577 L15.8977,3.9407 L16.9287,3.9407 L15.8547,10.0587 L14.8227,10.0587 L15.3037,7.3497 L12.9967,7.3497 L12.5157,10.0587 L11.4847,10.0587 Z" id="Combined-Shape"></path>
        </g>
    </g>
</svg>