<?xml version="1.0" encoding="UTF-8"?>
<svg width="14px" height="14px" viewBox="0 0 14 14" version="1.1" xmlns="http://www.w3.org/2000/svg" xmlns:xlink="http://www.w3.org/1999/xlink">
    <!-- Generator: Sketch 48.2 (47327) - http://www.bohemiancoding.com/sketch -->
    <title>Combined Shape</title>
    <desc>Created with Sketch.</desc>
    <defs></defs>
    <g id="Artboard" stroke="none" stroke-width="1" fill="none" fill-rule="evenodd">
        <path d="M12.1342,4.2445 L13.5342,4.2445 L13.5342,11.7095 C13.5342,12.852333 12.6075657,13.7785 11.4642,13.7785 L2.2142,13.7785 C1.07083434,13.7785 0.1442,12.852333 0.1442,11.7095 L0.1442,2.4635 C0.1442,1.32063422 1.07086691,0.3935 2.2142,0.3935 L9.8442,0.3935 L9.8442,1.7935 L2.2142,1.7935 C1.84422361,1.7935 1.5442,2.09367491 1.5442,2.4635 L1.5442,11.7095 C1.5442,12.0789762 1.84387495,12.3785 2.2142,12.3785 L11.4642,12.3785 C11.8345251,12.3785 12.1342,12.0789762 12.1342,11.7095 L12.1342,4.2445 Z M13.8558,1.6205 C13.8558,2.3925 13.2298,3.0195 12.4568,3.0195 C11.6848,3.0195 11.0588,2.3925 11.0588,1.6205 C11.0588,0.8485 11.6848,0.2215 12.4568,0.2215 C13.2298,0.2215 13.8558,0.8485 13.8558,1.6205 Z" id="Combined-Shape" fill="#000000" fill-rule="nonzero"></path>
    </g>
</svg>