<?xml version="1.0" encoding="UTF-8"?>
<svg width="28px" height="30px" viewBox="0 0 28 30" version="1.1" xmlns="http://www.w3.org/2000/svg" xmlns:xlink="http://www.w3.org/1999/xlink">
    <!-- Generator: Sketch 49 (51002) - http://www.bohemiancoding.com/sketch -->
    <title>Combined Shape</title>
    <desc>Created with Sketch.</desc>
    <defs></defs>
    <g id="Page-1" stroke="none" stroke-width="1" fill="none" fill-rule="evenodd">
        <g id="Artboard-Copy-366" transform="translate(-6.000000, -5.000000)" fill="#000000" fill-rule="nonzero">
            <path d="M8.99310204,21.4648633 C8.56745398,21.2870385 8.1886298,21.0658076 7.85545646,20.8093184 C7.2687839,20.3576763 6.91844323,19.8882093 6.75119924,19.5322875 C6.59670562,19.2035005 6.66823589,18.8128732 6.92921078,18.5601654 C6.96112331,18.5292638 7.03801873,18.4447465 7.14543716,18.3079474 C7.33536922,18.0660658 7.52781303,17.7739994 7.70880171,17.4330343 C8.06417352,16.7635481 8.32722175,15.9970774 8.45816653,15.1339867 C8.85635445,12.5160156 9.40450011,10.7372083 10.7301814,8.97272805 C12.6425881,6.42731696 15.7144643,4.9998 20.149502,4.9998 C24.5565897,4.9998 27.658501,6.59944141 29.5718887,9.34080772 C30.8696542,11.2001541 31.4801756,13.3977318 31.545929,15.1625947 C31.5516135,15.3173287 31.5733931,15.4835592 31.6109659,15.6598674 C31.7249927,16.1949318 31.9769776,16.7938673 32.3265268,17.4108714 C32.5068684,17.7291999 32.7009795,18.0310319 32.8947041,18.3051162 C33.0092527,18.4671813 33.096088,18.5813454 33.1410795,18.6371192 C33.4321937,18.9979989 33.3803895,19.5256006 33.0246435,19.8229663 C32.8321272,19.9838893 32.5230362,20.2098824 32.13558,20.436405 C31.7594563,20.6563022 31.382719,20.830582 31.007102,20.943242 L31.007102,23.9932 C31.007102,30.048974 26.0562122,35.0002 20.000102,35.0002 C13.9439919,35.0002 8.99310204,30.048974 8.99310204,23.9932 L8.99310204,21.4648633 Z M10.693102,20.9144133 L10.693102,23.9932 C10.693102,29.1101157 14.8829018,33.3002 20.000102,33.3002 C25.1173023,33.3002 29.307102,29.1101157 29.307102,23.9932 L29.307102,20.2370191 C29.2975472,20.1353517 29.2755881,19.9719461 29.2359424,19.7663332 C29.1566852,19.3552852 29.0356341,18.9455042 28.8674997,18.5712778 C28.6439246,18.0736539 28.3562624,17.6835937 28.0065747,17.4285108 L27.9215847,17.3575929 C26.7691407,16.2610604 14.6047557,16.1314512 11.9974341,17.4391523 C11.6675232,17.759275 11.4002607,18.1621001 11.1917665,18.6331659 C10.9763296,19.1199176 10.8352606,19.6511297 10.756649,20.1839686 C10.7097413,20.5019142 10.694502,20.7429317 10.694502,20.8648 C10.694502,20.8814786 10.6940308,20.8980199 10.693102,20.9144133 Z M19.4459835,29.6834197 C19.0191722,29.8782904 18.5974544,30.0320787 18.1887045,30.1291345 C17.8826537,30.2018048 17.5891993,30.2412 17.308202,30.2412 C16.83876,30.2412 16.458202,29.860642 16.458202,29.3912 C16.458202,28.921758 16.83876,28.5412 17.308202,28.5412 C17.4460955,28.5412 17.6108002,28.519089 17.7959671,28.475122 C18.0848082,28.406538 18.4063357,28.2892862 18.7399205,28.1369803 C19.095603,27.9745851 19.3856866,27.8120573 19.5460594,27.7106915 C19.8389103,27.5255913 20.2147959,27.5367465 20.4961546,27.7388877 C20.6256349,27.8319124 20.8776295,27.9868621 21.2049648,28.1430995 C21.7302983,28.3938417 22.2462822,28.5412 22.692202,28.5412 C23.1616441,28.5412 23.542202,28.921758 23.542202,29.3912 C23.542202,29.860642 23.1616441,30.2412 22.692202,30.2412 C21.9542469,30.2412 21.2070433,30.0278083 20.4726893,29.6773005 C20.290582,29.5903805 20.1254153,29.5032279 19.9799253,29.4204193 C19.8216108,29.5044486 19.642007,29.5939207 19.4459835,29.6834197 Z" id="Combined-Shape"></path>
        </g>
    </g>
</svg>