<?xml version="1.0" encoding="UTF-8"?>
<svg width="24px" height="30px" viewBox="0 0 24 30" version="1.1" xmlns="http://www.w3.org/2000/svg" xmlns:xlink="http://www.w3.org/1999/xlink">
    <!-- Generator: Sketch 49 (51002) - http://www.bohemiancoding.com/sketch -->
    <title>Combined Shape</title>
    <desc>Created with Sketch.</desc>
    <defs></defs>
    <g id="Page-1" stroke="none" stroke-width="1" fill="none" fill-rule="evenodd">
        <g id="Artboard-Copy-348" transform="translate(-8.000000, -5.000000)" fill="#000000" fill-rule="nonzero">
            <path d="M9.821,21.7684219 L9.821,23.121 C9.821,28.717558 14.403442,33.3 20,33.3 C25.596558,33.3 30.179,28.717558 30.179,23.121 L30.179,21.7316366 C21.1103821,20.9366599 12.2743009,21.5622177 9.821,21.7684219 Z M10.0534225,14.7189557 C18.5500242,15.8379548 26.8675141,15.1044709 29.9537064,14.751856 C28.968196,10.1665644 24.8676815,6.7 20,6.7 C15.1439675,6.7 11.0514345,10.1499924 10.0534225,14.7189557 Z M20,35 C13.464558,35 8.121,29.656442 8.121,23.121 L8.121,16.879 C8.121,10.343558 13.464558,5 20,5 C26.535442,5 31.879,10.343558 31.879,16.879 L31.879,23.121 C31.879,29.656442 26.535442,35 20,35 Z M24.5793,19.6483 C25.3733,19.6483 26.0163,19.0043 26.0163,18.2113 C26.0163,17.4173 25.3733,16.7733 24.5793,16.7733 C23.7853,16.7733 23.1423,17.4173 23.1423,18.2113 C23.1423,19.0043 23.7853,19.6483 24.5793,19.6483 Z M15.2873,19.6483 C16.0813,19.6483 16.7253,19.0043 16.7253,18.2113 C16.7253,17.4173 16.0813,16.7733 15.2873,16.7733 C14.4933,16.7733 13.8503,17.4173 13.8503,18.2113 C13.8503,19.0043 14.4933,19.6483 15.2873,19.6483 Z" id="Combined-Shape"></path>
        </g>
    </g>
</svg>