<?xml version="1.0" encoding="UTF-8"?>
<svg width="31px" height="29px" viewBox="0 0 31 29" version="1.1" xmlns="http://www.w3.org/2000/svg" xmlns:xlink="http://www.w3.org/1999/xlink">
    <!-- Generator: Sketch 48.2 (47327) - http://www.bohemiancoding.com/sketch -->
    <title>Combined Shape</title>
    <desc>Created with Sketch.</desc>
    <defs></defs>
    <g id="Artboard-Copy-131" stroke="none" stroke-width="1" fill="none" fill-rule="evenodd" transform="translate(-4.000000, -4.000000)">
        <path d="M17.7086529,4.36750166 C18.6072716,3.87775443 19.6927284,3.87775443 20.5913671,4.36751261 L32.8940134,11.0783198 C33.7603587,11.5504382 34.3005,12.4591983 34.3005,13.4454 L34.3005,15.0614 C34.3005,16.2967443 33.2987257,17.2974 32.0635,17.2974 L4.0005,17.2974 L4.0005,13.6254 C4.0005,12.5274551 4.59940317,11.5176378 5.56265293,10.9925017 L17.7086529,4.36750166 Z M6.52016048,12.7484001 C6.19980864,12.9230467 6.0005,13.2591032 6.0005,13.6254 L6.0005,15.2974 L32.0635,15.2974 C32.1946561,15.2974 32.3005,15.1916743 32.3005,15.0614 L32.3005,13.4454 C32.3005,13.1916343 32.16067,12.9563774 31.9366329,12.8342874 L19.6339555,6.1234633 C19.3323134,5.95906838 18.9678296,5.95904557 18.6661701,6.12339486 L6.52016048,12.7484001 Z M8.5727,28.8749 L6.5727,28.8749 L6.5727,19.1569 L8.5727,19.1569 L8.5727,28.8749 Z M16.2909,28.8749 L14.2909,28.8749 L14.2909,19.1569 L16.2909,19.1569 L16.2909,28.8749 Z M24.0091,28.8749 L22.0091,28.8749 L22.0091,19.1569 L24.0091,19.1569 L24.0091,28.8749 Z M31.7273,28.8749 L29.7273,28.8749 L29.7273,19.1569 L31.7273,19.1569 L31.7273,28.8749 Z M4,32.734 L4,30.734 L34.3,30.734 L34.3,32.734 L4,32.734 Z" id="Combined-Shape" fill="#000000" fill-rule="nonzero"></path>
    </g>
</svg>