<?xml version="1.0" encoding="UTF-8"?>
<svg width="22px" height="30px" viewBox="0 0 22 30" version="1.1" xmlns="http://www.w3.org/2000/svg" xmlns:xlink="http://www.w3.org/1999/xlink">
    <!-- Generator: Sketch 49 (51002) - http://www.bohemiancoding.com/sketch -->
    <title>Artboard Copy 300</title>
    <desc>Created with Sketch.</desc>
    <defs></defs>
    <g id="Artboard-Copy-300" stroke="none" stroke-width="1" fill="none" fill-rule="evenodd">
        <path d="M4.4318,12.86395 L4.4318,3.85865 L7.0045,3.85865 L7.0045,5.00000006e-05 L8.7045,5.00000006e-05 L8.7045,3.85865 L10.8636,3.85865 L10.8636,5.00000006e-05 L12.5636,5.00000006e-05 L12.5636,3.86248296 C15.443608,3.96946175 17.7088,6.3026727 17.7088,9.21165 C17.7088,10.6873841 17.1254726,12.0150153 16.1745318,12.9788297 C19.2582773,13.5562043 21.5685,16.242553 21.5685,19.50195 C21.5685,23.187392 18.614942,26.14095 14.9295,26.14095 L12.5636,26.14095 L12.5636,29.99995 L10.8636,29.99995 L10.8636,26.14095 L8.7045,26.14095 L8.7045,29.99995 L7.0045,29.99995 L7.0045,26.14095 L4.4315,26.14095 L4.4315,12.86395 Z M6.1318,12.86395 L11.5068,12.86395 L11.5068,12.86365 L12.3568,12.86365 C14.395358,12.86365 16.0088,11.250208 16.0088,9.21165 C16.0088,7.19077593 14.4247123,5.58805353 12.412352,5.55905 L10.8636,5.55905 L8.7045,5.55865 L7.0045,5.55905 L6.1318,5.55865 L6.1318,12.86395 Z M14.9295,24.44095 C17.676058,24.44095 19.8685,22.248508 19.8685,19.50195 C19.8685,16.7556299 17.6762958,14.56395 14.9295,14.56395 L6.1315,14.56395 L6.1315,24.44095 L14.9295,24.44095 Z" id="Combined-Shape" fill="#000000" fill-rule="nonzero"></path>
    </g>
</svg>