<?xml version="1.0" encoding="UTF-8"?>
<svg width="30px" height="30px" viewBox="0 0 30 30" version="1.1" xmlns="http://www.w3.org/2000/svg" xmlns:xlink="http://www.w3.org/1999/xlink">
    <!-- Generator: Sketch 48.2 (47327) - http://www.bohemiancoding.com/sketch -->
    <title>Combined Shape</title>
    <desc>Created with Sketch.</desc>
    <defs></defs>
    <g id="Artboard-Copy-263" stroke="none" stroke-width="1" fill="none" fill-rule="evenodd" transform="translate(-5.000000, -5.000000)">
        <path d="M31.7918836,23.2555113 C32.2586699,24.8571926 31.8607045,26.657266 30.5979237,27.920882 L25.1209237,33.397882 C23.3175984,35.2012072 20.4210726,35.2418887 18.5792388,33.5305367 C17.0523551,34.2931628 15.1470454,34.0380852 13.8741421,32.765182 L7.48514213,26.376182 C6.16545795,25.0564978 5.93978712,23.0570692 6.80812967,21.5041877 C4.00309207,17.3973476 4.49407996,11.8269626 8.05174213,8.26930044 C11.1656549,5.15538762 15.796455,4.30970855 20.0358773,6.30523034 C24.0301728,4.31629053 29.0271797,5.05729953 32.2669576,8.49847381 C36.1213354,12.5910013 35.8419613,19.1756467 31.7918836,23.2555113 Z M30.964163,21.6529828 C34.0176473,18.1904167 34.1163224,12.9416534 31.029305,9.66389901 C27.6502511,6.07479088 21.9897321,5.99477351 18.482009,9.50095363 L12.3112878,15.0759798 C14.1098052,16.2830991 16.5674785,16.0918641 18.1569093,14.5024334 L19.4469093,13.2114334 C19.6043028,13.0539179 19.8172222,12.9644553 20.0398858,12.9622817 C20.0890461,12.961802 20.0890461,12.961802 20.319261,12.9599061 C20.5461064,12.9581305 20.8088183,12.9563554 21.1042695,12.954699 C23.1294088,12.9433456 25.4279514,12.9433456 27.7999635,12.9622682 L27.7864023,14.6622142 C26.4845016,14.6518283 25.2045848,14.6471632 23.9801872,14.6469585 L30.5981223,21.2419992 C30.7294973,21.373461 30.8515108,21.5107315 30.964163,21.6529828 Z M21.5772046,14.6522984 C21.4212261,14.6530226 21.2667288,14.6538149 21.1138,14.6546723 C20.8499174,14.6561517 20.6123596,14.6577255 20.4033876,14.6593087 L19.3592237,15.704282 C16.888278,18.1752276 12.8830878,18.1752276 10.4121421,15.704282 C10.0682392,15.3603791 10.0824763,14.7985713 10.4433568,14.4725288 L17.3111421,8.26920044 C17.6167338,7.96360877 17.9364546,7.68101521 18.2681791,7.42139683 C14.9919363,6.30888034 11.6121407,7.11306494 9.25382366,9.47138197 C6.37216404,12.3530416 5.8948692,16.8138655 7.97869218,20.1887487 C9.57239976,19.033418 11.8138521,19.1738686 13.2512237,20.6101004 L19.6402237,26.9991004 C21.1297587,28.4886355 21.2255464,30.8441488 19.9273915,32.4462912 C21.1135712,33.3699325 22.828207,33.2864355 23.9188421,32.1958004 L29.3956435,26.7189992 C30.5759627,25.5378993 30.5759627,23.6247831 29.3968846,22.4449226 L21.5772059,14.6522983 Z M18.4379038,31.5633389 C19.3662362,30.6342697 19.3662362,29.129276 18.4381421,28.201182 L12.0493806,21.8124203 C11.1203114,20.8840879 9.61531774,20.8840879 8.68746203,21.8119435 C7.75912958,22.7410127 7.75912958,24.2460064 8.68722366,25.1741004 L15.0762237,31.5631004 C16.0043177,32.4911945 17.5093114,32.4911945 18.4379038,31.5633389 Z" id="Combined-Shape" fill="#000000" fill-rule="nonzero"></path>
    </g>
</svg>