<?xml version="1.0" encoding="UTF-8"?>
<svg width="14px" height="14px" viewBox="0 0 14 14" version="1.1" xmlns="http://www.w3.org/2000/svg" xmlns:xlink="http://www.w3.org/1999/xlink">
    <!-- Generator: Sketch 49 (51002) - http://www.bohemiancoding.com/sketch -->
    <title>Combined Shape</title>
    <desc>Created with Sketch.</desc>
    <defs></defs>
    <g id="Page-1" stroke="none" stroke-width="1" fill="none" fill-rule="evenodd">
        <g id="Artboard-Copy-262" transform="translate(-2.000000, -2.000000)" fill="#000000" fill-rule="nonzero">
            <path d="M14.4610259,10.5060882 C14.6540905,11.252734 14.4582348,12.0791613 13.8734589,12.6639371 L11.3974589,15.1399371 C10.5566096,15.9807865 9.21613195,16.0175211 8.33770864,15.2561048 C7.61684696,15.5802083 6.74023408,15.4462191 6.14815216,14.8541371 L3.25915216,11.9651371 C2.64253545,11.3485204 2.52276308,10.4233033 2.89967273,9.68696322 C1.64442416,7.78913446 1.88372598,5.24396584 3.51549232,3.61329025 C4.94604268,2.18387344 7.06724297,1.78653516 9.01449481,2.67929312 C10.856543,1.78875716 13.1439406,2.14018861 14.6309507,3.7201369 C16.4031027,5.60134442 16.2907155,8.61543188 14.4610259,10.5060882 Z M13.9582168,9.56927256 C15.2148384,8.04790531 15.2270722,5.81131995 13.9029056,4.40566609 C12.4201339,2.83022123 9.93513478,2.79496129 8.39120994,4.33797973 L5.71481321,6.7561728 C6.4684344,7.18236455 7.44243211,7.0744504 8.08445216,6.43243035 L8.66845216,5.84843035 C8.76097643,5.75590608 8.88608412,5.70333873 9.01692645,5.70200954 C9.105124,5.70111357 9.2695171,5.69977439 9.49879208,5.6984367 C10.4150972,5.69309056 11.455009,5.69309056 12.5281569,5.70200098 L12.5198542,6.70196651 C12.0299455,6.69789877 11.5469003,6.69569703 11.0794851,6.69501891 L13.8734589,9.47983035 C13.9026829,9.50905428 13.9309355,9.53888172 13.9582168,9.56927256 Z M9.66547584,6.69754349 C9.61145127,6.69781698 9.55782879,6.69810927 9.50462643,6.69841968 C9.39908254,6.69903547 9.30745593,6.69965094 9.23087417,6.7002219 L8.79155894,7.13953713 C7.6292968,8.30179928 5.74471431,8.30179928 4.58245216,7.13953713 C4.38016105,6.93724602 4.38853,6.6067802 4.60080117,6.41498776 L7.70245216,3.61343035 C7.79159834,3.52428417 7.88334288,3.43936354 7.97743959,3.3586658 C6.60235087,2.96728667 5.20970006,3.33407836 4.22234072,4.32065532 C2.98582678,5.55634271 2.75800501,7.45544188 3.60013291,8.92101642 C4.35660888,8.44335637 5.36949892,8.5344273 6.03025894,9.19403035 L8.91925894,12.0830304 C9.60551411,12.7692855 9.67636427,13.8377816 9.13180941,14.6029632 C9.61609444,14.9127939 10.2670995,14.856083 10.6903522,14.4328304 L13.1663522,11.9568304 C13.65509,11.4680925 13.65509,10.675675 13.1669333,10.1875174 L9.6654761,6.69754345 Z M6.85525894,14.1470304 C7.2299968,14.5217682 7.83741431,14.5217682 8.21215216,14.1470304 C8.58689001,13.7722925 8.58689001,13.164875 8.21215216,12.7901371 L5.32346216,9.90144686 C4.94775674,9.52639942 4.3403395,9.52639942 3.96625894,9.90113713 C3.59152109,10.275875 3.59152109,10.8832925 3.96625894,11.2580304 L6.85525894,14.1470304 Z" id="Combined-Shape"></path>
        </g>
    </g>
</svg>