<?xml version="1.0" encoding="UTF-8"?>
<svg width="16px" height="32px" viewBox="0 0 16 32" version="1.1" xmlns="http://www.w3.org/2000/svg" xmlns:xlink="http://www.w3.org/1999/xlink">
    <!-- Generator: Sketch 48.2 (47327) - http://www.bohemiancoding.com/sketch -->
    <title>Page 1</title>
    <desc>Created with Sketch.</desc>
    <defs></defs>
    <g id="Artboard-Copy-260" stroke="none" stroke-width="1" fill="none" fill-rule="evenodd" transform="translate(-12.000000, -4.000000)">
        <path d="M12.4916182,6.37535911 C12.2089965,5.81019055 12.6199668,5.14518726 13.2518612,5.14518726 L20.2068612,5.14518726 L20.2068612,6.84518726 L14.6272715,6.84518726 L17.7861041,13.1620154 C17.8768685,13.3435201 17.8997005,13.5515087 17.8504726,13.7483811 L14.2039212,28.3316881 L19.8558193,33.1756831 L25.5068396,28.3317069 L21.8612368,13.7483297 C21.8120332,13.551502 21.8348548,13.3435662 21.9255779,13.162096 L26.0786692,4.85481274 L27.5992357,5.61499526 L23.5867345,13.6410611 L27.2834855,28.4290448 C27.3615635,28.7413775 27.2564827,29.0710172 27.0120499,29.2805416 L20.4090499,34.9405416 C20.0907466,35.2133868 19.6210445,35.2134044 19.3027207,34.940583 L12.6987207,29.280583 C12.4542404,29.0710495 12.349142,28.7413619 12.4272497,28.4289934 L16.1249619,13.6410838 L12.4916182,6.37535911 Z" id="Page-1" fill="#000000" fill-rule="nonzero"></path>
    </g>
</svg>