<?xml version="1.0" encoding="UTF-8"?>
<svg width="8px" height="14px" viewBox="0 0 8 14" version="1.1" xmlns="http://www.w3.org/2000/svg" xmlns:xlink="http://www.w3.org/1999/xlink">
    <!-- Generator: Sketch 49 (51002) - http://www.bohemiancoding.com/sketch -->
    <title>Page 1</title>
    <desc>Created with Sketch.</desc>
    <defs></defs>
    <g id="Page-1" stroke="none" stroke-width="1" fill="none" fill-rule="evenodd">
        <g id="Artboard-Copy-258" transform="translate(-3.000000, 0.000000)" fill="#000000" fill-rule="nonzero">
            <path d="M5.12498122,4.20358192 L3.52769876,1.00901699 C3.36147349,0.676566448 3.60322135,0.285410197 3.97491236,0.285410197 L7.19291236,0.285410197 L7.19291236,1.2854102 L4.78392935,1.2854102 L6.10212595,3.9218034 C6.15550341,4.02855833 6.1689316,4.15088603 6.13998361,4.26667801 L4.53493124,10.6868875 L6.91491236,12.7268713 L9.29489348,10.6868875 L7.68984111,4.26667801 C7.66089311,4.15088603 7.6743213,4.02855833 7.72769876,3.9218034 L9.63130556,0.114589803 L10.5257327,0.561803399 L8.70484349,4.20358192 L10.3399836,10.7441424 C10.3859165,10.9278738 10.3241006,11.1217877 10.180308,11.2450385 L7.24030804,13.7650385 C7.05306318,13.9255341 6.77676153,13.9255341 6.58951667,13.7650385 L3.64951667,11.2450385 C3.50572408,11.1217877 3.44390825,10.9278738 3.48984111,10.7441424 L5.12498122,4.20358192 Z" id="Page-1"></path>
        </g>
    </g>
</svg>