<?xml version="1.0" encoding="UTF-8"?>
<svg width="18px" height="18px" viewBox="0 0 18 18" version="1.1" xmlns="http://www.w3.org/2000/svg" xmlns:xlink="http://www.w3.org/1999/xlink">
    <!-- Generator: Sketch 48.2 (47327) - http://www.bohemiancoding.com/sketch -->
    <title>Combined Shape</title>
    <desc>Created with Sketch.</desc>
    <defs></defs>
    <g id="Artboard-Copy-106" stroke="none" stroke-width="1" fill="none" fill-rule="evenodd">
        <path d="M12.5826,2.306 L15.8135,2.306 C16.7790993,2.306 17.5615,3.08840068 17.5615,4.054 L17.5615,14.155 C17.5615,16.2785993 15.8400993,18 13.7165,18 L2.1865,18 C1.22090068,18 0.4385,17.2175993 0.4385,16.252 L0.4385,4.054 C0.4385,3.08840068 1.22090068,2.306 2.1865,2.306 L4.8932,2.306 L4.8932,0.7 C4.8932,0.313400675 5.20660068,8.8817842e-16 5.5932,8.8817842e-16 C5.97979932,8.8817842e-16 6.2932,0.313400675 6.2932,0.7 L6.2932,2.306 L11.1826,2.306 L11.1826,0.7 C11.1826,0.313400675 11.4960007,8.8817842e-16 11.8826,8.8817842e-16 C12.2691993,8.8817842e-16 12.5826,0.313400675 12.5826,0.7 L12.5826,2.306 Z M12.5826,3.706 L12.5826,5.417 C12.5826,5.80359932 12.2691993,6.117 11.8826,6.117 C11.4960007,6.117 11.1826,5.80359932 11.1826,5.417 L11.1826,3.706 L6.2932,3.706 L6.2932,5.417 C6.2932,5.80359932 5.97979932,6.117 5.5932,6.117 C5.20660068,6.117 4.8932,5.80359932 4.8932,5.417 L4.8932,3.706 L2.1865,3.706 C1.99409932,3.706 1.8385,3.86159932 1.8385,4.054 L1.8385,16.252 C1.8385,16.4444007 1.99409932,16.6 2.1865,16.6 L13.7165,16.6 C15.0669007,16.6 16.1615,15.5054007 16.1615,14.155 L16.1615,4.054 C16.1615,3.86159932 16.0059007,3.706 15.8135,3.706 L12.5826,3.706 Z" id="Combined-Shape" fill="#000000" fill-rule="nonzero"></path>
    </g>
</svg>