<?xml version="1.0" encoding="UTF-8"?>
<svg width="14px" height="14px" viewBox="0 0 14 14" version="1.1" xmlns="http://www.w3.org/2000/svg" xmlns:xlink="http://www.w3.org/1999/xlink">
    <!-- Generator: Sketch 48.2 (47327) - http://www.bohemiancoding.com/sketch -->
    <title>Combined Shape</title>
    <desc>Created with Sketch.</desc>
    <defs></defs>
    <g id="Artboard-Copy-105" stroke="none" stroke-width="1" fill="none" fill-rule="evenodd">
        <path d="M9.8882,1.7498 L12.1715,1.7498 C12.9978902,1.7498 13.6675,2.41999109 13.6675,3.2458 L13.6675,10.9128 C13.6675,12.6173993 12.2850993,13.9998 10.5805,13.9998 L1.8285,13.9998 C1.00269109,13.9998 0.3325,13.3301902 0.3325,12.5038 L0.3325,3.2458 C0.3325,2.42020068 1.00290068,1.7498 1.8285,1.7498 L3.7144,1.7498 L3.7144,0.7002 C3.7144,0.313600675 4.02780068,0.0002 4.4144,0.0002 C4.80099932,0.0002 5.1144,0.313600675 5.1144,0.7002 L5.1144,1.7498 L8.4882,1.7498 L8.4882,0.7002 C8.4882,0.313600675 8.80160068,0.0002 9.1882,0.0002 C9.57479932,0.0002 9.8882,0.313600675 9.8882,0.7002 L9.8882,1.7498 Z M9.8882,3.1498 L9.8882,4.2802 C9.8882,4.66679932 9.57479932,4.9802 9.1882,4.9802 C8.80160068,4.9802 8.4882,4.66679932 8.4882,4.2802 L8.4882,3.1498 L5.1144,3.1498 L5.1144,4.2802 C5.1144,4.66679932 4.80099932,4.9802 4.4144,4.9802 C4.02780068,4.9802 3.7144,4.66679932 3.7144,4.2802 L3.7144,3.1498 L1.8285,3.1498 C1.77609932,3.1498 1.7325,3.19339932 1.7325,3.2458 L1.7325,12.5038 C1.7325,12.5567195 1.77561794,12.5998 1.8285,12.5998 L10.5805,12.5998 C11.5119007,12.5998 12.2675,11.8442007 12.2675,10.9128 L12.2675,3.2458 C12.2675,3.19291794 12.2244195,3.1498 12.1715,3.1498 L9.8882,3.1498 Z" id="Combined-Shape" fill="#000000" fill-rule="nonzero"></path>
    </g>
</svg>