<?xml version="1.0" encoding="UTF-8"?>
<svg width="30px" height="19px" viewBox="0 0 30 19" version="1.1" xmlns="http://www.w3.org/2000/svg" xmlns:xlink="http://www.w3.org/1999/xlink">
    <!-- Generator: Sketch 48.2 (47327) - http://www.bohemiancoding.com/sketch -->
    <title>Combined Shape</title>
    <desc>Created with Sketch.</desc>
    <defs></defs>
    <g id="Artboard-Copy-161" stroke="none" stroke-width="1" fill="none" fill-rule="evenodd" transform="translate(-4.000000, -10.000000)">
        <path d="M15.32,11.6 L9.92866533,11.6 L6.35444662,16.6033 L15.32,16.6033 L15.32,11.6 Z M16.92,11.6 L16.92,16.6033 L25.1184723,16.6033 L22.2587943,11.6 L16.92,11.6 Z M5.6,18.2033 L5.6,24.15 L6.91843984,24.15 C7.28277773,22.5300812 8.73004566,21.32 10.46,21.32 C12.1899543,21.32 13.6372223,22.5300812 14.0015602,24.15 L23.8984398,24.15 C24.2627777,22.5300812 25.7100457,21.32 27.44,21.32 C29.1699543,21.32 30.6172223,22.5300812 30.9815602,24.15 L32.3,24.15 L32.3,18.414 C32.3,18.2978278 32.2051722,18.203 32.089,18.203 L26.497,18.203 L26.497,18.2033 L5.6,18.2033 Z M23.8984398,25.75 L14.0015602,25.75 C13.6372223,27.3699188 12.1899543,28.58 10.46,28.58 C8.73004566,28.58 7.28277773,27.3699188 6.91843984,25.75 L4.8,25.75 C4.3581722,25.75 4,25.3918278 4,24.95 L4,17.403 C4,17.236246 4.05210828,17.0736599 4.14903987,16.9379721 L8.86603987,10.3349721 C9.01621172,10.124757 9.25865529,10 9.517,10 L22.723,10 C23.0100575,10 23.2751109,10.1537991 23.4175557,10.4030209 L26.9612057,16.603 L32.089,16.603 C33.0888278,16.603 33.9,17.4141722 33.9,18.414 L33.9,24.95 C33.9,25.3918278 33.5418278,25.75 33.1,25.75 L30.9815602,25.75 C30.6172223,27.3699188 29.1699543,28.58 27.44,28.58 C25.7100457,28.58 24.2627777,27.3699188 23.8984398,25.75 Z M10.46,22.92 C9.3388278,22.92 8.43,23.8288278 8.43,24.95 C8.43,26.0711722 9.3388278,26.98 10.46,26.98 C11.5811722,26.98 12.49,26.0711722 12.49,24.95 C12.49,23.8288278 11.5811722,22.92 10.46,22.92 Z M27.44,22.92 C26.3188278,22.92 25.41,23.8288278 25.41,24.95 C25.41,26.0711722 26.3188278,26.98 27.44,26.98 C28.5611722,26.98 29.47,26.0711722 29.47,24.95 C29.47,23.8288278 28.5611722,22.92 27.44,22.92 Z" id="Combined-Shape" fill="#000000" fill-rule="nonzero"></path>
    </g>
</svg>