<?xml version="1.0" encoding="UTF-8"?>
<svg width="18px" height="16px" viewBox="0 0 18 16" version="1.1" xmlns="http://www.w3.org/2000/svg" xmlns:xlink="http://www.w3.org/1999/xlink">
    <!-- Generator: Sketch 48.2 (47327) - http://www.bohemiancoding.com/sketch -->
    <title>Combined Shape</title>
    <desc>Created with Sketch.</desc>
    <defs></defs>
    <g id="Artboard-Copy-22" stroke="none" stroke-width="1" fill="none" fill-rule="evenodd" transform="translate(0.000000, -1.000000)">
        <path d="M6.9333,3.3155 L6.9333,14.6845 L11.0667,14.6845 L11.0667,3.3155 L6.9333,3.3155 Z M5.5333,3.3155 L1.812,3.3155 C1.58459932,3.3155 1.4,3.50009932 1.4,3.7275 L1.4,14.2725 C1.4,14.4999007 1.58459932,14.6845 1.812,14.6845 L5.5333,14.6845 L5.5333,3.3155 Z M12.4667,3.3155 L12.4667,14.6845 L16.188,14.6845 C16.4154007,14.6845 16.6,14.4999007 16.6,14.2725 L16.6,3.7275 C16.6,3.50009932 16.4154007,3.3155 16.188,3.3155 L12.4667,3.3155 Z M1.812,1.9155 L16.188,1.9155 C17.1885993,1.9155 18,2.72690068 18,3.7275 L18,14.2725 C18,15.2730993 17.1885993,16.0845 16.188,16.0845 L1.812,16.0845 C0.811400675,16.0845 0,15.2730993 0,14.2725 L0,3.7275 C0,2.72690068 0.811400675,1.9155 1.812,1.9155 Z" id="Combined-Shape" fill="#000000"></path>
    </g>
</svg>