<?xml version="1.0" encoding="UTF-8"?>
<svg width="14px" height="14px" viewBox="0 0 14 14" version="1.1" xmlns="http://www.w3.org/2000/svg" xmlns:xlink="http://www.w3.org/1999/xlink">
    <!-- Generator: Sketch 48.2 (47327) - http://www.bohemiancoding.com/sketch -->
    <title>Combined Shape</title>
    <desc>Created with Sketch.</desc>
    <defs></defs>
    <g id="Artboard-Copy-45" stroke="none" stroke-width="1" fill="none" fill-rule="evenodd">
        <path d="M2.6377692,13.119151 C2.34751503,13.4130802 1.95212145,13.579 1.54,13.579 C0.690184034,13.579 -1.23234756e-14,12.8893831 -1.23234756e-14,12.039 L-1.23234756e-14,3.641 C-1.23234756e-14,1.86270302 1.44209822,0.421 3.22,0.421 L10.78,0.421 C12.5585993,0.421 14,1.86240068 14,3.641 L14,7.632 C14,9.40990178 12.558297,10.852 10.78,10.852 L4.929,10.852 C4.89123941,10.852 4.85550343,10.8669266 4.8297692,10.893151 L2.6377692,13.119151 Z M3.83136332,9.91173151 C4.12012889,9.61744813 4.51623118,9.452 4.929,9.452 L10.78,9.452 C11.7850124,9.452 12.6,8.63678901 12.6,7.632 L12.6,3.641 C12.6,2.63559932 11.7854007,1.821 10.78,1.821 L3.22,1.821 C2.21521099,1.821 1.4,2.63598758 1.4,3.641 L1.4,12.039 C1.4,12.1159267 1.46312518,12.179 1.54,12.179 C1.57692944,12.179 1.61369479,12.1636108 1.64071941,12.1363528 L3.83136332,9.91173151 Z M4.4805,5.0132 C4.09390068,5.0132 3.7805,4.69979932 3.7805,4.3132 C3.7805,3.92660068 4.09390068,3.6132 4.4805,3.6132 L9.9405,3.6132 C10.3270993,3.6132 10.6405,3.92660068 10.6405,4.3132 C10.6405,4.69979932 10.3270993,5.0132 9.9405,5.0132 L4.4805,5.0132 Z M4.4805,7.5332 C4.09390068,7.5332 3.7805,7.21979932 3.7805,6.8332 C3.7805,6.44660068 4.09390068,6.1332 4.4805,6.1332 L7.4205,6.1332 C7.80709932,6.1332 8.1205,6.44660068 8.1205,6.8332 C8.1205,7.21979932 7.80709932,7.5332 7.4205,7.5332 L4.4805,7.5332 Z" id="Combined-Shape" fill="#000000" fill-rule="nonzero"></path>
    </g>
</svg>