<?xml version="1.0" encoding="UTF-8"?>
<svg width="18px" height="18px" viewBox="0 0 18 18" version="1.1" xmlns="http://www.w3.org/2000/svg" xmlns:xlink="http://www.w3.org/1999/xlink">
    <!-- Generator: Sketch 48.2 (47327) - http://www.bohemiancoding.com/sketch -->
    <title>Combined Shape</title>
    <desc>Created with Sketch.</desc>
    <defs></defs>
    <g id="Artboard-Copy-109" stroke="none" stroke-width="1" fill="none" fill-rule="evenodd">
        <path d="M5.2273,17.3615 C4.84070068,17.3615 4.5273,17.0480993 4.5273,16.6615 C4.5273,16.2749007 4.84070068,15.9615 5.2273,15.9615 L12.7723,15.9615 C13.1588993,15.9615 13.4723,16.2749007 13.4723,16.6615 C13.4723,17.0480993 13.1588993,17.3615 12.7723,17.3615 L5.2273,17.3615 Z M0.7,13.7135 C0.313400675,13.7135 0,13.4000993 0,13.0135 L0,1.3385 C0,0.951900675 0.313400675,0.6385 0.7,0.6385 L17.3,0.6385 C17.6865993,0.6385 18,0.951900675 18,1.3385 L18,13.0135 C18,13.4000993 17.6865993,13.7135 17.3,13.7135 L0.7,13.7135 Z M16.6,12.3135 L16.6,2.0385 L1.4,2.0385 L1.4,12.3135 L16.6,12.3135 Z" id="Combined-Shape" fill="#000000" fill-rule="nonzero"></path>
    </g>
</svg>