<?xml version="1.0" encoding="UTF-8"?>
<svg width="14px" height="14px" viewBox="0 0 14 14" version="1.1" xmlns="http://www.w3.org/2000/svg" xmlns:xlink="http://www.w3.org/1999/xlink">
    <!-- Generator: Sketch 48.2 (47327) - http://www.bohemiancoding.com/sketch -->
    <title>Combined Shape</title>
    <desc>Created with Sketch.</desc>
    <defs></defs>
    <g id="Artboard-Copy-108" stroke="none" stroke-width="1" fill="none" fill-rule="evenodd">
        <path d="M4.1364,13.5155 C3.74980068,13.5155 3.4364,13.2020993 3.4364,12.8155 C3.4364,12.4289007 3.74980068,12.1155 4.1364,12.1155 L9.8634,12.1155 C10.2499993,12.1155 10.5634,12.4289007 10.5634,12.8155 C10.5634,13.2020993 10.2499993,13.5155 9.8634,13.5155 L4.1364,13.5155 Z M0.7,10.7465 C0.313400675,10.7465 -4.4408921e-16,10.4330993 -4.4408921e-16,10.0465 L-4.4408921e-16,1.1845 C-4.4408921e-16,0.797900675 0.313400675,0.4845 0.7,0.4845 L13.3,0.4845 C13.6865993,0.4845 14,0.797900675 14,1.1845 L14,10.0465 C14,10.4330993 13.6865993,10.7465 13.3,10.7465 L0.7,10.7465 Z M1.4,9.3465 L12.6,9.3465 L12.6,1.8845 L1.4,1.8845 L1.4,9.3465 Z" id="Combined-Shape" fill="#000000" fill-rule="nonzero"></path>
    </g>
</svg>