<?xml version="1.0" encoding="UTF-8"?>
<svg width="30px" height="30px" viewBox="0 0 30 30" version="1.1" xmlns="http://www.w3.org/2000/svg" xmlns:xlink="http://www.w3.org/1999/xlink">
    <!-- Generator: Sketch 48.2 (47327) - http://www.bohemiancoding.com/sketch -->
    <title>Combined Shape</title>
    <desc>Created with Sketch.</desc>
    <defs></defs>
    <g id="Artboard-Copy-227" stroke="none" stroke-width="1" fill="none" fill-rule="evenodd" transform="translate(-4.000000, -5.000000)">
        <path d="M20.1386083,11.8054422 L10.2310728,15.4842232 L30.413773,19.2677469 L21.8338014,12.0032721 L21.4326372,13.9346619 L19.7681628,13.5889381 L20.1386083,11.8054422 Z M20.5223596,9.95788657 L21.5521628,4.99993807 L23.2166372,5.34566193 L22.2005429,10.2376093 C22.4585814,10.357 22.7028491,10.5116971 22.9258491,10.7003894 L33.3413368,19.518956 C33.8535418,19.9519351 34.0928597,20.6276262 33.9677052,21.2865274 L31.8588467,32.4027799 C31.6336712,33.5955572 30.4823748,34.3789031 29.2902259,34.1522153 L5.78781718,29.6951377 C4.59611333,29.4685347 3.81334203,28.3193276 4.03849318,27.1266809 L6.11948645,16.1567164 C6.24098833,15.5160701 6.68863967,14.9857862 7.29997021,14.7591664 L19.7369925,10.1411582 C19.9934113,10.0460455 20.2572534,9.985314 20.5223596,9.95788657 Z M32.2277312,21.3374115 L7.73792964,16.7464626 L5.70884669,27.4427799 C5.65781371,27.7131068 5.83532097,27.9737099 6.10497414,28.0249847 L29.6073828,32.4820623 C29.8772442,32.5333765 30.1376078,32.3562243 30.1884948,32.0866726 L32.2277312,21.3374115 Z M8.73870792,19.070174 L10.4076921,19.393426 L9.00369208,26.642426 L7.33470792,26.319174 L8.73870792,19.070174 Z M11.9937079,19.687474 L13.6626921,20.010726 L12.2586921,27.259726 L10.5897079,26.936474 L11.9937079,19.687474 Z M15.2486079,20.304874 L16.9175921,20.628126 L15.5135921,27.877126 L13.8446079,27.553874 L15.2486079,20.304874 Z M18.5036079,20.922174 L20.1725921,21.245426 L18.7685921,28.494426 L17.0996079,28.171174 L18.5036079,20.922174 Z M21.7586079,21.539474 L23.4275921,21.862726 L22.0235921,29.111726 L20.3546079,28.788474 L21.7586079,21.539474 Z M25.0135079,22.156874 L26.6824921,22.480126 L25.2784921,29.729126 L23.6095079,29.405874 L25.0135079,22.156874 Z M28.2685079,22.774174 L29.9374921,23.097426 L28.5334921,30.346426 L26.8645079,30.023174 L28.2685079,22.774174 Z" id="Combined-Shape" fill="#000000" fill-rule="nonzero"></path>
    </g>
</svg>