<?xml version="1.0" encoding="UTF-8"?>
<svg width="20px" height="30px" viewBox="0 0 20 30" version="1.1" xmlns="http://www.w3.org/2000/svg" xmlns:xlink="http://www.w3.org/1999/xlink">
    <!-- Generator: Sketch 48.2 (47327) - http://www.bohemiancoding.com/sketch -->
    <title>Combined Shape</title>
    <desc>Created with Sketch.</desc>
    <defs></defs>
    <g id="Artboard-Copy-215" stroke="none" stroke-width="1" fill="none" fill-rule="evenodd" transform="translate(-9.000000, -4.000000)">
        <path d="M19.8501328,5.86935 L19.8501328,9.09885 L25.2692328,9.09885 L25.2692328,14.51795 L27.3165328,14.51795 C27.8602701,14.51795 28.2641968,15.0214199 28.1463174,15.5522256 L26.7923174,21.6492256 C26.705938,22.0381877 26.3609708,22.31495 25.9625328,22.31495 L22.6682328,22.31495 L22.6682328,33.83065 L15.3312328,33.83065 L15.3312328,22.31495 L12.1885328,22.31495 C11.7975527,22.31495 11.4570004,22.0482389 11.3633022,21.6686521 L9.85830222,15.5716521 C9.72602938,15.0357934 10.1315901,14.51795 10.6835328,14.51795 L12.7312328,14.51795 L12.7312328,9.09885 L18.1501328,9.09885 L18.1501328,5.86935 L16.4034328,5.86935 L16.4034328,4.16935 L21.5964328,4.16935 L21.5964328,5.86935 L19.8501328,5.86935 Z M23.5692328,14.51795 L23.5692328,10.79885 L14.4312328,10.79885 L14.4312328,14.51795 L23.5692328,14.51795 Z M20.9682328,32.13065 L20.9682328,22.67965 L17.0312328,22.67965 L17.0312328,32.13065 L20.9682328,32.13065 Z M12.8542294,20.61495 L25.2805898,20.61495 L26.2570599,16.21795 L11.768862,16.21795 L12.8542294,20.61495 Z" id="Combined-Shape" fill="#000000" fill-rule="nonzero"></path>
    </g>
</svg>