<?xml version="1.0" encoding="UTF-8"?>
<svg width="15px" height="12px" viewBox="0 0 15 12" version="1.1" xmlns="http://www.w3.org/2000/svg" xmlns:xlink="http://www.w3.org/1999/xlink">
    <!-- Generator: Sketch 48.2 (47327) - http://www.bohemiancoding.com/sketch -->
    <title>Display</title>
    <desc>Created with Sketch.</desc>
    <defs></defs>
    <g id="Page-1" stroke="none" stroke-width="1" fill="none" fill-rule="evenodd">
        <path d="M9.06666667,1 L10.2666667,1 L10.2666667,11 L9.06666667,11 L9.06666667,1 Z M4.73333333,1 L5.93333333,1 L5.93333333,11 L4.73333333,11 L4.73333333,1 Z M1.87083333,1.6 C1.72125621,1.6 1.6,1.72125621 1.6,1.87083333 L1.6,10.1291667 C1.6,10.2787438 1.72125621,10.4 1.87083333,10.4 L13.1291667,10.4 C13.2787438,10.4 13.4,10.2787438 13.4,10.1291667 L13.4,1.87083333 C13.4,1.72125621 13.2787438,1.6 13.1291667,1.6 L1.87083333,1.6 Z M1.87083333,0.4 L13.1291667,0.4 C13.9414855,0.4 14.6,1.05851451 14.6,1.87083333 L14.6,10.1291667 C14.6,10.9414855 13.9414855,11.6 13.1291667,11.6 L1.87083333,11.6 C1.05851451,11.6 0.4,10.9414855 0.4,10.1291667 L0.4,1.87083333 C0.4,1.05851451 1.05851451,0.4 1.87083333,0.4 Z" id="Display" fill="#000000" fill-rule="nonzero"></path>
    </g>
</svg>