<?xml version="1.0" encoding="UTF-8"?>
<svg width="14px" height="14px" viewBox="0 0 14 14" version="1.1" xmlns="http://www.w3.org/2000/svg" xmlns:xlink="http://www.w3.org/1999/xlink">
    <!-- Generator: Sketch 48.2 (47327) - http://www.bohemiancoding.com/sketch -->
    <title>Combined Shape</title>
    <desc>Created with Sketch.</desc>
    <defs></defs>
    <g id="Artboard-Copy-66" stroke="none" stroke-width="1" fill="none" fill-rule="evenodd">
        <path d="M3.85590396,11.6699959 L2.33000411,10.144096 L1.71964417,12.2803558 L3.85590396,11.6699959 Z M3.26537828,9.09957122 L4.90042878,10.7346217 L12.3104793,3.32457122 L10.6754288,1.68952071 L3.26537828,9.09957122 Z M0.0273620207,13.1072664 L1.07736202,9.43226643 C1.11004311,9.3178826 1.17133593,9.21371458 1.25545404,9.12959647 L10.180454,0.204596469 C10.453821,-0.0687705351 10.8970365,-0.0687705351 11.1704035,0.204596469 L13.7954035,2.82959647 C14.0687705,3.10296347 14.0687705,3.54617896 13.7954035,3.81954596 L4.87040353,12.744546 C4.78628542,12.8286641 4.6821174,12.8899569 4.56773357,12.922638 L0.892733574,13.972638 C0.364687257,14.1235084 -0.123508356,13.6353127 0.0273620207,13.1072664 Z" id="Combined-Shape" fill="#000000" fill-rule="nonzero"></path>
    </g>
</svg>