<?xml version="1.0" encoding="UTF-8"?>
<svg width="31px" height="24px" viewBox="0 0 31 24" version="1.1" xmlns="http://www.w3.org/2000/svg" xmlns:xlink="http://www.w3.org/1999/xlink">
    <!-- Generator: Sketch 48.2 (47327) - http://www.bohemiancoding.com/sketch -->
    <title>Combined Shape</title>
    <desc>Created with Sketch.</desc>
    <defs></defs>
    <g id="Artboard-Copy-224" stroke="none" stroke-width="1" fill="none" fill-rule="evenodd" transform="translate(-4.000000, -7.000000)">
        <path d="M31.8549486,8.9998 L6.7249,8.9998 C6.32461968,8.9998 5.9999,9.32464972 5.9999,9.7248 L5.9999,23.7398 L3.9999,23.7398 L3.9999,9.7248 C3.9999,8.22025945 5.21987087,6.9998 6.7249,6.9998 L32.5779,6.9998 C34.151581,6.9998 34.8988503,8.93782456 33.7339903,9.9952692 L21.0752347,21.4850473 C19.9305471,22.5247177 18.1828066,22.5233576 17.0400144,21.4825465 L11.1112678,16.0896609 L12.4570391,14.6101678 L13.1967856,15.2830535 L18.3862486,20.0034749 C18.767096,20.3503359 19.3493556,20.350789 19.7308097,20.0043308 L31.8549486,8.9998 Z M32.1158,16.4685 L34.1158,16.4685 L34.1158,26.0745 C34.1158,28.2904908 32.3193788,30.0865 30.1038,30.0865 L3.9998,30.0865 L3.9998,28.0865 L30.1038,28.0865 C31.214912,28.0865 32.1158,27.1858186 32.1158,26.0745 L32.1158,16.4685 Z" id="Combined-Shape" fill="#000000" fill-rule="nonzero"></path>
    </g>
</svg>