<?xml version="1.0" encoding="UTF-8"?>
<svg width="34px" height="34px" viewBox="0 0 34 34" version="1.1" xmlns="http://www.w3.org/2000/svg" xmlns:xlink="http://www.w3.org/1999/xlink">
    <!-- Generator: Sketch 49 (51002) - http://www.bohemiancoding.com/sketch -->
    <title>Artboard Copy 277</title>
    <desc>Created with Sketch.</desc>
    <defs></defs>
    <g id="Artboard-Copy-277" stroke="none" stroke-width="1" fill="none" fill-rule="evenodd">
        <path d="M28.5373158,22.4011621 C28.6332421,22.6317111 28.6862,22.8846536 28.6862,23.15 L28.6862,25.95 C28.6862,26.3642136 28.3504136,26.7 27.9362,26.7 L25.5362,26.7 C25.1219864,26.7 24.7862,26.3642136 24.7862,25.95 L24.7862,23.15 C24.7862,22.0727864 25.6589864,21.2 26.7362,21.2 C26.8254778,21.2 26.9133515,21.205995 26.9994405,21.2176046 C27.0385759,20.8558266 27.0583,20.4899814 27.0583,20.1212 L27.0583,13.8792 C27.0583,8.28264204 22.475858,3.7002 16.8793,3.7002 C11.282742,3.7002 6.7003,8.28264204 6.7003,13.8792 L6.7003,20.1212 C6.7003,25.717758 11.282742,30.3002 16.8793,30.3002 C17.9459293,30.3002 18.9907702,30.1338714 19.9862,29.8120975 L19.9862,25.15 C19.9862,24.2937864 20.6799864,23.6 21.5362,23.6 L23.1362,23.6 C23.5504136,23.6 23.8862,23.9357864 23.8862,24.35 C23.8862,24.7642136 23.5504136,25.1 23.1362,25.1 L21.5362,25.1 C21.5084136,25.1 21.4862,25.1222136 21.4862,25.15 L21.4862,32.35 C21.4862,32.3777864 21.5084136,32.4 21.5362,32.4 L31.9362,32.4 C31.9639864,32.4 31.9862,32.3777864 31.9862,32.35 L31.9862,25.15 C31.9862,25.1222136 31.9639864,25.1 31.9362,25.1 L30.3362,25.1 C29.9219864,25.1 29.5862,24.7642136 29.5862,24.35 C29.5862,23.9357864 29.9219864,23.6 30.3362,23.6 L31.9362,23.6 C32.7924136,23.6 33.4862,24.2937864 33.4862,25.15 L33.4862,32.35 C33.4862,33.2062136 32.7924136,33.9 31.9362,33.9 L21.5362,33.9 C20.6799864,33.9 19.9862,33.2062136 19.9862,32.35 L19.9862,31.5854074 C18.9819109,31.8592857 17.9393313,32.0002 16.8793,32.0002 C10.343858,32.0002 5.0003,26.656642 5.0003,20.1212 L5.0003,13.8792 C5.0003,7.34375796 10.343858,2.0002 16.8793,2.0002 C23.414742,2.0002 28.7583,7.34375796 28.7583,13.8792 L28.7583,20.1212 C28.7583,20.8935729 28.6839926,21.656262 28.5373158,22.4011621 Z M27.9362,29.1 C27.5219864,29.1 27.1862,28.7642136 27.1862,28.35 C27.1862,27.9357864 27.5219864,27.6 27.9362,27.6 L30.3362,27.6 C30.7504136,27.6 31.0862,27.9357864 31.0862,28.35 C31.0862,28.7642136 30.7504136,29.1 30.3362,29.1 L27.9362,29.1 Z M27.9362,31.5 C27.5219864,31.5 27.1862,31.1642136 27.1862,30.75 C27.1862,30.3357864 27.5219864,30 27.9362,30 L29.7652,30 C30.1794136,30 30.5152,30.3357864 30.5152,30.75 C30.5152,31.1642136 30.1794136,31.5 29.7652,31.5 L27.9362,31.5 Z M23.136,31.5 C22.7217864,31.5 22.386,31.1642136 22.386,30.75 L22.386,28.35 C22.386,27.9357864 22.7217864,27.6 23.136,27.6 L25.536,27.6 C25.9502136,27.6 26.286,27.9357864 26.286,28.35 L26.286,30.75 C26.286,31.1642136 25.9502136,31.5 25.536,31.5 L23.136,31.5 Z M24.786,30 L24.786,29.1 L23.886,29.1 L23.886,30 L24.786,30 Z M27.1862,23.15 C27.1862,22.9012136 26.9849864,22.7 26.7362,22.7 C26.4874136,22.7 26.2862,22.9012136 26.2862,23.15 L26.2862,25.2 L27.1862,25.2 L27.1862,23.15 Z" id="Combined-Shape" fill="#000000" fill-rule="nonzero"></path>
    </g>
</svg>