<?xml version="1.0" encoding="UTF-8"?>
<svg width="21px" height="19px" viewBox="0 0 21 19" version="1.1" xmlns="http://www.w3.org/2000/svg" xmlns:xlink="http://www.w3.org/1999/xlink">
    <!-- Generator: Sketch 48.2 (47327) - http://www.bohemiancoding.com/sketch -->
    <title>People</title>
    <desc>Created with Sketch.</desc>
    <defs></defs>
    <g id="Page-1" stroke="none" stroke-width="1" fill="none" fill-rule="evenodd">
        <g id="Group" transform="translate(0.156860, 0.000000)" fill="#000000" fill-rule="nonzero">
            <path d="M6.67762635,7.99000008 C4.52869797,7.99000008 2.78217176,6.2710506 2.78217176,4.14500004 C2.78217176,2.01894948 4.52869797,0.3 6.67762635,0.3 C8.82655472,0.3 10.5730809,2.01894948 10.5730809,4.14500004 C10.5730809,6.2710506 8.82655472,7.99000008 6.67762635,7.99000008 Z M6.67762635,6.59000008 C8.05829964,6.59000008 9.17308093,5.4928206 9.17308093,4.14500004 C9.17308093,2.79717948 8.05829964,1.7 6.67762635,1.7 C5.29695305,1.7 4.18217176,2.79717948 4.18217176,4.14500004 C4.18217176,5.4928206 5.29695305,6.59000008 6.67762635,6.59000008 Z" id="Oval-3"></path>
            <path d="M12.5794167,12.0299896 L18.0465884,12.0299896 C19.3199116,12.0299896 20.352144,13.062222 20.352144,14.3355452 L20.352144,17.8299896 C20.352144,18.2165889 20.0387433,18.5299896 19.652144,18.5299896 C19.2655447,18.5299896 18.952144,18.2165889 18.952144,17.8299896 L18.952144,14.3355452 C18.952144,13.8354207 18.546713,13.4299896 18.0465884,13.4299896 L12.5794167,13.4299896 L12.5794167,15.2799896 C12.5794167,15.6665889 12.2660161,15.9799896 11.8794167,15.9799896 C11.4928174,15.9799896 11.1794167,15.6665889 11.1794167,15.2799896 L11.1794167,11.7855452 C11.1794167,11.2854207 10.7739857,10.8799896 10.2738612,10.8799896 L3.12133592,10.8799896 C2.62121139,10.8799896 2.21578036,11.2854207 2.21578036,11.7855452 L2.21578036,14.4772118 C2.21578036,14.5339744 2.26179554,14.5799896 2.31855814,14.5799896 L6.69759854,14.5799896 C7.08419787,14.5799896 7.39759854,14.8933903 7.39759854,15.2799896 C7.39759854,15.6665889 7.08419787,15.9799896 6.69759854,15.9799896 L2.31855814,15.9799896 C1.48859689,15.9799896 0.815780362,15.3071731 0.815780362,14.4772118 L0.815780362,11.7855452 C0.815780362,10.512222 1.84801274,9.47998962 3.12133592,9.47998962 L10.2738612,9.47998962 C11.5471843,9.47998962 12.5794167,10.512222 12.5794167,11.7855452 L12.5794167,12.0299896 Z" id="Combined-Shape"></path>
            <path d="M15.31399,10.5400001 C13.1650616,10.5400001 11.4185354,8.8210506 11.4185354,6.69500004 C11.4185354,4.56894948 13.1650616,2.85 15.31399,2.85 C17.4629184,2.85 19.2094446,4.56894948 19.2094446,6.69500004 C19.2094446,8.8210506 17.4629184,10.5400001 15.31399,10.5400001 Z M15.31399,9.14000008 C16.6946633,9.14000008 17.8094446,8.0428206 17.8094446,6.69500004 C17.8094446,5.34717948 16.6946633,4.25 15.31399,4.25 C13.9333167,4.25 12.8185354,5.34717948 12.8185354,6.69500004 C12.8185354,8.0428206 13.9333167,9.14000008 15.31399,9.14000008 Z" id="Oval-3"></path>
        </g>
    </g>
</svg>