<?xml version="1.0" encoding="UTF-8"?>
<svg width="18px" height="12px" viewBox="0 0 18 12" version="1.1" xmlns="http://www.w3.org/2000/svg" xmlns:xlink="http://www.w3.org/1999/xlink">
    <!-- Generator: Sketch 48.2 (47327) - http://www.bohemiancoding.com/sketch -->
    <title>Combined Shape</title>
    <desc>Created with Sketch.</desc>
    <defs></defs>
    <g id="Artboard-Copy-16" stroke="none" stroke-width="1" fill="none" fill-rule="evenodd" transform="translate(0.000000, -3.000000)">
        <path d="M0.85,5.09585 C0.380557963,5.09585 -4.4408921e-16,4.71529204 -4.4408921e-16,4.24585 C-4.4408921e-16,3.77640796 0.380557963,3.39585 0.85,3.39585 L17.15,3.39585 C17.619442,3.39585 18,3.77640796 18,4.24585 C18,4.71529204 17.619442,5.09585 17.15,5.09585 L0.85,5.09585 Z M2.8875,9.84995 C2.41805796,9.84995 2.0375,9.46939204 2.0375,8.99995 C2.0375,8.53050796 2.41805796,8.14995 2.8875,8.14995 L15.7915,8.14995 C16.260942,8.14995 16.6415,8.53050796 16.6415,8.99995 C16.6415,9.46939204 16.260942,9.84995 15.7915,9.84995 L2.8875,9.84995 Z M4.925,14.60415 C4.45555796,14.60415 4.075,14.223592 4.075,13.75415 C4.075,13.284708 4.45555796,12.90415 4.925,12.90415 L13.075,12.90415 C13.544442,12.90415 13.925,13.284708 13.925,13.75415 C13.925,14.223592 13.544442,14.60415 13.075,14.60415 L4.925,14.60415 Z" id="Combined-Shape" fill="#000000" fill-rule="nonzero"></path>
    </g>
</svg>