<?xml version="1.0" encoding="UTF-8"?>
<svg id="folder-medium" width="18px" height="18px" viewBox="0 0 18 18" version="1.1" xmlns="http://www.w3.org/2000/svg" xmlns:xlink="http://www.w3.org/1999/xlink">
    <!-- Generator: Sketch 48.2 (47327) - http://www.bohemiancoding.com/sketch -->
    <title>Combined Shape</title>
    <desc>Created with Sketch.</desc>
    <defs></defs>
    <g id="Artboard-Copy-10" stroke="none" stroke-width="1"  fill-rule="evenodd">
        <path d="M6.50717636,1.7 L2.73,1.7 C2.16144204,1.7 1.7,2.16144204 1.7,2.73 L1.7,15.27 C1.7,15.838558 2.16144204,16.3 2.73,16.3 L15.269,16.3 C15.8384732,16.3 16.3,15.8386427 16.3,15.27 L16.3,5.787 C16.3,5.21744204 15.838558,4.756 15.269,4.756 L9,4.756 C8.71584527,4.756 8.45048485,4.61400919 8.29282846,4.37760196 L6.50717636,1.7 Z M9.45482364,3.056 L15.269,3.056 C16.777442,3.056 18,4.27855796 18,5.787 L18,15.27 C18,16.7776666 16.7772175,18 15.269,18 L2.73,18 C1.22255796,18 2.26485497e-14,16.777442 2.26485497e-14,15.27 L2.26485497e-14,2.73 C2.26485497e-14,1.22255796 1.22255796,-2.35367281e-14 2.73,-2.35367281e-14 L6.962,-2.35367281e-14 C7.24615473,-2.35367281e-14 7.51151515,0.141990813 7.66917154,0.378398037 L9.45482364,3.056 Z" id="Combined-Shape" fill-rule="nonzero"></path>
    </g>
</svg>