<?xml version="1.0" encoding="UTF-8"?>
<svg width="14px" height="14px" viewBox="0 0 14 14" version="1.1" xmlns="http://www.w3.org/2000/svg" xmlns:xlink="http://www.w3.org/1999/xlink">
    <!-- Generator: Sketch 48.2 (47327) - http://www.bohemiancoding.com/sketch -->
    <title>Page 1</title>
    <desc>Created with Sketch.</desc>
    <defs></defs>
    <g id="Artboard-Copy-9" stroke="none" stroke-width="1" fill="none" fill-rule="evenodd">
        <path d="M5.05032739,1.4 L2.154,1.4 C1.73759932,1.4 1.4,1.73759932 1.4,2.154 L1.4,11.846 C1.4,12.2624007 1.73759932,12.6 2.154,12.6 L11.847,12.6 C12.2630609,12.6 12.6,12.2627405 12.6,11.846 L12.6,4.516 C12.6,4.09959932 12.2634007,3.763 11.847,3.763 L7,3.763 C6.76592855,3.763 6.54734733,3.64600515 6.41752687,3.45123325 L5.05032739,1.4 Z M7.37467261,2.363 L11.847,2.363 C13.0365993,2.363 14,3.32640068 14,4.516 L14,11.846 C14,13.0356414 13.0365576,14 11.847,14 L2.154,14 C0.964400675,14 -6.8278716e-14,13.0355993 -6.8278716e-14,11.846 L-6.8278716e-14,2.154 C-6.8278716e-14,0.964400675 0.964400675,6.67244038e-14 2.154,6.67244038e-14 L5.425,6.67244038e-14 C5.65907145,6.67244038e-14 5.87765267,0.116994847 6.00747313,0.311766748 L7.37467261,2.363 Z" id="Page-1" fill="#000000" fill-rule="nonzero"></path>
    </g>
</svg>