<?xml version="1.0" encoding="UTF-8"?>
<svg width="30px" height="30px" viewBox="0 0 30 30" version="1.1" xmlns="http://www.w3.org/2000/svg" xmlns:xlink="http://www.w3.org/1999/xlink">
    <!-- Generator: Sketch 48.2 (47327) - http://www.bohemiancoding.com/sketch -->
    <title>Combined Shape</title>
    <desc>Created with Sketch.</desc>
    <defs></defs>
    <g id="Artboard-Copy-188" stroke="none" stroke-width="1" fill="none" fill-rule="evenodd" transform="translate(-5.000000, -4.000000)">
        <path d="M20.5345,20.0844353 L20.5345,33.1497 L18.8345,33.1497 L18.8345,20.0844321 C17.9449925,19.7425922 17.3133,18.8799556 17.3133,17.8704 C17.3133,16.5614 18.3753,15.4994 19.6843,15.4994 C20.9943,15.4994 22.0553,16.5614 22.0553,17.8704 C22.0553,18.8799587 21.4241984,19.7425975 20.5345,20.0844353 Z M15.4202519,22.930284 L16.0629679,23.486536 L14.950464,24.7719679 L14.3077481,24.215716 C12.5158023,22.6648391 11.465,20.4152844 11.465,17.998 C11.465,13.4582304 15.1448855,9.778 19.685,9.778 C24.224287,9.778 27.904,13.4584029 27.904,17.998 C27.904,20.3386929 26.9200586,22.5228297 25.2259777,24.0688508 L24.5981269,24.6418284 L23.4521716,23.3861269 L24.0800223,22.8131492 C25.4246162,21.5860707 26.204,19.8560073 26.204,17.998 C26.204,14.3972156 23.2853316,11.478 19.685,11.478 C16.0838052,11.478 13.165,14.3970788 13.165,17.998 C13.165,19.9166078 13.9975879,21.6990098 15.4202519,22.930284 Z M10.936198,28.2796766 L11.5641215,28.8525746 L10.4183254,30.1084215 L9.79040196,29.5355234 C6.76014439,26.7708095 5.0003,22.8683623 5.0003,18.6846 C5.0003,10.5743221 11.5746938,3.9996 19.6843,3.9996 C27.794742,3.9996 34.3693,10.574158 34.3693,18.6846 C34.3693,22.8674069 32.6104093,26.7687671 29.5813108,29.5334205 L28.9534903,30.1064313 L27.8074687,28.8507903 L28.4352892,28.2777795 C31.1150782,25.8319403 32.6693,22.384552 32.6693,18.6846 C32.6693,11.513042 26.855858,5.6996 19.6843,5.6996 C12.5135969,5.6996 6.7003,11.5131872 6.7003,18.6846 C6.7003,22.3853953 8.25538166,25.8337821 10.936198,28.2796766 Z" id="Combined-Shape" fill="#000000" fill-rule="nonzero"></path>
    </g>
</svg>