<?xml version="1.0" encoding="UTF-8"?>
<svg width="31px" height="30px" viewBox="0 0 31 30" version="1.1" xmlns="http://www.w3.org/2000/svg" xmlns:xlink="http://www.w3.org/1999/xlink">
    <!-- Generator: Sketch 48.2 (47327) - http://www.bohemiancoding.com/sketch -->
    <title>Combined Shape</title>
    <desc>Created with Sketch.</desc>
    <defs></defs>
    <g id="Artboard-Copy-152" stroke="none" stroke-width="1" fill="none" fill-rule="evenodd" transform="translate(-4.000000, -4.000000)">
        <path d="M6.9292,17.7192 L8.6292,17.7192 L8.6292,32.0822 C8.6292,32.202758 8.72664204,32.3002 8.8472,32.3002 L29.3002,32.3002 C29.4197894,32.3002 29.5172,32.2027263 29.5172,32.0822 L29.5172,17.7192 L31.2172,17.7192 L31.2172,32.0822 C31.2172,33.1413643 30.3589198,34.0002 29.3002,34.0002 L8.8472,34.0002 C7.78775796,34.0002 6.9292,33.141642 6.9292,32.0822 L6.9292,17.7192 Z M34.1466833,14.8137146 L33.1101854,16.1611833 L32.436451,15.6429344 L19.8573187,5.96683256 C19.3949736,5.61104359 18.7518246,5.61104359 18.2899231,5.96695428 L5.0361688,16.1611774 L3.99972263,14.8136688 L4.67347691,14.2954457 L17.2528945,4.61989407 C18.3255754,3.79335641 19.8204264,3.79335641 20.893949,4.61946563 L34.1466833,14.8137146 Z" id="Combined-Shape" fill="#000000" fill-rule="nonzero"></path>
    </g>
</svg>