<?xml version="1.0" encoding="UTF-8"?>
<svg width="30px" height="21px" viewBox="0 0 30 21" version="1.1" xmlns="http://www.w3.org/2000/svg" xmlns:xlink="http://www.w3.org/1999/xlink">
    <!-- Generator: Sketch 48.2 (47327) - http://www.bohemiancoding.com/sketch -->
    <title>Combined Shape</title>
    <desc>Created with Sketch.</desc>
    <defs></defs>
    <g id="Artboard-Copy-200" stroke="none" stroke-width="1" fill="none" fill-rule="evenodd" transform="translate(-4.000000, -8.000000)">
        <path d="M8.2727,23.85 L6.5727,23.85 L6.5727,10.85 C6.5727,9.27555796 7.84825796,8 9.4227,8 L28.5777,8 C30.1514218,8 31.4277,9.27583754 31.4277,10.85 L31.4277,23.85 L29.7277,23.85 L29.7277,10.85 C29.7277,10.2148531 29.2126691,9.7 28.5777,9.7 L9.4227,9.7 C8.78714204,9.7 8.2727,10.214442 8.2727,10.85 L8.2727,23.85 Z M34,26.4011 L34,28.1011 L4,28.1011 L4,26.4011 L34,26.4011 Z M19.7833,12.085 C19.7833,12.499 19.4473,12.835 19.0333,12.835 C18.6193,12.835 18.2833,12.499 18.2833,12.085 C18.2833,11.671 18.6193,11.335 19.0333,11.335 C19.4473,11.335 19.7833,11.671 19.7833,12.085 Z" id="Combined-Shape" fill="#000000" fill-rule="nonzero"></path>
    </g>
</svg>