<?xml version="1.0" encoding="UTF-8"?>
<svg width="30px" height="34px" viewBox="0 0 30 34" version="1.1" xmlns="http://www.w3.org/2000/svg" xmlns:xlink="http://www.w3.org/1999/xlink">
    <!-- Generator: Sketch 48.2 (47327) - http://www.bohemiancoding.com/sketch -->
    <title>Combined Shape</title>
    <desc>Created with Sketch.</desc>
    <defs></defs>
    <g id="Artboard-Copy-233" stroke="none" stroke-width="1" fill="none" fill-rule="evenodd" transform="translate(-4.000000, -2.000000)">
        <path d="M14.46705,28.6247 L14.46705,30.3247 L6.59905,30.3247 C5.16760796,30.3247 4.00005,29.157142 4.00005,27.7257 L4.00005,5.5777 C4.00005,4.14625796 5.16760796,2.9787 6.59905,2.9787 L23.82505,2.9787 C25.256492,2.9787 26.42405,4.14625796 26.42405,5.5777 L26.42405,10.2247 L24.72405,10.2247 L24.72405,5.5777 C24.72405,5.08514204 24.317608,4.6787 23.82505,4.6787 L6.59905,4.6787 C6.10649204,4.6787 5.70005,5.08514204 5.70005,5.5777 L5.70005,27.7257 C5.70005,28.218258 6.10649204,28.6247 6.59905,28.6247 L14.46705,28.6247 Z M9.69965,9.9868 L9.69965,8.2868 L12.21965,8.2868 L12.21965,9.9868 L9.69965,9.9868 Z M14.05275,10.044 L14.05275,8.344 L16.57275,8.344 L16.57275,10.044 L14.05275,10.044 Z M18.29135,10.044 L18.29135,8.344 L20.81135,8.344 L20.81135,10.044 L18.29135,10.044 Z M9.69965,13.2707 L9.69965,11.5707 L12.21965,11.5707 L12.21965,13.2707 L9.69965,13.2707 Z M14.05275,13.328 L14.05275,11.628 L16.57275,11.628 L16.57275,13.328 L14.05275,13.328 Z M9.69965,16.5546 L9.69965,14.8546 L12.21965,14.8546 L12.21965,16.5546 L9.69965,16.5546 Z M14.05275,16.6119 L14.05275,14.9119 L16.57275,14.9119 L16.57275,16.6119 L14.05275,16.6119 Z M9.69965,19.8386 L9.69965,18.1386 L12.21965,18.1386 L12.21965,19.8386 L9.69965,19.8386 Z M9.69965,23.1225 L9.69965,21.4225 L12.21965,21.4225 L12.21965,23.1225 L9.69965,23.1225 Z M14.12275,19.9205 L14.12275,18.2205 L16.64275,18.2205 L16.64275,19.9205 L14.12275,19.9205 Z M14.12275,23.2044 L14.12275,21.5044 L16.64275,21.5044 L16.64275,23.2044 L14.12275,23.2044 Z M25.63395,23.2871 C22.642508,23.2871 20.21695,20.861542 20.21695,17.8701 C20.21695,14.878658 22.642508,12.4531 25.63395,12.4531 C28.625392,12.4531 31.05095,14.878658 31.05095,17.8701 C31.05095,20.861542 28.625392,23.2871 25.63395,23.2871 Z M25.63395,21.5871 C27.686508,21.5871 29.35095,19.922658 29.35095,17.8701 C29.35095,15.817542 27.686508,14.1531 25.63395,14.1531 C23.581392,14.1531 21.91695,15.817542 21.91695,17.8701 C21.91695,19.922658 23.581392,21.5871 25.63395,21.5871 Z M25.6338148,33.3203 L25.6340852,35.0203 L19.34895,35.0213 C18.1452545,35.0213 17.16995,34.0454886 17.16995,32.8413 L17.16995,28.7923 C17.16995,26.853858 18.740508,25.2833 20.67895,25.2833 L30.49095,25.2833 C32.429392,25.2833 33.99995,26.853858 33.99995,28.7923 L33.99995,34.1713 L32.29995,34.1713 L32.29995,28.7923 C32.29995,27.792742 31.490508,26.9833 30.49095,26.9833 L20.67895,26.9833 C19.679392,26.9833 18.86995,27.792742 18.86995,28.7923 L18.86995,32.8413 C18.86995,33.1068022 19.0843364,33.3213 19.3488148,33.3213 L25.6338148,33.3203 Z" id="Combined-Shape" fill="#000000" fill-rule="nonzero"></path>
    </g>
</svg>