<?xml version="1.0" encoding="UTF-8"?>
<svg width="25px" height="30px" viewBox="0 0 25 30" version="1.1" xmlns="http://www.w3.org/2000/svg" xmlns:xlink="http://www.w3.org/1999/xlink">
    <!-- Generator: Sketch 48.2 (47327) - http://www.bohemiancoding.com/sketch -->
    <title>Combined Shape</title>
    <desc>Created with Sketch.</desc>
    <defs></defs>
    <g id="Artboard-Copy-146" stroke="none" stroke-width="1" fill="none" fill-rule="evenodd" transform="translate(-7.000000, -4.000000)">
        <path d="M28.8101,34 L9.7581,34 C8.23965796,34 7.0001,32.760442 7.0001,31.242 L7.0001,6.758 C7.0001,5.23955796 8.23965796,4 9.7581,4 L28.8101,4 C30.3292661,4 31.5681,5.23928183 31.5681,6.758 L31.5681,31.242 C31.5681,32.7607182 30.3292661,34 28.8101,34 Z M28.8101,32.3 C29.3902444,32.3 29.8681,31.8219716 29.8681,31.242 L29.8681,6.758 C29.8681,6.17802837 29.3902444,5.7 28.8101,5.7 L9.7581,5.7 C9.17854204,5.7 8.7001,6.17844204 8.7001,6.758 L8.7001,31.242 C8.7001,31.821558 9.17854204,32.3 9.7581,32.3 L28.8101,32.3 Z M11.7267,29.1706 L11.7267,27.4706 L26.4537,27.4706 L26.4537,29.1706 L11.7267,29.1706 Z M20.1541,10.293 L20.1541,8.593 L26.2221,8.593 L26.2221,10.293 L20.1541,10.293 Z M11.7267,24.7883 L11.7267,23.0883 L26.0967,23.0883 L26.0967,24.7883 L11.7267,24.7883 Z" id="Combined-Shape" fill="#000000" fill-rule="nonzero"></path>
    </g>
</svg>