<?xml version="1.0" encoding="UTF-8"?>
<svg width="14px" height="10px" viewBox="0 0 14 10" version="1.1" xmlns="http://www.w3.org/2000/svg" xmlns:xlink="http://www.w3.org/1999/xlink">
    <!-- Generator: Sketch 48.2 (47327) - http://www.bohemiancoding.com/sketch -->
    <title>Combined Shape</title>
    <desc>Created with Sketch.</desc>
    <defs></defs>
    <g id="Artboard-Copy-51" stroke="none" stroke-width="1" fill="none" fill-rule="evenodd" transform="translate(0.000000, -2.000000)">
        <path d="M4.68772525,10.3480253 L5.67767475,11.3379747 C4.83707119,12.1785783 3.48088457,12.1891341 2.64584745,11.3540969 L0.619283114,9.32853221 C-0.214659515,8.49309774 -0.203640428,7.13591364 0.636725253,6.29702525 L4.23829011,2.69546078 C5.07761364,1.85465957 6.43479774,1.84364049 7.27079692,2.67814745 L9.29567475,4.70402525 C10.1308341,5.53918457 10.1202783,6.89537119 9.27967475,7.73597475 L7.73567475,9.27997475 L6.74572525,8.29002525 L8.28972525,6.74602525 C8.58701461,6.4487359 8.59067137,5.97892087 8.30560308,5.69385255 L6.28116779,3.66841689 C5.99618407,3.38394207 5.52536283,3.38776471 5.22867475,3.68497475 L1.62623922,7.28740989 C1.32946471,7.58366283 1.32564207,8.05448407 1.60955255,8.33890308 L3.63567475,10.3640253 C3.92062087,10.6489714 4.3904359,10.6453146 4.68772525,10.3480253 Z M9.31227475,3.65197475 L8.32232525,2.66202525 C9.16292881,1.8214217 10.5191154,1.81086593 11.3541525,2.64590308 L13.3807169,4.67146779 C14.2146595,5.50690226 14.2036404,6.86408636 13.3632747,7.70297475 L9.76170989,11.3045392 C8.92238636,12.1453404 7.56520226,12.1563595 6.72920308,11.3218525 L4.70432525,9.29597475 C3.86916593,8.46081543 3.8797217,7.10462881 4.72032525,6.26402525 L6.26432525,4.72002525 L7.25427475,5.70997475 L5.71027475,7.25397475 C5.41298539,7.5512641 5.40932863,8.02107913 5.69439692,8.30614745 L7.71883221,10.3315831 C8.00381593,10.6160579 8.47463717,10.6122353 8.77132525,10.3150253 L12.3737608,6.71259011 C12.6705353,6.41633717 12.6743579,5.94551593 12.3904475,5.66109692 L10.3643253,3.63597475 C10.0793791,3.35102863 9.6095641,3.35468539 9.31227475,3.65197475 Z" id="Combined-Shape" fill="#000000" fill-rule="nonzero"></path>
    </g>
</svg>