<?xml version="1.0" encoding="UTF-8"?>
<svg width="24px" height="30px" viewBox="0 0 24 30" version="1.1" xmlns="http://www.w3.org/2000/svg" xmlns:xlink="http://www.w3.org/1999/xlink">
    <!-- Generator: Sketch 48.2 (47327) - http://www.bohemiancoding.com/sketch -->
    <title>Combined Shape</title>
    <desc>Created with Sketch.</desc>
    <defs></defs>
    <g id="Artboard-Copy-5" stroke="none" stroke-width="1" fill="none" fill-rule="evenodd" transform="translate(-3.000000, 0.000000)">
        <path d="M10.0253161,23.9898947 C10.5187336,24.6198895 10.81255,25.4104978 10.81255,26.27 C10.81255,28.33356 9.11892894,30 7.03555,30 C4.95217106,30 3.25855,28.33356 3.25855,26.27 C3.25855,24.20644 4.95217106,22.54 7.03555,22.54 C7.63272274,22.54 8.19787274,22.6769156 8.70029375,22.9208542 L13.2197091,17.9192568 C13.5438677,17.5248918 14.5929113,16.2733328 14.7926776,16.0263777 C15.1911661,15.5337583 15.4140227,15.2156659 15.5617149,14.9254388 C15.8290614,14.4000809 15.9015944,13.9729377 15.9174752,12.300906 C15.8991658,11.9777265 15.89035,11.6362776 15.89035,11.273 L15.89035,7.35281789 C14.2469288,6.94917143 13.02645,5.48308907 13.02645,3.731 C13.02645,1.66724061 14.7212714,0 16.80545,0 C18.8896286,0 20.58445,1.66724061 20.58445,3.731 C20.58445,5.51816377 19.3146171,7.0077552 17.62135,7.37577589 L17.62135,11.273 C17.62135,11.6401988 17.6204417,11.9701657 17.6178234,12.2684423 C17.7053427,13.7128638 18.0084854,14.6522233 18.6200099,15.6417109 C18.9550245,16.183787 20.712391,18.5279007 21.1130363,19.1034756 C21.1739097,19.1909492 21.2965854,19.3510784 21.7427803,19.9210555 C22.125561,19.7922509 22.5358492,19.7224 22.96245,19.7224 C25.0466286,19.7224 26.74145,21.3896406 26.74145,23.4534 C26.74145,25.5179584 25.0468305,27.1854 22.96245,27.1854 C20.8780695,27.1854 19.18345,25.5179584 19.18345,23.4534 C19.18345,22.4239469 19.6051649,21.4931579 20.2865601,20.8187551 C19.8920383,20.3141918 19.7953892,20.1862138 19.71772,20.0746052 C19.3555837,19.5543531 17.5567569,17.1549363 17.1738953,16.5354406 C17.0711409,16.3691771 16.9752922,16.2035111 16.8860925,16.0370939 C16.6971857,16.3463764 16.4548669,16.6746209 16.1143856,17.0955306 C15.9032699,17.356516 14.8482538,18.6152006 14.5070878,19.028798 L10.0253161,23.9898947 Z M16.80545,5.763 C17.9570436,5.763 18.88445,4.85046711 18.88445,3.731 C18.88445,2.61242472 17.9569312,1.7 16.80545,1.7 C15.6539688,1.7 14.72645,2.61242472 14.72645,3.731 C14.72645,4.85046711 15.6538564,5.763 16.80545,5.763 Z M22.96245,25.4854 C24.1140436,25.4854 25.04145,24.5728671 25.04145,23.4534 C25.04145,22.3348247 24.1139312,21.4224 22.96245,21.4224 C21.8109688,21.4224 20.88345,22.3348247 20.88345,23.4534 C20.88345,24.5728671 21.8108564,25.4854 22.96245,25.4854 Z M7.03555,28.3 C8.18614636,28.3 9.11255,27.3884643 9.11255,26.27 C9.11255,25.1515357 8.18614636,24.24 7.03555,24.24 C5.88495364,24.24 4.95855,25.1515357 4.95855,26.27 C4.95855,27.3884643 5.88495364,28.3 7.03555,28.3 Z" id="Combined-Shape" fill="#000000" fill-rule="nonzero"></path>
    </g>
</svg>