<?xml version="1.0" encoding="UTF-8"?>
<svg width="30px" height="22px" viewBox="0 0 30 22" version="1.1" xmlns="http://www.w3.org/2000/svg" xmlns:xlink="http://www.w3.org/1999/xlink">
    <!-- Generator: Sketch 48.2 (47327) - http://www.bohemiancoding.com/sketch -->
    <title>Combined Shape</title>
    <desc>Created with Sketch.</desc>
    <defs></defs>
    <g id="Artboard-Copy-257" stroke="none" stroke-width="1" fill="none" fill-rule="evenodd" transform="translate(-5.000000, -9.000000)">
        <path d="M14.7409004,28.3701955 L15.5323549,28.0601959 L16.1523541,29.6431049 L15.3608996,29.9531045 C13.5232496,30.6728816 11.4129464,30.2509567 9.99394444,28.830776 L6.46585924,25.3036908 C4.51091359,23.3487451 4.51091359,20.1785549 6.46585924,18.2236092 L14.1080444,10.5814242 C16.0639785,8.62669443 19.234026,8.62669443 21.1889408,10.5816092 L24.7159408,14.1086092 C26.6708864,16.0635549 26.6708864,19.2337451 24.7159408,21.1886908 L19.9999,25.9047315 L18.7978185,24.70265 L23.5138592,19.9866092 C24.8049136,18.6955549 24.8049136,16.6017451 23.5138592,15.3106908 L19.9868592,11.7836908 C18.695774,10.4926056 16.6018215,10.4926056 15.3099408,11.7836908 L7.66794076,19.4256908 C6.37688641,20.7167451 6.37688641,22.8105549 7.66785556,24.101524 L11.1961902,27.6288588 C12.1335526,28.5669997 13.5271025,28.84562 14.7409004,28.3701955 Z M25.2590996,11.6298045 L24.4676451,11.9398041 L23.8476459,10.3568951 L24.6391004,10.0468955 C26.4767504,9.32711843 28.5870536,9.74904329 30.0060556,11.169224 L33.5341408,14.6963092 C35.4890864,16.6512549 35.4890864,19.8214451 33.5341408,21.7763908 L25.8919556,29.4185758 C23.9360215,31.3733056 20.765974,31.3733056 18.8110592,29.4183908 L15.2840592,25.8913908 C13.3291136,23.9364451 13.3291136,20.7662549 15.2840592,18.8113092 L20.0001,14.0952685 L21.2021815,15.29735 L16.4861408,20.0133908 C15.1950864,21.3044451 15.1950864,23.3982549 16.4861408,24.6893092 L20.0131408,28.2163092 C21.304226,29.5073944 23.3981785,29.5073944 24.6900592,28.2163092 L32.3320592,20.5743092 C33.6231136,19.2832549 33.6231136,17.1894451 32.3321444,15.898476 L28.8038098,12.3711412 C27.8664474,11.4330003 26.4728975,11.15438 25.2590996,11.6298045 Z" id="Combined-Shape" fill="#000000" fill-rule="nonzero"></path>
    </g>
</svg>