<?xml version="1.0" encoding="UTF-8"?>
<svg id="linkchart" width="12px" height="14px" viewBox="0 0 12 14" version="1.1" xmlns="http://www.w3.org/2000/svg" xmlns:xlink="http://www.w3.org/1999/xlink">
    <!-- Generator: Sketch 48.2 (47327) - http://www.bohemiancoding.com/sketch -->
    <title>Combined Shape</title>
    <desc>Created with Sketch.</desc>
    <defs></defs>
    <g id="Artboard-Copy-3" stroke="none" stroke-width="1" fill-rule="evenodd" transform="translate(-1.000000, 0.000000)">
        <path d="M5.19199856,11.031728 C5.36047175,11.3220228 5.4569,11.6586899 5.4569,12.01805 C5.4569,13.1153208 4.55787021,14.00005 3.4539,14.00005 C2.34992979,14.00005 1.4509,13.1153208 1.4509,12.01805 C1.4509,10.92076 2.34995757,10.03505 3.4539,10.03505 C3.68286322,10.03505 3.90301294,10.0731505 4.1081558,10.1433368 L5.95886081,8.09532652 C6.10470271,7.91791759 6.570776,7.36191611 6.65766859,7.25450298 C6.82213182,7.05120014 6.91010823,6.92562816 6.96348485,6.82073243 C7.05319822,6.64442771 7.08032647,6.48095637 7.08683401,5.80516751 C7.0787198,5.65834847 7.0748,5.50403166 7.0748,5.34085 L7.0748,3.83061046 C6.32948255,3.54247135 5.7998,2.82541319 5.7998,1.98295 C5.7998,0.885678912 6.69983024,-5e-05 7.8038,-5e-05 C8.90776976,-5e-05 9.8078,0.885678912 9.8078,1.98295 C9.8078,2.8419736 9.2570887,3.57061351 8.4886,3.84710291 L8.4886,5.34085 C8.4886,5.50101089 8.48821562,5.64610516 8.48710354,5.77829699 C8.52349156,6.35963993 8.64346618,6.72551024 8.88491395,7.11629165 C9.02514771,7.34325894 9.80034395,8.37726431 9.9849713,8.64244107 C10.0021105,8.667018 9.98729339,8.64913277 10.1244935,8.82468224 C10.260182,8.79596156 10.4009013,8.78085 10.5451,8.78085 C11.6490698,8.78085 12.5491,9.66657891 12.5491,10.76385 C12.5491,11.8618616 11.649338,12.74685 10.5451,12.74685 C9.44086203,12.74685 8.5411,11.8618616 8.5411,10.76385 C8.5411,10.3191953 8.68890017,9.90927946 8.93817796,9.57896731 C8.88746972,9.51302044 8.85540858,9.47018841 8.83632566,9.44282404 C8.70723202,9.25740955 8.11224985,8.46170317 7.82061378,8.04178558 C7.79688096,8.0718887 7.77207676,8.10291246 7.74611311,8.13500767 C7.64986634,8.25398406 7.17885361,8.81587806 7.01905413,9.00906999 L5.19199856,11.031728 Z M7.8038,2.56595 C8.13997991,2.56595 8.4078,2.30252738 8.4078,1.98295 C8.4078,1.66394143 8.13954606,1.39995 7.8038,1.39995 C7.46805394,1.39995 7.1998,1.66394143 7.1998,1.98295 C7.1998,2.30252738 7.46762009,2.56595 7.8038,2.56595 Z M10.5451,11.34685 C10.8812799,11.34685 11.1491,11.0834274 11.1491,10.76385 C11.1491,10.4448414 10.8808461,10.18085 10.5451,10.18085 C10.2093539,10.18085 9.9411,10.4448414 9.9411,10.76385 C9.9411,11.0834274 10.2089201,11.34685 10.5451,11.34685 Z M3.4539,12.60005 C3.78965178,12.60005 4.0569,12.3370528 4.0569,12.01805 C4.0569,11.6986847 3.78929234,11.43505 3.4539,11.43505 C3.11850766,11.43505 2.8509,11.6986847 2.8509,12.01805 C2.8509,12.3370528 3.11814822,12.60005 3.4539,12.60005 Z" id="Combined-Shape" fill-rule="nonzero"></path>
    </g>
</svg>