<?xml version="1.0" encoding="UTF-8"?>
<svg id="linkchart-medium" width="16px" height="18px" viewBox="0 0 16 18" version="1.1" xmlns="http://www.w3.org/2000/svg" xmlns:xlink="http://www.w3.org/1999/xlink">
    <!-- Generator: Sketch 48.2 (47327) - http://www.bohemiancoding.com/sketch -->
    <title>Analysis</title>
    <desc>Created with Sketch.</desc>
    <defs></defs>
    <g id="Artboard-Copy-4" stroke="none" stroke-width="1" fill-rule="evenodd" transform="translate(-1.000000, 0.000000)">
        <path d="M6.59299204,14.208566 C6.81889498,14.583557 6.9488,15.0219831 6.9488,15.491 C6.9488,16.879565 5.81017312,18 4.4128,18 C3.01542688,18 1.8768,16.879565 1.8768,15.491 C1.8768,14.102435 3.01542688,12.982 4.4128,12.982 C4.71555856,12.982 5.00617088,13.0345962 5.27568792,13.1311202 L7.69653372,10.4530094 C7.8860024,10.2223963 8.48840121,9.50343995 8.60057442,9.36473488 C8.81556856,9.09888907 8.9312703,8.93372016 9.0024322,8.79386632 C9.12352594,8.55588184 9.15951926,8.33969832 9.16802944,7.45245006 C9.15755705,7.26321629 9.1525,7.06419802 9.1525,6.8536 L9.1525,4.86140707 C8.19018936,4.50589363 7.503,3.58880812 7.503,2.5093 C7.503,1.12050354 8.64185805,0.0003 10.04,0.0003 C11.4381419,0.0003 12.577,1.12050354 12.577,2.5093 C12.577,3.61007823 11.8624638,4.5419702 10.8703,4.88176456 L10.8703,6.8536 C10.8703,7.06112869 10.8698011,7.24896744 10.8683584,7.41995377 C10.915851,8.18368194 11.0737425,8.66616385 11.3917905,9.18048606 C11.5746266,9.47615416 12.5782151,10.8139947 12.8201421,11.1613509 C12.8380761,11.1874608 12.8997383,11.2682527 13.0198259,11.4227101 C13.2020128,11.3816022 13.3915948,11.3599 13.5862,11.3599 C14.9843419,11.3599 16.1232,12.4801035 16.1232,13.8689 C16.1232,15.2584613 14.9845769,16.3789 13.5862,16.3789 C12.1878231,16.3789 11.0492,15.2584613 11.0492,13.8689 C11.0492,13.2911482 11.2462948,12.7598799 11.5771585,12.3364079 C11.4927339,12.2266922 11.4489747,12.1676757 11.4220226,12.1284243 C11.246347,11.8762142 10.4206542,10.7733046 10.0647318,10.2543365 C10.0205014,10.3113638 9.9731951,10.370933 9.92241182,10.4337278 C9.79892243,10.5864256 9.19064474,11.3123984 8.98397359,11.5624691 L6.59299204,14.208566 Z M10.04,3.3193 C10.5055645,3.3193 10.877,2.95379647 10.877,2.5093 C10.877,2.06572955 10.505485,1.7003 10.04,1.7003 C9.57451497,1.7003 9.203,2.06572955 9.203,2.5093 C9.203,2.95379647 9.57443555,3.3193 10.04,3.3193 Z M13.5862,14.6789 C14.0517645,14.6789 14.4232,14.3133965 14.4232,13.8689 C14.4232,13.4253296 14.051685,13.0599 13.5862,13.0599 C13.120715,13.0599 12.7492,13.4253296 12.7492,13.8689 C12.7492,14.3133965 13.1206355,14.6789 13.5862,14.6789 Z M4.4128,16.3 C4.87736318,16.3 5.2488,15.9344977 5.2488,15.491 C5.2488,15.0475023 4.87736318,14.682 4.4128,14.682 C3.94823682,14.682 3.5768,15.0475023 3.5768,15.491 C3.5768,15.9344977 3.94823682,16.3 4.4128,16.3 Z" id="Combined-Shape" fill-rule="nonzero"></path>
    </g>
</svg>