<?xml version="1.0" encoding="UTF-8"?>
<svg id="list-alt" width="12px" height="10px" viewBox="0 0 12 10" version="1.1" xmlns="http://www.w3.org/2000/svg" xmlns:xlink="http://www.w3.org/1999/xlink">
    <!-- Generator: Sketch 48.2 (47327) - http://www.bohemiancoding.com/sketch -->
    <title>Combined Shape</title>
    <desc>Created with Sketch.</desc>
    <defs></defs>
    <g id="Artboard-Copy-69" stroke="none" stroke-width="1" fill-rule="evenodd" transform="translate(-1.000000, -2.000000)">
        <path d="M2,3.9111 C1.5581722,3.9111 1.2,3.5529278 1.2,3.1111 C1.2,2.6692722 1.5581722,2.3111 2,2.3111 L12,2.3111 C12.4418278,2.3111 12.8,2.6692722 12.8,3.1111 C12.8,3.5529278 12.4418278,3.9111 12,3.9111 L2,3.9111 Z M2,7.8 C1.5581722,7.8 1.2,7.4418278 1.2,7 C1.2,6.5581722 1.5581722,6.2 2,6.2 L10.889,6.2 C11.3308278,6.2 11.689,6.5581722 11.689,7 C11.689,7.4418278 11.3308278,7.8 10.889,7.8 L2,7.8 Z M2,11.6889 C1.5581722,11.6889 1.2,11.3307278 1.2,10.8889 C1.2,10.4470722 1.5581722,10.0889 2,10.0889 L12,10.0889 C12.4418278,10.0889 12.8,10.4470722 12.8,10.8889 C12.8,11.3307278 12.4418278,11.6889 12,11.6889 L2,11.6889 Z" id="Combined-Shape" fill-rule="nonzero"></path>
    </g>
</svg>