<?xml version="1.0" encoding="UTF-8"?>
<svg width="30px" height="30px" viewBox="0 0 30 30" version="1.1" xmlns="http://www.w3.org/2000/svg" xmlns:xlink="http://www.w3.org/1999/xlink">
    <!-- Generator: Sketch 48.2 (47327) - http://www.bohemiancoding.com/sketch -->
    <title>Combined Shape</title>
    <desc>Created with Sketch.</desc>
    <defs></defs>
    <g id="Artboard-Copy-266" stroke="none" stroke-width="1" fill="none" fill-rule="evenodd" transform="translate(-5.000000, -5.000000)">
        <path d="M30.884813,12.3552126 C30.6195643,12.4591769 30.3303163,12.5621899 30.0196068,12.6644304 C29.489084,12.8390017 28.9242677,13.0021501 28.3599373,13.1500329 C28.1653102,13.201035 27.9951287,13.243957 27.8562485,13.2779435 C27.8217691,13.3132457 27.7840311,13.3513729 27.7432281,13.3919763 C27.5143941,13.6196906 27.2662103,13.8473812 27.0051108,14.0618127 C26.6185454,14.3792849 26.2361001,14.6412204 25.858897,14.8298617 C25.3582303,15.0802478 24.8764271,15.1988543 24.4043663,15.1325348 C24.363878,15.126669 24.363878,15.126669 24.3237824,15.1200322 C23.7070636,15.0148257 23.1052365,14.7025939 22.5115969,14.2528463 C22.1011849,13.941914 21.7789056,13.6330547 21.5807338,13.4141302 L21.3497734,13.1589834 L21.3613838,12.8150243 C21.3621586,12.7923501 21.3635067,12.7430859 21.3648398,12.675917 C21.3715068,12.3400039 21.3699426,11.9735763 21.3545766,11.6342543 C21.3493764,11.5194197 21.342709,11.4123384 21.3346791,11.314676 C21.170089,11.3563584 21.036019,11.3836383 20.8897269,11.4026134 C20.36014,11.4713043 19.8800112,11.3847293 19.4691778,11.0556533 C19.0342697,10.7080153 18.8434446,10.2032649 18.8028715,9.61237342 C18.7912711,9.44343039 18.7926025,9.27296276 18.8042358,9.10290824 C18.7493889,9.07893775 18.6938298,9.05379727 18.6379915,9.02752729 C18.0349325,8.74380895 17.6447787,8.46331088 17.472023,7.98903681 C17.3482885,7.64857494 17.368991,7.3216948 17.4903137,6.93642602 C15.9535654,7.22987101 14.5106652,7.78774521 13.2107686,8.56089299 C13.3098592,8.69325513 13.4068662,8.83427511 13.5022204,8.9832952 C13.7037626,9.29826647 13.8859712,9.63118205 14.04742,9.96365258 C14.0894927,10.0502927 14.1264625,10.129116 14.1580843,10.1985383 C14.303778,10.3170949 14.4690691,10.4687153 14.63576,10.6506421 C14.9248441,10.9661488 15.1496197,11.3047493 15.2810634,11.6772643 C15.3528164,11.8806138 15.3979042,12.0966109 15.4212505,12.3237325 C15.4595708,12.6965276 15.4387742,13.0765758 15.3820317,13.4450827 C15.3779879,13.4713447 15.3739158,13.4965641 15.3698531,13.5206855 C15.4314104,13.7197797 15.4872574,13.9137542 15.5395794,14.1141911 C15.5982966,14.3391272 15.6490016,14.5587447 15.6893457,14.7693746 C15.8384825,15.5479947 15.8520713,16.1089831 15.5923453,16.5631003 C15.3564014,16.9756359 14.9492405,17.2640602 14.4014656,17.5177949 C14.157714,17.630703 13.9184878,17.7215929 13.7088987,17.7907275 C13.5829377,17.9615654 13.4193622,18.1482978 13.2149835,18.3343186 C12.7613892,18.7471698 12.2170621,19.0402528 11.5260213,19.157478 C11.0465778,19.2076815 10.7595,19.4844886 10.7595,20.0001 C10.7595,20.1725033 10.8138699,20.4291495 10.9193778,20.7376734 C10.9976987,20.9666978 11.1005037,21.214739 11.2217919,21.4728394 C11.331624,21.7065612 11.4500426,21.9348715 11.5683245,22.147147 C11.5810685,22.1700183 11.5932582,22.191727 11.6048419,22.2122135 C11.757142,22.2944667 11.9312615,22.3952791 12.1081727,22.5092237 C12.312813,22.6410279 12.491263,22.7725729 12.6403878,22.9083208 C12.8356081,23.0860291 12.9818292,23.2681136 13.0705697,23.4910795 C13.1537797,23.698846 13.2110435,23.9513193 13.257759,24.2582234 C13.2859473,24.4434106 13.3082794,24.6378843 13.3257152,24.8318045 C13.3279679,24.856859 13.3300419,24.8807701 13.3319424,24.9034242 C13.4168376,25.0702465 13.5159027,25.2857507 13.6145785,25.5371749 C13.7953851,25.9978675 13.9236616,26.4581528 13.9750781,26.9075614 C14.0437143,27.5074783 13.9719761,28.057864 13.7077362,28.5325317 C13.5201548,28.870569 13.2167907,29.0847083 12.8017198,29.2798716 C12.6708658,29.3413982 12.5426527,29.39396 12.424622,29.4375823 L11.756931,30.4383195 C14.0230556,32.2302813 16.8865704,33.3 20,33.3 C27.345558,33.3 33.3,27.345558 33.3,20 C33.3,17.1545831 32.4065231,14.5179061 30.884813,12.3552126 Z M29.7551864,10.9595176 C27.3261116,8.33963502 23.854587,6.7 20,6.7 C19.8111266,6.7 19.6231729,6.70393671 19.4362165,6.71173255 C19.4052706,6.77476025 19.3713461,6.84303392 19.3341847,6.91743654 C19.2886857,7.01223194 19.2515898,7.09283562 19.2194975,7.1673545 C19.1860697,7.2449746 19.159091,7.31390612 19.1386777,7.37331039 C19.2012818,7.40998033 19.2766529,7.44925484 19.3616916,7.48926262 C19.5989755,7.60089644 19.8455169,7.690758 19.9976946,7.7381614 L20.7685051,7.97826917 L20.5683688,8.76041113 C20.5617038,8.78645817 20.5481283,8.84940031 20.5337275,8.93714743 C20.5017724,9.13185704 20.4873845,9.32853065 20.498878,9.49591841 C20.5094539,9.64994067 20.5359367,9.72636471 20.5321611,9.72856353 C20.5335887,9.72662772 20.5673806,9.73018321 20.6710575,9.71673564 C20.7633677,9.70476239 20.8680821,9.68102232 21.0363286,9.63534222 C21.1365564,9.6078339 21.1957247,9.59161997 21.2444784,9.57876013 C21.3338575,9.55518447 21.4081567,9.53745319 21.4815132,9.52312396 C21.7397389,9.47268292 21.9588729,9.46615782 22.2000327,9.54676681 C22.9078155,9.78400149 22.9930648,10.2374395 23.0528362,11.5573496 C23.0669285,11.8685445 23.0706742,12.1921792 23.0676094,12.5013567 C23.1962374,12.621926 23.3565663,12.7602162 23.5381848,12.8978123 C23.933749,13.1974959 24.3112207,13.3933306 24.6096568,13.4442411 C24.7156654,13.4595746 24.8782493,13.4195509 25.0985057,13.3093995 C25.3471617,13.1850453 25.6298972,12.9914007 25.926183,12.748072 C26.141993,12.570835 26.351224,12.3788807 26.5440984,12.1869502 C26.6586733,12.0729359 26.740408,11.9863654 26.7806469,11.9415838 L26.9607808,11.7411138 L27.2235178,11.681066 C27.3616125,11.6495047 27.6091328,11.5893806 27.9290027,11.5055587 C28.4620273,11.3658796 28.9945661,11.2120546 29.4882412,11.0496083 C29.579617,11.0195406 29.66865,10.9894978 29.7551864,10.9595176 Z M10.4805621,29.2883194 L11.3452247,27.9923606 L11.6444169,27.9062549 C11.7448856,27.8773406 11.9167908,27.8174156 12.0783631,27.7414455 C12.1896678,27.6891108 12.2585384,27.6404962 12.2218218,27.7066644 C12.2909099,27.5825574 12.3176993,27.3770252 12.2860962,27.1007968 C12.2535817,26.8166029 12.1632196,26.492363 12.032091,26.1582492 C11.9262228,25.8884988 11.8211219,25.6755855 11.7579811,25.5641607 L11.6605555,25.3922331 L11.6489637,25.1949606 C11.6392207,25.0291533 11.6156913,24.7674605 11.5771173,24.5140427 C11.5513134,24.3445205 11.5219591,24.209658 11.4989747,24.1412486 C11.4267076,24.1023744 11.3195883,24.0234111 11.1876509,23.9384331 C10.9761374,23.802202 10.7577404,23.6840665 10.6218917,23.6175899 L10.4003299,23.5091702 L10.271225,23.2989884 C10.2312856,23.2339675 10.1658619,23.122785 10.0833005,22.9746155 C9.94705111,22.7300941 9.81093852,22.4676701 9.68320807,22.1958606 C9.5371305,21.8850086 9.41106557,21.5808476 9.31083541,21.2877565 C9.15000954,20.8174727 9.0595,20.3902343 9.0595,20.0001 C9.0595,18.5583781 10.0506679,17.6026708 11.2931032,17.4744548 C11.5834861,17.4243973 11.8421229,17.2851391 12.0706922,17.0771005 C12.254272,16.9100103 12.3740214,16.7449297 12.4181916,16.6629444 L12.5928345,16.3387847 L12.9487599,16.2444619 C13.1244225,16.19791 13.4112568,16.1029464 13.6869421,15.9752463 C13.9370267,15.8594047 14.1023572,15.7425609 14.1164744,15.7194047 C14.0981374,15.7494691 14.0909466,15.4611596 14.0196974,15.0891788 C13.9869514,14.9182168 13.944508,14.7343827 13.8946983,14.5435699 C13.8167267,14.2448735 13.738646,13.9922843 13.6888606,13.8460625 L13.6089204,13.6112747 L13.6677926,13.3703394 C13.6743681,13.3434291 13.6876754,13.2783151 13.7018335,13.1863667 C13.7383363,12.9493039 13.7516281,12.7064018 13.7301612,12.4975627 C13.7198006,12.3967707 13.7018142,12.3106055 13.6779366,12.2429357 C13.6330216,12.1156456 13.5295042,11.9597077 13.3823399,11.7990924 C13.2279663,11.6306088 13.0703985,11.500258 12.9823074,11.439017 L12.7757438,11.2954138 L12.6806133,11.0625176 C12.6539429,10.9972239 12.598414,10.8714579 12.5181895,10.706252 C12.3837982,10.4295009 12.2325727,10.1531949 12.0702776,9.89955937 C11.9816703,9.76108338 11.8930451,9.63485609 11.8060555,9.52302125 C8.69758616,11.9575229 6.7,15.7454169 6.7,20 C6.7,23.6139967 8.14134188,26.8912577 10.4805621,29.2883194 Z M20,5 C28.284442,5 35,11.715558 35,20 C35,28.284442 28.284442,35 20,35 C11.715558,35 5,28.284442 5,20 C5,11.715558 11.715558,5 20,5 Z M28.5012275,18.69779 C28.8323792,18.8367 29.163087,18.9886947 29.4757044,19.1512771 C30.114634,19.4835641 30.5982635,19.8136413 30.9036029,20.1865058 C31.0082671,20.3143162 31.0931451,20.4490255 31.1545742,20.5947766 C31.6523758,21.7758959 30.5518651,24.1972115 29.383829,24.7804641 C28.5967629,25.1732179 27.9738761,25.6894907 27.7406127,26.0559291 C27.7132996,26.0988914 27.3802298,26.9943222 27.2783364,27.2319274 C26.8868288,28.1448839 26.4497053,28.7483806 25.7573624,29.0193299 C25.6528861,29.0602611 25.4665232,29.1679136 25.194408,29.3476233 C25.02472,29.4596882 24.355715,29.9197055 24.2754449,29.9740099 C24.0177884,30.1483199 23.7982246,30.2913512 23.5854368,30.4216279 C22.5193009,31.0743564 21.7118275,31.3638887 20.9400352,31.1512316 C19.1284732,30.6509546 18.9572682,27.2850277 20.0896106,25.5287706 C20.1465179,25.4403801 20.1708633,25.1516786 20.1169285,24.7188132 C20.0933365,24.5294707 20.058241,24.3281942 20.0058727,24.0690624 C19.9933892,24.0072909 19.923123,23.6697318 19.9055006,23.5802825 C19.8671279,23.3855071 19.8448476,23.2460498 19.8356562,23.1181902 C19.8434191,23.2265103 19.8251919,23.1960253 19.7628211,23.124909 C19.6540826,23.0009234 19.5362275,22.8853272 19.2364923,22.6031071 C18.32762,21.7471616 18.1053697,21.4869096 18.1043,20.8839 C18.1043,20.3577138 18.3776907,19.7628796 18.8685488,18.9885436 C18.9770061,18.8174506 19.0949675,18.6407149 19.2210254,18.4595026 C19.4414999,18.1425635 19.6763622,17.8264672 19.911129,17.5248444 C20.0523279,17.3434354 20.1630543,17.2060094 20.2284506,17.1269847 L20.3842847,16.938675 L20.6163446,16.8619088 C20.7896473,16.8045797 21.0618593,16.7212167 21.3757724,16.6375124 C21.5204449,16.5989357 21.6614102,16.5639051 21.797164,16.5332253 C22.3801028,16.4014833 22.7991197,16.3535115 23.1526499,16.4420779 C23.3642124,16.4947491 23.599278,16.5895746 23.869857,16.7208113 C23.949366,16.7593749 24.0310559,16.800749 24.1145533,16.8445615 C24.3016122,16.9427144 24.4745267,17.0401073 24.6157489,17.1231255 C24.6905584,17.1312152 24.777581,17.1411894 24.8745582,17.1530952 C25.2142374,17.1947972 25.5545033,17.245901 25.8760047,17.3074093 C26.44747,17.4167397 26.8991425,17.5450457 27.2309036,17.7206268 L27.4062197,17.8439963 L28.2135777,18.5806559 C28.3024725,18.6157172 28.3985774,18.6547309 28.5012275,18.69779 Z M28.6913239,20.6595036 C28.4245307,20.520753 28.1347906,20.3875872 27.8436314,20.2654531 C27.7418669,20.2227654 27.647715,20.1847084 27.5623597,20.1512978 C27.5157295,20.1331421 27.5157295,20.1331421 27.4850822,20.121417 C27.4691896,20.1153779 27.464358,20.113542 27.2761336,19.8443406 L27.1853803,19.9438037 L26.3553355,19.1864439 C26.1897876,19.1193641 25.9071032,19.0441908 25.5565614,18.9771266 C25.2765077,18.9235479 24.9722503,18.8778522 24.6674062,18.8404268 C24.4843364,18.8179515 24.3433065,18.8033995 24.2663716,18.796591 L24.065982,18.7788575 L23.8947999,18.6731826 C23.7673793,18.5945227 23.55622,18.4714115 23.3246702,18.3499136 C23.2564077,18.3140951 23.1905819,18.2807557 23.1279775,18.2503912 C22.9545641,18.1662819 22.8145271,18.109791 22.7407431,18.0914206 C22.7401282,18.0912666 22.4865616,18.1202965 22.1719069,18.1914073 C22.0586424,18.2170047 21.938487,18.2468639 21.8137706,18.2801193 C21.6549749,18.3224619 21.5075829,18.3649167 21.3835332,18.4024287 C21.3444655,18.4516608 21.3005857,18.5074424 21.2526585,18.5690181 C21.0353159,18.8482547 20.8180689,19.1406428 20.6165746,19.4302974 C20.5037513,19.5924846 20.3991219,19.7492456 20.3043679,19.8987214 C20.0103492,20.3625403 19.8304381,20.7418046 19.8069308,20.8603368 C19.80836,20.7587739 19.8218802,20.7785439 19.8649964,20.8290325 C19.9712709,20.9534784 20.1023035,21.0832895 20.3852296,21.3497404 C21.2918272,22.2033619 21.4899135,22.4292236 21.5311552,22.9945544 C21.5340967,23.0358829 21.5476122,23.1205833 21.57344,23.2516823 C21.5889226,23.3302704 21.6580061,23.6621473 21.6721863,23.7323147 C21.732297,24.0297577 21.7740652,24.2693035 21.8038839,24.5086195 C21.9032106,25.3057877 21.8501843,25.9346056 21.5186868,26.449499 C20.9125519,27.3896113 21.0152341,29.4083656 21.3920917,29.5124379 C21.548185,29.5554473 22.0218509,29.385607 22.6977828,28.971776 C22.8855692,28.8568061 23.0848037,28.727018 23.3228705,28.5659609 C23.3915019,28.5195304 24.0720378,28.0515842 24.2575637,27.9290596 C24.623856,27.6871538 24.8904527,27.5331542 25.1375283,27.4363563 C25.2761904,27.3820906 25.4919769,27.0841739 25.7159389,26.5619169 C25.7485084,26.485968 26.1655621,25.3647533 26.3062544,25.1434511 C26.7201781,24.4932092 27.5796009,23.7808861 28.6245672,23.2594377 C29.0320406,23.0559679 29.708281,21.5716044 29.589881,21.2596606 C29.4682946,21.1169843 29.1395233,20.8925978 28.6913239,20.6595036 Z" id="Combined-Shape" fill="#000000" fill-rule="nonzero"></path>
    </g>
</svg>