<?xml version="1.0" encoding="UTF-8"?>
<svg width="32px" height="32px" viewBox="0 0 32 32" version="1.1" xmlns="http://www.w3.org/2000/svg" xmlns:xlink="http://www.w3.org/1999/xlink">
    <!-- Generator: Sketch 48.2 (47327) - http://www.bohemiancoding.com/sketch -->
    <title>Combined Shape</title>
    <desc>Created with Sketch.</desc>
    <defs></defs>
    <g id="Artboard-Copy-230" stroke="none" stroke-width="1" fill="none" fill-rule="evenodd" transform="translate(-3.000000, -3.000000)">
        <path d="M4.85,34.3520815 L3.64791847,33.15 L33.15,3.64791847 L34.3520815,4.85 L4.85,34.3520815 Z M4.85,26.5451815 L3.64791847,25.3431 L25.343,3.64801847 L26.5450815,4.8501 L4.85,26.5451815 Z M4.85,18.7382815 L3.64791847,17.5362 L17.536,3.64811847 L18.7380815,4.8502 L4.85,18.7382815 Z M4.85,10.9313815 L3.64791847,9.7293 L9.729,3.64821847 L10.9310815,4.8503 L4.85,10.9313815 Z M12.6569,34.3520815 L11.4548185,33.15 L33.1499,11.4549185 L34.3519815,12.657 L12.6569,34.3520815 Z M20.9517,33.8641815 L19.7496185,32.6621 L32.6617,19.7500185 L33.8637815,20.9521 L20.9517,33.8641815 Z M28.2707,34.3520815 L27.0686185,33.15 L33.1497,27.0689185 L34.3517815,28.271 L28.2707,34.3520815 Z" id="Combined-Shape" fill="#000000" fill-rule="nonzero"></path>
    </g>
</svg>