<?xml version="1.0" encoding="UTF-8"?>
<svg width="14px" height="14px" viewBox="0 0 14 14" version="1.1" xmlns="http://www.w3.org/2000/svg" xmlns:xlink="http://www.w3.org/1999/xlink">
    <!-- Generator: Sketch 48.2 (47327) - http://www.bohemiancoding.com/sketch -->
    <title>Combined Shape</title>
    <desc>Created with Sketch.</desc>
    <defs></defs>
    <g id="Page-1" stroke="none" stroke-width="1" fill="none" fill-rule="evenodd">
        <path d="M14,0.792 L14,6.56538932 C14,7.00279884 13.6454095,7.35738932 13.208,7.35738932 C12.9979485,7.35738932 12.7965002,7.2739467 12.6479714,7.12541789 L6.87458211,1.35202857 C6.56528687,1.04273333 6.56528687,0.541266668 6.87458211,0.231971429 C7.02311092,0.0834426176 7.22455922,3.85858272e-17 7.43461068,0 L13.208,-2.22044605e-16 C13.6454095,8.61022673e-17 14,0.354590478 14,0.792 Z M0.792,14 C0.354590478,14 -5.74550854e-17,13.6454095 -1.11022302e-16,13.208 L-4.4408921e-16,7.43461068 C-5.63094682e-16,7.22455922 0.0834426176,7.02311092 0.231971429,6.87458211 C0.541266668,6.56528687 1.04273333,6.56528687 1.35202857,6.87458211 L7.12541789,12.6479714 C7.2739467,12.7965002 7.35738932,12.9979485 7.35738932,13.208 C7.35738932,13.6454095 7.00279884,14 6.56538932,14 L0.792,14 Z" id="Combined-Shape" fill="#000000" fill-rule="nonzero"></path>
    </g>
</svg>