<?xml version="1.0" encoding="UTF-8"?>
<svg width="25px" height="30px" viewBox="0 0 25 30" version="1.1" xmlns="http://www.w3.org/2000/svg" xmlns:xlink="http://www.w3.org/1999/xlink">
    <!-- Generator: Sketch 49 (51002) - http://www.bohemiancoding.com/sketch -->
    <title>Combined Shape</title>
    <desc>Created with Sketch.</desc>
    <defs></defs>
    <g id="Page-1" stroke="none" stroke-width="1" fill="none" fill-rule="evenodd">
        <g id="Artboard-Copy-294" transform="translate(-8.000000, -5.000000)" fill="#000000" fill-rule="nonzero">
            <path d="M10.2002,18.7571381 L10.2002,23.121 C10.2002,28.717558 14.782642,33.3 20.3792,33.3 C25.975758,33.3 30.5582,28.717558 30.5582,23.121 L30.5582,17.8214543 L26.33041,14.85683 C26.004761,14.9907884 25.5828888,15.1411727 25.0718916,15.2897374 C21.9838243,16.1875465 18.3905353,16.223972 14.5260649,14.8570951 L10.2002,18.7571381 Z M10.2087648,16.4605212 L13.7688348,13.2508911 C14.0060943,13.0369865 14.3432525,12.9741693 14.6416254,13.0882783 C18.3213797,14.4955543 21.7141689,14.4955543 24.5972935,13.6573292 C25.0122564,13.536685 25.3763923,13.4082023 25.6857395,13.280925 C25.8640536,13.2075597 25.9799013,13.1534808 26.0293137,13.1278249 C26.3105177,12.9818183 26.6495901,13.0043389 26.9090141,13.186253 L30.4894012,15.6969034 C29.8985874,10.6513665 25.5761217,6.7 20.3792,6.7 C14.9227896,6.7 10.4303406,11.055811 10.2087648,16.4605212 Z M20.3792,35 C13.843758,35 8.5002,29.656442 8.5002,23.121 L8.5002,16.879 C8.5002,10.343558 13.843758,5 20.3792,5 C26.914642,5 32.2582,10.343558 32.2582,16.879 L32.2582,23.121 C32.2582,29.656442 26.914642,35 20.3792,35 Z M16.4513195,27.9741844 C16.1301745,27.6317786 16.1474098,27.0938645 16.4898156,26.7727195 C16.8322214,26.4515745 17.3701355,26.4688098 17.6912805,26.8112156 C17.8275152,26.9564694 18.1146712,27.2030593 18.5197545,27.4534645 C20.1224829,28.4442029 21.8415055,28.4442029 23.6929556,26.7633626 C24.040529,26.4478178 24.5780926,26.4737821 24.8936374,26.8213556 C25.2091822,27.168929 25.1832179,27.7064926 24.8356444,28.0220374 C22.3704279,30.260086 19.8269319,30.260086 17.6258825,28.8994911 C17.0800214,28.562063 16.6826403,28.2208194 16.4513195,27.9741844 Z" id="Combined-Shape"></path>
        </g>
    </g>
</svg>