<?xml version="1.0" encoding="UTF-8"?>
<svg width="25px" height="30px" viewBox="0 0 25 30" version="1.1" xmlns="http://www.w3.org/2000/svg" xmlns:xlink="http://www.w3.org/1999/xlink">
    <!-- Generator: Sketch 49 (51002) - http://www.bohemiancoding.com/sketch -->
    <title>Combined Shape</title>
    <desc>Created with Sketch.</desc>
    <defs></defs>
    <g id="Page-1" stroke="none" stroke-width="1" fill="none" fill-rule="evenodd">
        <g id="Artboard-Copy-288" transform="translate(-8.000000, -5.000000)" fill="#000000" fill-rule="nonzero">
            <path d="M20.3792,35 C13.843758,35 8.5002,29.656442 8.5002,23.121 L8.5002,16.879 C8.5002,10.343558 13.843758,5 20.3792,5 C26.914642,5 32.2582,10.343558 32.2582,16.879 L32.2582,23.121 C32.2582,29.656442 26.914642,35 20.3792,35 Z M20.3792,33.3 C25.975758,33.3 30.5582,28.717558 30.5582,23.121 L30.5582,16.879 C30.5582,11.282442 25.975758,6.7 20.3792,6.7 C14.782642,6.7 10.2002,11.282442 10.2002,16.879 L10.2002,23.121 C10.2002,28.717558 14.782642,33.3 20.3792,33.3 Z M16.3446195,27.7307844 C16.0234745,27.3883786 16.0407098,26.8504645 16.3831156,26.5293195 C16.7255214,26.2081745 17.2634355,26.2254098 17.5845805,26.5678156 C17.7208152,26.7130694 18.0079712,26.9596593 18.4130545,27.2100645 C20.0157829,28.2008029 21.7348055,28.2008029 23.5862556,26.5199626 C23.933829,26.2044178 24.4713926,26.2303821 24.7869374,26.5779556 C25.1024822,26.925529 25.0765179,27.4630926 24.7289444,27.7786374 C22.2637279,30.016686 19.7202319,30.016686 17.5191825,28.6560911 C16.9733214,28.318663 16.5759403,27.9774194 16.3446195,27.7307844 Z" id="Combined-Shape"></path>
        </g>
    </g>
</svg>