<?xml version="1.0" encoding="UTF-8"?>
<svg width="27px" height="31px" viewBox="0 0 27 31" version="1.1" xmlns="http://www.w3.org/2000/svg" xmlns:xlink="http://www.w3.org/1999/xlink">
    <!-- Generator: Sketch 48.2 (47327) - http://www.bohemiancoding.com/sketch -->
    <title>Combined Shape</title>
    <desc>Created with Sketch.</desc>
    <defs></defs>
    <g id="Artboard-Copy-182" stroke="none" stroke-width="1" fill="none" fill-rule="evenodd" transform="translate(-6.000000, -4.000000)">
        <path d="M6.41176831,31.5762925 C5.9651398,31.2514211 5.86643616,30.6259968 6.19130755,30.1793683 C6.51617894,29.7327398 7.14160318,29.6340362 7.58823169,29.9589075 C10.4930868,32.0718589 14.315112,32.2613903 19.1579169,30.4508813 C24.6368435,28.4032233 29.2153843,29.1039558 32.7058854,32.5922719 C33.0965319,32.9826739 33.0967301,33.6158388 32.7063281,34.0064854 C32.3159261,34.3971319 31.6827612,34.3973301 31.2921146,34.0069281 C28.3929563,31.1095846 24.6437037,30.5357722 19.8581834,32.3242812 C14.4355077,34.351578 9.91930031,34.1276227 6.41176831,31.5762925 Z M26.4259549,4.30339509 L29.0319549,6.98739509 C29.4112175,7.37800931 29.4083026,8.00025223 29.0253971,8.38729606 L13.3883971,24.1932961 C13.2800961,24.3027676 13.1479761,24.3857485 13.0023364,24.4357702 L8.65833637,25.9277702 C7.84300618,26.2078054 7.07910558,25.3939195 7.41018776,24.5979499 L9.14718776,20.4219499 C9.19674022,20.3028186 9.26887899,20.1944025 9.35962541,20.1026812 L24.9976254,4.29668121 C25.3915862,3.89848805 26.0357549,3.90151597 26.4259549,4.30339509 Z M10.9187809,21.3704363 L10.1101761,23.3144396 L12.1312506,22.6202768 L26.9143157,7.6774408 L25.7017848,6.42861772 L10.9187809,21.3704363 Z" id="Combined-Shape" fill="#000000" fill-rule="nonzero"></path>
    </g>
</svg>