<?xml version="1.0" encoding="UTF-8"?>
<svg width="28px" height="32px" viewBox="0 0 28 32" version="1.1" xmlns="http://www.w3.org/2000/svg" xmlns:xlink="http://www.w3.org/1999/xlink">
    <!-- Generator: Sketch 49 (51002) - http://www.bohemiancoding.com/sketch -->
    <title>Stroke 3</title>
    <desc>Created with Sketch.</desc>
    <defs></defs>
    <g id="Page-1" stroke="none" stroke-width="1" fill="none" fill-rule="evenodd">
        <g id="Artboard-Copy-387" transform="translate(-6.000000, -4.000000)" fill="#000000" fill-rule="nonzero">
            <path d="M20.4999844,8.11709972 L20.4999844,6.95039972 L19.4999844,6.95039972 L19.4999844,8.11709972 L18.4999844,8.11709972 L18.4999844,9.11709972 L19.4999844,9.11709972 L19.4999844,11.0613997 L20.4999844,11.0613997 L20.4999844,9.11709972 L21.4999844,9.11709972 L21.4999844,8.11709972 L20.4999844,8.11709972 Z M13.7093301,34.962152 C12.2850573,35.4084785 10.7688875,35.6975513 9.25426786,35.8624208 C8.72504599,35.9200277 8.23310478,35.9580978 7.79039349,35.9804184 C7.52146043,35.9939775 7.3261775,35.9992588 7.21658779,35.9999812 C6.69617307,36.003412 6.29489408,35.5425832 6.36984583,35.0275827 C6.50940733,34.0686426 6.64005349,33.0689264 6.76204869,32.0326463 C7.1681028,28.5834466 7.46289688,24.8837779 7.66389162,21.1835294 C7.73426381,19.8879999 7.78786833,18.6851515 7.8269358,17.6060459 C7.84059648,17.2287162 7.85146196,16.8939355 7.85981188,16.6055825 C7.86480404,16.4331853 7.86784066,16.3149589 7.86898439,16.2739997 C7.86898439,9.52139098 13.389709,3.99999972 20.1419844,3.99999972 C26.8942598,3.99999972 32.4149844,9.52139098 32.4149844,16.2739997 C32.4145723,16.3157738 32.4145723,16.3157738 32.4134421,16.4787212 C32.4068248,17.6112791 32.4180514,19.1263761 32.4615913,20.885021 C32.5271809,23.5342832 32.6539149,26.1502625 32.855983,28.5928046 C33.0490257,30.92625 33.3034638,33.0024251 33.6249751,34.7513132 C33.7158499,35.2456344 33.3602848,35.7104359 32.859408,35.7520774 C32.8116055,35.7560515 32.7290368,35.7613886 32.6142895,35.7665213 C30.3849926,35.8662401 27.6612094,35.5436624 25.0165637,34.4284651 C24.1914981,34.0805505 23.4115862,33.664818 22.6846648,33.1763427 L17.5031379,33.1437772 C16.4480374,33.9070936 15.1672541,34.5052801 13.7093301,34.962152 Z M12.3769844,15.2511364 L12.3769844,21.1939997 C12.3769844,25.4625577 15.8734264,28.9589997 20.1419844,28.9589997 C24.4105424,28.9589997 27.9069844,25.4625577 27.9069844,21.1939997 L27.9069844,15.2350002 C23.4925925,12.6375288 18.805259,12.6862605 14.3789364,14.3518731 C13.7124324,14.6026767 13.1136567,14.8709119 12.5930727,15.1380404 C12.5145334,15.1783415 12.4424461,15.216145 12.3769844,15.2511364 Z" id="Stroke-3"></path>
        </g>
    </g>
</svg>