<?xml version="1.0" encoding="UTF-8"?>
<svg width="18px" height="16px" viewBox="0 0 18 16" version="1.1" xmlns="http://www.w3.org/2000/svg" xmlns:xlink="http://www.w3.org/1999/xlink">
    <!-- Generator: Sketch 48.2 (47327) - http://www.bohemiancoding.com/sketch -->
    <title>Combined Shape</title>
    <desc>Created with Sketch.</desc>
    <defs></defs>
    <g id="Artboard-Copy-91" stroke="none" stroke-width="1" fill="none" fill-rule="evenodd" transform="translate(0.000000, -1.000000)">
        <path d="M4.04008179,16.4544354 L0.0880817922,9.34043545 C-0.0293533825,9.12904024 -0.0293610508,8.87200327 0.0880615104,8.66060107 L4.04006151,1.54560107 C4.1635118,1.32334682 4.39776207,1.1855 4.652,1.1855 L13.347,1.1855 C13.601211,1.1855 13.8354409,1.32331789 13.958902,1.54553534 L17.911902,8.66053534 C18.0293732,8.8719717 18.0293656,9.12907183 17.9118817,9.34050117 L13.9588817,16.4545012 C13.8354146,16.6766982 13.601196,16.8145 13.347,16.8145 L4.652,16.8145 C4.39777703,16.8145 4.16353808,16.6766693 4.04008179,16.4544354 Z M5.06389359,15.4145 L12.935157,15.4145 L16.4992049,9.00047611 L12.9351289,2.5855 L5.06392171,2.5855 L1.50074734,9.00047611 L5.06389359,15.4145 Z M8.9996,5.1383 C11.1321993,5.1383 12.8616,6.86770068 12.8616,9.0003 C12.8616,11.1328993 11.1321993,12.8623 8.9996,12.8623 C6.86700068,12.8623 5.1376,11.1328993 5.1376,9.0003 C5.1376,6.86770068 6.86700068,5.1383 8.9996,5.1383 Z M8.9996,6.5383 C7.64019932,6.5383 6.5376,7.64089932 6.5376,9.0003 C6.5376,10.3597007 7.64019932,11.4623 8.9996,11.4623 C10.3590007,11.4623 11.4616,10.3597007 11.4616,9.0003 C11.4616,7.64089932 10.3590007,6.5383 8.9996,6.5383 Z" id="Combined-Shape" fill="#000000" fill-rule="nonzero"></path>
    </g>
</svg>