<?xml version="1.0" encoding="UTF-8"?>
<svg width="14px" height="14px" viewBox="0 0 14 14" version="1.1" xmlns="http://www.w3.org/2000/svg" xmlns:xlink="http://www.w3.org/1999/xlink">
    <!-- Generator: Sketch 48.2 (47327) - http://www.bohemiancoding.com/sketch -->
    <title>Combined Shape</title>
    <desc>Created with Sketch.</desc>
    <defs></defs>
    <g id="Artboard-Copy-90" stroke="none" stroke-width="1" fill="none" fill-rule="evenodd">
        <path d="M3.12351465,12.776902 L0.0755146539,7.29090199 C-0.0251795741,7.1096656 -0.0251710457,6.88928602 0.0755372093,6.70805741 L3.12353721,1.22305741 C3.22936827,1.03261012 3.430123,0.9145 3.648,0.9145 L10.353,0.9145 C10.5709069,0.9145 10.7716843,1.03264228 10.8775034,1.22313048 L13.9245034,6.70813048 C14.0251575,6.88932113 14.025166,7.10963049 13.9245259,7.29082893 L10.8775259,12.7768289 C10.7717135,12.9673399 10.5709236,13.0855 10.353,13.0855 L3.648,13.0855 C3.43010637,13.0855 3.22933905,12.967372 3.12351465,12.776902 Z M9.99991423,11.8855 L12.7136512,6.99952656 L9.99994549,2.1145 L4.00099825,2.1145 L1.2864019,6.99952656 L4.00102951,11.8855 L9.99991423,11.8855 Z M7.0004,3.9617 C8.67846358,3.9617 10.0384,5.32202178 10.0384,6.9997 C10.0384,8.67807085 8.67877085,10.0377 7.0004,10.0377 C5.32202915,10.0377 3.9624,8.67807085 3.9624,6.9997 C3.9624,5.32202178 5.32233642,3.9617 7.0004,3.9617 Z M7.0004,5.1617 C5.98515424,5.1617 5.1624,5.98468738 5.1624,6.9997 C5.1624,8.01532915 5.98477085,8.8377 7.0004,8.8377 C8.01602915,8.8377 8.8384,8.01532915 8.8384,6.9997 C8.8384,5.98468738 8.01564576,5.1617 7.0004,5.1617 Z" id="Combined-Shape" fill="#000000" fill-rule="nonzero"></path>
    </g>
</svg>