<svg id="Calque_1" data-name="Calque 1" xmlns="http://www.w3.org/2000/svg" viewBox="0 0 14 16"><title>parameters</title><path d="M10.53,3.25a3,3,0,0,1,.9.15V1a.9.9,0,0,0-1.8,0V3.41A3,3,0,0,1,10.53,3.25Z"/><path d="M10.53,9.25a3,3,0,0,1-.9-.15V15a.9.9,0,0,0,1.8,0V9.09A3,3,0,0,1,10.53,9.25Z"/><ellipse cx="10.53" cy="6.25" rx="1.93" ry="1.91"/><path d="M3.47,12.75a3,3,0,0,1-.9-.15V15a.9.9,0,1,0,1.8,0V12.59A3,3,0,0,1,3.47,12.75Z"/><path d="M3.47,6.75a3,3,0,0,1,.9.15V1a.9.9,0,0,0-1.8,0V6.91A3,3,0,0,1,3.47,6.75Z"/><ellipse cx="3.47" cy="9.75" rx="1.93" ry="1.91"/></svg>