<?xml version="1.0" encoding="UTF-8"?>
<svg width="26px" height="30px" viewBox="0 0 26 30" version="1.1" xmlns="http://www.w3.org/2000/svg" xmlns:xlink="http://www.w3.org/1999/xlink">
    <!-- Generator: Sketch 48.2 (47327) - http://www.bohemiancoding.com/sketch -->
    <title>Combined Shape</title>
    <desc>Created with Sketch.</desc>
    <defs></defs>
    <g id="Artboard-Copy-236" stroke="none" stroke-width="1" fill="none" fill-rule="evenodd" transform="translate(-6.000000, -4.000000)">
        <path d="M28.526,34 L9.474,34 C7.95555796,34 6.716,32.760442 6.716,31.242 L6.716,6.758 C6.716,5.23955796 7.95555796,4 9.474,4 L28.526,4 C30.0451661,4 31.284,5.23928183 31.284,6.758 L31.284,31.242 C31.284,32.7607182 30.0451661,34 28.526,34 Z M28.526,32.3 C29.1061444,32.3 29.584,31.8219716 29.584,31.242 L29.584,6.758 C29.584,6.17802837 29.1061444,5.7 28.526,5.7 L9.474,5.7 C8.89444204,5.7 8.416,6.17844204 8.416,6.758 L8.416,31.242 C8.416,31.821558 8.89444204,32.3 9.474,32.3 L28.526,32.3 Z M22.0667,10.6872 L22.0667,8.9872 L26.9377,8.9872 L26.9377,10.6872 L22.0667,10.6872 Z M19.0326,20.9335 C16.887158,20.9335 15.1486,19.194942 15.1486,17.0495 C15.1486,14.904058 16.887158,13.1655 19.0326,13.1655 C21.178042,13.1655 22.9166,14.904058 22.9166,17.0495 C22.9166,19.194942 21.178042,20.9335 19.0326,20.9335 Z M19.0326,19.2335 C20.239158,19.2335 21.2166,18.256058 21.2166,17.0495 C21.2166,15.842942 20.239158,14.8655 19.0326,14.8655 C17.826042,14.8655 16.8486,15.842942 16.8486,17.0495 C16.8486,18.256058 17.826042,19.2335 19.0326,19.2335 Z M19.0323964,27.0285 L19.0328036,28.7285 L14.8576,28.7295 C13.9000508,28.7295 13.1246,27.9528357 13.1246,26.9955 L13.1246,24.3055 C13.1246,22.860058 14.295158,21.6895 15.7404696,21.6895 L22.2596,21.6885 C23.7050002,21.6885 24.8756,22.8600158 24.8756,24.3055 L24.8756,27.8785 L23.1756,27.8785 L23.1756,24.3055 C23.1756,23.7986023 22.7658183,23.3885 22.2597304,23.3885 L15.7406,23.3895 C15.234042,23.3895 14.8246,23.798942 14.8246,24.3055 L14.8246,26.9955 C14.8246,27.0145462 14.8395305,27.0295 14.8573964,27.0295 L19.0323964,27.0285 Z" id="Combined-Shape" fill="#000000" fill-rule="nonzero"></path>
    </g>
</svg>