<?xml version="1.0" encoding="UTF-8"?>
<svg id="people" width="14px" height="14px" viewBox="0 0 14 14" version="1.1" xmlns="http://www.w3.org/2000/svg" xmlns:xlink="http://www.w3.org/1999/xlink">
    <!-- Generator: Sketch 49 (51002) - http://www.bohemiancoding.com/sketch -->
    <title>Combined Shape</title>
    <desc>Created with Sketch.</desc>
    <defs></defs>
    <g id="Page-1" stroke="none" stroke-width="1" fill-rule="evenodd">
        <g id="Artboard-Copy-93" fill-rule="nonzero">
            <path d="M8.4,8.80315 L12.185,8.80315 C13.0771424,8.80315 13.8,9.52600763 13.8,10.41815 L13.8,13.34615 L12.8,13.34615 L12.8,10.41815 C12.8,10.0782924 12.5248576,9.80315 12.185,9.80315 L8.4,9.80315 L8.4,11.57475 L7.4,11.57475 L7.4,8.64675 C7.4,8.30689237 7.12485763,8.03175 6.785,8.03175 L1.815,8.03175 C1.47514237,8.03175 1.2,8.30689237 1.2,8.64675 L1.2,10.51675 C1.2,10.5486076 1.22614237,10.57475 1.258,10.57475 L4.8,10.57475 L4.8,11.57475 L1.258,11.57475 C0.673857625,11.57475 0.2,11.1008924 0.2,10.51675 L0.2,8.64675 C0.2,7.75460763 0.922857625,7.03175 1.815,7.03175 L6.785,7.03175 C7.67714237,7.03175 8.4,7.75460763 8.4,8.64675 L8.4,8.80315 Z M4.2861,6.02385 C2.78561657,6.02385 1.5661,4.82368482 1.5661,3.33885 C1.5661,1.85401518 2.78561657,0.65385 4.2861,0.65385 C5.78658343,0.65385 7.0061,1.85401518 7.0061,3.33885 C7.0061,4.82368482 5.78658343,6.02385 4.2861,6.02385 Z M4.2861,5.02385 C5.23784736,5.02385 6.0061,4.26778805 6.0061,3.33885 C6.0061,2.40991195 5.23784736,1.65385 4.2861,1.65385 C3.33435264,1.65385 2.5661,2.40991195 2.5661,3.33885 C2.5661,4.26778805 3.33435264,5.02385 4.2861,5.02385 Z M10.2861,7.79545 C8.78561657,7.79545 7.5661,6.59528482 7.5661,5.11045 C7.5661,3.62561518 8.78561657,2.42545 10.2861,2.42545 C11.7865834,2.42545 13.0061,3.62561518 13.0061,5.11045 C13.0061,6.59528482 11.7865834,7.79545 10.2861,7.79545 Z M10.2861,6.79545 C11.2378474,6.79545 12.0061,6.03938805 12.0061,5.11045 C12.0061,4.18151195 11.2378474,3.42545 10.2861,3.42545 C9.33435264,3.42545 8.5661,4.18151195 8.5661,5.11045 C8.5661,6.03938805 9.33435264,6.79545 10.2861,6.79545 Z" id="Combined-Shape"></path>
        </g>
    </g>
</svg>