<?xml version="1.0" encoding="UTF-8"?>
<svg width="30px" height="28px" viewBox="0 0 30 28" version="1.1" xmlns="http://www.w3.org/2000/svg" xmlns:xlink="http://www.w3.org/1999/xlink">
    <!-- Generator: Sketch 48.2 (47327) - http://www.bohemiancoding.com/sketch -->
    <title>Combined Shape</title>
    <desc>Created with Sketch.</desc>
    <defs></defs>
    <g id="Artboard-Copy-128" stroke="none" stroke-width="1" fill="none" fill-rule="evenodd" transform="translate(-4.000000, -5.000000)">
        <path d="M21.8717,23.3035 L30.6451,23.3035 C32.497542,23.3035 34.0001,24.806058 34.0001,26.6585 L34.0001,32.9615 L32.3001,32.9615 L32.3001,26.6585 C32.3001,25.744942 31.558658,25.0035 30.6451,25.0035 L21.8717,25.0035 L21.8717,28.9825 L20.1717,28.9825 L20.1717,22.6795 C20.1717,21.7658399 19.4301557,21.0245 18.5157,21.0245 L7.3557,21.0245 C6.44124426,21.0245 5.6997,21.7658399 5.6997,22.6795 L5.6997,26.8795 C5.6997,27.102058 5.88014204,27.2825 6.1027,27.2825 L13.7857,27.2825 L13.7857,28.9825 L6.1027,28.9825 C4.94125796,28.9825 3.9997,28.040942 3.9997,26.8795 L3.9997,22.6795 C3.9997,20.8268509 5.50246508,19.3245 7.3557,19.3245 L18.5157,19.3245 C20.3689349,19.3245 21.8717,20.8268509 21.8717,22.6795 L21.8717,23.3035 Z M12.9046,16.5149 C9.6842882,16.5149 7.0686,13.9405236 7.0686,10.7579 C7.0686,7.57445828 9.6841048,4.9999 12.9046,4.9999 C16.1250952,4.9999 18.7406,7.57445828 18.7406,10.7579 C18.7406,13.9405236 16.1249118,16.5149 12.9046,16.5149 Z M12.9046,14.8149 C15.1920323,14.8149 17.0406,12.9955283 17.0406,10.7579 C17.0406,8.51939908 15.1921631,6.6999 12.9046,6.6999 C10.6170369,6.6999 8.7686,8.51939908 8.7686,10.7579 C8.7686,12.9955283 10.6171677,14.8149 12.9046,14.8149 Z M26.3808,20.4939 C23.1604882,20.4939 20.5448,17.9195236 20.5448,14.7369 C20.5448,11.5534583 23.1603048,8.9789 26.3808,8.9789 C29.6012952,8.9789 32.2168,11.5534583 32.2168,14.7369 C32.2168,17.9195236 29.6011118,20.4939 26.3808,20.4939 Z M26.3808,18.7939 C28.6682323,18.7939 30.5168,16.9745283 30.5168,14.7369 C30.5168,12.4983991 28.6683631,10.6789 26.3808,10.6789 C24.0932369,10.6789 22.2448,12.4983991 22.2448,14.7369 C22.2448,16.9745283 24.0933677,18.7939 26.3808,18.7939 Z" id="Combined-Shape" fill="#000000" fill-rule="nonzero"></path>
    </g>
</svg>