<?xml version="1.0" encoding="UTF-8"?>
<svg id="people-medium" width="18px" height="18px" viewBox="0 0 18 18" version="1.1" xmlns="http://www.w3.org/2000/svg" xmlns:xlink="http://www.w3.org/1999/xlink">
    <!-- Generator: Sketch 48.2 (47327) - http://www.bohemiancoding.com/sketch -->
    <title>Combined Shape</title>
    <desc>Created with Sketch.</desc>
    <defs></defs>
    <g id="Artboard-Copy-94" stroke="none" stroke-width="1"  fill-rule="evenodd">
        <path d="M10.88575,11.33405 L15.83025,11.33405 C17.0288493,11.33405 18.00025,12.3054507 18.00025,13.50405 L18.00025,16.70205 C18.00025,17.0886493 17.6868493,17.40205 17.30025,17.40205 C16.9136507,17.40205 16.60025,17.0886493 16.60025,16.70205 L16.60025,13.50405 C16.60025,13.0786493 16.2556507,12.73405 15.83025,12.73405 L10.88575,12.73405 L10.88575,14.36805 C10.88575,14.7546493 10.5723493,15.06805 10.18575,15.06805 C9.79915068,15.06805 9.48575,14.7546493 9.48575,14.36805 L9.48575,11.17005 C9.48575,10.7446493 9.14115068,10.40005 8.71575,10.40005 L2.16975,10.40005 C1.74434932,10.40005 1.39975,10.7446493 1.39975,11.17005 L1.39975,13.63305 C1.39975,13.6524507 1.41534932,13.66805 1.43475,13.66805 L5.44275,13.66805 C5.82934932,13.66805 6.14275,13.9814507 6.14275,14.36805 C6.14275,14.7546493 5.82934932,15.06805 5.44275,15.06805 L1.43475,15.06805 C0.642150675,15.06805 -0.00025,14.4256493 -0.00025,13.63305 L-0.00025,11.17005 C-0.00025,9.97145068 0.971150675,9.00005 2.16975,9.00005 L8.71575,9.00005 C9.91434932,9.00005 10.88575,9.97145068 10.88575,11.17005 L10.88575,11.33405 Z M5.42445,7.75495 C3.42518756,7.75495 1.79945,6.15493249 1.79945,4.17595 C1.79945,2.19777459 3.42538164,0.59795 5.42445,0.59795 C7.42351836,0.59795 9.04945,2.19777459 9.04945,4.17595 C9.04945,6.15493249 7.42371244,7.75495 5.42445,7.75495 Z M5.42445,6.35495 C6.65546707,6.35495 7.64945,5.37669242 7.64945,4.17595 C7.64945,2.97609117 6.65534684,1.99795 5.42445,1.99795 C4.19355316,1.99795 3.19945,2.97609117 3.19945,4.17595 C3.19945,5.37669242 4.19343293,6.35495 5.42445,6.35495 Z M13.32915,10.08885 C11.3298876,10.08885 9.70415,8.48883249 9.70415,6.50985 C9.70415,4.53167459 11.3300816,2.93185 13.32915,2.93185 C15.3282184,2.93185 16.95415,4.53167459 16.95415,6.50985 C16.95415,8.48883249 15.3284124,10.08885 13.32915,10.08885 Z M13.32915,8.68885 C14.5601671,8.68885 15.55415,7.71059242 15.55415,6.50985 C15.55415,5.30999117 14.5600468,4.33185 13.32915,4.33185 C12.0982532,4.33185 11.10415,5.30999117 11.10415,6.50985 C11.10415,7.71059242 12.0981329,8.68885 13.32915,8.68885 Z" id="Combined-Shape"  fill-rule="nonzero"></path>
    </g>
</svg>