<?xml version="1.0" encoding="UTF-8"?>
<svg id="person-medium" width="14px" height="18px" viewBox="0 0 14 18" version="1.1" xmlns="http://www.w3.org/2000/svg" xmlns:xlink="http://www.w3.org/1999/xlink">
    <!-- Generator: Sketch 48.2 (47327) - http://www.bohemiancoding.com/sketch -->
    <title>Combined Shape</title>
    <desc>Created with Sketch.</desc>
    <defs></defs>
    <g id="Artboard-Copy-40" stroke="none" stroke-width="1" fill-rule="evenodd" transform="translate(-3.000000, 0.000000)">
        <path d="M9.7568,8.6658 C7.36388506,8.6658 5.4238,6.72608378 5.4238,4.3328 C5.4238,1.94020068 7.36420068,-0.0002 9.7568,-0.0002 C12.1493993,-0.0002 14.0898,1.94020068 14.0898,4.3328 C14.0898,6.72608378 12.1497149,8.6658 9.7568,8.6658 Z M9.7568,7.2658 C11.3765759,7.2658 12.6898,5.95282554 12.6898,4.3328 C12.6898,2.71339932 11.3762007,1.3998 9.7568,1.3998 C8.13739932,1.3998 6.8238,2.71339932 6.8238,4.3328 C6.8238,5.95282554 8.13702413,7.2658 9.7568,7.2658 Z M9.75665997,16.5994 L9.75694003,17.9994 L4.7578,18.0004 C3.78720068,18.0004 2.9998,17.2129993 2.9998,16.2424 L2.9998,13.0214 C2.9998,11.4668007 4.26020068,10.2064 5.8148,10.2064 L13.6208,10.2064 C15.1756936,10.2064 16.4358,11.4660948 16.4358,13.0214 L16.4358,17.2994 L15.0358,17.2994 L15.0358,13.0214 C15.0358,12.2393959 14.4025973,11.6064 13.6208,11.6064 L5.8148,11.6064 C5.03339932,11.6064 4.3998,12.2399993 4.3998,13.0214 L4.3998,16.2424 C4.3998,16.4398007 4.56039932,16.6004 4.75765997,16.6004 L9.75665997,16.5994 Z" id="Combined-Shape" fill-rule="nonzero"></path>
    </g>
</svg>