<?xml version="1.0" encoding="UTF-8"?>
<svg width="30px" height="30px" viewBox="0 0 30 30" version="1.1" xmlns="http://www.w3.org/2000/svg" xmlns:xlink="http://www.w3.org/1999/xlink">
    <!-- Generator: Sketch 48.2 (47327) - http://www.bohemiancoding.com/sketch -->
    <title>Page 1</title>
    <desc>Created with Sketch.</desc>
    <defs></defs>
    <g id="Artboard-Copy-191" stroke="none" stroke-width="1" fill="none" fill-rule="evenodd" transform="translate(-4.000000, -4.000000)">
        <path d="M24.1775407,24.714603 C23.8455951,25.0465487 23.3074049,25.0465487 22.9754592,24.714603 C22.6435136,24.3826574 22.6435136,23.8444672 22.9754592,23.5125215 L26.2854592,20.2025215 C26.6174049,19.8705759 27.1555951,19.8705759 27.4875407,20.2025215 L33.4527823,26.1677641 C34.1826128,26.8957562 34.1826128,28.076531 33.4535407,28.805603 L29.6965407,32.562603 C27.7796267,34.4795171 24.6715826,34.4795171 22.7534592,32.562603 L5.4372697,15.2464135 C3.52054516,13.3284796 3.52054516,10.2204356 5.43745922,8.30352152 L9.19445922,4.54652152 C9.92353127,3.81744947 11.1043061,3.81744947 11.8314921,4.5464729 L18.0124921,10.7264729 C18.3444836,11.0584107 18.3445054,11.5966384 18.0125407,11.928603 L14.8125407,15.128603 C14.4805951,15.4605487 13.9424049,15.4605487 13.6104592,15.128603 C13.2785136,14.7966574 13.2785136,14.2584672 13.6104592,13.9265215 L16.2093699,11.3276109 L10.6287018,5.74784464 C10.5646939,5.6836751 10.4614687,5.6836751 10.3965407,5.74860305 L6.63954075,9.50560305 C5.38645481,10.758689 5.38645481,12.7906449 6.63954075,14.0445215 L23.9553512,31.360332 C25.2094173,32.6136075 27.2413733,32.6136075 28.4944592,31.3605215 L32.2514592,27.6035215 C32.3163872,27.5385936 32.3163872,27.4353684 32.2514592,27.370603 L26.8865,22.0056438 L24.1775407,24.714603 Z" id="Page-1" fill="#000000" fill-rule="nonzero"></path>
    </g>
</svg>