<?xml version="1.0" encoding="UTF-8"?>
<svg width="21px" height="30px" viewBox="0 0 21 30" version="1.1" xmlns="http://www.w3.org/2000/svg" xmlns:xlink="http://www.w3.org/1999/xlink">
    <!-- Generator: Sketch 48.2 (47327) - http://www.bohemiancoding.com/sketch -->
    <title>Combined Shape</title>
    <desc>Created with Sketch.</desc>
    <defs></defs>
    <g id="Artboard-Copy-59" stroke="none" stroke-width="1" fill="none" fill-rule="evenodd" transform="translate(-5.000000, 0.000000)">
        <path d="M22.2081,30 L8.3671,30 C6.50339948,30 5.0001,28.4632847 5.0001,26.577 L5.0001,3.423 C5.0001,1.5367153 6.50339948,-2.22044605e-15 8.3671,-2.22044605e-15 L22.2081,-2.22044605e-15 C24.0718005,-2.22044605e-15 25.5751,1.5367153 25.5751,3.423 L25.5751,26.577 C25.5751,28.4632847 24.0718005,30 22.2081,30 Z M22.2081,28.3 C23.1244497,28.3 23.8751,27.532664 23.8751,26.577 L23.8751,3.423 C23.8751,2.46733601 23.1244497,1.7 22.2081,1.7 L8.3671,1.7 C7.45075032,1.7 6.7001,2.46733601 6.7001,3.423 L6.7001,26.577 C6.7001,27.532664 7.45075032,28.3 8.3671,28.3 L22.2081,28.3 Z M15.2874,23.0857 C16.1104,23.0857 16.7774,23.7647 16.7774,24.6017 C16.7774,25.4387 16.1104,26.1177 15.2874,26.1177 C14.4644,26.1177 13.7974,25.4387 13.7974,24.6017 C13.7974,23.7647 14.4644,23.0857 15.2874,23.0857 Z" id="Combined-Shape" fill="#000000" fill-rule="nonzero"></path>
    </g>
</svg>