<?xml version="1.0" encoding="UTF-8"?>
<svg width="30px" height="27px" viewBox="0 0 30 27" version="1.1" xmlns="http://www.w3.org/2000/svg" xmlns:xlink="http://www.w3.org/1999/xlink">
    <!-- Generator: Sketch 48.2 (47327) - http://www.bohemiancoding.com/sketch -->
    <title>Combined Shape</title>
    <desc>Created with Sketch.</desc>
    <defs></defs>
    <g id="Artboard-Copy-170" stroke="none" stroke-width="1" fill="none" fill-rule="evenodd" transform="translate(-4.000000, -6.000000)">
        <path d="M11.0350912,13.5467 L29.3767,13.5467 C31.9308315,13.5467 33.9997,15.6159473 33.9997,18.1697 C33.9997,20.7242633 31.9310209,22.7937 29.3767,22.7937 L26.0849531,22.7937 L20.6725622,31.8140328 C20.5189458,32.0700509 20.2422687,32.2267 19.9437,32.2267 L12.3967,32.2267 C11.7359938,32.2267 11.3278985,31.5059129 11.6678378,30.9393672 L16.5554109,22.7937 L8.6237,22.7937 C8.25785074,22.7937 7.93304354,22.5596053 7.81733344,22.2125363 L4.04333344,10.8925363 C3.85983113,10.3421266 4.26950698,9.7737 4.8497,9.7737 L8.6237,9.7737 C8.94568871,9.7737 9.24003621,9.95563832 9.38400341,10.2436491 L11.0350912,13.5467 Z M24.8748378,21.5063672 C25.0284542,21.2503491 25.3051313,21.0937 25.6037,21.0937 L29.3767,21.0937 C30.9919974,21.0937 32.2997,19.7855185 32.2997,18.1697 C32.2997,16.5547618 30.9918777,15.2467 29.3767,15.2467 L10.5097,15.2467 C10.1877113,15.2467 9.89336379,15.0647617 9.74939659,14.7767509 L8.09830884,11.4737 L6.02907789,11.4737 L9.23631111,21.0937 L18.0567,21.0937 C18.7174062,21.0937 19.1255015,21.8144871 18.7855622,22.3810328 L13.8979891,30.5267 L19.4624469,30.5267 L24.8748378,21.5063672 Z M17.310435,11.0034107 L15.7899893,11.763835 L13.5227772,7.23061215 C13.2401167,6.66544097 13.6510859,6.0004 14.283,6.0004 L19.943,6.0004 C20.2649238,6.0004 20.5592236,6.18226572 20.7032228,6.47018785 L22.970435,11.0034107 L21.4499893,11.763835 L19.4177334,7.7004 L15.6584919,7.7004 L17.310435,11.0034107 Z" id="Combined-Shape" fill="#000000" fill-rule="nonzero"></path>
    </g>
</svg>