<?xml version="1.0" encoding="UTF-8"?>
<svg width="10px" height="10px" viewBox="0 0 10 10" version="1.1" xmlns="http://www.w3.org/2000/svg" xmlns:xlink="http://www.w3.org/1999/xlink">
    <!-- Generator: Sketch 48.2 (47327) - http://www.bohemiancoding.com/sketch -->
    <title>Combined Shape</title>
    <desc>Created with Sketch.</desc>
    <defs></defs>
    <g id="Artboard-Copy-60" stroke="none" stroke-width="1" fill="none" fill-rule="evenodd" transform="translate(-2.000000, -2.000000)">
        <path d="M7.7,6.3 L11,6.3 C11.3865993,6.3 11.7,6.61340068 11.7,7 C11.7,7.38659932 11.3865993,7.7 11,7.7 L7.7,7.7 L7.7,11 C7.7,11.3865993 7.38659932,11.7 7,11.7 C6.61340068,11.7 6.3,11.3865993 6.3,11 L6.3,7.7 L3,7.7 C2.61340068,7.7 2.3,7.38659932 2.3,7 C2.3,6.61340068 2.61340068,6.3 3,6.3 L6.3,6.3 L6.3,3 C6.3,2.61340068 6.61340068,2.3 7,2.3 C7.38659932,2.3 7.7,2.61340068 7.7,3 L7.7,6.3 Z" id="Combined-Shape" fill="#000000" fill-rule="nonzero"></path>
    </g>
</svg>