<?xml version="1.0" encoding="UTF-8"?>
<svg width="24px" height="34px" viewBox="0 0 24 34" version="1.1" xmlns="http://www.w3.org/2000/svg" xmlns:xlink="http://www.w3.org/1999/xlink">
    <!-- Generator: Sketch 49 (51002) - http://www.bohemiancoding.com/sketch -->
    <title>Combined Shape</title>
    <desc>Created with Sketch.</desc>
    <defs></defs>
    <g id="Page-1" stroke="none" stroke-width="1" fill="none" fill-rule="evenodd">
        <g id="Artboard-Copy-384" transform="translate(-8.000000, -3.000000)" fill="#000000" fill-rule="nonzero">
            <path d="M17.1886235,34.6253494 L17.2209833,36.5781246 L15.5212167,36.6062918 L15.4529139,32.4845168 C11.157899,30.6911516 8.121,26.441621 8.121,21.5147082 L8.121,15.2727082 C8.121,8.73726617 13.464558,3.39370821 20,3.39370821 C26.535442,3.39370821 31.879,8.73726617 31.879,15.2727082 L31.879,21.5147082 C31.879,26.462497 28.8163111,30.727151 24.4924229,32.5071805 L24.5598833,36.5781246 L22.8601167,36.6062918 L22.827239,34.6222686 L17.1886235,34.6253494 Z M9.821,17.1508464 L9.821,21.5147082 C9.821,27.1112662 14.403442,31.6937082 20,31.6937082 C25.596558,31.6937082 30.179,27.1112662 30.179,21.5147082 L30.179,16.2151626 L25.95121,13.2505382 C25.625561,13.3844966 25.2036888,13.5348809 24.6926916,13.6834457 C21.6046243,14.5812547 18.0113353,14.6176802 14.1468649,13.2508034 L9.821,17.1508464 Z M9.82956476,14.8542294 L13.3896348,11.6445993 C13.6268943,11.4306947 13.9640525,11.3678776 14.2624254,11.4819865 C17.9421797,12.8892625 21.3349689,12.8892625 24.2180935,12.0510374 C24.6330564,11.9303932 24.9971923,11.8019105 25.3065395,11.6746332 C25.4848536,11.6012679 25.6007013,11.547189 25.6501137,11.5215331 C25.9313177,11.3755265 26.2703901,11.3980471 26.5298141,11.5799612 L30.1102012,14.0906116 C29.5193874,9.04507468 25.1969217,5.09370821 20,5.09370821 C14.5435896,5.09370821 10.0511406,9.44951918 9.82956476,14.8542294 Z" id="Combined-Shape"></path>
        </g>
    </g>
</svg>