<?xml version="1.0" encoding="UTF-8"?>
<svg width="14px" height="14px" viewBox="0 0 14 14" version="1.1" xmlns="http://www.w3.org/2000/svg" xmlns:xlink="http://www.w3.org/1999/xlink">
    <!-- Generator: Sketch 48.2 (47327) - http://www.bohemiancoding.com/sketch -->
    <title>Combined Shape</title>
    <desc>Created with Sketch.</desc>
    <defs></defs>
    <g id="Artboard-Copy-87" stroke="none" stroke-width="1" fill="none" fill-rule="evenodd">
        <path d="M4.9,9.8 C4.51340068,9.8 4.2,9.48659932 4.2,9.1 L4.2,0.7 C4.2,0.313400675 4.51340068,0 4.9,0 L13.3,0 C13.6865993,0 14,0.313400675 14,0.7 L14,9.1 C14,9.48659932 13.6865993,9.8 13.3,9.8 L4.9,9.8 Z M12.6,8.4 L12.6,1.4 L5.6,1.4 L5.6,8.4 L12.6,8.4 Z M0.7,14 C0.313400675,14 0,13.6865993 0,13.3 L0,4.9 C0,4.51340068 0.313400675,4.2 0.7,4.2 L9.1,4.2 C9.48659932,4.2 9.8,4.51340068 9.8,4.9 L9.8,13.3 C9.8,13.6865993 9.48659932,14 9.1,14 L0.7,14 Z M8.4,12.6 L8.4,5.6 L1.4,5.6 L1.4,12.6 L8.4,12.6 Z" id="Combined-Shape" fill="#000000" fill-rule="nonzero"></path>
    </g>
</svg>