<?xml version="1.0" encoding="UTF-8"?>
<svg id="risk" width="20px" height="19px" viewBox="0 0 20 19" version="1.1" xmlns="http://www.w3.org/2000/svg" xmlns:xlink="http://www.w3.org/1999/xlink">
    <!-- Generator: Sketch 48.2 (47327) - http://www.bohemiancoding.com/sketch -->
    <title>Risk</title>
    <desc>Created with Sketch.</desc>
    <defs></defs>
    <g id="Page-1" stroke="none" stroke-width="1" fill-rule="evenodd">
        <g id="Risk">
            <path d="M10.0662842,18.8477051 C4.98526448,18.8477051 0.86628418,14.7287248 0.86628418,9.64770508 C0.86628418,4.56668538 4.98526448,0.447705078 10.0662842,0.447705078 C15.1473039,0.447705078 19.2662842,4.56668538 19.2662842,9.64770508 C19.2662842,14.7287248 15.1473039,18.8477051 10.0662842,18.8477051 Z M10.0662842,17.4477051 C14.3741052,17.4477051 17.8662842,13.9555261 17.8662842,9.64770508 C17.8662842,5.33988403 14.3741052,1.84770508 10.0662842,1.84770508 C5.75846313,1.84770508 2.26628418,5.33988403 2.26628418,9.64770508 C2.26628418,13.9555261 5.75846313,17.4477051 10.0662842,17.4477051 Z" id="Oval" fill-rule="nonzero"></path>
            <circle id="Oval" cx="10.0662845" cy="13.5477051" r="1"></circle>
            <polygon id="Line" fill-rule="nonzero" points="9.36628418 4.94770508 10.7662842 4.94770508 10.7662842 10.8477051 9.36628418 10.8477051"></polygon>
        </g>
    </g>
</svg>