<?xml version="1.0" encoding="UTF-8"?>
<svg id="role-medium" width="18px" height="18px" viewBox="0 0 18 18" version="1.1" xmlns="http://www.w3.org/2000/svg" xmlns:xlink="http://www.w3.org/1999/xlink">
    <!-- Generator: Sketch 48.2 (47327) - http://www.bohemiancoding.com/sketch -->
    <title>Combined Shape</title>
    <desc>Created with Sketch.</desc>
    <defs></defs>
    <g id="Artboard-Copy-97" stroke="none" stroke-width="1" fill-rule="evenodd">
        <path d="M7.50974369,8.64635 C5.16614437,8.64635 3.26674369,6.74694932 3.26674369,4.40335 C3.26674369,2.05962098 5.16627397,0.15935 7.50974369,0.15935 C9.85321342,0.15935 11.7527437,2.05962098 11.7527437,4.40335 C11.7527437,6.74694932 9.85334302,8.64635 7.50974369,8.64635 Z M7.50974369,7.24635 C9.08014437,7.24635 10.3527437,5.97375068 10.3527437,4.40335 C10.3527437,2.83269747 9.07989256,1.55935 7.50974369,1.55935 C5.93959483,1.55935 4.66674369,2.83269747 4.66674369,4.40335 C4.66674369,5.97375068 5.93934302,7.24635 7.50974369,7.24635 Z M7.53194369,16.24865 C7.91854302,16.24865 8.23194369,16.5620507 8.23194369,16.94865 C8.23194369,17.3352493 7.91854302,17.64865 7.53194369,17.64865 L1.72594369,17.64865 C0.772604537,17.64865 -5.63062517e-05,16.8765095 -5.63062517e-05,15.92365 L-5.63062517e-05,13.25265 C-5.63062517e-05,11.7338433 1.2315518,10.50265 2.75094369,10.50265 L10.2449437,10.50265 C10.631543,10.50265 10.9449437,10.8160507 10.9449437,11.20265 C10.9449437,11.5892493 10.631543,11.90265 10.2449437,11.90265 L2.75094369,11.90265 C2.00464489,11.90265 1.39994369,12.5071475 1.39994369,13.25265 L1.39994369,15.92365 C1.39994369,16.1030996 1.54559215,16.24865 1.72594369,16.24865 L7.53194369,16.24865 Z M16.7686747,11.257967 C17.0203414,10.9645 17.4622596,10.9306142 17.7557267,11.182281 C18.0491937,11.4339477 18.0830795,11.875866 17.8314127,12.169333 L13.1774127,17.596333 C12.8980813,17.9220595 12.3941134,17.9220942 12.1147373,17.5964059 L10.2567373,15.4304059 C10.0050302,15.1369735 10.0388553,14.6950506 10.3322878,14.4433436 C10.6257202,14.1916365 11.0676431,14.2254616 11.3193501,14.5188941 L12.6459699,16.0654271 L16.7686747,11.257967 Z" id="Combined-Shape"  fill-rule="nonzero"></path>
    </g>
</svg>