<?xml version="1.0" encoding="UTF-8"?>
<svg width="14px" height="14px" viewBox="0 0 14 14" version="1.1" xmlns="http://www.w3.org/2000/svg" xmlns:xlink="http://www.w3.org/1999/xlink">
    <!-- Generator: Sketch 48.2 (47327) - http://www.bohemiancoding.com/sketch -->
    <title>Combined Shape</title>
    <desc>Created with Sketch.</desc>
    <defs></defs>
    <g id="Artboard-Copy-96" stroke="none" stroke-width="1" fill="none" fill-rule="evenodd">
        <path d="M5.87349372,6.90404372 C4.00819928,6.90404372 2.49649372,5.39194803 2.49649372,3.52704372 C2.49649372,1.66144439 4.00789439,0.150043716 5.87349372,0.150043716 C7.73839803,0.150043716 9.25049372,1.66174928 9.25049372,3.52704372 C9.25049372,5.39164304 7.73809304,6.90404372 5.87349372,6.90404372 Z M5.87349372,5.50404372 C6.96489439,5.50404372 7.85049372,4.61844439 7.85049372,3.52704372 C7.85049372,2.43502881 6.96528024,1.55004372 5.87349372,1.55004372 C4.78109304,1.55004372 3.89649372,2.43464304 3.89649372,3.52704372 C3.89649372,4.61883024 4.78147881,5.50404372 5.87349372,5.50404372 Z M1.50339372,12.3052437 C1.88999304,12.3052437 2.20339372,12.6186444 2.20339372,13.0052437 C2.20339372,13.391843 1.88999304,13.7052437 1.50339372,13.7052437 C0.688999701,13.7052437 0.0293937161,13.0450488 0.0293937161,12.2312437 L0.0293937161,10.2132437 C0.0293937161,8.9708689 1.03556992,7.96424372 2.27739372,7.96424372 L7.94039372,7.96424372 C8.32699304,7.96424372 8.64039372,8.27764439 8.64039372,8.66424372 C8.64039372,9.05084304 8.32699304,9.36424372 7.94039372,9.36424372 L2.27739372,9.36424372 C1.80890842,9.36424372 1.42939372,9.74392777 1.42939372,10.2132437 L1.42939372,12.2312437 C1.42939372,12.2721297 1.46247819,12.3052437 1.50339372,12.3052437 Z M7.81872874,11.9695314 C7.56705939,11.6760666 7.60094126,11.2341481 7.89440603,10.9824787 C8.1878708,10.7308094 8.62978933,10.7646913 8.88145869,11.058156 L10.2844587,12.694156 C10.536128,12.9876208 10.5022462,13.4295393 10.2087814,13.6812087 C9.91531663,13.932878 9.4733981,13.8989962 9.22172874,13.6055314 L7.81872874,11.9695314 Z M10.2848995,13.6057004 C10.033192,13.8991325 9.5912691,13.932957 9.29783702,13.6812495 C9.00440494,13.429542 8.97058046,12.9876191 9.22228793,12.694187 L12.7392879,8.59418702 C12.9909954,8.30075494 13.4329183,8.26693046 13.7263504,8.51863793 C14.0197825,8.7703454 14.053607,9.21226833 13.8018995,9.50570041 L10.2848995,13.6057004 Z" id="Combined-Shape" fill="#000000" fill-rule="nonzero"></path>
    </g>
</svg>