<?xml version="1.0" encoding="UTF-8"?>
<svg id="rules-medium" width="18px" height="16px" viewBox="0 0 18 16" version="1.1" xmlns="http://www.w3.org/2000/svg" xmlns:xlink="http://www.w3.org/1999/xlink">
    <!-- Generator: Sketch 48.2 (47327) - http://www.bohemiancoding.com/sketch -->
    <title>Combined Shape</title>
    <desc>Created with Sketch.</desc>
    <defs></defs>
    <g id="Artboard-Copy-7" stroke-width="1" fill-rule="evenodd" transform="translate(0.000000, -1.000000)">
        <path d="M0.802508153,8.81254892 C0.333066116,8.81254892 -0.047491847,8.43199095 -0.047491847,7.96254892 C-0.047491847,7.49310688 0.333066116,7.11254892 0.802508153,7.11254892 L12.2145082,7.11254892 C12.6839502,7.11254892 13.0645082,7.49310688 13.0645082,7.96254892 C13.0645082,8.43199095 12.6839502,8.81254892 12.2145082,8.81254892 L0.802508153,8.81254892 Z M0.802508153,3.62504892 C0.333066116,3.62504892 -0.047491847,3.24449095 -0.047491847,2.77504892 C-0.047491847,2.30560688 0.333066116,1.92504892 0.802508153,1.92504892 L12.2145082,1.92504892 C12.6839502,1.92504892 13.0645082,2.30560688 13.0645082,2.77504892 C13.0645082,3.24449095 12.6839502,3.62504892 12.2145082,3.62504892 L0.802508153,3.62504892 Z M0.802508153,15.0375489 C0.333066116,15.0375489 -0.047491847,14.656991 -0.047491847,14.1875489 C-0.047491847,13.7181069 0.333066116,13.3375489 0.802508153,13.3375489 L7.02750815,13.3375489 C7.49695019,13.3375489 7.87750815,13.7181069 7.87750815,14.1875489 C7.87750815,14.656991 7.49695019,15.0375489 7.02750815,15.0375489 L0.802508153,15.0375489 Z M16.7571245,9.48456117 L18.0474918,10.5913367 L13.5984918,15.7783367 C13.2704018,16.1608503 12.6834504,16.1755469 12.3366281,15.8099324 L9.42062805,12.7359324 L10.6539883,11.5659655 L12.9215447,13.9563868 L16.7571245,9.48456117 Z" id="Combined-Shape" fill-rule="nonzero"></path>
    </g>
</svg>