<?xml version="1.0" encoding="UTF-8"?>
<svg width="14px" height="12px" viewBox="0 0 14 12" version="1.1" xmlns="http://www.w3.org/2000/svg" xmlns:xlink="http://www.w3.org/1999/xlink">
    <!-- Generator: Sketch 48.2 (47327) - http://www.bohemiancoding.com/sketch -->
    <title>Combined Shape</title>
    <desc>Created with Sketch.</desc>
    <defs></defs>
    <g id="Artboard-Copy-6" stroke="none" stroke-width="1" fill="none" fill-rule="evenodd" transform="translate(0.000000, -1.000000)">
        <path d="M0.715766728,7.13294911 C0.329167403,7.13294911 0.0157667282,6.81954843 0.0157667282,6.43294911 C0.0157667282,6.04634978 0.329167403,5.73294911 0.715766728,5.73294911 L9.47276673,5.73294911 C9.85936605,5.73294911 10.1727667,6.04634978 10.1727667,6.43294911 C10.1727667,6.81954843 9.85936605,7.13294911 9.47276673,7.13294911 L0.715766728,7.13294911 Z M0.715766728,2.92334911 C0.329167403,2.92334911 0.0157667282,2.60994843 0.0157667282,2.22334911 C0.0157667282,1.83674978 0.329167403,1.52334911 0.715766728,1.52334911 L9.47276673,1.52334911 C9.85936605,1.52334911 10.1727667,1.83674978 10.1727667,2.22334911 C10.1727667,2.60994843 9.85936605,2.92334911 9.47276673,2.92334911 L0.715766728,2.92334911 Z M0.715766728,11.6803491 C0.329167403,11.6803491 0.0157667282,11.3669484 0.0157667282,10.9803491 C0.0157667282,10.5937498 0.329167403,10.2803491 0.715766728,10.2803491 L5.49276673,10.2803491 C5.87936605,10.2803491 6.19276673,10.5937498 6.19276673,10.9803491 C6.19276673,11.3669484 5.87936605,11.6803491 5.49276673,11.6803491 L0.715766728,11.6803491 Z M12.9215002,7.33996326 L13.9842333,8.25133496 L10.5702333,12.232335 C10.3000223,12.5474228 9.81654848,12.5595085 9.53093189,12.2583152 L7.29393189,9.89931517 L8.30980157,8.93598305 L10.0127479,10.7318035 L12.9215002,7.33996326 Z" id="Combined-Shape" fill="#000000" fill-rule="nonzero"></path>
    </g>
</svg>