<?xml version="1.0" encoding="UTF-8"?>
<svg width="18px" height="12px" viewBox="0 0 18 12" version="1.1" xmlns="http://www.w3.org/2000/svg" xmlns:xlink="http://www.w3.org/1999/xlink">
    <!-- Generator: Sketch 48.2 (47327) - http://www.bohemiancoding.com/sketch -->
    <title>Combined Shape</title>
    <desc>Created with Sketch.</desc>
    <defs></defs>
    <g id="Artboard-Copy-85" stroke="none" stroke-width="1" fill="none" fill-rule="evenodd" transform="translate(0.000000, -3.000000)">
        <path d="M11.21315,13.372 C11.4148718,13.372 11.62015,13.1368841 11.62015,12.804 L11.62015,5.196 C11.62015,4.8625321 11.4152699,4.628 11.21315,4.628 L1.80615,4.628 C1.60444218,4.628 1.40015,4.86215126 1.40015,5.196 L1.40015,12.804 C1.40015,13.1372649 1.60484001,13.372 1.80615,13.372 L11.21315,13.372 Z M13.02015,6.46111263 L16.983794,4.45541323 C17.4494136,4.21979853 17.99985,4.55816111 17.99985,5.08 L17.99985,12.919 C17.99985,13.4407899 17.4495074,13.7791554 16.9838939,13.5436373 L13.02015,11.5386833 L13.02015,12.804 C13.02015,13.8710211 12.233511,14.772 11.21315,14.772 L1.80615,14.772 C0.785758465,14.772 0.00015,13.8710774 0.00015,12.804 L0.00015,5.196 C0.00015,4.12819728 0.785553728,3.228 1.80615,3.228 L11.21315,3.228 C12.2337162,3.228 13.02015,4.1282533 13.02015,5.196 L13.02015,6.46111263 Z M13.02015,8.03015002 L13.02015,9.96977281 L16.59985,11.7804685 L16.59985,6.21873557 L13.02015,8.03015002 Z" id="Combined-Shape" fill="#000000" fill-rule="nonzero"></path>
    </g>
</svg>