<?xml version="1.0" encoding="UTF-8"?>
<svg width="14px" height="14px" viewBox="0 0 14 14" version="1.1" xmlns="http://www.w3.org/2000/svg" xmlns:xlink="http://www.w3.org/1999/xlink">
    <!-- Generator: Sketch 48.2 (47327) - http://www.bohemiancoding.com/sketch -->
    <title>Combined Shape</title>
    <desc>Created with Sketch.</desc>
    <defs></defs>
    <g id="Artboard-Copy-78" stroke="none" stroke-width="1" fill="none" fill-rule="evenodd">
        <path d="M5.15897574,1.93965145 L5.15897574,0.550536156 L8.84112348,0.550536156 L8.84112348,1.93965145 L5.15897574,1.93965145 Z M1.38911529,1.93965145 L1.38911529,4.24161393 L0,4.24161393 L0,1.2450938 C0,0.861500206 0.31096405,0.550536156 0.694557645,0.550536156 L3.68214774,0.550536156 L3.68214774,1.93965145 L1.38911529,1.93965145 Z M12.6108847,1.93965145 L10.3178523,1.93965145 L10.3178523,0.550536156 L13.3054424,0.550536156 C13.689036,0.550536156 14,0.861500206 14,1.2450938 L14,4.24161393 L12.6108847,4.24161393 L12.6108847,1.93965145 Z M1.38911529,12.0603486 L3.68214774,12.0603486 L3.68214774,13.4494638 L0.694557645,13.4494638 C0.31096405,13.4494638 0,13.1384998 0,12.7549062 L0,9.75838607 L1.38911529,9.75838607 L1.38911529,12.0603486 Z M12.6108847,9.75838607 L14,9.75838607 L14,12.7549062 C14,13.1384998 13.689036,13.4494638 13.3054424,13.4494638 L10.3178523,13.4494638 L10.3178523,12.0603486 L12.6108847,12.0603486 L12.6108847,9.75838607 Z M5.15897574,13.4494638 L5.15897574,12.0603486 L8.84112348,12.0603486 L8.84112348,13.4494638 L5.15897574,13.4494638 Z M0,5.72995174 L1.38911529,5.72995174 L1.38911529,8.27004826 L0,8.27004826 L0,5.72995174 Z M12.6107855,5.72995174 L13.9999008,5.72995174 L13.9999008,8.27004826 L12.6107855,8.27004826 L12.6107855,5.72995174 Z" id="Combined-Shape" fill="#000000" fill-rule="nonzero"></path>
    </g>
</svg>