<?xml version="1.0" encoding="UTF-8"?>
<svg width="17px" height="6px" viewBox="0 0 17 6" version="1.1" xmlns="http://www.w3.org/2000/svg" xmlns:xlink="http://www.w3.org/1999/xlink">
    <!-- Generator: Sketch 49 (51002) - http://www.bohemiancoding.com/sketch -->
    <title>Combined Shape</title>
    <desc>Created with Sketch.</desc>
    <defs></defs>
    <g id="Page-1" stroke="none" stroke-width="1" fill="none" fill-rule="evenodd">
        <g id="Artboard-Copy-328" transform="translate(0.000000, -4.000000)" fill="#000000">
            <path d="M0.3974,7.772 L1.1274,7.626 C1.1924,8.067 1.3144,8.387 1.4904,8.586 C1.6664,8.787 1.9564,8.886 2.3604,8.886 C2.6894,8.886 2.9434,8.817 3.1224,8.677 C3.3014,8.538 3.3904,8.36 3.3904,8.141 C3.3904,7.923 3.3094,7.751 3.1474,7.626 C2.9844,7.501 2.6254,7.35 2.0674,7.173 C1.5394,7.006 1.1614,6.815 0.9364,6.599 C0.7114,6.383 0.5994,6.109 0.5994,5.775 C0.5994,5.413 0.7404,5.103 1.0234,4.845 C1.3064,4.587 1.6894,4.459 2.1724,4.459 C2.6264,4.459 3.0124,4.573 3.3284,4.8 C3.6434,5.027 3.8354,5.362 3.9054,5.802 L3.2094,5.956 C3.1494,5.686 3.0404,5.479 2.8824,5.333 C2.7244,5.186 2.4874,5.113 2.1724,5.113 C1.8844,5.113 1.6664,5.175 1.5184,5.301 C1.3694,5.426 1.2954,5.584 1.2954,5.775 C1.2954,5.946 1.3694,6.085 1.5184,6.189 C1.6664,6.293 2.0004,6.431 2.5204,6.603 C3.1284,6.807 3.5404,7.016 3.7554,7.229 C3.9714,7.443 4.0794,7.733 4.0794,8.099 C4.0794,8.512 3.9254,8.856 3.6164,9.129 C3.3084,9.404 2.8864,9.541 2.3534,9.541 C1.7774,9.541 1.3254,9.391 0.9964,9.091 C0.6664,8.793 0.4664,8.352 0.3974,7.772 Z M4.9496,9.4361 L4.9496,4.5631 L7.9286,4.5631 L7.9286,5.2101 L5.6456,5.2101 L5.6456,6.6231 L7.7346,6.6231 L7.7346,7.2441 L5.6456,7.2441 L5.6456,8.7951 L7.9286,8.7951 L7.9286,9.4361 L4.9496,9.4361 Z M9.0085,9.4358 L9.0085,4.5628 L10.9155,4.5628 C11.4075,4.5628 11.8045,4.6978 12.1055,4.9678 C12.4075,5.2358 12.5585,5.6068 12.5585,6.0808 C12.5585,6.5548 12.4115,6.9248 12.1165,7.1908 C11.8215,7.4578 11.4235,7.5918 10.9225,7.5918 L9.7045,7.5918 L9.7045,9.4358 L9.0085,9.4358 Z M9.7045,6.9508 L10.8945,6.9508 C11.1685,6.9508 11.3945,6.8758 11.5735,6.7248 C11.7515,6.5738 11.8415,6.3588 11.8415,6.0808 C11.8415,5.7838 11.7505,5.5648 11.5705,5.4238 C11.3895,5.2818 11.1615,5.2108 10.8875,5.2108 L9.7045,5.2108 L9.7045,6.9508 Z M15.8656,9.436 L15.5446,8.538 L13.4566,8.538 L13.1436,9.436 L12.4196,9.436 L14.1806,4.563 L14.8486,4.563 L16.6026,9.436 L15.8656,9.436 Z M14.4936,5.566 L13.6656,7.939 L15.3356,7.939 L14.5076,5.566 L14.4936,5.566 Z" id="Combined-Shape"></path>
        </g>
    </g>
</svg>