<?xml version="1.0" encoding="UTF-8"?>
<svg width="42px" height="13px" viewBox="0 0 42 13" version="1.1" xmlns="http://www.w3.org/2000/svg" xmlns:xlink="http://www.w3.org/1999/xlink">
    <!-- Generator: Sketch 49 (51002) - http://www.bohemiancoding.com/sketch -->
    <title>Combined Shape</title>
    <desc>Created with Sketch.</desc>
    <defs></defs>
    <g id="Page-1" stroke="none" stroke-width="1" fill="none" fill-rule="evenodd">
        <g id="Artboard-Copy-330" transform="translate(0.000000, -14.000000)" fill="#000000">
            <path d="M0,22.4121 L1.856,22.0411 C2.021,23.1611 2.327,23.9741 2.775,24.4801 C3.223,24.9871 3.959,25.2401 4.984,25.2401 C5.82,25.2401 6.465,25.0641 6.919,24.7101 C7.373,24.3571 7.6,23.9031 7.6,23.3491 C7.6,22.7961 7.393,22.3591 6.981,22.0411 C6.569,21.7241 5.656,21.3411 4.242,20.8931 C2.899,20.4681 1.941,19.9831 1.37,19.4351 C0.798,18.8871 0.513,18.1891 0.513,17.3411 C0.513,16.4221 0.872,15.6351 1.591,14.9801 C2.31,14.3271 3.282,14.0001 4.507,14.0001 C5.661,14.0001 6.639,14.2891 7.441,14.8661 C8.242,15.4431 8.731,16.2921 8.908,17.4111 L7.14,17.7991 C6.987,17.1161 6.71,16.5891 6.31,16.2181 C5.909,15.8471 5.308,15.6611 4.507,15.6611 C3.776,15.6611 3.223,15.8211 2.846,16.1381 C2.468,16.4561 2.28,16.8581 2.28,17.3411 C2.28,17.7771 2.468,18.1271 2.846,18.3911 C3.223,18.6571 4.071,19.0071 5.391,19.4431 C6.934,19.9621 7.98,20.4921 8.528,21.0341 C9.076,21.5761 9.35,22.3131 9.35,23.2431 C9.35,24.2921 8.957,25.1641 8.174,25.8591 C7.391,26.5541 6.321,26.9021 4.967,26.9021 C3.505,26.9021 2.357,26.5221 1.52,25.7621 C0.683,25.0021 0.177,23.8861 0,22.4121 Z M11.5583,26.6365 L11.5583,14.2655 L19.1223,14.2655 L19.1223,15.9085 L13.3263,15.9085 L13.3263,19.4965 L18.6273,19.4965 L18.6273,21.0695 L13.3263,21.0695 L13.3263,25.0105 L19.1223,25.0105 L19.1223,26.6365 L11.5583,26.6365 Z M21.8615,26.6369 L21.8615,14.2649 L26.7045,14.2649 C27.9535,14.2649 28.9605,14.6069 29.7265,15.2899 C30.4925,15.9739 30.8755,16.9159 30.8755,18.1179 C30.8755,19.3189 30.5015,20.2599 29.7535,20.9359 C29.0045,21.6149 27.9945,21.9529 26.7225,21.9529 L23.6295,21.9529 L23.6295,26.6369 L21.8615,26.6369 Z M23.6295,20.3269 L26.6515,20.3269 C27.3465,20.3269 27.9205,20.1359 28.3745,19.7529 C28.8285,19.3699 29.0555,18.8249 29.0555,18.1179 C29.0555,17.3649 28.8255,16.8069 28.3655,16.4479 C27.9065,16.0889 27.3285,15.9079 26.6335,15.9079 L23.6295,15.9079 L23.6295,20.3269 Z M39.2706,26.6362 L38.4566,24.3572 L33.1556,24.3572 L32.3596,26.6362 L30.5216,26.6362 L34.9926,14.2652 L36.6896,14.2652 L41.1436,26.6362 L39.2706,26.6362 Z M35.7886,16.8102 L33.6856,22.8372 L37.9266,22.8372 L35.8236,16.8102 L35.7886,16.8102 Z" id="Combined-Shape"></path>
        </g>
    </g>
</svg>