<?xml version="1.0" encoding="UTF-8"?>
<svg width="30px" height="22px" viewBox="0 0 30 22" version="1.1" xmlns="http://www.w3.org/2000/svg" xmlns:xlink="http://www.w3.org/1999/xlink">
    <!-- Generator: Sketch 48.2 (47327) - http://www.bohemiancoding.com/sketch -->
    <title>Combined Shape</title>
    <desc>Created with Sketch.</desc>
    <defs></defs>
    <g id="Artboard-Copy-206" stroke="none" stroke-width="1" fill="none" fill-rule="evenodd" transform="translate(-4.000000, -8.000000)">
        <path d="M21.3863042,16.0097 C20.7337389,15.5828782 19.9652449,15.3488 19.1564,15.3488 C16.9036136,15.3488 15.0334,17.2190136 15.0334,19.4718 L15.0334,20.2218 L13.5334,20.2218 L13.5334,19.4718 C13.5334,16.3905864 16.0751864,13.8488 19.1564,13.8488 C20.3942173,13.8488 21.5671973,14.2521623 22.5235,14.9772049 L22.5235,13.1797 L24.0235,13.1797 L24.0235,16.7597 C24.0235,17.1739136 23.6877136,17.5097 23.2735,17.5097 L19.6935,17.5097 L19.6935,16.0097 L21.3863042,16.0097 Z M16.0585005,23.4408 C16.8077466,24.1420048 17.7916333,24.5381 18.8438,24.5381 C21.0965864,24.5381 22.9668,22.6678864 22.9668,20.4151 L22.9668,19.6651 L24.4668,19.6651 L24.4668,20.4151 C24.4668,23.4963136 21.9250136,26.0381 18.8438,26.0381 C17.4072134,26.0381 16.0579593,25.4947924 15.0334,24.5358657 L15.0334,26.2708 L13.5334,26.2708 L13.5334,22.6908 C13.5334,22.2765864 13.8691864,21.9408 14.2834,21.9408 L17.8634,21.9408 L17.8634,23.4408 L16.0585005,23.4408 Z M34,23.717 C34,26.8503094 31.6049485,29.4718484 28.433,29.755 L10.4454633,29.7525465 C6.82356242,29.4767556 4,26.4316015 4,22.773 C4,19.9522381 5.69168579,17.4560765 8.22102743,16.3673132 C9.58692836,11.6079592 13.9532578,8.245 19,8.245 C24.7003301,8.245 29.4446165,12.5116798 30.1310387,18.0857349 C32.4279228,18.9687434 34,21.1860589 34,23.717 Z M28.4911922,18.7800081 C28.1339402,13.815405 24.0001133,9.945 19,9.945 C14.5905643,9.945 10.7922239,12.9723436 9.75767049,17.2029115 C9.68966097,17.4810207 9.48621381,17.7062071 9.21641249,17.8020053 C7.12466406,18.5447212 5.7,20.5225597 5.7,22.773 C5.7,25.5425922 7.83869607,27.849132 10.51,28.055 L28.3565063,28.0584489 C30.5758852,27.8579077 32.3,25.9707525 32.3,23.717 C32.3,21.7537548 30.9820133,20.0524687 29.1135823,19.538565 C28.7663872,19.4430706 28.5170373,19.1391678 28.4911922,18.7800081 Z" id="Combined-Shape" fill="#000000" fill-rule="nonzero"></path>
    </g>
</svg>