<?xml version="1.0" encoding="UTF-8"?>
<svg width="27px" height="30px" viewBox="0 0 27 30" version="1.1" xmlns="http://www.w3.org/2000/svg" xmlns:xlink="http://www.w3.org/1999/xlink">
    <!-- Generator: Sketch 49 (51002) - http://www.bohemiancoding.com/sketch -->
    <title>Combined Shape</title>
    <desc>Created with Sketch.</desc>
    <defs></defs>
    <g id="Page-1" stroke="none" stroke-width="1" fill="none" fill-rule="evenodd">
        <g id="Artboard-Copy-318" transform="translate(-7.000000, -5.000000)" fill="#000000" fill-rule="nonzero">
            <path d="M8.7,20.0181208 C8.74526861,21.3868397 13.9076582,22.923 20.1137,22.923 C26.3463111,22.923 31.5267,21.3732075 31.5267,20 L31.5267,19.15 L31.527,19.15 L31.527,12.0367208 C29.2712112,13.441979 24.9993037,14.2463 20.1137,14.2463 C15.2278977,14.2463 10.9560306,13.4421337 8.7,12.0370819 L8.7,20.0181208 Z M8.7,22.4137819 L8.7,30.3763 C8.7,31.7497642 13.8809463,33.3003 20.113,33.3003 C26.3452205,33.3003 31.527,31.7496874 31.527,30.3763 L31.527,22.4134208 C29.2712112,23.818679 24.9993037,24.623 20.1137,24.623 C15.2278977,24.623 10.9560306,23.8188337 8.7,22.4137819 Z M7,20.0353619 C6.99980011,20.0235934 6.9997,20.0118061 6.9997,20 L6.9997,19.15 L7,19.15 L7,9.65866194 C6.99980011,9.6468934 6.9997,9.63510608 6.9997,9.6233 C6.9997,6.76087613 12.8853165,5.0003 20.1137,5.0003 C27.3418467,5.0003 33.2267,6.76084376 33.2267,9.6233 L33.227,9.6233 L33.227,30.3763 C33.227,33.2388321 27.3405921,35.0003 20.113,35.0003 C12.8856447,35.0003 7,33.2388644 7,30.3763 L7,20.0353619 Z M31.5267,9.6233 C31.5267,8.25009246 26.3463111,6.7003 20.1137,6.7003 C13.8809221,6.7003 8.6997,8.25016923 8.6997,9.6233 C8.6997,10.9965439 13.8802555,12.5463 20.1137,12.5463 C26.3463111,12.5463 31.5267,10.9965075 31.5267,9.6233 Z" id="Combined-Shape"></path>
        </g>
    </g>
</svg>