<?xml version="1.0" encoding="UTF-8"?>
<svg width="26px" height="30px" viewBox="0 0 26 30" version="1.1" xmlns="http://www.w3.org/2000/svg" xmlns:xlink="http://www.w3.org/1999/xlink">
    <!-- Generator: Sketch 48.2 (47327) - http://www.bohemiancoding.com/sketch -->
    <title>Combined Shape</title>
    <desc>Created with Sketch.</desc>
    <defs></defs>
    <g id="Artboard-Copy-254" stroke="none" stroke-width="1" fill="none" fill-rule="evenodd" transform="translate(-7.000000, -5.000000)">
        <path d="M25.8035,33.03 L25.8035,34.73 L9.8075,34.73 C8.63405796,34.73 7.6835,33.779442 7.6835,32.606 L7.6835,7.124 C7.6835,5.95131565 8.63430003,5 9.8075,5 L24.0405,5 C24.9417238,5 25.8059856,5.35840405 26.4434791,5.99589763 L31.3215408,10.8729592 C31.9588444,11.5102629 32.3165,12.3744209 32.3165,13.276 L32.3165,35 L30.6165,35 L30.6165,13.276 C30.6165,12.8251136 30.4378269,12.3934084 30.1195209,12.0751024 L25.2414592,7.19804076 C24.9225388,6.87912036 24.4906049,6.7 24.0405,6.7 L9.8075,6.7 C9.57339049,6.7 9.3835,6.88999346 9.3835,7.124 L9.3835,32.606 C9.3835,32.840558 9.57294204,33.03 9.8075,33.03 L25.8035,33.03 Z M23.716,18.591 C25.064442,18.591 26.158,19.684558 26.158,21.033 L26.158,27.034 C26.158,28.000442 25.374442,28.784 24.408,28.784 L13.842,28.784 L13.842,18.591 L23.716,18.591 Z M15.542,27.084 L24.408,27.084 C24.435558,27.084 24.458,27.061558 24.458,27.034 L24.458,21.033 C24.458,20.623442 24.125558,20.291 23.716,20.291 L15.542,20.291 L15.542,27.084 Z" id="Combined-Shape" fill="#000000" fill-rule="nonzero"></path>
    </g>
</svg>