<?xml version="1.0" encoding="UTF-8"?>
<svg width="14px" height="14px" viewBox="0 0 14 14" version="1.1" xmlns="http://www.w3.org/2000/svg" xmlns:xlink="http://www.w3.org/1999/xlink">
    <!-- Generator: Sketch 48.2 (47327) - http://www.bohemiancoding.com/sketch -->
    <title>Combined Shape</title>
    <desc>Created with Sketch.</desc>
    <defs></defs>
    <g id="Artboard-Copy-75" stroke="none" stroke-width="1" fill="none" fill-rule="evenodd">
        <path d="M10.9591,13.9 L2.9411,13.9 C1.31711491,13.9 0.0001,12.5829851 0.0001,10.959 L0.0001,2.941 C0.0001,1.31701491 1.31711491,-1.44328993e-15 2.9411,-1.44328993e-15 L10.9591,-1.44328993e-15 C12.5830851,-1.44328993e-15 13.9001,1.31701491 13.9001,2.941 L13.9001,10.959 C13.9001,12.5829851 12.5830851,13.9 10.9591,13.9 Z M10.9591,12.6 C11.8651149,12.6 12.6001,11.8650149 12.6001,10.959 L12.6001,2.941 C12.6001,2.03498509 11.8651149,1.3 10.9591,1.3 L2.9411,1.3 C2.03508509,1.3 1.3001,2.03498509 1.3001,2.941 L1.3001,10.959 C1.3001,11.8650149 2.03508509,12.6 2.9411,12.6 L10.9591,12.6 Z M6.95,11.0364 C4.69333099,11.0364 2.864,9.20670124 2.864,6.9504 C2.864,4.6932826 4.69314712,2.8634 6.95,2.8634 C9.20685288,2.8634 11.036,4.6932826 11.036,6.9504 C11.036,9.20670124 9.20666901,11.0364 6.95,11.0364 Z M6.95,9.7364 C8.48864033,9.7364 9.736,8.48878956 9.736,6.9504 C9.736,5.41113581 8.48876569,4.1634 6.95,4.1634 C5.41123431,4.1634 4.164,5.41113581 4.164,6.9504 C4.164,8.48878956 5.41135967,9.7364 6.95,9.7364 Z" id="Combined-Shape" fill="#000000" fill-rule="nonzero"></path>
    </g>
</svg>