<?xml version="1.0" encoding="UTF-8"?>
<svg id="sort" width="15px" height="12px" viewBox="0 0 15 12" version="1.1" xmlns="http://www.w3.org/2000/svg" xmlns:xlink="http://www.w3.org/1999/xlink">
    <!-- Generator: Sketch 48.2 (47327) - http://www.bohemiancoding.com/sketch -->
    <title>Sort</title>
    <desc>Created with Sketch.</desc>
    <defs></defs>
    <g id="Page-1" stroke="none" stroke-width="1" fill-rule="evenodd">
        <g id="Sort" fill-rule="nonzero">
            <path d="M11.6792274,9.44031205 L13.0495182,8.06043881 C13.321931,7.78612097 13.7651438,7.78457668 14.0394617,8.05698953 C14.3137795,8.32940238 14.3153238,8.77261518 14.0429109,9.04693301 L11.5220776,11.5853946 C11.2483215,11.8610651 10.802441,11.8610651 10.5286848,11.5853946 L8.00785151,9.04693301 C7.73543865,8.77261518 7.73698295,8.32940238 8.01130079,8.05698953 C8.28561862,7.78457668 8.72883142,7.78612097 9.00124427,8.06043881 L10.2792274,9.34735887 L10.2792274,0.966346154 C10.2792274,0.579746829 10.5926281,0.266346154 10.9792274,0.266346154 C11.3658267,0.266346154 11.6792274,0.579746829 11.6792274,0.966346154 L11.6792274,9.44031205 Z M3.44845816,2.64302129 L2.07816737,4.02289452 C1.80575452,4.29721236 1.36254173,4.29875666 1.08822389,4.02634381 C0.813906053,3.75393095 0.812361757,3.31071816 1.08477461,3.03640032 L3.60560794,0.497938782 C3.87936409,0.222268251 4.32524456,0.222268251 4.59900071,0.497938782 L7.11983404,3.03640032 C7.39224689,3.31071816 7.3907026,3.75393095 7.11638476,4.02634381 C6.84206692,4.29875666 6.39885413,4.29721236 6.12644128,4.02289452 L4.84845816,2.73597446 L4.84845816,11.2073718 C4.84845816,11.5939711 4.53505748,11.9073718 4.14845816,11.9073718 C3.76185883,11.9073718 3.44845816,11.5939711 3.44845816,11.2073718 L3.44845816,2.64302129 Z"></path>
        </g>
    </g>
</svg>