<?xml version="1.0" encoding="UTF-8"?>
<svg id="structure-medium" width="14px" height="18px" viewBox="0 0 14 18" version="1.1" xmlns="http://www.w3.org/2000/svg" xmlns:xlink="http://www.w3.org/1999/xlink">
    <!-- Generator: Sketch 48.2 (47327) - http://www.bohemiancoding.com/sketch -->
    <title>Combined Shape</title>
    <desc>Created with Sketch.</desc>
    <defs></defs>
    <g id="Artboard-Copy-100" stroke="none" stroke-width="1" fill-rule="evenodd" transform="translate(-2.000000, 0.000000)">
        <path d="M8.81925,14.888 L3.29375,14.888 C2.90715068,14.888 2.59375,14.5745993 2.59375,14.188 L2.59375,0.7 C2.59375,0.313400675 2.90715068,0 3.29375,0 C3.68034932,0 3.99375,0.313400675 3.99375,0.7 L3.99375,4.15 L8.81925,4.15 L8.81925,1.7375 C8.81925,1.35090068 9.13265068,1.0375 9.51925,1.0375 L12.63125,1.0375 C12.8169015,1.0375 12.9949493,1.11124979 13.1262247,1.24252525 L15.2012247,3.31752525 C15.3325002,3.44880072 15.40625,3.62684846 15.40625,3.8125 L15.40625,7.9625 C15.40625,8.34909932 15.0928493,8.6625 14.70625,8.6625 L9.51925,8.6625 C9.13265068,8.6625 8.81925,8.34909932 8.81925,7.9625 L8.81925,5.55 L3.99375,5.55 L3.99375,13.488 L8.81925,13.488 L8.81925,11.075 C8.81925,10.6884007 9.13265068,10.375 9.51925,10.375 L12.63125,10.375 C12.8169015,10.375 12.9949493,10.4487498 13.1262247,10.5800253 L15.2012247,12.6550253 C15.3325002,12.7863007 15.40625,12.9643485 15.40625,13.15 L15.40625,17.3 C15.40625,17.6865993 15.0928493,18 14.70625,18 L9.51925,18 C9.13265068,18 8.81925,17.6865993 8.81925,17.3 L8.81925,14.888 Z M14.00625,4.10244949 L12.3413005,2.4375 L10.21925,2.4375 L10.21925,7.2625 L14.00625,7.2625 L14.00625,4.10244949 Z M14.00625,13.4399495 L12.3413005,11.775 L10.21925,11.775 L10.21925,16.6 L14.00625,16.6 L14.00625,13.4399495 Z" id="Combined-Shape" fill-rule="nonzero"></path>
    </g>
</svg>