<?xml version="1.0" encoding="UTF-8"?>
<svg width="12px" height="14px" viewBox="0 0 12 14" version="1.1" xmlns="http://www.w3.org/2000/svg" xmlns:xlink="http://www.w3.org/1999/xlink">
    <!-- Generator: Sketch 48.2 (47327) - http://www.bohemiancoding.com/sketch -->
    <title>Combined Shape</title>
    <desc>Created with Sketch.</desc>
    <defs></defs>
    <g id="Artboard-Copy-99" stroke="none" stroke-width="1" fill="none" fill-rule="evenodd" transform="translate(-1.000000, 0.000000)">
        <path d="M6.69325,4.55 L3.36875,4.55 L3.36875,10.238 L6.69325,10.238 L6.69325,8.575 C6.69325,8.18840068 7.00665068,7.875 7.39325,7.875 L9.75625,7.875 C9.94190154,7.875 10.1199493,7.94874979 10.2512247,8.08002525 L11.8262247,9.65502525 C11.9575002,9.78630072 12.03125,9.96434846 12.03125,10.15 L12.03125,13.3 C12.03125,13.6865993 11.7178493,14 11.33125,14 L7.39325,14 C7.00665068,14 6.69325,13.6865993 6.69325,13.3 L6.69325,11.638 L2.66875,11.638 C2.28215068,11.638 1.96875,11.3245993 1.96875,10.938 L1.96875,0.7 C1.96875,0.313400675 2.28215068,0 2.66875,0 C3.05534932,0 3.36875,0.313400675 3.36875,0.7 L3.36875,3.15 L6.69325,3.15 L6.69325,1.4875 C6.69325,1.10090068 7.00665068,0.7875 7.39325,0.7875 L9.75625,0.7875 C9.94190154,0.7875 10.1199493,0.861249788 10.2512247,0.992525253 L11.8262247,2.56752525 C11.9575002,2.69880072 12.03125,2.87684846 12.03125,3.0625 L12.03125,6.2125 C12.03125,6.59909932 11.7178493,6.9125 11.33125,6.9125 L7.39325,6.9125 C7.00665068,6.9125 6.69325,6.59909932 6.69325,6.2125 L6.69325,4.55 Z M10.63125,3.35244949 L9.46630051,2.1875 L8.09325,2.1875 L8.09325,5.5125 L10.63125,5.5125 L10.63125,3.35244949 Z M10.63125,10.4399495 L9.46630051,9.275 L8.09325,9.275 L8.09325,12.6 L10.63125,12.6 L10.63125,10.4399495 Z" id="Combined-Shape" fill="#000000" fill-rule="nonzero"></path>
    </g>
</svg>