<?xml version="1.0" encoding="UTF-8"?>
<svg width="30px" height="30px" viewBox="0 0 30 30" version="1.1" xmlns="http://www.w3.org/2000/svg" xmlns:xlink="http://www.w3.org/1999/xlink">
    <!-- Generator: Sketch 49 (51002) - http://www.bohemiancoding.com/sketch -->
    <title>Combined Shape</title>
    <desc>Created with Sketch.</desc>
    <defs></defs>
    <g id="Page-1" stroke="none" stroke-width="1" fill="none" fill-rule="evenodd">
        <g id="Artboard-Copy-333" transform="translate(-5.000000, -5.000000)" fill="#000000" fill-rule="nonzero">
            <path d="M26.7958738,25.1148961 L20.4907,25.1148961 L20.4907,28.9341961 L25.1493064,28.9341961 C25.9079439,27.768432 26.4711723,26.4957294 26.7958738,25.1148961 Z M27.8209485,25.1148961 C27.5248323,26.4874577 27.0141292,27.7602604 26.325198,28.9341961 L30.3204152,28.9341961 C31.2966648,27.807451 32.0914722,26.5192042 32.659397,25.1148961 L27.8209485,25.1148961 Z M22.2257087,33.4694576 C24.9644236,33.0203457 27.4287808,31.756166 29.3615028,29.9341961 L25.6792035,29.9341961 C25.2876206,30.4878711 24.8548073,31.0172947 24.3851981,31.5225758 C23.6951895,32.264998 22.9637742,32.9133738 22.2257087,33.4694576 Z M24.4310105,29.9341961 L20.4907,29.9341961 L20.4907,33.4436968 C20.7226622,33.3031966 20.9815143,33.1340987 21.2605998,32.9363278 C22.0758046,32.3586417 22.8918139,31.6604904 23.652708,30.8417981 C23.926025,30.5477197 24.1857813,30.2451946 24.4310105,29.9341961 Z M13.2758196,25.1148961 C13.5956334,26.4939344 14.1558954,27.7667535 14.9131556,28.9341961 L19.4907,28.9341961 L19.4907,25.1148961 L13.2758196,25.1148961 Z M12.2514314,25.1148961 L7.34060299,25.1148961 C7.90852785,26.5192042 8.70333518,27.807451 9.67958481,28.9341961 L13.738296,28.9341961 C13.0507963,27.758898 12.5429516,26.4860149 12.2514314,25.1148961 Z M17.8355339,33.4793573 C17.0967951,32.9208274 16.3644947,32.2696481 15.673932,31.5242982 C15.2049327,31.01809 14.7729152,30.4880823 14.3823307,29.9341961 L10.6384972,29.9341961 C12.5856149,31.7697368 15.0723169,33.039147 17.8355339,33.4793573 Z M15.6291663,29.9341961 C15.8742745,30.2460419 16.1340389,30.5495254 16.4074846,30.8446656 C17.1634981,31.6606589 17.9742874,32.3577464 18.7842844,32.9355839 C19.0383199,33.1168083 19.2754864,33.27409 19.4907,33.4074488 L19.4907,29.9341961 L15.6291663,29.9341961 Z M13.1732818,14.8267961 L19.4907,14.8267961 L19.4907,11.0074961 L14.8277365,11.0074961 C14.0632772,12.1752157 13.4972607,13.4480415 13.1732818,14.8267961 Z M12.1482722,14.8267961 C12.4434908,13.4557333 12.9563067,12.1828797 13.6499281,11.0074961 L9.73039292,11.0074961 C8.74450533,12.1324948 7.94051802,13.4208983 7.36434125,14.8267961 L12.1482722,14.8267961 Z M17.6632568,6.54922256 C14.998207,7.00892945 12.5976926,8.24136116 10.7007354,10.0074961 L14.2995135,10.0074961 C14.7022686,9.44112646 15.1486187,8.8996804 15.6337908,8.38306203 C16.2834784,7.69126519 16.9694187,7.08040276 17.6632568,6.54922256 Z M15.5502024,10.0074961 L19.4907,10.0074961 L19.4907,6.50074736 C19.2749602,6.63294081 19.0378778,6.78819813 18.7843192,6.96654402 C17.9590131,7.54704077 17.1329451,8.24750409 16.3627347,9.06763548 C16.0768589,9.37204019 15.8056558,9.68532029 15.5502024,10.0074961 Z M26.6729231,14.8267961 C26.3565249,13.4498122 25.8029332,12.1768938 25.0548902,11.0074961 L20.4907,11.0074961 L20.4907,14.8267961 L26.6729231,14.8267961 Z M27.6968903,14.8267961 L32.6356587,14.8267961 C32.059482,13.4208983 31.2554947,12.1324948 30.2696071,11.0074961 L26.2255624,11.0074961 C26.9056528,12.1844716 27.408139,13.4574233 27.6968903,14.8267961 Z M22.2992547,6.54280995 C22.9817886,7.07908938 23.6566622,7.69572246 24.2955652,8.3937503 C24.7659175,8.90762966 25.1988423,9.44552625 25.5897917,10.0074961 L29.2992646,10.0074961 C27.3934168,8.23308378 24.9792809,6.99738905 22.2992547,6.54280995 Z M24.3493249,10.0074961 C24.1004709,9.68595245 23.8363179,9.37310012 23.557908,9.06892581 C22.8062236,8.24767955 22.000115,7.54513258 21.1948121,6.9619424 C20.9415403,6.77852615 20.7051375,6.61931089 20.4907,6.48430668 L20.4907,10.0074961 L24.3493249,10.0074961 Z M33.0188692,24.1148961 C33.4288781,22.8164137 33.65,21.4340366 33.65,20 C33.65,18.5444776 33.4222024,17.1421744 33.000313,15.8267961 L6.99968701,15.8267961 C6.57779758,17.1421744 6.35,18.5444776 6.35,20 C6.35,21.4340366 6.57112193,22.8164137 6.98113076,24.1148961 L33.0188692,24.1148961 Z M20,5.35 C28.0911424,5.35 34.65,11.9088576 34.65,20 C34.65,28.0911424 28.0911424,34.65 20,34.65 C11.9088576,34.65 5.35,28.0911424 5.35,20 C5.35,11.9088576 11.9088576,5.35 20,5.35 Z M30.7636131,22.4547717 C30.9752141,22.4561638 31.0966475,22.6962797 31.0510207,22.9677006 C31.0064739,23.2326974 30.8201355,23.455066 30.6221,23.45377 C30.4099528,23.45377 30.2884158,23.2130635 30.3351702,22.9418933 C30.3796222,22.6763212 30.565696,22.4534696 30.7636131,22.4547717 Z M30.7625869,22.6107683 C30.8574113,22.6113922 30.9289494,22.7528478 30.8971793,22.9418394 C30.8639233,23.1396699 30.7308458,23.2984791 30.6226098,23.2977717 C30.5276767,23.29777 30.4564385,23.1566815 30.4889659,22.9680227 C30.5222378,22.7692503 30.6551552,22.6100615 30.7625869,22.6107683 Z M11.7576131,22.4547717 C11.9692141,22.4561638 12.0906475,22.6962797 12.0450207,22.9677006 C12.0005152,23.2324516 11.8143325,23.4550693 11.6165869,23.4537683 C11.4057839,23.4523815 11.2998075,23.2176919 11.3461702,22.9418933 C11.3914317,22.6714847 11.5613468,22.4534805 11.7576131,22.4547717 Z M25.5991,22.43677 C25.810357,22.4381582 25.9154671,22.6734046 25.8690207,22.9497006 C25.8245715,23.2141164 25.638663,23.43677 25.4405902,23.4367683 C25.2290742,23.4353859 25.1236905,23.2003879 25.1701793,22.9238394 C25.214586,22.6596761 25.4014338,22.43677 25.5991,22.43677 Z M21.7341,22.43677 C21.9462141,22.4381638 22.0676475,22.6782797 22.0220207,22.9497006 C21.9775715,23.2141164 21.791663,23.43677 21.5935869,23.4367683 C21.3819859,23.4353762 21.2605525,23.1952603 21.3061793,22.9238394 C21.3506285,22.6594236 21.536537,22.43677 21.7341,22.43677 Z M17.2381,22.43677 C17.4501596,22.4381634 17.5706875,22.6780416 17.5250207,22.9497006 C17.4805715,23.2141164 17.294663,23.43677 17.0965869,23.4367683 C16.8849859,23.4353762 16.7635525,23.1952603 16.8091793,22.9238394 C16.85367,22.6591763 17.0397354,22.43677 17.2381,22.43677 Z M28.4962792,17.7957469 C28.4111726,17.8723429 28.3569291,17.9284678 28.3166409,17.9820378 C28.2686445,18.0458573 28.2367639,18.1107311 28.2025468,18.2123843 C28.1800884,18.2791044 28.1580001,18.355626 28.0231,18.62377 L27.7421,18.62377 L27.6669532,18.5248665 L28.1409532,16.8208665 L28.2161,16.76377 L32.5901,16.76377 L32.6654376,16.861975 L32.1331,18.62377 L31.8701,18.62377 L31.792286,18.5403866 C31.8487112,17.7247862 31.6400694,17.46377 30.9085455,17.4055682 L29.7150051,21.953726 C29.6991526,22.0192547 29.6991526,22.0192547 29.6829628,22.0815451 C29.6630254,22.1572023 29.6002696,22.3779195 29.5916919,22.4110019 C29.5317367,22.6466593 29.7253498,22.8354001 30.035774,22.8061148 L30.119602,22.8989835 L29.9731,23.31377 L27.0741,23.31377 L26.9980416,23.2184751 L27.1608466,22.7707801 L27.1845109,22.770403 C27.9115441,22.7588493 28.1049606,22.6577119 28.1758603,22.0552034 L29.4304851,17.4653513 C29.0168346,17.4785546 28.7488809,17.5754971 28.4962792,17.7957469 Z M25.2495491,19.3988085 C25.6532024,19.4114887 25.9727319,19.2733194 26.2420869,18.7495477 L26.4880869,18.7845477 L26.5528906,18.8802034 L26.0201,20.81877 L25.7221,20.81877 L25.644691,20.750354 C25.6382015,20.6979385 25.6359824,20.6472562 25.6335554,20.5322169 C25.6310952,20.415603 25.6298556,20.3729912 25.6262218,20.3061268 C25.613485,20.0784567 25.5082308,20.0268785 25.0021,20.02877 L24.9539852,19.9725921 L24.3925453,21.8982657 C24.3797632,21.9589674 24.3797632,21.9589674 24.3652096,22.0210057 C24.3543265,22.0659137 24.3543265,22.0659137 24.3431903,22.1099418 C24.3284214,22.1678574 24.3112224,22.2323405 24.286555,22.324532 C24.1912906,22.6882691 24.3166969,22.7697442 24.9312302,22.7707701 L25.0063784,22.8691944 L24.8261,23.31377 L22.0861,23.31377 L22.0108216,23.2153456 L22.18906,22.7707967 C22.5487118,22.7613872 22.7607861,22.6195823 22.8357585,22.2845794 L24.012289,17.8944208 C24.0274621,17.8317318 24.0303702,17.8096648 24.0306412,17.7811312 C24.03129,17.745849 24.0355903,17.7215935 24.0486831,17.6784008 C24.0911616,17.5431323 24.0638921,17.4671918 23.9732405,17.4141471 C23.8889019,17.3647965 23.7593614,17.3382841 23.5576353,17.3217856 C23.4827059,17.3160916 23.4827059,17.3160916 23.4083189,17.3112017 C23.3673453,17.308465 23.3673453,17.308465 23.3272413,17.3055497 L23.2570513,17.2104325 L23.3450513,16.8244325 L23.4211,16.76377 L27.8651,16.76377 L27.9404376,16.861975 L27.4081,18.62377 L27.1621,18.62377 L27.0842364,18.5411592 C27.1364956,17.6586531 26.8859194,17.4535198 26.0390133,17.4637647 C26.0031887,17.4641334 26.0031887,17.4641334 25.969883,17.4643849 C25.6739519,17.4666575 25.6397357,17.4807398 25.5647644,17.6527862 C25.5352482,17.720521 25.5041302,17.8127492 25.4637769,17.9496647 L25.1019653,19.3987855 L25.2495491,19.3988085 Z M20.4103518,16.8278519 L20.4871,16.76377 L23.0691,16.76377 L23.1451487,16.8591075 L22.9827806,17.3057519 C22.4386721,17.3174784 22.2589862,17.3945936 22.1613768,17.7222004 L20.9310284,22.2554435 C20.9173671,22.3004078 20.9173671,22.3004078 20.9032776,22.3414409 C20.8548643,22.4806054 20.8614349,22.4608307 20.8534563,22.4980236 C20.8491891,22.5179152 20.8467305,22.5362206 20.8460472,22.5536392 C20.845619,22.5646472 20.845619,22.5646472 20.8451603,22.5752104 C20.8413106,22.663549 20.8452532,22.6878916 20.8661288,22.7075836 C20.9039188,22.7432308 21.0040382,22.7670825 21.1916392,22.7707852 L21.2661584,22.8660649 L21.1021,23.31377 L18.5201,23.31377 L18.4433455,23.2218868 L18.5133455,22.8348868 L18.5907486,22.7707727 C19.0539148,22.7746244 19.3686081,22.6220907 19.4287681,22.3715435 L20.6405638,17.8583206 C20.649901,17.8228128 20.649901,17.8228128 20.6593574,17.7890729 C20.7401118,17.5040966 20.7300136,17.5442934 20.7254329,17.4989684 C20.7129592,17.3643841 20.5967492,17.2969335 20.4209737,17.3056738 L20.3403518,17.2138519 L20.4103518,16.8278519 Z M15.4942227,19.8243719 C15.1065377,20.4656253 14.9126674,20.7862531 14.6411728,21.2351321 C13.9200195,22.4274587 13.465939,23.1772856 13.4043719,23.2769043 C13.3475798,23.3684027 13.2832205,23.4168811 13.2103222,23.4168811 C13.1497473,23.4168811 13.1016381,23.3848083 13.062765,23.3357943 C13.0426196,23.3103937 13.0288188,23.2856376 13.0141,23.23577 L13.0141001,17.9476627 C13.0149256,17.3475288 12.9793454,17.3077724 12.581703,17.3058527 L12.4883518,17.2138519 L12.5583518,16.8278519 L12.6351,16.76377 L14.7961,16.76377 L14.8713651,16.8622437 L14.6912945,17.3057698 C14.4791208,17.3062989 14.4133539,17.3609298 14.4012432,17.4753179 C14.3985969,17.5003125 14.3983784,17.5226076 14.3995019,17.5681535 C14.3998439,17.5818757 14.3998439,17.5818757 14.4000961,17.59599 C14.4005745,17.6689528 14.4005745,17.6689528 14.4005067,17.7503067 C14.400429,17.7887364 14.400429,17.7887364 14.4003219,17.8261811 C14.4001553,17.8825895 14.4001553,17.8825895 14.4001,17.93077 L14.4001,20.2888817 L15.7191,18.17677 L15.719111,17.6304615 C15.7231356,17.3905965 15.6284074,17.31405 15.3209927,17.3057415 L15.2463518,17.2138519 L15.3931,16.76377 L17.6061,16.76377 L17.6828482,16.8556881 L17.5363445,17.3057696 C17.2063678,17.306804 17.1844434,17.3244995 17.1930768,17.6478681 C17.1947728,17.7174033 17.1946093,17.7836132 17.1931,17.94777 L17.1807501,20.2251736 L18.7145857,17.7174901 C18.77962,17.5979675 18.7986034,17.5237917 18.7932128,17.4249639 C18.7869131,17.3079687 18.7224456,17.2912759 18.3482587,17.3020902 C18.2536709,17.3048238 18.1977038,17.3059187 18.1329207,17.3057698 L18.0563869,17.2136596 L18.2041,16.76377 L20.1891,16.76377 L20.2651487,16.8591075 L20.1029765,17.3057474 C19.8151383,17.312674 19.7180551,17.3962046 19.5348112,17.7251881 C19.4295595,17.8989089 19.4295595,17.8989089 19.0084139,18.5937779 C18.6135433,19.2452184 18.218525,19.8966592 17.8496335,20.5046727 C16.8471955,22.1569023 16.226592,23.1771688 16.1616016,23.2781202 C16.0491178,23.4520951 15.9035521,23.4520951 15.7880753,23.344358 C15.7619325,23.3199674 15.7429629,23.295816 15.7191008,23.2354164 L15.7363835,19.4237804 C15.6868052,19.5057958 15.6134225,19.6271878 15.4942227,19.8243719 Z M10.1573688,16.4997892 C10.2775935,16.4971997 10.4116261,16.521626 10.5664383,16.5694014 C10.6533134,16.5962113 10.7421934,16.6287068 10.8544079,16.6733536 C10.946873,16.7105684 10.946873,16.7105684 11.0325712,16.7452399 C11.0972119,16.7711353 11.1439798,16.7889166 11.185036,16.8028633 C11.3391644,16.854866 11.4020674,16.8651876 11.5059462,16.8667466 C11.5385312,16.8672901 11.5385312,16.8672901 11.5696573,16.8689682 C11.8546182,16.8893226 12.0170424,16.8432448 12.1261,16.64077 L12.3721,16.64077 L12.4469153,16.7408304 L11.7921,18.76377 L11.5641,18.76377 L11.4866931,18.6953709 C11.3748906,17.793963 11.03195,17.245647 10.4581344,17.2537631 C10.0346779,17.2593793 9.7535328,17.4455429 9.65513234,17.8781793 C9.52925,18.4279511 9.71657892,18.7407324 10.6344677,19.6308401 C11.3407898,20.3174325 11.6025628,20.7197444 11.6070976,21.3201587 C11.6167018,22.5456512 10.6625898,23.3611788 9.45640469,23.3657694 C9.12459789,23.3670655 8.88515773,23.3190192 8.6161892,23.2202254 C8.57823557,23.2062848 8.53215425,23.1885758 8.45645324,23.1595002 C8.39891417,23.1377847 8.35684249,23.1233453 8.31638666,23.1119664 C8.24177202,23.0909799 8.17600429,23.081934 8.1076418,23.0846895 C8.07342343,23.0859907 8.07342343,23.0859907 8.0347389,23.0869022 C7.90025126,23.0899817 7.84691849,23.092225 7.7716109,23.100137 C7.56797044,23.1215318 7.44777346,23.1742804 7.3481,23.31377 L7.1021,23.31377 L7.02691366,23.2150091 L7.7521,20.80377 L7.9981,20.80377 L8.07396982,20.8998744 C7.85330988,21.8245892 8.3949008,22.6118131 9.21023542,22.6127701 C9.70008681,22.6136206 10.2434161,22.1783676 10.2561685,21.8625008 C10.273552,21.4481156 10.2334012,21.2785856 10.089787,21.1090194 C10.04833,21.0600708 9.536377,20.587517 9.29329664,20.3191415 C9.27739369,20.3015982 9.27739369,20.3015982 9.26147599,20.2840682 C9.14372126,20.1547411 9.08585729,20.0909924 9.02732812,20.0254193 C8.4771161,19.4089897 8.2390948,18.9991222 8.23610104,18.4931721 C8.23016325,17.3412415 9.06624728,16.5240119 10.1573688,16.4997892 Z" id="Combined-Shape"></path>
        </g>
    </g>
</svg>