<?xml version="1.0" encoding="UTF-8"?>
<svg width="12px" height="14px" viewBox="0 0 12 14" version="1.1" xmlns="http://www.w3.org/2000/svg" xmlns:xlink="http://www.w3.org/1999/xlink">
    <!-- Generator: Sketch 48.2 (47327) - http://www.bohemiancoding.com/sketch -->
    <title>Combined Shape</title>
    <desc>Created with Sketch.</desc>
    <defs></defs>
    <g id="Artboard-Copy-27" stroke="none" stroke-width="1" fill="none" fill-rule="evenodd" transform="translate(-1.000000, 0.000000)">
        <path d="M3.29,13.3 C3.29,13.6865993 2.97659932,14 2.59,14 C2.20340068,14 1.89,13.6865993 1.89,13.3 L1.89,0.7 C1.89,0.313400675 2.20340068,-7.77156117e-16 2.59,-7.77156117e-16 C2.97659932,-7.77156117e-16 3.29,0.313400675 3.29,0.7 L3.29,13.3 Z M7.7,13.3 C7.7,13.6865993 7.38659932,14 7,14 C6.61340068,14 6.3,13.6865993 6.3,13.3 L6.3,0.7 C6.3,0.313400675 6.61340068,-7.77156117e-16 7,-7.77156117e-16 C7.38659932,-7.77156117e-16 7.7,0.313400675 7.7,0.7 L7.7,13.3 Z M12.11,13.3 C12.11,13.6865993 11.7965993,14 11.41,14 C11.0234007,14 10.71,13.6865993 10.71,13.3 L10.71,0.7 C10.71,0.313400675 11.0234007,-7.77156117e-16 11.41,-7.77156117e-16 C11.7965993,-7.77156117e-16 12.11,0.313400675 12.11,0.7 L12.11,13.3 Z" id="Combined-Shape" fill="#000000" fill-rule="nonzero"></path>
    </g>
</svg>