<?xml version="1.0" encoding="UTF-8"?>
<svg width="28px" height="30px" viewBox="0 0 28 30" version="1.1" xmlns="http://www.w3.org/2000/svg" xmlns:xlink="http://www.w3.org/1999/xlink">
    <!-- Generator: Sketch 48.2 (47327) - http://www.bohemiancoding.com/sketch -->
    <title>Combined Shape</title>
    <desc>Created with Sketch.</desc>
    <defs></defs>
    <g id="Artboard-Copy-218" stroke="none" stroke-width="1" fill="none" fill-rule="evenodd" transform="translate(-5.000000, -4.000000)">
        <path d="M29.2415,4 C30.8277224,4 32.1135,5.28533834 32.1135,6.871 L32.1135,34 L5.8865,34 L5.8865,4 L29.2415,4 Z M7.5865,5.7 L7.5865,32.3 L30.4135,32.3 L30.4135,6.871 C30.4135,6.22435247 29.8889683,5.7 29.2415,5.7 L7.5865,5.7 Z M20.7854,13.2467 C20.315958,13.2467 19.9354,12.866142 19.9354,12.3967 C19.9354,11.927258 20.315958,11.5467 20.7854,11.5467 L25.8394,11.5467 C26.308842,11.5467 26.6894,11.927258 26.6894,12.3967 C26.6894,12.866142 26.308842,13.2467 25.8394,13.2467 L20.7854,13.2467 Z M16.1695,9.30761847 L17.3715815,10.5097 L13.9405408,13.9407408 C13.6085951,14.2726864 13.0704049,14.2726864 12.7384592,13.9407408 L11.1944185,12.3967 L12.3965,11.1946185 L13.3395,12.1376185 L16.1695,9.30761847 Z M20.7854,19.85 C20.315958,19.85 19.9354,19.469442 19.9354,19 C19.9354,18.530558 20.315958,18.15 20.7854,18.15 L25.8394,18.15 C26.308842,18.15 26.6894,18.530558 26.6894,19 C26.6894,19.469442 26.308842,19.85 25.8394,19.85 L20.7854,19.85 Z M16.1695,15.9109185 L17.3715815,17.113 L13.9405408,20.5440408 C13.6085951,20.8759864 13.0704049,20.8759864 12.7384592,20.5440408 L11.1944185,19 L12.3965,17.7979185 L13.3395,18.7409185 L16.1695,15.9109185 Z M20.7854,26.4533 C20.315958,26.4533 19.9354,26.072742 19.9354,25.6033 C19.9354,25.133858 20.315958,24.7533 20.7854,24.7533 L25.8394,24.7533 C26.308842,24.7533 26.6894,25.133858 26.6894,25.6033 C26.6894,26.072742 26.308842,26.4533 25.8394,26.4533 L20.7854,26.4533 Z M12.3965,26.4533 C11.927058,26.4533 11.5465,26.072742 11.5465,25.6033 C11.5465,25.133858 11.927058,24.7533 12.3965,24.7533 L14.2835,24.7533 C14.752942,24.7533 15.1335,25.133858 15.1335,25.6033 C15.1335,26.072742 14.752942,26.4533 14.2835,26.4533 L12.3965,26.4533 Z" id="Combined-Shape" fill="#000000" fill-rule="nonzero"></path>
    </g>
</svg>