<?xml version="1.0" encoding="UTF-8"?>
<svg width="26px" height="32px" viewBox="0 0 26 32" version="1.1" xmlns="http://www.w3.org/2000/svg" xmlns:xlink="http://www.w3.org/1999/xlink">
    <!-- Generator: Sketch 49 (51002) - http://www.bohemiancoding.com/sketch -->
    <title>Combined Shape</title>
    <desc>Created with Sketch.</desc>
    <defs></defs>
    <g id="Page-1" stroke="none" stroke-width="1" fill="none" fill-rule="evenodd">
        <g id="Artboard-Copy-369" transform="translate(-7.000000, -4.000000)" fill="#000000">
            <path d="M20.655,4.15 C27.081442,4.15 32.335,9.40355796 32.335,15.83 L32.335,24.17 C32.335,30.5957748 27.0811093,35.85 20.655,35.85 L19.344,35.85 C12.8937244,35.85 7.665,30.6206085 7.665,24.17 L7.665,15.834 C7.665,9.40555796 12.920558,4.15 19.349,4.15 L20.655,4.15 Z M29.079,16.983 L29.079,16.623 C29.079,14.794442 27.578558,13.294 25.75,13.294 L14.525,13.294 C12.6955658,13.294 11.195,14.7943183 11.195,16.623 L11.195,16.983 C11.195,18.8123055 12.6951895,20.312 14.525,20.312 L25.75,20.312 C27.5789342,20.312 29.079,18.8121818 29.079,16.983 Z M18.474,16.1727 C18.474,17.3207 17.544,18.2507 16.396,18.2507 C15.248,18.2507 14.318,17.3207 14.318,16.1727 L14.318,15.3557 L18.474,16.1727 Z M21.3625,16.1062 L25.9565,15.2032 L25.9565,16.1062 C25.9565,17.3752 24.9285,18.4032 23.6595,18.4032 C22.3905,18.4032 21.3625,17.3752 21.3625,16.1062 Z" id="Combined-Shape"></path>
        </g>
    </g>
</svg>