<?xml version="1.0" encoding="UTF-8"?>
<svg width="50px" height="46px" viewBox="0 0 50 46" version="1.1" xmlns="http://www.w3.org/2000/svg" xmlns:xlink="http://www.w3.org/1999/xlink">
    <!-- Generator: Sketch 48.2 (47327) - http://www.bohemiancoding.com/sketch -->
    <title>Artboard Copy 245</title>
    <desc>Created with Sketch.</desc>
    <defs></defs>
    <g id="Page-1" stroke="none" stroke-width="1" fill="none" fill-rule="evenodd">
        <g id="Artboard-Copy-245" fill="#000000">
            <path d="M43.7850764,11.2599923 L47.0714765,8.0323 L43.3,8.0323 L43.3,6.3323 L49.15,6.3323 C49.619442,6.3323 50,6.71285796 50,7.1823 L50,12.9423 L48.3,12.9423 L48.3,9.20850872 L44.9947831,12.4546817 C45.627212,13.3196698 46,14.3814064 46,15.5297 C46,18.4435327 43.6011204,20.7997 40.65,20.7997 C37.6988796,20.7997 35.3,18.4435327 35.3,15.5297 C35.3,12.6166824 37.6990661,10.2607 40.65,10.2607 C41.8202073,10.2607 42.9036302,10.6311919 43.7850764,11.2599923 Z M22.4956,20.4985 C18.608612,20.4985 15.4526,17.3984619 15.4526,13.5655 C15.4526,9.73336143 18.6087905,6.6335 22.4956,6.6335 C26.3824095,6.6335 29.5386,9.73336143 29.5386,13.5655 C29.5386,17.3984619 26.382588,20.4985 22.4956,20.4985 Z M22.505,37.999 L12.773,38 C11.636,38 10.714,37.095 10.714,35.978 L10.714,28.838 C10.714,26.604 12.558,24.794 14.832,24.794 L30.027,24.794 C32.301,24.794 34.144,26.604 34.144,28.837 L34.144,38 L22.505,37.999 Z M40.65,11.9607 C38.6311238,11.9607 37,13.5625311 37,15.5297 C37,17.4977446 38.6309954,19.0997 40.65,19.0997 C42.6690046,19.0997 44.3,17.4977446 44.3,15.5297 C44.3,13.5625311 42.6688762,11.9607 40.65,11.9607 Z" id="Combined-Shape"></path>
        </g>
    </g>
</svg>