<?xml version="1.0" encoding="UTF-8"?>
<svg width="50px" height="46px" viewBox="0 0 50 46" version="1.1" xmlns="http://www.w3.org/2000/svg" xmlns:xlink="http://www.w3.org/1999/xlink">
    <!-- Generator: Sketch 48.2 (47327) - http://www.bohemiancoding.com/sketch -->
    <title>Artboard Copy 248</title>
    <desc>Created with Sketch.</desc>
    <defs></defs>
    <g id="Page-1" stroke="none" stroke-width="1" fill="none" fill-rule="evenodd">
        <g id="Artboard-Copy-248" fill="#000000">
            <path d="M42.702,13.4925228 L42.702,15.85385 L44.702,15.85385 L44.702,17.55385 L42.702,17.55385 L42.702,20.55385 L41.002,20.55385 L41.002,17.55385 L39.002,17.55385 L39.002,15.85385 L41.002,15.85385 L41.002,13.4925228 C38.1742824,13.0807756 36.002,10.6456022 36.002,7.70385 C36.002,4.47340796 38.621558,1.85385 41.852,1.85385 C45.082442,1.85385 47.702,4.47340796 47.702,7.70385 C47.702,10.6456022 45.5297176,13.0807756 42.702,13.4925228 Z M22.4956,20.64465 C18.608612,20.64465 15.4526,17.5446119 15.4526,13.71165 C15.4526,9.87951143 18.6087905,6.77965 22.4956,6.77965 C26.3824095,6.77965 29.5386,9.87951143 29.5386,13.71165 C29.5386,17.5446119 26.382588,20.64465 22.4956,20.64465 Z M22.505,38.14515 L12.773,38.14615 C11.636,38.14615 10.714,37.24115 10.714,36.12415 L10.714,28.98415 C10.714,26.75015 12.558,24.94015 14.832,24.94015 L30.027,24.94015 C32.301,24.94015 34.144,26.75015 34.144,28.98315 L34.144,38.14615 L22.505,38.14515 Z M41.852,3.55385 C39.560442,3.55385 37.702,5.41229204 37.702,7.70385 C37.702,9.99540796 39.560442,11.85385 41.852,11.85385 C44.143558,11.85385 46.002,9.99540796 46.002,7.70385 C46.002,5.41229204 44.143558,3.55385 41.852,3.55385 Z" id="Combined-Shape"></path>
        </g>
    </g>
</svg>