<?xml version="1.0" encoding="UTF-8"?>
<svg id="timer-medium" width="18px" height="18px" viewBox="0 0 18 18" version="1.1" xmlns="http://www.w3.org/2000/svg" xmlns:xlink="http://www.w3.org/1999/xlink">
    <!-- Generator: Sketch 48.2 (47327) - http://www.bohemiancoding.com/sketch -->
    <title>Combined Shape</title>
    <desc>Created with Sketch.</desc>
    <defs></defs>
    <g id="Artboard-Copy-37" stroke="none" stroke-width="1" fill-rule="evenodd">
        <path d="M15.8032532,12.4138806 L17.5556219,11.8393656 L17.9917708,13.1696942 L17.3266065,13.3877687 L14.6594038,14.2621615 C14.2451943,14.4033693 13.7937364,14.1776403 13.6638185,13.7690551 L12.5243677,10.3693416 L13.8517948,9.92444007 L14.0742456,10.5881536 L14.5075222,11.8810181 C15.3571721,10.0387665 15.3746299,7.87724523 14.4524376,5.98728499 C12.7968912,2.59182744 8.65903241,1.1671662 5.26341266,2.82369882 C1.86795511,4.47924518 0.443293867,8.617104 2.09976026,12.012588 C3.75634481,15.4083141 7.89335762,16.8327811 11.2887156,15.1763762 L11.9025485,16.4346326 C7.81222643,18.4300715 2.83707539,16.7170146 0.841503822,12.6264208 C-1.15401289,8.53593937 0.559274354,3.55978044 4.64971563,1.56537615 C8.74019705,-0.430140564 13.716356,1.28314668 15.7107358,5.37353778 C16.812699,7.63192411 16.8009194,10.2099503 15.8032532,12.4138806 Z M10.6198573,5.66672962 L11.6098068,6.65667912 L8.56678154,9.69970437 L5.43883204,9.69970437 L5.43883204,8.29970437 L7.98688255,8.29970437 L10.6198573,5.66672962 Z" id="Combined-Shape" fill-rule="nonzero"></path>
    </g>
</svg>