<?xml version="1.0" encoding="UTF-8"?>
<svg width="35px" height="28px" viewBox="0 0 35 28" version="1.1" xmlns="http://www.w3.org/2000/svg" xmlns:xlink="http://www.w3.org/1999/xlink">
    <!-- Generator: Sketch 48.2 (47327) - http://www.bohemiancoding.com/sketch -->
    <title>Artboard Copy 38</title>
    <desc>Created with Sketch.</desc>
    <defs></defs>
    <g id="Page-1" stroke="none" stroke-width="1" fill="none" fill-rule="evenodd">
        <g id="Artboard-Copy-38" fill="#000000" fill-rule="nonzero">
            <path d="M30.0923818,20.4376429 L33.5816181,19.2934576 L34.1113267,20.908824 L33.3036435,21.1736783 L28.6873934,22.687432 C28.1674941,22.8584516 27.610665,22.5779278 27.4328362,22.0580687 L25.5807626,16.5311157 L27.1926686,15.9909685 L27.4627422,16.7969215 L28.4828956,19.8412945 C30.3693406,16.4088798 30.5481659,12.2161742 28.7777019,8.58648528 C25.8335687,2.54961014 18.4795272,0.0175673674 12.4422794,2.96188238 C6.40540423,5.90601563 3.87336146,13.2600571 6.81767647,19.2973049 C9.76180972,25.3341801 17.1158512,27.8662228 23.153099,24.9219078 L23.8982794,26.4498824 C17.0171902,29.8057317 8.64540432,26.9232732 5.28970191,20.0424853 C1.93385256,13.1613961 4.81631114,4.78961023 11.697099,1.43390782 C18.5781882,-1.92194153 26.9499741,0.960517052 30.305652,7.84125473 C32.285375,11.8999527 32.1268127,16.5729217 30.0923818,20.4376429 Z M22.0950484,9.52185434 L23.29713,10.7239359 L18.1511707,15.8698951 L12.9010892,15.8698951 L12.9010892,14.1698951 L17.4470077,14.1698951 L22.0950484,9.52185434 Z" id="Combined-Shape"></path>
        </g>
    </g>
</svg>