<?xml version="1.0" encoding="UTF-8"?>
<svg id="timer" width="14px" height="14px" viewBox="0 0 14 14" version="1.1" xmlns="http://www.w3.org/2000/svg" xmlns:xlink="http://www.w3.org/1999/xlink">
    <!-- Generator: Sketch 48.2 (47327) - http://www.bohemiancoding.com/sketch -->
    <title>Combined Shape</title>
    <desc>Created with Sketch.</desc>
    <defs></defs>
    <g id="Artboard-Copy-36" stroke="none" stroke-width="1" fill-rule="evenodd">
        <path d="M12.3872686,9.27487738 L13.5045443,8.90839313 L13.9408919,10.2386565 L13.2757602,10.4568304 L11.2729458,11.113777 C10.8731855,11.2470304 10.4407615,11.0308184 10.3077998,10.6319313 L9.39856713,7.9161447 L10.7261403,7.4716794 L10.948373,8.135466 L11.1229579,8.65693407 C11.5588018,7.42373472 11.5057533,6.04214695 10.9084248,4.81734662 C9.70893161,2.35790373 6.71203874,1.32608832 4.25243434,2.52566026 C1.79281201,3.72524094 0.760263566,6.72322573 1.95974798,9.18265069 C3.1591952,11.6419994 6.15703978,12.6739549 8.61673841,11.474337 L9.23043434,12.7326603 C6.07584148,14.2711845 2.23983542,12.9507065 0.701424772,9.79634662 C-0.837010641,6.64193595 0.484196348,2.80583654 3.63873841,1.26733705 C6.79326853,-0.271156626 10.6283067,1.04922808 12.1667516,4.20365814 C12.9574806,5.8250191 13.0045102,7.65870573 12.3872686,9.27487738 Z M8.06801163,4.3767239 L9.05796112,5.3666734 L6.72493587,7.69969865 L4.30598638,7.69969865 L4.30598638,6.29969865 L6.14503688,6.29969865 L8.06801163,4.3767239 Z" id="Combined-Shape"  fill-rule="nonzero"></path>
    </g>
</svg>