<?xml version="1.0" encoding="UTF-8"?>
<svg width="15px" height="15px" viewBox="0 0 15 15" version="1.1" xmlns="http://www.w3.org/2000/svg" xmlns:xlink="http://www.w3.org/1999/xlink">
    <!-- Generator: Sketch 49 (51002) - http://www.bohemiancoding.com/sketch -->
    <title>Artboard Copy 334</title>
    <desc>Created with Sketch.</desc>
    <defs></defs>
    <g id="Artboard-Copy-334" stroke="none" stroke-width="1" fill="none" fill-rule="evenodd">
        <path d="M10.3714932,5.6141 L9.0779,5.6141 L9.0779,4.6141 L11.5349,4.6141 C11.8110424,4.6141 12.0349,4.83795763 12.0349,5.1141 L12.0349,7.5711 L11.0349,7.5711 L11.0349,6.36490678 L7.84855339,9.55125339 C7.65329124,9.74651554 7.33670876,9.74651554 7.14144661,9.55125339 L5.31,7.71980678 L3.125,9.90480678 L2.41789322,9.1977 L4.95644661,6.65914661 C5.15170876,6.46388446 5.46829124,6.46388446 5.66355339,6.65914661 L7.495,8.49059322 L10.3714932,5.6141 Z M1.4333,0 L13.5663,0 C14.3582049,0 15.0003,0.641620187 15.0003,1.433 L15.0003,13.567 C15.0003,14.3583798 14.3582049,15 13.5663,15 L1.4333,15 C0.642157625,15 0.0003,14.3581424 0.0003,13.567 L0.0003,1.433 C0.0003,0.641857625 0.642157625,0 1.4333,0 Z M1.4333,1 C1.19444237,1 1.0003,1.19414237 1.0003,1.433 L1.0003,13.567 C1.0003,13.8058576 1.19444237,14 1.4333,14 L13.5663,14 C13.8060857,14 14.0003,13.8059294 14.0003,13.567 L14.0003,1.433 C14.0003,1.19407064 13.8060857,1 13.5663,1 L1.4333,1 Z" id="Combined-Shape" fill="#000000" fill-rule="nonzero"></path>
    </g>
</svg>