<?xml version="1.0" encoding="UTF-8"?>
<svg width="14px" height="12px" viewBox="0 0 14 12" version="1.1" xmlns="http://www.w3.org/2000/svg" xmlns:xlink="http://www.w3.org/1999/xlink">
    <!-- Generator: Sketch 48.2 (47327) - http://www.bohemiancoding.com/sketch -->
    <title>Combined Shape</title>
    <desc>Created with Sketch.</desc>
    <defs></defs>
    <g id="Artboard-Copy-81" stroke="none" stroke-width="1" fill="none" fill-rule="evenodd" transform="translate(0.000000, -1.000000)">
        <path d="M6.35,7.42223016 L4.88265896,8.83522524 L3.98092476,7.89880896 L6.2581329,5.70594186 C6.67184471,5.30755271 7.32815529,5.30755271 7.7418671,5.70594186 L10.0190752,7.89880896 L9.11734104,8.83522524 L7.65,7.42223016 L7.65,12.36505 L6.35,12.36505 L6.35,7.42223016 Z M13.95,8.14995 C13.95,9.64739977 12.7834779,10.8644557 11.2,11.02395 L8.87,11.02395 L8.87,9.72395 L9.52,9.72395 L11.133472,9.72736356 C12.003642,9.63783076 12.65,8.96347245 12.65,8.14995 C12.65,7.33553281 12.0037573,6.6610811 11.133472,6.57153644 L10.608042,6.51747434 L10.5534775,5.99209626 C10.3761963,4.28513137 8.83393887,2.93495 7,2.93495 C5.42865491,2.93495 4.05558718,3.93157076 3.58542123,5.36015192 L3.46169055,5.73610284 L3.07089248,5.79875459 C2.09952596,5.95448161 1.35,6.79643995 1.35,7.74495 C1.35,8.77371409 2.17510338,9.63308257 3.22,9.72395 L5.13,9.72395 L5.13,11.02395 L4.48,11.02395 L3.16511963,11.021629 C1.4043514,10.8724323 0.05,9.46183707 0.05,7.74495 C0.05,6.27642426 1.08268478,4.99640602 2.48306375,4.59959603 C3.22664166,2.83106895 4.99748671,1.63495 7,1.63495 C9.31916791,1.63495 11.3055621,3.233228 11.768849,5.37151571 C13.0336392,5.71467904 13.95,6.82192084 13.95,8.14995 Z" id="Combined-Shape" fill="#000000" fill-rule="nonzero"></path>
    </g>
</svg>