<?xml version="1.0" encoding="UTF-8"?>
<svg width="29px" height="18px" viewBox="0 0 29 18" version="1.1" xmlns="http://www.w3.org/2000/svg" xmlns:xlink="http://www.w3.org/1999/xlink">
    <!-- Generator: Sketch 48.2 (47327) - http://www.bohemiancoding.com/sketch -->
    <title>Combined Shape</title>
    <desc>Created with Sketch.</desc>
    <defs></defs>
    <g id="Artboard-Copy-167" stroke="none" stroke-width="1" fill="none" fill-rule="evenodd" transform="translate(-5.000000, -10.000000)">
        <path d="M30.2026926,25.4144754 C30.2032856,25.4149098 30.2038787,25.4153444 30.2044718,25.4157791 C31.1625425,24.7422476 32.2622082,24.3492355 33.4461202,24.5265787 L33.1942798,26.2078213 C32.4732017,26.0998079 31.7009548,26.4070012 31.0258723,26.9209086 C30.5245329,27.3035097 29.838472,27.2858594 29.3486441,26.9002502 C27.8564181,25.7263141 26.5722581,25.9516086 25.4794678,26.8727402 C24.9854353,27.2897461 24.2808343,27.2913032 23.7751874,26.906172 C22.1575627,25.6779387 20.9742804,25.8696175 20.0355859,26.7665922 C19.5339568,27.2461716 18.7406135,27.2645052 18.2194583,26.7987894 C17.0337765,25.7346537 15.6754144,25.9906579 14.3848014,26.9344186 C13.8572111,27.3200684 13.1513282,27.2598768 12.6748932,26.8331795 C11.6946822,25.954667 10.8218677,25.7700219 10.0158639,26.0603585 L10.0173353,26.0644273 L9.87904064,26.1144404 C9.582534,26.2420358 9.29492058,26.4334025 9.01412264,26.6773349 C8.46801193,27.1509759 7.62371317,27.165381 7.1078285,26.6141978 C6.97515946,26.4720649 6.68884491,26.3294914 6.29637867,26.2213267 C6.01677567,26.1442673 5.70838475,26.0903643 5.39866482,26.0570453 C5.21285498,26.0370563 5.07175748,26.028651 5.00017482,26.0269641 L5.04022518,24.3274359 C5.15639512,24.3301735 5.34386467,24.3413413 5.58049819,24.3667978 C5.97485051,24.4092214 6.37053184,24.4783817 6.74806295,24.5824303 C7.16060258,24.6961273 7.52706536,24.8435487 7.83815059,25.0373524 L6.01266467,19.9895727 C5.81227434,19.4354593 6.22276492,18.8505 6.812,18.8505 L10.3155,18.8505 L10.3155,14.0814 L20.6559,14.0814 L20.6559,10.0005 L28.7578932,10.0005 L28.6853785,18.8505 L31.37,18.8505 C31.9595151,18.8505 32.370027,19.4359739 32.1691102,19.9901945 L30.2026926,25.4144754 Z M28.686528,24.608739 L30.1577262,20.5505 L8.02327114,20.5505 L9.43661276,24.4586304 C10.7242816,23.9851875 12.1637792,24.1886594 13.6140307,25.3981244 C15.3411432,24.2257429 17.3096771,23.8931136 19.1030292,25.3203822 C20.533583,24.1164755 22.4540566,23.8768673 24.5973047,25.400875 C25.7737682,24.4955127 27.1830427,24.1050886 28.686528,24.608739 Z M26.9853214,18.8505 L27.0439068,11.7005 L22.3559,11.7005 L22.3559,18.8505 L26.9853214,18.8505 Z M20.6559,18.8505 L20.6559,15.7814 L12.0155,15.7814 L12.0155,18.8505 L20.6559,18.8505 Z" id="Combined-Shape" fill="#000000" fill-rule="nonzero"></path>
    </g>
</svg>