<?xml version="1.0" encoding="UTF-8"?>
<svg width="14px" height="10px" viewBox="0 0 14 10" version="1.1" xmlns="http://www.w3.org/2000/svg" xmlns:xlink="http://www.w3.org/1999/xlink">
    <!-- Generator: Sketch 48.2 (47327) - http://www.bohemiancoding.com/sketch -->
    <title>Combined Shape</title>
    <desc>Created with Sketch.</desc>
    <defs></defs>
    <g id="Artboard-Copy-63" stroke="none" stroke-width="1" fill="none" fill-rule="evenodd" transform="translate(0.000000, -2.000000)">
        <path d="M1.84166562,7.17574204 C2.17915487,7.60366744 2.57119901,8.03220125 3.01115435,8.43066486 C4.2390636,9.54277128 5.58467749,10.199 7,10.199 C8.41532251,10.199 9.7609364,9.54277128 10.9888457,8.43066486 C11.428801,8.03220125 11.8208451,7.60366744 12.1583344,7.17574204 C12.2075349,7.11335742 12.2528027,7.05462411 12.2940551,7 C12.2528027,6.94537589 12.2075349,6.88664258 12.1583344,6.82425796 C11.8208451,6.39633256 11.428801,5.96779875 10.9888457,5.56933514 C9.7609364,4.45722872 8.41532251,3.801 7,3.801 C5.58467749,3.801 4.2390636,4.45722872 3.01115435,5.56933514 C2.57119901,5.96779875 2.17915487,6.39633256 1.84166562,6.82425796 C1.79246513,6.88664258 1.74719735,6.94537589 1.70594487,7 C1.74719735,7.05462411 1.79246513,7.11335742 1.84166562,7.17574204 Z M0.257984646,6.62647916 C0.347314843,6.48489442 0.510134491,6.25180569 0.742396879,5.95730454 C1.12561075,5.47140181 1.56958224,4.9861075 2.07134565,4.53166486 C3.5340614,3.20689628 5.18657251,2.401 7,2.401 C8.81342749,2.401 10.4659386,3.20689628 11.9286543,4.53166486 C12.4304178,4.9861075 12.8743892,5.47140181 13.2576031,5.95730454 C13.4898655,6.25180569 13.6526852,6.48489442 13.7420154,6.62647916 L13.9776812,7 L13.7420154,7.37352084 C13.6526852,7.51510558 13.4898655,7.74819431 13.2576031,8.04269546 C12.8743892,8.52859819 12.4304178,9.0138925 11.9286543,9.46833514 C10.4659386,10.7931037 8.81342749,11.599 7,11.599 C5.18657251,11.599 3.5340614,10.7931037 2.07134565,9.46833514 C1.56958224,9.0138925 1.12561075,8.52859819 0.742396879,8.04269546 C0.510134491,7.74819431 0.347314843,7.51510558 0.257984646,7.37352084 L0.0223187636,7 L0.257984646,6.62647916 Z M7.016,9.1759 C8.259,9.1759 9.271,8.1649 9.271,6.9209 C9.271,5.6769 8.259,4.6659 7.016,4.6659 C5.773,4.6659 4.761,5.6769 4.761,6.9209 C4.761,8.1649 5.773,9.1759 7.016,9.1759 Z" id="Combined-Shape" fill="#000000" fill-rule="nonzero"></path>
    </g>
</svg>