<?xml version="1.0" encoding="UTF-8"?>
<svg width="34px" height="40px" viewBox="0 0 34 40" version="1.1" xmlns="http://www.w3.org/2000/svg" xmlns:xlink="http://www.w3.org/1999/xlink">
    <!-- Generator: Sketch 48.2 (47327) - http://www.bohemiancoding.com/sketch -->
    <title>Combined Shape</title>
    <desc>Created with Sketch.</desc>
    <defs></defs>
    <g id="Artboard-Copy-251" stroke="none" stroke-width="1" fill="none" fill-rule="evenodd" transform="translate(-3.000000, 0.000000)">
        <path d="M30.5123479,34.6492794 C28.9478097,35.9454942 26.9393857,36.7245796 24.7490296,36.7245796 C19.7564169,36.7245796 15.7090296,32.676851 15.7090296,27.6835796 C15.7090296,22.6911376 19.7565876,18.6435796 24.7490296,18.6435796 C29.7414717,18.6435796 33.7890296,22.6911376 33.7890296,27.6835796 C33.7890296,29.8739983 33.0101708,31.8824616 31.7143261,33.4470946 L36.9528704,38.6856389 L35.7507889,39.8877204 L30.5123479,34.6492794 Z M14.2229296,14.1992796 C10.3328117,14.1992796 7.17992962,11.0460458 7.17992962,7.15627962 C7.17992962,3.26568922 10.3326359,0.112279618 14.2229296,0.112279618 C18.1132234,0.112279618 21.2659296,3.26568922 21.2659296,7.15627962 C21.2659296,11.0460458 18.1130475,14.1992796 14.2229296,14.1992796 Z M14.2229296,12.4992796 C17.174121,12.4992796 19.5659296,10.1072042 19.5659296,7.15627962 C19.5659296,4.20448842 17.1742544,1.81227962 14.2229296,1.81227962 C11.2716049,1.81227962 8.87992962,4.20448842 8.87992962,7.15627962 C8.87992962,10.1072042 11.2717382,12.4992796 14.2229296,12.4992796 Z M12.5381296,28.4123796 L12.5381296,30.1123796 L5.70012962,30.1123796 C4.23468758,30.1123796 3.04712962,28.9248217 3.04712962,27.4593796 L3.04712962,21.9673796 C3.04712962,19.5066286 5.04199646,17.5113796 7.50312962,17.5113796 L17.8101296,17.5113796 L17.8101296,19.2113796 L7.50312962,19.2113796 C5.98095344,19.2113796 4.74712962,20.4454398 4.74712962,21.9673796 L4.74712962,27.4593796 C4.74712962,27.9859376 5.17357166,28.4123796 5.70012962,28.4123796 L12.5381296,28.4123796 Z M24.7490296,20.3435796 C20.6954717,20.3435796 17.4090296,23.6300217 17.4090296,27.6835796 C17.4090296,31.737999 20.6953331,35.0245796 24.7490296,35.0245796 C28.8027262,35.0245796 32.0890296,31.737999 32.0890296,27.6835796 C32.0890296,23.6300217 28.8025876,20.3435796 24.7490296,20.3435796 Z" id="Combined-Shape" fill="#000000" fill-rule="nonzero"></path>
    </g>
</svg>