<?xml version="1.0" encoding="UTF-8"?>
<svg width="18px" height="18px" viewBox="0 0 18 18" version="1.1" xmlns="http://www.w3.org/2000/svg" xmlns:xlink="http://www.w3.org/1999/xlink">
    <!-- Generator: Sketch 48.2 (47327) - http://www.bohemiancoding.com/sketch -->
    <title>Combined Shape</title>
    <desc>Created with Sketch.</desc>
    <defs></defs>
    <g id="Artboard-Copy-103" stroke="none" stroke-width="1" fill="none" fill-rule="evenodd">
        <path d="M9,18 C4.02940068,18 -7.77156117e-16,13.9705993 -7.77156117e-16,9 C-7.77156117e-16,4.02940068 4.02940068,-7.77156117e-16 9,-7.77156117e-16 C13.9705993,-7.77156117e-16 18,4.02940068 18,9 C18,13.9705993 13.9705993,18 9,18 Z M9,16.6 C13.1974007,16.6 16.6,13.1974007 16.6,9 C16.6,4.80259932 13.1974007,1.4 9,1.4 C4.80259932,1.4 1.4,4.80259932 1.4,9 C1.4,13.1974007 4.80259932,16.6 9,16.6 Z M8.3,4.3941 L9.7,4.3941 L9.7,10.1881 L8.3,10.1881 L8.3,4.3941 Z M9.9881,12.3745 C9.9881,12.9205 9.5461,13.3625 9.0001,13.3625 C8.4541,13.3625 8.0121,12.9205 8.0121,12.3745 C8.0121,11.8285 8.4541,11.3865 9.0001,11.3865 C9.5461,11.3865 9.9881,11.8285 9.9881,12.3745 Z" id="Combined-Shape" fill="#000000" fill-rule="nonzero"></path>
    </g>
</svg>