<?xml version="1.0" encoding="UTF-8"?>
<svg width="14px" height="14px" viewBox="0 0 14 14" version="1.1" xmlns="http://www.w3.org/2000/svg" xmlns:xlink="http://www.w3.org/1999/xlink">
    <!-- Generator: Sketch 48.2 (47327) - http://www.bohemiancoding.com/sketch -->
    <title>Combined Shape</title>
    <desc>Created with Sketch.</desc>
    <defs></defs>
    <g id="Artboard-Copy-102" stroke="none" stroke-width="1" fill="none" fill-rule="evenodd">
        <path d="M7,14 C3.13440068,14 -7.77156117e-16,10.8655993 -7.77156117e-16,7 C-7.77156117e-16,3.13440068 3.13440068,-7.77156117e-16 7,-7.77156117e-16 C10.8655993,-7.77156117e-16 14,3.13440068 14,7 C14,10.8655993 10.8655993,14 7,14 Z M7,12.6 C10.0924007,12.6 12.6,10.0924007 12.6,7 C12.6,3.90759932 10.0924007,1.4 7,1.4 C3.90759932,1.4 1.4,3.90759932 1.4,7 C1.4,10.0924007 3.90759932,12.6 7,12.6 Z M6.3,3.3353 L7.7,3.3353 L7.7,8.0703 L6.3,8.0703 L6.3,3.3353 Z M7.75,9.5613 C7.75,9.9753 7.414,10.3113 7,10.3113 C6.586,10.3113 6.25,9.9753 6.25,9.5613 C6.25,9.1473 6.586,8.8113 7,8.8113 C7.414,8.8113 7.75,9.1473 7.75,9.5613 Z" id="Combined-Shape" fill="#000000" fill-rule="nonzero"></path>
    </g>
</svg>