<?xml version="1.0" encoding="UTF-8"?>
<svg width="45px" height="30px" viewBox="0 0 45 30" version="1.1" xmlns="http://www.w3.org/2000/svg" xmlns:xlink="http://www.w3.org/1999/xlink">
    <!-- Generator: Sketch 49 (51002) - http://www.bohemiancoding.com/sketch -->
    <title>Artboard Copy 345</title>
    <desc>Created with Sketch.</desc>
    <defs></defs>
    <g id="Artboard-Copy-345" stroke="none" stroke-width="1" fill="none" fill-rule="evenodd">
        <path d="M32.1395645,22.3332883 C27.1755775,22.2996645 23.1621,18.2657495 23.1621,13.2935 C23.1621,12.4735661 23.2712754,11.6791187 23.4758815,10.9239024 C21.4496608,10.9753544 19.2841578,10.6557906 17.0260649,9.85709515 L12.7002,13.7571381 L12.7002,18.121 C12.7002,23.717558 17.282642,28.3 22.8792,28.3 C26.9759367,28.3 30.5292708,25.8445501 32.1395645,22.3332883 Z M29.9181567,4.54452922 C28.0861894,2.78526507 25.6027818,1.7 22.8792,1.7 C17.4227896,1.7 12.9303406,6.05581097 12.7087648,11.4605212 L16.2688348,8.25089109 C16.5060943,8.0369865 16.8432525,7.97416934 17.1416254,8.08827833 C19.6306223,9.04016405 21.9883267,9.34819139 24.14582,9.18846374 C25.305672,6.91687762 27.3980485,5.20063513 29.9181567,4.54452922 Z M31.973373,4.25633754 C32.0493862,4.25444956 32.1256323,4.2535 32.2021,4.2535 C37.194542,4.2535 41.2421,8.30105796 41.2421,13.2935 C41.2421,15.4839323 40.4632126,17.4922639 39.1673004,19.0567188 L44.4060408,24.2954592 L43.2039592,25.4975408 L37.9652058,20.2587873 C36.8539215,21.179277 35.5186969,21.838887 34.0533835,22.1437968 C32.3964201,26.7138701 28.0042967,30 22.8792,30 C16.343758,30 11.0002,24.656442 11.0002,18.121 L11.0002,11.879 C11.0002,5.34355796 16.343758,-1.77635684e-15 22.8792,-1.77635684e-15 C26.5195731,-1.77635684e-15 29.7901385,1.65795361 31.973373,4.25633754 Z M22.0950894,22.9303134 C21.5716211,23.1695056 21.0554152,23.3578794 20.5579618,23.4760384 C20.1897293,23.5635038 19.8382599,23.6107 19.5042,23.6107 C19.034758,23.6107 18.6542,23.230142 18.6542,22.7607 C18.6542,22.291258 19.034758,21.9107 19.5042,21.9107 C19.6951147,21.9107 19.9177882,21.8807989 20.1650951,21.8220566 C20.5424988,21.7324127 20.9584108,21.5806382 21.3885606,21.3840866 C21.6548023,21.2624309 21.9094901,21.1315131 22.1424208,21.0008987 C22.2799645,20.923772 22.3772867,20.8654111 22.424782,20.8353656 C22.7177372,20.6500423 23.0938807,20.6611869 23.3753499,20.8635296 C23.547337,20.9871677 23.8738073,21.1880426 24.2970505,21.3902011 C24.9821788,21.7174468 25.6583248,21.9107 26.2542,21.9107 C26.723642,21.9107 27.1042,22.291258 27.1042,22.7607 C27.1042,23.230142 26.723642,23.6107 26.2542,23.6107 C25.3660752,23.6107 24.4585962,23.3513282 23.5643495,22.9241989 C23.2967292,22.7963723 23.059121,22.6682114 22.8576616,22.5496754 C22.6387967,22.6689349 22.3811426,22.799605 22.0950894,22.9303134 Z M32.2021,5.9535 C28.148542,5.9535 24.8621,9.23994204 24.8621,13.2935 C24.8621,17.3476965 28.1481806,20.6335 32.2021,20.6335 C36.2560194,20.6335 39.5421,17.3476965 39.5421,13.2935 C39.5421,9.23994204 36.255658,5.9535 32.2021,5.9535 Z" id="Combined-Shape" fill="#000000" fill-rule="nonzero"></path>
    </g>
</svg>