<?xml version="1.0" encoding="UTF-8"?>
<svg width="26px" height="30px" viewBox="0 0 26 30" version="1.1" xmlns="http://www.w3.org/2000/svg" xmlns:xlink="http://www.w3.org/1999/xlink">
    <!-- Generator: Sketch 48.2 (47327) - http://www.bohemiancoding.com/sketch -->
    <title>Combined Shape</title>
    <desc>Created with Sketch.</desc>
    <defs></defs>
    <g id="Artboard-Copy-242" stroke="none" stroke-width="1" fill="none" fill-rule="evenodd" transform="translate(-6.000000, -4.000000)">
        <path d="M10.2936401,13.7890608 L6.26155601,9.93983064 L10.0983891,6.10299758 L13.239391,9.07532315 L16.3716188,4.06318852 L16.774104,4.01384168 C16.8062786,4.01012571 16.8062786,4.01012571 16.8705766,4.00532235 C17.3923486,3.97231209 18.0993533,4.06018301 18.9429541,4.35765648 C20.1893154,4.79715272 21.4760412,5.61637646 22.753482,6.89338071 C24.0310241,8.17048613 24.8505952,9.45736366 25.290276,10.7042138 C25.5878467,11.5480672 25.6757476,12.2553918 25.6427463,12.7774376 C25.6379477,12.8417228 25.6379477,12.8417228 25.6342371,12.8738775 L25.5849251,13.2764209 L20.5950135,16.394761 L31.4917679,27.3747752 C31.6497765,27.5339912 31.738444,27.7492109 31.738444,27.9735242 L31.738444,33.1495242 C31.738444,33.9066557 30.8231577,34.2859597 30.2876051,33.7507668 L15.8729027,19.3457445 L14.1176137,20.4426754 L9.2053928,15.5304545 L10.2936401,13.7890608 Z M12.3202794,10.5460691 L10.1310989,8.47445079 L8.69393198,9.91161773 L11.2135757,12.3169963 L12.3202794,10.5460691 Z M17.3525672,18.4210594 L30.038444,31.098417 L30.038444,28.3237122 L19.1167517,17.3185695 L17.3525672,18.4210594 Z M21.551606,8.09566767 C19.8691387,6.41377543 18.4038329,5.77674278 17.3509608,5.70387917 L11.3636952,15.2845939 L14.3634743,18.284373 L23.9441965,12.2971027 C23.871383,11.2434399 23.2341546,9.77764128 21.551606,8.09566767 Z" id="Combined-Shape" fill="#000000" fill-rule="nonzero"></path>
    </g>
</svg>