<?xml version="1.0" encoding="UTF-8"?>
<svg width="24px" height="42px" viewBox="0 0 24 42" version="1.1" xmlns="http://www.w3.org/2000/svg" xmlns:xlink="http://www.w3.org/1999/xlink">
    <!-- Generator: Sketch 49 (51002) - http://www.bohemiancoding.com/sketch -->
    <title>Artboard Copy 390</title>
    <desc>Created with Sketch.</desc>
    <defs></defs>
    <g id="Artboard-Copy-390" stroke="none" stroke-width="1" fill="none" fill-rule="evenodd">
        <path d="M6.79069688,32.9270614 C6.82004268,30.2228376 9.02122749,28.0398 11.7324,28.0398 C14.461842,28.0398 16.6744,30.252358 16.6744,32.9818 C16.6744,33.0187023 16.6739958,33.0555102 16.6731917,33.0922192 C19.9301316,31.3422003 22.0589,27.9173117 22.0589,24.1207 L22.0589,17.8787 C22.0589,12.2823555 17.4756714,7.6997 11.8789,7.6997 C6.28234204,7.6997 1.6999,12.282142 1.6999,17.8787 L1.6999,24.1207 C1.6999,27.7828583 3.67955323,31.1181906 6.79069688,32.9270614 Z M16.1493701,35.2015598 C15.3364514,36.816837 13.663926,37.9248 11.7324,37.9248 C11.482353,37.9248 11.2366466,37.9062319 10.9965837,37.8703988 L5.69398058,41.8471146 C5.35557845,42.1009011 4.88206088,42.0672424 4.58295924,41.7681408 L2.94595924,40.1311408 C2.64683152,39.832013 2.61319642,39.3584444 2.86704369,39.0200418 L6.21661659,34.5547415 C2.42845911,32.4862507 -0.0001,28.5064683 -0.0001,24.1207 L-0.0001,17.8787 C-0.0001,11.343258 5.34345796,5.9997 11.8789,5.9997 C18.4145079,5.9997 23.7589,11.3434238 23.7589,17.8787 L23.7589,24.1207 C23.7589,29.0524238 20.6876597,33.4404829 16.1493701,35.2015598 Z M9.10121965,37.1668828 C8.4744854,36.7719002 7.94271327,36.239967 7.54787445,35.6130575 L4.66936576,39.4503842 L5.26377591,40.0447944 L9.10121965,37.1668828 Z M11.7324,29.7398 C9.94184204,29.7398 8.4904,31.191242 8.4904,32.9818 C8.4904,34.7732355 9.94171956,36.2248 11.7324,36.2248 C13.5230804,36.2248 14.9744,34.7732355 14.9744,32.9818 C14.9744,31.191242 13.522958,29.7398 11.7324,29.7398 Z" id="Combined-Shape" fill="#000000" fill-rule="nonzero"></path>
    </g>
</svg>