<?xml version="1.0" encoding="UTF-8"?>
<svg width="24px" height="42px" viewBox="0 0 24 42" version="1.1" xmlns="http://www.w3.org/2000/svg" xmlns:xlink="http://www.w3.org/1999/xlink">
    <!-- Generator: Sketch 49 (51002) - http://www.bohemiancoding.com/sketch -->
    <title>Artboard Copy 396</title>
    <desc>Created with Sketch.</desc>
    <defs></defs>
    <g id="Artboard-Copy-396" stroke="none" stroke-width="1" fill="none" fill-rule="evenodd">
        <path d="M15.9927337,35.3060642 C15.1488953,36.8227531 13.5300618,37.8487 11.6714,37.8487 C11.421382,37.8487 11.1757035,37.8301362 10.9356671,37.7943113 L5.63308058,41.7710146 C5.29467845,42.0248011 4.82116088,41.9911424 4.52205924,41.6920408 L2.88505924,40.0550408 C2.58593152,39.755913 2.55229642,39.2823444 2.80614369,38.9439418 L6.16874054,34.4612793 C2.49229625,32.3777419 0.1205,28.4535534 0.1205,24.1205 L0.1205,17.8795 C0.1205,11.3442238 5.4648921,6.0005 12.0005,6.0005 C18.535942,6.0005 23.8795,11.344058 23.8795,17.8795 L23.8795,24.1205 C23.8795,29.1675788 20.6639883,33.6285612 15.9927337,35.3060642 Z M16.6052321,33.1923363 C19.9566045,31.4809505 22.1795,28.0005644 22.1795,24.1205 L22.1795,18.8216647 L17.95141,15.85683 C17.625761,15.9907884 17.2038888,16.1411727 16.6928916,16.2897374 C13.6048243,17.1875465 10.0115353,17.223972 6.14706491,15.8570951 L1.8205,19.7577692 L1.8205,24.1205 C1.8205,27.721171 3.73582965,30.9962432 6.73013468,32.8196117 C6.77607507,30.1298858 8.97071208,27.9637 11.6714,27.9637 C14.400842,27.9637 16.6134,30.176258 16.6134,32.9057 C16.6134,33.0019128 16.6106526,33.097483 16.6052321,33.1923363 Z M7.48692009,35.53703 L4.60846576,39.3742842 L5.20287591,39.9686944 L9.04027399,37.090817 C8.41354029,36.6958461 7.88176567,36.1639261 7.48692009,35.53703 Z M22.1106642,16.6970879 C21.5197072,11.6517017 17.1973133,7.7005 12.0005,7.7005 C6.54384147,7.7005 2.05061372,12.0565778 1.82906134,17.4611553 L5.38983477,14.2508911 C5.6270943,14.0369865 5.96425248,13.9741693 6.2626254,14.0882783 C9.94237969,15.4955543 13.3351689,15.4955543 16.2182935,14.6573292 C16.6332564,14.536685 16.9973923,14.4082023 17.3067395,14.280925 C17.4850536,14.2075597 17.6009013,14.1534808 17.6503137,14.1278249 C17.9315177,13.9818183 18.2705901,14.0043389 18.5300141,14.186253 L22.1106642,16.6970879 Z M11.6714,29.6637 C9.88084204,29.6637 8.4294,31.115142 8.4294,32.9057 C8.4294,34.6971355 9.88071956,36.1487 11.6714,36.1487 C13.4620804,36.1487 14.9134,34.6971355 14.9134,32.9057 C14.9134,31.115142 13.461958,29.6637 11.6714,29.6637 Z" id="Combined-Shape" fill="#000000" fill-rule="nonzero"></path>
    </g>
</svg>