<?xml version="1.0" encoding="UTF-8"?>
<svg width="23px" height="35px" viewBox="0 0 23 35" version="1.1" xmlns="http://www.w3.org/2000/svg" xmlns:xlink="http://www.w3.org/1999/xlink">
    <!-- Generator: Sketch 49 (51002) - http://www.bohemiancoding.com/sketch -->
    <title>Artboard Copy 393</title>
    <desc>Created with Sketch.</desc>
    <defs></defs>
    <g id="Artboard-Copy-393" stroke="none" stroke-width="1" fill="none" fill-rule="evenodd">
        <path d="M14.460378,28.1390585 C13.6561092,29.7788854 11.9704304,30.9076 10.0209,30.9076 C9.77085302,30.9076 9.52514658,30.8890319 9.28508369,30.8531988 L3.98248058,34.8299146 C3.64407845,35.0837011 3.17056088,35.0500424 2.87145924,34.7509408 L1.23445924,33.1139408 C0.93533152,32.814813 0.901696418,32.3412444 1.15554369,32.0028418 L2.87502343,29.7106112 C2.59525112,29.7453117 2.3179599,29.774261 2.04437227,29.7978761 C1.73060008,29.8249598 1.44353195,29.8430019 1.18861417,29.8537268 C1.03271545,29.8602858 0.920112026,29.8629374 0.856289004,29.8633796 C0.335793908,29.8669858 -0.0656634557,29.4061542 0.00924940851,28.8910657 C0.463957524,25.7645674 0.791417434,22.5200592 1.01207385,19.3477932 C1.08931172,18.2373834 1.14766099,17.2156365 1.18972984,16.3062007 C1.20443034,15.9884083 1.21604216,15.7075265 1.2248924,15.4665077 C1.23017196,15.3227293 1.23334513,15.2247034 1.2344,15.1994 C1.2344,9.58795796 5.82195796,5.0004 11.4334,5.0004 C17.0456728,5.0004 21.6334,9.58778877 21.6333221,15.2109081 C21.6330369,15.2317774 21.6330369,15.2317774 21.632105,15.3420466 C21.6255611,16.2626402 21.6395029,17.5180504 21.6909206,18.9874416 C21.7690559,21.2203566 21.9184426,23.4271883 22.1555379,25.4855349 C22.2859527,26.6177327 22.4404356,27.6797188 22.6203939,28.6587308 C22.7112593,29.1530584 22.3556774,29.6178554 21.8547945,29.6594801 C21.8137742,29.6628889 21.744286,29.6673786 21.6484374,29.671664 C19.8027093,29.7541879 17.5515746,29.4874741 15.3619622,28.5639027 C15.0539385,28.4339793 14.7532049,28.2924999 14.460378,28.1390585 Z M14.9008998,25.1795848 C16.5770766,24.0427894 17.635,22.1338196 17.635,20.0453 L17.635,14.9871039 C14.227675,14.947322 11.2831708,14.4441554 9.01185628,13.7706717 C8.91260042,13.7414388 8.81015083,13.7480735 8.71577056,13.7896814 L5.233,15.3298186 L5.233,20.0453 C5.233,20.8820345 5.40038273,21.695195 5.72128128,22.4508305 C5.81014616,22.6599243 5.91029601,22.8636283 6.02121961,23.0612175 C6.91958332,21.8257565 8.37642744,21.0226 10.0209,21.0226 C12.4831885,21.0226 14.5248246,22.8232312 14.9008998,25.1795848 Z M5.1973308,24.8842667 C4.77556682,24.3423034 4.42565347,23.7485572 4.15662687,23.1155534 C3.74687623,22.1506936 3.533,21.1116636 3.533,20.0453 L3.533,14.2227814 L4.03922944,13.9989186 L8.02911174,12.2345291 C8.4918201,12.0305394 9.00736915,11.9971522 9.49364009,12.1403705 C11.8026895,12.8250419 14.887926,13.3278554 18.4754044,13.2873542 L19.335,13.2776497 L19.335,20.0453 C19.335,22.8343304 17.8590102,25.367522 15.5491931,26.7839274 C15.7043455,26.8586796 15.862203,26.9298641 16.022649,26.9975397 C17.1106407,27.4564511 18.2817661,27.7414278 19.4745764,27.8827516 C19.9457605,27.9385773 20.3846702,27.9684893 20.7794044,27.9789997 C20.6628555,27.2474771 20.5588402,26.4799421 20.4667048,25.680067 C20.2238984,23.5721397 20.0715637,21.321758 19.9919604,19.0468924 C19.939646,17.5518729 19.9254442,16.2730507 19.932148,15.3299627 C19.9331264,15.2140494 19.9331264,15.2140494 19.9334,15.1994 C19.9334,10.5267009 16.1068168,6.7004 11.4334,6.7004 C6.76084204,6.7004 2.9344,10.526842 2.93406057,15.2234191 C2.932533,15.2774559 2.92920519,15.3802591 2.92374744,15.5288899 C2.91470218,15.7752198 2.90286771,16.0614874 2.88791391,16.3847556 C2.8452562,17.3069213 2.78616016,18.3417447 2.70797615,19.4657568 C2.50857243,22.3324834 2.2229722,25.2579703 1.8358036,28.1094704 C2.69404031,28.0354749 3.52865637,27.9171352 4.35418593,27.7387465 L5.13323486,26.7001999 C5.09744527,26.4602054 5.0789,26.2145717 5.0789,25.9646 C5.0789,25.5935143 5.11979737,25.2319828 5.1973308,24.8842667 Z M5.83637445,28.5958575 L2.95786576,32.4331842 L3.55227591,33.0275944 L7.38971965,30.1496828 C6.7629854,29.7547002 6.23121327,29.222767 5.83637445,28.5958575 Z M10.0209,22.7226 C8.23034204,22.7226 6.7789,24.174042 6.7789,25.9646 C6.7789,27.7560355 8.23021956,29.2076 10.0209,29.2076 C11.8115804,29.2076 13.2629,27.7560355 13.2629,25.9646 C13.2629,24.174042 11.811458,22.7226 10.0209,22.7226 Z" id="Combined-Shape" fill="#000000" fill-rule="nonzero"></path>
    </g>
</svg>