<?xml version="1.0" encoding="UTF-8"?>
<svg id="workflow-medium" width="18px" height="18px" viewBox="0 0 18 18" version="1.1" xmlns="http://www.w3.org/2000/svg" xmlns:xlink="http://www.w3.org/1999/xlink">
    <!-- Generator: Sketch 48.2 (47327) - http://www.bohemiancoding.com/sketch -->
    <title>Combined Shape</title>
    <desc>Created with Sketch.</desc>
    <defs></defs>
    <g id="Artboard-Copy-112" stroke="none" stroke-width="1" fill-rule="evenodd">
        <path d="M2.82365009,13.125 L11.97,13.125 C14.0937015,13.125 15.825,11.3263285 15.825,9.096 L15.825,8.325 L17.025,8.325 L17.025,9.096 C17.025,11.9790366 14.7669096,14.325 11.97,14.325 L2.82366646,14.325 L5.11833137,17.1937667 L4.18123328,17.9433314 L3.80645095,17.4747823 L1.1753316,14.1853556 C0.9572228,13.916914 0.9572228,13.533086 1.17245095,13.2682177 L4.18123328,9.50666863 L5.11833137,10.2562333 L4.74354905,10.7247823 L2.82365009,13.125 Z M15.1763499,4.875 L6.03,4.875 C3.90629852,4.875 2.175,6.67367153 2.175,8.904 L2.175,9.675 L0.975,9.675 L0.975,8.904 C0.975,6.02096335 3.23309038,3.675 6.03,3.675 L15.1763335,3.675 L12.8816686,0.806233276 L13.8187667,0.0566686289 L14.193549,0.525217676 L16.8246684,3.81464442 C17.0427772,4.08308602 17.0427772,4.46691398 16.827549,4.73178232 L13.8187667,8.49333137 L12.8816686,7.74376672 L13.256451,7.27521768 L15.1763499,4.875 Z" id="Combined-Shape" fill-rule="nonzero"></path>
    </g>
</svg>