<?xml version="1.0" encoding="UTF-8"?>
<svg width="14px" height="14px" viewBox="0 0 14 14" version="1.1" xmlns="http://www.w3.org/2000/svg" xmlns:xlink="http://www.w3.org/1999/xlink">
    <!-- Generator: Sketch 48.2 (47327) - http://www.bohemiancoding.com/sketch -->
    <title>Combined Shape</title>
    <desc>Created with Sketch.</desc>
    <defs></defs>
    <g id="Artboard-Copy-111" stroke="none" stroke-width="1" fill="none" fill-rule="evenodd">
        <path d="M2.61085063,9.9875 L9.2545,9.9875 C10.7858013,9.9875 12.0375,8.68724621 12.0375,7.0735 L12.0375,6.4875 L13.2375,6.4875 L13.2375,7.0735 C13.2375,9.3399849 11.4589762,11.1875 9.2545,11.1875 L2.61087491,11.1875 L4.25583831,13.2437043 L3.31879574,13.9933383 L2.94397871,13.524817 L0.940266451,11.020129 C0.740911183,10.7657792 0.740911183,10.4092208 0.943978714,10.150183 L3.31879574,7.18166169 L4.25583831,7.93129574 L3.88102129,8.39981703 L2.61085063,9.9875 Z M11.3891494,4.0125 L4.7445,4.0125 C3.21407258,4.0125 1.9625,5.31288825 1.9625,6.9265 L1.9625,7.5125 L0.7625,7.5125 L0.7625,6.9265 C0.7625,4.66020201 2.54084055,2.8125 4.7445,2.8125 L11.3891251,2.8125 L9.74416169,0.756295743 L10.6812043,0.0066616858 L11.0560213,0.475182971 L13.0597335,2.979871 C13.2590888,3.23422083 13.2590888,3.59077917 13.0560213,3.84981703 L10.6812043,6.81833831 L9.74416169,6.06870426 L10.1189787,5.60018297 L11.3891494,4.0125 Z" id="Combined-Shape" fill="#000000" fill-rule="nonzero"></path>
    </g>
</svg>