<?xml version="1.0" encoding="UTF-8"?>
<svg width="14px" height="14px" viewBox="0 0 14 14" version="1.1" xmlns="http://www.w3.org/2000/svg" xmlns:xlink="http://www.w3.org/1999/xlink">
    <!-- Generator: Sketch 48.2 (47327) - http://www.bohemiancoding.com/sketch -->
    <title>Combined Shape</title>
    <desc>Created with Sketch.</desc>
    <defs></defs>
    <g id="Artboard-Copy-114" stroke="none" stroke-width="1" fill="none" fill-rule="evenodd">
        <path d="M4.42188619,3.31250488 L4.42188619,0.645422113 C4.42188619,0.288965323 4.71085152,4.4408921e-16 5.06730831,4.4408921e-16 L8.93289029,4.4408921e-16 C9.28934708,4.4408921e-16 9.5783124,0.288965323 9.5783124,0.645422113 L9.5783124,3.31250488 L12.7978765,3.31250488 C13.1543333,3.31250488 13.4432986,3.6014702 13.4432986,3.95792699 C13.4432986,4.31438378 13.1543333,4.6033491 12.7978765,4.6033491 L11.8972644,4.6033491 L11.8972644,11.7886845 C11.8972644,13.0081892 10.9180521,14 9.70580809,14 L4.29419191,14 C3.08194789,14 2.1027356,13.0081892 2.1027356,11.7886845 L2.1027356,4.6033491 L1.20212351,4.6033491 C0.845666719,4.6033491 0.556701397,4.31438378 0.556701397,3.95792699 C0.556701397,3.6014702 0.845666719,3.31250488 1.20212351,3.31250488 L4.42188619,3.31250488 Z M5.71273042,3.31250488 L8.28746817,3.31250488 L8.28746817,1.29084423 L5.71273042,1.29084423 L5.71273042,3.31250488 Z M3.39357982,4.6033491 L3.39357982,11.7886845 C3.39357982,12.2989434 3.79858148,12.7091558 4.29419191,12.7091558 L9.70580809,12.7091558 C10.2014185,12.7091558 10.6064202,12.2989434 10.6064202,11.7886845 L10.6064202,4.6033491 L3.39357982,4.6033491 Z" id="Combined-Shape" fill="#000000" fill-rule="nonzero"></path>
    </g>
</svg>