<?xml version="1.0" encoding="UTF-8"?>
<svg width="9px" height="16px" viewBox="0 0 9 16" version="1.1" xmlns="http://www.w3.org/2000/svg" xmlns:xlink="http://www.w3.org/1999/xlink">
    <!-- Generator: Sketch 48.2 (47327) - http://www.bohemiancoding.com/sketch -->
    <title>dropdown</title>
    <desc>Created with Sketch.</desc>
    <defs></defs>
    <g id="Page-1" stroke="none" stroke-width="1" fill="none" fill-rule="evenodd">
        <g id="dropdown" fill="#000000" fill-rule="nonzero">
            <path d="M4.44262312,12.6451819 L6.68940199,10.4450575 C7.08400173,10.0586516 7.71713186,10.0652941 8.10353772,10.4598938 C8.48994359,10.8544935 8.48330114,11.4876237 8.0887014,11.8740295 L5.14227283,14.7592754 C4.75351497,15.1399607 4.13173128,15.1399607 3.74297342,14.7592754 L0.796544844,11.8740295 C0.401945106,11.4876237 0.395302659,10.8544935 0.781708523,10.4598938 C1.16811439,10.0652941 1.80124452,10.0586516 2.19584426,10.4450575 L4.44262312,12.6451819 Z" id="Shape"></path>
            <path d="M4.44262312,2.90341329 L2.19584426,5.10353772 C1.80124452,5.48994359 1.16811439,5.48330114 0.781708523,5.0887014 C0.395302659,4.69410166 0.401945106,4.06097153 0.796544844,3.67456567 L3.74297342,0.789319764 C4.13173128,0.40863447 4.75351497,0.40863447 5.14227283,0.789319764 L8.0887014,3.67456567 C8.48330114,4.06097153 8.48994359,4.69410166 8.10353772,5.0887014 C7.71713186,5.48330114 7.08400173,5.48994359 6.68940199,5.10353772 L4.44262312,2.90341329 Z" id="Shape"></path>
        </g>
    </g>
</svg>