<?xml version="1.0" encoding="UTF-8"?>
<svg width="12px" height="14px" viewBox="0 0 12 14" version="1.1" xmlns="http://www.w3.org/2000/svg" xmlns:xlink="http://www.w3.org/1999/xlink">
    <!-- Generator: Sketch 48.2 (47327) - http://www.bohemiancoding.com/sketch -->
    <title>Combined Shape</title>
    <desc>Created with Sketch.</desc>
    <defs></defs>
    <g id="Artboard-Copy-42" stroke="none" stroke-width="1" fill="none" fill-rule="evenodd" transform="translate(-1.000000, 0.000000)">
        <path d="M7.87153112,2.39080003 L7.84279744,10.0121891 L6.44280739,10.0069109 L6.47153946,2.38594906 L4.89801717,3.93335008 L3.91638766,2.93514995 L6.68738766,0.210149948 C6.96126152,-0.059177462 7.40100904,-0.0574972388 7.67281679,0.213915156 L10.4228168,2.95991516 L9.43358805,3.95058487 L7.87153112,2.39080003 Z M11.2765071,9.20417902 L12.6764977,9.20932101 L12.6614977,13.293321 C12.6600815,13.6789141 12.3470981,13.99075 11.9615024,13.99075 L2.02350242,13.99075 C1.63584131,13.99075 1.32200259,13.6756904 1.32350769,13.2880322 L1.33950769,9.16703225 L2.73949714,9.17246778 L2.72622548,12.59075 L11.2640687,12.59075 L11.2765071,9.20417902 Z" id="Combined-Shape" fill="#000000" fill-rule="nonzero"></path>
    </g>
</svg>