<svg width="10px" height="14px" viewBox="0 0 10 14" version="1.1" xmlns="http://www.w3.org/2000/svg" xmlns:xlink="http://www.w3.org/1999/xlink">
    <title>Combined Shape</title>
    <g id="admin_scheduler_main-view" stroke="none" stroke-width="1" fill="none" fill-rule="evenodd" transform="translate(-1369.000000, -448.000000)">
        <g id="Group-3" transform="translate(1358.000000, 442.000000)" fill="#000000" fill-rule="nonzero">
            <g id="button-pause" transform="translate(12.000000, 7.000000)">
                <g id="Group-4">
                    <path d="M0.35,0.65 L0.65,0.65 L0.65,0.3 L0.5,0.15 L0.35,0.3 L0.35,0.65 Z M0.35,11.35 L0.35,11.7 L0.5,11.85 L0.65,11.7 L0.65,11.35 L0.35,11.35 Z M1.65,-0.65 L1.65,12.65 L-0.65,12.65 L-0.65,-0.65 L1.65,-0.65 Z M7.65,0.65 L7.65,0.3 L7.5,0.15 L7.35,0.3 L7.35,0.65 L7.65,0.65 Z M7.35,11.7 L7.5,11.85 L7.65,11.7 L7.65,11.35 L7.35,11.35 L7.35,11.7 Z M8.65,-0.65 L8.65,12.65 L6.35,12.65 L6.35,-0.65 L8.65,-0.65 Z" id="Combined-Shape"></path>
                </g>
            </g>
        </g>
    </g>
</svg>
