<?xml version="1.0" encoding="UTF-8"?>
<svg width="14px" height="14px" viewBox="0 0 14 14" version="1.1" xmlns="http://www.w3.org/2000/svg" xmlns:xlink="http://www.w3.org/1999/xlink">
    <!-- Generator: Sketch 48.2 (47327) - http://www.bohemiancoding.com/sketch -->
    <title>Combined Shape</title>
    <desc>Created with Sketch.</desc>
    <defs></defs>
    <g id="Artboard-Copy-33" stroke="none" stroke-width="1" fill="none" fill-rule="evenodd">
        <path d="M10.8948651,9.90491559 L13.9791747,12.9892253 L12.9892253,13.9791747 L9.90488119,10.8948307 C8.8623841,11.7227937 7.54324055,12.2174 6.1087,12.2174 C2.73510068,12.2174 -0.0003,9.48199932 -0.0003,6.1084 C-0.0003,2.73495136 2.73494993,0.0004 6.1087,0.0004 C9.48245007,0.0004 12.2177,2.73495136 12.2177,6.1084 C12.2177,7.54309394 11.722988,8.8623662 10.8948651,9.90491559 Z M6.1087,10.8174 C8.70910068,10.8174 10.8177,8.70880068 10.8177,6.1084 C10.8177,3.50823007 8.70933146,1.4004 6.1087,1.4004 C3.50806854,1.4004 1.3997,3.50823007 1.3997,6.1084 C1.3997,8.70880068 3.50829932,10.8174 6.1087,10.8174 Z" id="Combined-Shape" fill="#000000" fill-rule="nonzero"></path>
    </g>
</svg>