<?xml version="1.0" encoding="UTF-8"?>
<svg width="10px" height="14px" viewBox="0 0 10 14" version="1.1" xmlns="http://www.w3.org/2000/svg" xmlns:xlink="http://www.w3.org/1999/xlink">
    <!-- Generator: Sketch 48.2 (47327) - http://www.bohemiancoding.com/sketch -->
    <title>Combined Shape</title>
    <desc>Created with Sketch.</desc>
    <defs></defs>
    <g id="Artboard-Copy-12" stroke="none" stroke-width="1" fill="none" fill-rule="evenodd" transform="translate(-2.000000, 0.000000)">
        <path d="M3.51,11.3961905 C3.73431867,11.4509577 3.96877474,11.48 4.21,11.48 C4.45122526,11.48 4.68568133,11.4509577 4.91,11.3961905 L4.91,13.3 C4.91,13.6865993 4.59659932,14 4.21,14 C3.82340068,14 3.51,13.6865993 3.51,13.3 L3.51,11.3961905 Z M3.51,5.75380952 L3.51,0.7 C3.51,0.313400675 3.82340068,-7.77156117e-16 4.21,-7.77156117e-16 C4.59659932,-7.77156117e-16 4.91,0.313400675 4.91,0.7 L4.91,5.75380952 C4.68568133,5.69904232 4.45122526,5.67 4.21,5.67 C3.96877474,5.67 3.73431867,5.69904232 3.51,5.75380952 Z M9.09,8.24619048 C9.31431867,8.30095768 9.54877474,8.33 9.79,8.33 C10.0312253,8.33 10.2656813,8.30095768 10.49,8.24619048 L10.49,13.3 C10.49,13.6865993 10.1765993,14 9.79,14 C9.40340068,14 9.09,13.6865993 9.09,13.3 L9.09,8.24619048 Z M9.09,2.60380952 L9.09,0.7 C9.09,0.313400675 9.40340068,-7.77156117e-16 9.79,-7.77156117e-16 C10.1765993,-7.77156117e-16 10.49,0.313400675 10.49,0.7 L10.49,2.60380952 C10.2656813,2.54904232 10.0312253,2.52 9.79,2.52 C9.54877474,2.52 9.31431867,2.54904232 9.09,2.60380952 Z M9.79,3.92 C10.6329337,3.92 11.314,4.59514403 11.314,5.425 C11.314,6.25485597 10.6329337,6.93 9.79,6.93 C8.94706635,6.93 8.266,6.25485597 8.266,5.425 C8.266,4.59514403 8.94706635,3.92 9.79,3.92 Z M4.21,7.07 C5.05293365,7.07 5.734,7.74514403 5.734,8.575 C5.734,9.40485597 5.05293365,10.08 4.21,10.08 C3.36706635,10.08 2.686,9.40485597 2.686,8.575 C2.686,7.74514403 3.36706635,7.07 4.21,7.07 Z" id="Combined-Shape" fill="#000000" fill-rule="nonzero"></path>
    </g>
</svg>