<?xml version="1.0" encoding="UTF-8"?>
<svg width="13px" height="18px" viewBox="0 0 13 18" version="1.1" xmlns="http://www.w3.org/2000/svg" xmlns:xlink="http://www.w3.org/1999/xlink">
    <!-- Generator: Sketch 48.2 (47327) - http://www.bohemiancoding.com/sketch -->
    <title>Combined Shape</title>
    <desc>Created with Sketch.</desc>
    <defs></defs>
    <g id="Artboard-Copy-13" stroke="none" stroke-width="1" fill="none" fill-rule="evenodd" transform="translate(-3.000000, 0.000000)">
        <path d="M5.0265,14.6432386 C5.29954991,14.7065344 5.58411129,14.74 5.8765,14.74 C6.16888871,14.74 6.45345009,14.7065344 6.7265,14.6432386 L6.7265,17.15 C6.7265,17.619442 6.34594204,18 5.8765,18 C5.40705796,18 5.0265,17.619442 5.0265,17.15 L5.0265,14.6432386 Z M5.0265,7.43176003 L5.0265,0.85 C5.0265,0.380557963 5.40705796,-2.22044605e-15 5.8765,-2.22044605e-15 C6.34594204,-2.22044605e-15 6.7265,0.380557963 6.7265,0.85 L6.7265,7.43176003 C6.4534553,7.36846454 6.16889478,7.335 5.8765,7.335 C5.58410522,7.335 5.2995447,7.36846454 5.0265,7.43176003 Z M12.245,10.56824 C12.5180447,10.6315355 12.8026052,10.665 13.095,10.665 C13.3873948,10.665 13.6719553,10.6315355 13.945,10.56824 L13.945,17.15 C13.945,17.619442 13.564442,18 13.095,18 C12.625558,18 12.245,17.619442 12.245,17.15 L12.245,10.56824 Z M12.245,3.35676136 L12.245,0.85 C12.245,0.380557963 12.625558,-2.22044605e-15 13.095,-2.22044605e-15 C13.564442,-2.22044605e-15 13.945,0.380557963 13.945,0.85 L13.945,3.35676136 C13.6719501,3.29346565 13.3873887,3.26 13.095,3.26 C12.8026113,3.26 12.5180499,3.29346565 12.245,3.35676136 Z M13.095,4.96 C14.2158536,4.96 15.121,5.85775391 15.121,6.962 C15.121,8.067138 14.2159638,8.965 13.095,8.965 C11.9740362,8.965 11.069,8.067138 11.069,6.962 C11.069,5.85775391 11.9741464,4.96 13.095,4.96 Z M5.8765,9.035 C6.9974638,9.035 7.9025,9.932862 7.9025,11.038 C7.9025,12.1422461 6.99735358,13.04 5.8765,13.04 C4.75564642,13.04 3.8505,12.1422461 3.8505,11.038 C3.8505,9.932862 4.7555362,9.035 5.8765,9.035 Z" id="Combined-Shape" fill="#000000" fill-rule="nonzero"></path>
    </g>
</svg>