<?xml version="1.0" encoding="UTF-8" standalone="no"?><!DOCTYPE svg PUBLIC "-//W3C//DTD SVG 1.1//EN" "http://www.w3.org/Graphics/SVG/1.1/DTD/svg11.dtd"><svg width="100%" height="100%" viewBox="0 0 105 30" version="1.1" xmlns="http://www.w3.org/2000/svg" xmlns:xlink="http://www.w3.org/1999/xlink" xml:space="preserve" xmlns:serif="http://www.serif.com/" style="fill-rule:evenodd;clip-rule:evenodd;stroke-linejoin:round;stroke-miterlimit:1.41421;"><g id="idetect-logotype"><path id="Fill-1" d="M0.886,29.299l3.709,0l0,-15.858l-3.709,0l0,15.858Zm1.837,-29.299c1.531,0 2.756,1.225 2.756,2.757c0,1.497 -1.225,2.722 -2.756,2.722c-1.498,0 -2.723,-1.225 -2.723,-2.722c0,-1.532 1.225,-2.757 2.723,-2.757Z" style="fill:#6432ff;"/><path id="Fill-3" d="M21.984,21.37c0,-2.723 -1.838,-5.036 -4.696,-5.036c-2.79,0 -4.628,2.313 -4.628,5.036c0,2.723 1.838,5.036 4.628,5.036c2.858,0 4.696,-2.313 4.696,-5.036Zm0,5.786c-0.987,1.598 -3.063,2.551 -4.9,2.551c-4.833,0 -8.133,-3.845 -8.133,-8.337c0,-4.492 3.3,-8.337 8.133,-8.337c1.837,0 3.913,0.953 4.9,2.552l0,-10.106l3.71,0l0,23.82l-3.71,0l0,-2.143Z" style="fill:#6432ff;"/><path id="Fill-4" d="M33.182,19.736l7.758,0c0,-2.211 -1.599,-3.606 -3.845,-3.606c-2.178,0 -3.913,1.259 -3.913,3.606Zm-0.034,2.757c0.034,2.28 1.156,4.118 4.151,4.118c2.11,0 2.892,-0.953 3.368,-2.077l3.744,0c-0.511,2.722 -3.062,5.174 -7.112,5.174c-5.342,0 -7.929,-4.017 -7.929,-8.338c0,-4.765 2.825,-8.337 7.827,-8.337c4.118,0 7.35,3.097 7.35,7.147c0,0.543 0,1.292 -0.169,2.313l-11.23,0Z" style="fill:#6432ff;"/><path id="Fill-5" d="M57.173,29.299c-0.578,0.102 -1.667,0.204 -2.756,0.204c-1.804,0 -5.139,-0.238 -5.139,-5.581l0,-7.383l-2.688,0l0,-3.098l2.688,0l0,-4.799l3.709,0l0,4.799l3.642,0l0,3.098l-3.642,0l0,6.533c0,2.757 0.851,3.096 2.314,3.096c0.579,0 1.498,-0.068 1.872,-0.136l0,3.267Z" style="fill:#6432ff;"/><path id="Fill-6" d="M62.857,19.736l7.758,0c0,-2.211 -1.599,-3.606 -3.844,-3.606c-2.179,0 -3.914,1.259 -3.914,3.606Zm-0.034,2.757c0.034,2.28 1.157,4.118 4.152,4.118c2.109,0 2.892,-0.953 3.368,-2.077l3.744,0c-0.511,2.722 -3.062,5.174 -7.112,5.174c-5.342,0 -7.929,-4.017 -7.929,-8.338c0,-4.765 2.825,-8.337 7.827,-8.337c4.118,0 7.35,3.097 7.35,7.147c0,0.543 0,1.292 -0.169,2.313l-11.231,0Z" style="fill:#6432ff;"/><path id="Fill-7" d="M88.653,19.226c-0.205,-1.735 -1.225,-2.893 -3.744,-2.893c-2.859,0 -4.253,2.349 -4.253,5.037c0,2.722 1.292,5.037 4.492,5.037c2.178,0 3.061,-0.954 3.539,-2.553l3.709,0c-0.51,3.301 -2.927,5.853 -7.52,5.853c-5.172,0 -7.929,-4.016 -7.929,-8.337c0,-4.287 2.757,-8.337 7.894,-8.337c5.173,0 7.283,3.13 7.521,6.193l-3.709,0Z" style="fill:#6432ff;"/><path id="Fill-8" d="M104.852,29.299c-0.578,0.102 -1.667,0.204 -2.756,0.204c-1.804,0 -5.139,-0.238 -5.139,-5.581l0,-7.383l-2.688,0l0,-3.098l2.688,0l0,-4.799l3.709,0l0,4.799l3.642,0l0,3.098l-3.642,0l0,6.533c0,2.757 0.851,3.096 2.314,3.096c0.579,0 1.498,-0.068 1.872,-0.136l0,3.267Z" style="fill:#6432ff;"/></g></svg>