<?xml version="1.0" encoding="UTF-8"?>
<svg width="14px" height="10px" viewBox="0 0 14 10" version="1.1" xmlns="http://www.w3.org/2000/svg" xmlns:xlink="http://www.w3.org/1999/xlink">
    <!-- Generator: Sketch 48.2 (47327) - http://www.bohemiancoding.com/sketch -->
    <title>Combined Shape</title>
    <desc>Created with Sketch.</desc>
    <defs></defs>
    <g id="Artboard-Copy-24" stroke="none" stroke-width="1" fill="none" fill-rule="evenodd" transform="translate(0.000000, -2.000000)">
        <path d="M4.1362,3.6909 C3.74960068,3.6909 3.4362,3.37749932 3.4362,2.9909 C3.4362,2.60430068 3.74960068,2.2909 4.1362,2.2909 L13.3002,2.2909 C13.6867993,2.2909 14.0002,2.60430068 14.0002,2.9909 C14.0002,3.37749932 13.6867993,3.6909 13.3002,3.6909 L4.1362,3.6909 Z M4.1362,7.7 C3.74960068,7.7 3.4362,7.38659932 3.4362,7 C3.4362,6.61340068 3.74960068,6.3 4.1362,6.3 L13.3002,6.3 C13.6867993,6.3 14.0002,6.61340068 14.0002,7 C14.0002,7.38659932 13.6867993,7.7 13.3002,7.7 L4.1362,7.7 Z M4.1362,11.7091 C3.74960068,11.7091 3.4362,11.3956993 3.4362,11.0091 C3.4362,10.6225007 3.74960068,10.3091 4.1362,10.3091 L13.3002,10.3091 C13.6867993,10.3091 14.0002,10.6225007 14.0002,11.0091 C14.0002,11.3956993 13.6867993,11.7091 13.3002,11.7091 L4.1362,11.7091 Z M0.6998,3.6909 C0.313200675,3.6909 -0.0002,3.37749932 -0.0002,2.9909 C-0.0002,2.60430068 0.313200675,2.2909 0.6998,2.2909 L1.2728,2.2909 C1.65939932,2.2909 1.9728,2.60430068 1.9728,2.9909 C1.9728,3.37749932 1.65939932,3.6909 1.2728,3.6909 L0.6998,3.6909 Z M0.6998,7.7 C0.313200675,7.7 -0.0002,7.38659932 -0.0002,7 C-0.0002,6.61340068 0.313200675,6.3 0.6998,6.3 L1.2728,6.3 C1.65939932,6.3 1.9728,6.61340068 1.9728,7 C1.9728,7.38659932 1.65939932,7.7 1.2728,7.7 L0.6998,7.7 Z M0.6998,11.7091 C0.313200675,11.7091 -0.0002,11.3956993 -0.0002,11.0091 C-0.0002,10.6225007 0.313200675,10.3091 0.6998,10.3091 L1.2728,10.3091 C1.65939932,10.3091 1.9728,10.6225007 1.9728,11.0091 C1.9728,11.3956993 1.65939932,11.7091 1.2728,11.7091 L0.6998,11.7091 Z" id="Combined-Shape" fill="#000000" fill-rule="nonzero"></path>
    </g>
</svg>