<?xml version="1.0" encoding="UTF-8"?>
<svg width="14px" height="14px" viewBox="0 0 14 14" version="1.1" xmlns="http://www.w3.org/2000/svg" xmlns:xlink="http://www.w3.org/1999/xlink">
    <!-- Generator: Sketch 48.2 (47327) - http://www.bohemiancoding.com/sketch -->
    <title>Combined Shape</title>
    <desc>Created with Sketch.</desc>
    <defs></defs>
    <g id="Artboard-Copy-117" stroke="none" stroke-width="1" fill="none" fill-rule="evenodd">
        <path d="M0.662330529,13.3374695 C-0.238334313,12.4368047 -0.214873221,10.9667238 0.698330529,10.05352 C1.61231594,9.13953461 3.08271544,9.11651119 3.98188293,10.0171232 C4.88328885,10.9170846 4.86026543,12.3874841 3.94628002,13.3014695 C3.03307627,14.2146733 1.56299537,14.2381344 0.662330529,13.3374695 Z M2.95633053,12.31152 C3.33026314,11.9375874 3.33940116,11.3539843 2.99193376,11.0070724 C2.64581579,10.6603989 2.06221263,10.6695369 1.68828002,11.0434695 C1.31486382,11.4168857 1.30554534,12.0007853 1.65228002,12.34752 C1.99901471,12.6942547 2.58291433,12.6849362 2.95633053,12.31152 Z M8.76151711,12.9744045 L8.7504074,13.6743163 L7.35058373,13.6520969 L7.36169344,12.9521851 C7.38858433,11.258059 6.75541351,9.6440525 5.55563053,8.44426951 C4.35584754,7.24448653 2.74184101,6.61131571 1.04771499,6.6382066 L0.347803154,6.64931631 L0.325583731,5.24949264 L1.02549556,5.23838293 C3.09321676,5.20556196 5.07379988,5.98253987 6.54558002,7.45432002 C8.01736017,8.92610016 8.79433808,10.9066833 8.76151711,12.9744045 Z M13.9984197,13.0066412 L13.9874733,13.7065556 L12.5876444,13.6846627 L12.5985909,12.9847483 C12.6471542,9.87960627 11.4848704,6.91700934 9.28353053,4.71566951 C7.08329993,2.51543891 4.11978605,1.35304324 1.01545512,1.40160912 L0.315540773,1.41255897 L0.293641074,0.012730261 L0.993555427,0.0017804119 C4.47129201,-0.0526272317 7.80126789,1.25350789 10.27348,3.72572002 C12.7467734,6.1990134 14.0528235,9.52806235 13.9984197,13.0066412 Z" id="Combined-Shape" fill="#000000" fill-rule="nonzero"></path>
    </g>
</svg>