<?xml version="1.0" encoding="UTF-8"?>
<svg width="14px" height="10px" viewBox="0 0 14 10" version="1.1" xmlns="http://www.w3.org/2000/svg" xmlns:xlink="http://www.w3.org/1999/xlink">
    <!-- Generator: Sketch 48.2 (47327) - http://www.bohemiancoding.com/sketch -->
    <title>Combined Shape</title>
    <desc>Created with Sketch.</desc>
    <defs></defs>
    <g id="Artboard-Copy-84" stroke="none" stroke-width="1" fill="none" fill-rule="evenodd" transform="translate(0.000000, -2.000000)">
        <path d="M8.68,10.15 C8.73453853,10.15 8.82,10.0520285 8.82,9.887 L8.82,4.112 C8.82,3.94791014 8.73453071,3.85 8.68,3.85 L1.54,3.85 C1.48546929,3.85 1.4,3.94791014 1.4,4.112 L1.4,9.887 C1.4,10.0520285 1.48546147,10.15 1.54,10.15 L8.68,10.15 Z M10.22,4.79897169 L12.9840455,3.40086191 C13.4496589,3.16534529 14,3.50371085 14,4.0255 L14,9.9755 C14,10.4973537 13.4495353,10.8357153 12.9839139,10.6000715 L10.22,9.2012971 L10.22,9.887 C10.22,10.785932 9.5534959,11.55 8.68,11.55 L1.54,11.55 C0.666504096,11.55 -7.77156117e-16,10.785932 -7.77156117e-16,9.887 L-7.77156117e-16,4.112 C-7.77156117e-16,3.21382013 0.666766171,2.45 1.54,2.45 L8.68,2.45 C9.55323383,2.45 10.22,3.21382013 10.22,4.112 L10.22,4.79897169 Z M10.22,6.36788016 L10.22,7.63222142 L12.6,8.8367029 L12.6,5.16402831 L10.22,6.36788016 Z" id="Combined-Shape" fill="#000000" fill-rule="nonzero"></path>
    </g>
</svg>