<?xml version="1.0" encoding="UTF-8"?>
<svg id="idetect-monogram" width="18px" height="22px" viewBox="0 0 18 22" version="1.1" xmlns="http://www.w3.org/2000/svg" xmlns:xlink="http://www.w3.org/1999/xlink">
    <!-- Generator: Sketch 46.2 (44496) - http://www.bohemiancoding.com/sketch -->
    <title>idetect monogram</title>
    <desc>Created with Sketch.</desc>
    <defs></defs>
    <g id="Symbols" stroke="none" stroke-width="1" fill="none" fill-rule="evenodd">
        <g id="idetect-monogram">
            <path d="M0.646150103,21 L3.35433646,21 L3.35433646,9.63377687 L0.646150103,9.63377687 L0.646150103,21 Z M1.98759275,0 C3.1057049,0 4,0.878403275 4,1.97604913 C4,3.04885705 3.1057049,3.92726032 1.98759275,3.92726032 C0.894295098,3.92726032 0,3.04885705 0,1.97604913 C0,0.878403275 0.894295098,0 1.98759275,0 L1.98759275,0 Z" id="i" fill="#4F40F4"></path>
            <path d="M15.3414003,15.8059246 C15.3414003,13.7834805 14.0240417,12.0645268 11.975401,12.0645268 C9.97548064,12.0645268 8.65812204,13.7834805 8.65812204,15.8059246 C8.65812204,17.8283687 9.97548064,19.5473224 11.975401,19.5473224 C14.0240417,19.5473224 15.3414003,17.8283687 15.3414003,15.8059246 L15.3414003,15.8059246 Z M15.3414003,20.1038039 C14.6340007,21.2920208 13.1461211,22 11.8292401,22 C8.36580026,22 6,19.1428336 6,15.8059246 C6,12.4690156 8.36580026,9.61283934 11.8292401,9.61283934 C13.1461211,9.61283934 14.6340007,10.3198284 15.3414003,11.5085403 L15.3414003,4 L18,4 L18,21.6965096 L15.3414003,21.6965096 L15.3414003,20.1038039 Z" id="d" fill="#4848F1"></path>
        </g>
    </g>
</svg>